<?xml version="1.0" encoding="UTF-8"?>
<svg width="957px" height="200px" viewBox="0 0 957 200" version="1.1" xmlns="http://www.w3.org/2000/svg" xmlns:xlink="http://www.w3.org/1999/xlink">
    <!-- Generator: Sketch 46.2 (44496) - http://www.bohemiancoding.com/sketch -->
    <title>Artboard</title>
    <desc>Created with Sketch.</desc>
    <defs></defs>
    <g id="Page-1" stroke="none" stroke-width="1" fill="none" fill-rule="evenodd">
        <g id="Artboard">
            <g id="svg_sigma">
                <circle id="Oval" fill="#8E1729" cx="100" cy="100" r="100"></circle>
                <polygon id="M" fill="#EFF6FF" points="120.6 89 120.6 132 140.8 132 140.8 59.9 119.5 59.9 100.6 84.3 81.6 59.9 60.3 59.9 60.3 132 80.5 132 80.5 89.2 98.5 110.9 102.1 110.9"></polygon>
                <path d="M302.6,89 L302.6,132 L322.8,132 L322.8,59.9 L301.5,59.9 L282.6,84.3 L263.6,59.9 L242.3,59.9 L242.3,132 L262.5,132 L262.5,89.2 L280.5,110.9 L284.1,110.9 L302.6,89 Z M372.2,81.1 L390,81.1 L390,132 L372.5,132 L371.6,126.5 C367.2,131.5 360.6,133.2 354.9,133.2 C340.3,133.2 331.6,121.3 331.6,106.6 C331.6,91.5 340.3,79.9 356.3,79.9 C363.6,79.9 368.5,82.5 371.2,86.6 L372.2,81.1 Z M360.6,95.3 C354.9,95.3 350.4,99.5 350.4,106.6 C350.4,113.7 354.9,117.7 360.6,117.7 C367,117.7 371.1,112.6 371.1,106.6 C371.1,99.7 367.3,95.3 360.6,95.3 Z M419.8,59.8 L401.1,59.8 L401.1,132 L419.8,132 L419.8,59.8 Z M454.3,66.7 L435.5,68.8 L435.5,81.4 L427.4,81.4 L427.4,96 L435.5,96 L435.5,112.6 C435.5,129.1 444.1,133.2 454.3,133.2 C459.6,133.2 464.5,132.3 469,129.8 L464.8,115.8 C463.3,117 461.2,117.6 459.3,117.6 C456.4,117.6 454.2,116.1 454.2,112.6 L454.2,96 L465.8,96 L465.8,81.4 L454.3,81.4 L454.3,66.7 Z M516.4,81.1 L474.2,81.1 L474.2,96.2 L492.4,96.2 L472.3,126.1 L472.3,132 L517.7,132 L517.7,115.7 L497.4,115.7 L516.4,87.5 L516.4,81.1 Z M609.3,132 L609.3,114.8 L571.7,114.8 L571.7,103.9 L605.8,103.9 L605.8,87.3 L571.7,87.3 L571.7,77 L607.9,77 L607.9,60 L551.6,60 L551.6,132 L609.3,132 Z M653,132 L671.9,132 L671.9,103.4 C671.9,85.3 662.8,79.9 652,79.9 C646.7,79.9 640.4,81.6 636,86.7 L635.2,81.1 L618.4,81.1 L618.4,132 L637.1,132 L637.1,105.2 C637.1,98.5 641.3,95.4 645.9,95.4 C649.4,95.4 653,97.6 653,103.9 L653,132 Z M698.2,135.6 C697.9,143.4 702.8,145.1 707.8,145.1 C712.7,145.1 717.2,142.9 717.2,138 C717.2,134.3 714.9,131.2 708,131.2 C690.9,131.2 679.7,121.3 679.7,105.5 C679.7,89.9 692.2,79.9 708,79.9 C711.4,79.9 714.9,80.5 718.5,81.8 L724,74.8 L737.7,84.6 L731.1,92.4 C734.8,96.6 736,101 736,105.7 C736,112.2 732.5,118.8 726.6,122.6 C735.9,128.1 736.6,135.6 736.6,138.5 C736.6,154.4 723.3,161.2 707.8,161.2 C689.7,161.2 679.3,151.3 680.4,135.6 L698.2,135.6 Z M708,95.5 C702.3,95.5 698.1,99.8 698.1,105.5 C698.1,111.2 702.3,115.4 708,115.4 C713.5,115.4 717.6,111.2 717.6,105.5 C717.6,99.8 713.5,95.5 708,95.5 Z M764.5,59.8 L745.8,59.8 L745.8,132 L764.5,132 L764.5,59.8 Z M774.5,67.3 C774.5,73.5 779.9,76.8 785.2,76.8 C790.5,76.8 795.8,73.5 795.8,67.3 C795.8,61.1 790.5,57.8 785.2,57.8 C779.9,57.8 774.5,61.1 774.5,67.3 Z M775.7,132 L794.7,132 L794.7,81.1 L775.7,81.1 L775.7,132 Z M808.4,112.8 L802.3,126.5 C808.1,130.8 818,133.2 826.9,133.2 C839.2,133.2 850.6,128.7 850.6,116 C850.6,102.6 837.8,99.6 827.2,99.2 C824,99.1 823.4,97.7 823.4,96.8 C823.4,95.1 825.1,94.3 827.9,94.3 C832.1,94.3 838.1,95.6 841,97.4 L848.1,85.4 C843.2,81.7 836.1,79.9 827.9,79.9 C816,79.9 804.4,84.3 804.4,96.6 C804.4,108.9 816.4,112.9 826.3,113.3 C829.9,113.4 831.6,114.5 831.6,116 C831.6,117.7 829.9,118.5 826.5,118.5 C822.3,118.5 816.3,117.9 808.4,112.8 Z M877.6,60 L858.5,60 L858.5,132 L877.5,132 L877.5,105.1 C877.6,99 881.7,96.4 885.4,96.4 C889.3,96.4 892.3,98.1 892.3,103.9 L892.3,132 L911.2,132 L911.2,102.8 C911.2,85 901.6,80 891.9,80 C886,80 881.2,82.1 877.6,86.6 L877.6,60 Z" id="Maltz-English" fill="#234C87"></path>
            </g>
        </g>
    </g>
</svg>