<?xml version="1.0" encoding="UTF-8"?>
<svg width="489.83" height="360" version="1.1" viewBox="0 0 129.6 95.25" xmlns="http://www.w3.org/2000/svg">
 <path d="m-3.887e-6 0.0832h129.6v95.08h-129.6z" fill="#fff" stroke-width=".7481"/>
 <path d="m10.59 8.709h30.23c1.382 0 2.495 1.112 2.495 2.495v11.72c0 1.382-1.112 2.495-2.495 2.495h-30.23c-1.382 0-2.495-1.112-2.495-2.495v-11.72c0-1.382 1.112-2.495 2.495-2.495z" fill="#7d93b2"/>
 <path d="m49.43 8.709h30.23c1.382 0 2.495 1.112 2.495 2.495v11.72c0 1.382-1.112 2.495-2.495 2.495h-30.23c-1.382 0-2.495-1.112-2.495-2.495v-11.72c0-1.382 1.112-2.495 2.495-2.495z" fill="#7d93b2"/>
 <path d="m88.28 8.709h30.23c1.382 0 2.495 1.112 2.495 2.495v11.72c0 1.382-1.112 2.495-2.495 2.495h-30.23c-1.382 0-2.495-1.112-2.495-2.495v-11.72c0-1.382 1.112-2.495 2.495-2.495z" fill="#7d93b2"/>
 <g fill="#38e0c4">
  <path d="m16.79 31.94a2.275 2.275 0 0 0-2.275 2.275 2.275 2.275 0 0 0 2.275 2.276 2.275 2.275 0 0 0 2.275-2.276 2.275 2.275 0 0 0-2.275-2.275zm1.233 1.234a0.1979 0.1979 0 0 1 0.1527 0.336l-1.601 1.685a0.1979 0.1979 0 0 1-0.2896-0.0031l-0.885-0.9688a0.19813 0.19813 0 1 1 0.2927-0.2671l0.7415 0.8124 1.454-1.531a0.1979 0.1979 0 0 1 0.1345-0.06342z" fill-rule="evenodd" stroke-width=".1781"/>
  <g stroke="#ceddf2" stroke-linecap="round" stroke-linejoin="round" stroke-width=".3959">
   <path d="m8.932 42.52h111.4"/>
   <path d="m8.932 60.04h111.4"/>
   <path d="m8.932 77.59h111.4"/>
  </g>
  <path d="m91.34 49a2.275 2.275 0 0 0-2.275 2.275 2.275 2.275 0 0 0 2.275 2.276 2.275 2.275 0 0 0 2.275-2.276 2.275 2.275 0 0 0-2.275-2.275zm1.233 1.234a0.1979 0.1979 0 0 1 0.1527 0.336l-1.601 1.685a0.1979 0.1979 0 0 1-0.2896-0.0031l-0.885-0.9688a0.19813 0.19813 0 1 1 0.2927-0.2671l0.7415 0.8124 1.454-1.531a0.1979 0.1979 0 0 1 0.1345-0.06342z" fill-rule="evenodd" stroke-width=".1781"/>
  <path d="m49.75 66.53a2.275 2.275 0 0 0-2.275 2.275 2.275 2.275 0 0 0 2.275 2.276 2.275 2.275 0 0 0 2.275-2.276 2.275 2.275 0 0 0-2.275-2.275zm1.233 1.234a0.1979 0.1979 0 0 1 0.1527 0.336l-1.601 1.685a0.1979 0.1979 0 0 1-0.2896-0.0031l-0.885-0.9688a0.19813 0.19813 0 1 1 0.2927-0.2671l0.7415 0.8124 1.454-1.531a0.1979 0.1979 0 0 1 0.1345-0.06342z" fill-rule="evenodd" stroke-width=".1781"/>
 </g>
 <g fill="#7d93b2" stroke-width=".7481">
  <path d="m21.01 32.67h0.3645v1.139l1.209-1.139h0.4691l-1.337 1.255 1.433 1.438h-0.4799l-1.293-1.297v1.297h-0.3645z" style="font-feature-settings:normal;font-variant-caps:normal;font-variant-ligatures:normal;font-variant-numeric:normal"/>
  <path d="m24.97 34.27v0.1623h-1.526q0.02166 0.3428 0.2057 0.5232 0.1858 0.1786 0.516 0.1786 0.1912 0 0.3699-0.04691 0.1804-0.04691 0.3572-0.1407v0.3139q-0.1786 0.07578-0.3663 0.1155-0.1876 0.03969-0.3806 0.03969-0.4835 0-0.7668-0.2814-0.2814-0.2814-0.2814-0.7616 0-0.4961 0.267-0.7863 0.2688-0.2923 0.7235-0.2923 0.4077 0 0.644 0.2634 0.2381 0.2616 0.2381 0.7126zm-0.3319-0.0974q-0.0036-0.2724-0.1534-0.4348-0.1479-0.1623-0.3933-0.1623-0.2778 0-0.4456 0.157-0.166 0.157-0.1912 0.442z" style="font-feature-settings:normal;font-variant-caps:normal;font-variant-ligatures:normal;font-variant-numeric:normal"/>
  <path d="m25.28 33.34h0.3518l0.6314 1.696 0.6314-1.696h0.3518l-0.7578 2.021h-0.451z" style="font-feature-settings:normal;font-variant-caps:normal;font-variant-ligatures:normal;font-variant-numeric:normal"/>
  <path d="m27.71 33.34h0.3319v2.021h-0.3319zm0-0.7863h0.3319v0.4204h-0.3319z" style="font-feature-settings:normal;font-variant-caps:normal;font-variant-ligatures:normal;font-variant-numeric:normal"/>
  <path d="m30.41 34.14v1.219h-0.3319v-1.209q0-0.2868-0.1118-0.4294-0.1118-0.1425-0.3355-0.1425-0.2688 0-0.4239 0.1714-0.1552 0.1714-0.1552 0.4673v1.142h-0.3337v-2.021h0.3337v0.3139q0.119-0.1822 0.2796-0.2724 0.1623-0.09022 0.3735-0.09022 0.3482 0 0.5268 0.2165 0.1786 0.2147 0.1786 0.6333z" style="font-feature-settings:normal;font-variant-caps:normal;font-variant-ligatures:normal;font-variant-numeric:normal"/>
 </g>
 <g fill="#ceddf2" stroke-width=".7481">
  <path d="m57.48 32.67h0.543l0.6874 1.833 0.6909-1.833h0.543v2.693h-0.3554v-2.365l-0.6945 1.847h-0.3662l-0.6946-1.847v2.365h-0.3536z" style="font-feature-settings:normal;font-variant-caps:normal;font-variant-ligatures:normal;font-variant-numeric:normal"/>
  <path d="m61.45 33.58q-0.267 0-0.4222 0.2092-0.1552 0.2074-0.1552 0.5701 0 0.3626 0.1534 0.5719 0.1552 0.2074 0.4239 0.2074 0.2652 0 0.4204-0.2092t0.1552-0.5701q0-0.359-0.1552-0.5683-0.1552-0.2111-0.4204-0.2111zm0-0.2814q0.433 0 0.6802 0.2814t0.2472 0.7795q0 0.4961-0.2472 0.7795-0.2472 0.2814-0.6802 0.2814-0.4348 0-0.682-0.2814-0.2454-0.2832-0.2454-0.7795 0-0.4979 0.2454-0.7795 0.2472-0.2814 0.682-0.2814z" style="font-feature-settings:normal;font-variant-caps:normal;font-variant-ligatures:normal;font-variant-numeric:normal"/>
  <path d="m64.6 34.14v1.219h-0.3319v-1.209q0-0.2868-0.1118-0.4294-0.1118-0.1425-0.3355-0.1425-0.2688 0-0.4239 0.1714-0.1552 0.1714-0.1552 0.4673v1.142h-0.3337v-2.021h0.3337v0.3139q0.1191-0.1822 0.2796-0.2724 0.1623-0.09022 0.3735-0.09022 0.3482 0 0.5268 0.2165 0.1786 0.2147 0.1786 0.6333z" style="font-feature-settings:normal;font-variant-caps:normal;font-variant-ligatures:normal;font-variant-numeric:normal"/>
  <path d="m66.6 33.65v-1.093h0.3319v2.807h-0.3319v-0.3031q-0.1047 0.1804-0.2652 0.2688-0.1587 0.08663-0.3825 0.08663-0.3663 0-0.5971-0.2923-0.2291-0.2923-0.2291-0.7683 0-0.4763 0.2291-0.7683 0.2309-0.2923 0.5971-0.2923 0.2237 0 0.3825 0.08843 0.1605 0.08663 0.2652 0.267zm-1.131 0.7054q0 0.3663 0.1498 0.5755 0.1516 0.2074 0.4149 0.2074 0.2634 0 0.415-0.2074 0.1516-0.2092 0.1516-0.5755t-0.1516-0.5737q-0.1516-0.2092-0.415-0.2092t-0.4149 0.2092q-0.1498 0.2074-0.1498 0.5737z" style="font-feature-settings:normal;font-variant-caps:normal;font-variant-ligatures:normal;font-variant-numeric:normal"/>
  <path d="m68.53 34.35q-0.4023 0-0.5575 0.09202t-0.1552 0.3139q0 0.1769 0.1154 0.2814 0.1173 0.1029 0.3175 0.1029 0.276 0 0.442-0.1948 0.1678-0.1967 0.1678-0.5214v-0.07397zm0.6621-0.1371v1.153h-0.3319v-0.3067q-0.1136 0.184-0.2832 0.2724-0.1696 0.08663-0.4149 0.08663-0.3103 0-0.4943-0.1732-0.1822-0.175-0.1822-0.4673 0-0.341 0.2273-0.5142 0.2291-0.1732 0.682-0.1732h0.4655v-0.03246q0-0.2291-0.1516-0.3536-0.1498-0.1263-0.4222-0.1263-0.1732 0-0.3374 0.04149-0.1641 0.0415-0.3157 0.1245v-0.3066q0.1822-0.07037 0.3536-0.1047 0.1714-0.03608 0.3337-0.03608 0.4384 0 0.6549 0.2273t0.2165 0.6892z" style="font-feature-settings:normal;font-variant-caps:normal;font-variant-ligatures:normal;font-variant-numeric:normal"/>
  <path d="m70.72 35.55q-0.1407 0.3608-0.2743 0.4709-0.1335 0.11-0.3572 0.11h-0.2652v-0.2778h0.1949q0.1371 0 0.2129-0.06494 0.07578-0.06494 0.1678-0.3067l0.05954-0.1516-0.8169-1.988h0.3518l0.6314 1.581 0.6314-1.581h0.3518z" style="font-feature-settings:normal;font-variant-caps:normal;font-variant-ligatures:normal;font-variant-numeric:normal"/>
  <path d="m96.95 33.87q-0.2454 0-0.3897 0.1678-0.1425 0.1678-0.1425 0.4601 0 0.2904 0.1425 0.46 0.1443 0.1678 0.3897 0.1678t0.3879-0.1678q0.1443-0.1696 0.1443-0.46 0-0.2923-0.1443-0.4601-0.1425-0.1678-0.3879-0.1678zm0.7234-1.142v0.3319q-0.1371-0.06494-0.2778-0.0992-0.1389-0.03426-0.276-0.03426-0.3608 0-0.552 0.2435-0.1894 0.2436-0.2165 0.7361 0.1065-0.157 0.267-0.24 0.1605-0.08476 0.3536-0.08476 0.4059 0 0.6404 0.2472 0.2363 0.2454 0.2363 0.6693 0 0.4149-0.2454 0.6657t-0.6531 0.2508q-0.4673 0-0.7144-0.3572-0.2472-0.359-0.2472-1.039 0-0.6387 0.3031-1.017 0.3031-0.3806 0.8139-0.3806 0.1371 0 0.276 0.02706 0.1407 0.02706 0.2923 0.08117z" style="font-feature-settings:normal;font-variant-caps:normal;font-variant-ligatures:normal;font-variant-numeric:normal"/>
  <path d="m98.52 34.91h0.3806v0.4583h-0.3806zm0-1.452h0.3806v0.4582h-0.3806z" style="font-feature-settings:normal;font-variant-caps:normal;font-variant-ligatures:normal;font-variant-numeric:normal"/>
  <path d="m100.5 32.91q-0.2814 0-0.424 0.2778-0.1407 0.276-0.1407 0.8319 0 0.5539 0.1407 0.8319 0.1425 0.276 0.424 0.276 0.2832 0 0.424-0.276 0.1425-0.2778 0.1425-0.8319 0-0.5557-0.1425-0.8319-0.1407-0.2778-0.424-0.2778zm0-0.2886q0.4528 0 0.6909 0.359 0.2399 0.3572 0.2399 1.039 0 0.6802-0.2399 1.039-0.2381 0.3572-0.6909 0.3572t-0.6927-0.3572q-0.2381-0.359-0.2381-1.039 0-0.682 0.2381-1.039 0.24-0.359 0.6927-0.359z" style="font-feature-settings:normal;font-variant-caps:normal;font-variant-ligatures:normal;font-variant-numeric:normal"/>
  <path d="m102.9 32.91q-0.2814 0-0.424 0.2778-0.1407 0.276-0.1407 0.8319 0 0.5539 0.1407 0.8319 0.1425 0.276 0.424 0.276 0.2832 0 0.424-0.276 0.1425-0.2778 0.1425-0.8319 0-0.5557-0.1425-0.8319-0.1407-0.2778-0.424-0.2778zm0-0.2886q0.4528 0 0.691 0.359 0.24 0.3572 0.24 1.039 0 0.6802-0.24 1.039-0.2381 0.3572-0.691 0.3572-0.4528 0-0.6927-0.3572-0.2381-0.359-0.2381-1.039 0-0.682 0.2381-1.039 0.24-0.359 0.6927-0.359z" style="font-feature-settings:normal;font-variant-caps:normal;font-variant-ligatures:normal;font-variant-numeric:normal"/>
  <path d="m105.9 35.06v1.071h-0.3337v-2.789h0.3337v0.3067q0.1047-0.1804 0.2634-0.267 0.1605-0.08843 0.3824-0.08843 0.3681 0 0.5971 0.2923 0.2309 0.2923 0.2309 0.7683 0 0.4762-0.2309 0.7683-0.2291 0.2923-0.5971 0.2923-0.2219 0-0.3824-0.08663-0.1588-0.08843-0.2634-0.2688zm1.13-0.7054q0-0.3663-0.1516-0.5737-0.1498-0.2092-0.4132-0.2092t-0.4149 0.2092q-0.1498 0.2074-0.1498 0.5737t0.1498 0.5755q0.1516 0.2074 0.4149 0.2074 0.2634 0 0.4132-0.2074 0.1516-0.2092 0.1516-0.5755z" style="font-feature-settings:normal;font-variant-caps:normal;font-variant-ligatures:normal;font-variant-numeric:normal"/>
  <path d="m109.4 33.73q0.1245-0.2238 0.2977-0.3301 0.1732-0.1065 0.4077-0.1065 0.3157 0 0.4871 0.2219 0.1714 0.2201 0.1714 0.6278v1.219h-0.3337v-1.209q0-0.2905-0.1028-0.4312-0.1029-0.1407-0.3139-0.1407-0.258 0-0.4077 0.1714-0.1498 0.1714-0.1498 0.4673v1.142h-0.3337v-1.209q0-0.2923-0.1028-0.4312-0.1029-0.1407-0.3175-0.1407-0.2544 0-0.4041 0.1732-0.1498 0.1714-0.1498 0.4655v1.142h-0.3337v-2.021h0.3337v0.3139q0.1137-0.1858 0.2725-0.2743 0.1588-0.08843 0.377-0.08843 0.2201 0 0.3734 0.1118 0.1552 0.1118 0.2292 0.3248z" style="font-feature-settings:normal;font-variant-caps:normal;font-variant-ligatures:normal;font-variant-numeric:normal"/>
 </g>
 <g fill="#7d93b2" stroke-width=".7481">
  <path d="m95.98 49.57h1.732v0.1552l-0.9778 2.538h-0.3806l0.9202-2.387h-1.293z" style="font-feature-settings:normal;font-variant-caps:normal;font-variant-ligatures:normal;font-variant-numeric:normal"/>
  <path d="m98.52 51.81h0.3806v0.4582h-0.3806zm0-1.452h0.3806v0.4582h-0.3806z" style="font-feature-settings:normal;font-variant-caps:normal;font-variant-ligatures:normal;font-variant-numeric:normal"/>
  <path d="m100.5 49.81q-0.2814 0-0.424 0.2778-0.1407 0.276-0.1407 0.8319 0 0.5539 0.1407 0.8319 0.1425 0.276 0.424 0.276 0.2832 0 0.424-0.276 0.1425-0.2778 0.1425-0.8319 0-0.5557-0.1425-0.8319-0.1407-0.2778-0.424-0.2778zm0-0.2886q0.4528 0 0.6909 0.359 0.2399 0.3572 0.2399 1.039 0 0.6802-0.2399 1.039-0.2381 0.3572-0.6909 0.3572t-0.6927-0.3572q-0.2381-0.359-0.2381-1.039 0-0.682 0.2381-1.039 0.24-0.359 0.6927-0.359z" style="font-feature-settings:normal;font-variant-caps:normal;font-variant-ligatures:normal;font-variant-numeric:normal"/>
  <path d="m102.9 49.81q-0.2814 0-0.424 0.2778-0.1407 0.276-0.1407 0.8319 0 0.5539 0.1407 0.8319 0.1425 0.276 0.424 0.276 0.2832 0 0.424-0.276 0.1425-0.2778 0.1425-0.8319 0-0.5557-0.1425-0.8319-0.1407-0.2778-0.424-0.2778zm0-0.2886q0.4528 0 0.691 0.359 0.24 0.3572 0.24 1.039 0 0.6802-0.24 1.039-0.2381 0.3572-0.691 0.3572-0.4528 0-0.6927-0.3572-0.2381-0.359-0.2381-1.039 0-0.682 0.2381-1.039 0.24-0.359 0.6927-0.359z" style="font-feature-settings:normal;font-variant-caps:normal;font-variant-ligatures:normal;font-variant-numeric:normal"/>
  <path d="m105.9 51.96v1.071h-0.3337v-2.789h0.3337v0.3067q0.1047-0.1804 0.2634-0.267 0.1605-0.08843 0.3824-0.08843 0.3681 0 0.5971 0.2923 0.2309 0.2923 0.2309 0.7683 0 0.4763-0.2309 0.7683-0.2291 0.2923-0.5971 0.2923-0.2219 0-0.3824-0.08663-0.1588-0.08843-0.2634-0.2688zm1.13-0.7054q0-0.3663-0.1516-0.5737-0.1498-0.2092-0.4132-0.2092t-0.4149 0.2092q-0.1498 0.2074-0.1498 0.5737t0.1498 0.5755q0.1516 0.2074 0.4149 0.2074 0.2634 0 0.4132-0.2074 0.1516-0.2092 0.1516-0.5755z" style="font-feature-settings:normal;font-variant-caps:normal;font-variant-ligatures:normal;font-variant-numeric:normal"/>
  <path d="m109.4 50.63q0.1245-0.2237 0.2977-0.3301 0.1732-0.1065 0.4077-0.1065 0.3157 0 0.4871 0.2219 0.1714 0.2201 0.1714 0.6278v1.219h-0.3337v-1.209q0-0.2905-0.1028-0.4312-0.1029-0.1407-0.3139-0.1407-0.258 0-0.4077 0.1714-0.1498 0.1714-0.1498 0.4673v1.142h-0.3337v-1.209q0-0.2923-0.1028-0.4312-0.1029-0.1407-0.3175-0.1407-0.2544 0-0.4041 0.1732-0.1498 0.1714-0.1498 0.4655v1.142h-0.3337v-2.021h0.3337v0.3139q0.1137-0.1858 0.2725-0.2743 0.1588-0.08843 0.377-0.08843 0.2201 0 0.3734 0.1118 0.1552 0.1118 0.2292 0.3248z" style="font-feature-settings:normal;font-variant-caps:normal;font-variant-ligatures:normal;font-variant-numeric:normal"/>
 </g>
 <g fill="#ceddf2" stroke-width=".7481">
  <path d="m19.6 50.26v1.012h0.4582q0.2544 0 0.3933-0.1317t0.1389-0.3752q0-0.2417-0.1389-0.3735-0.1389-0.1317-0.3933-0.1317zm-0.3645-0.2995h0.8229q0.4528 0 0.6838 0.2057 0.2327 0.2039 0.2327 0.5989 0 0.3987-0.2327 0.6026-0.2309 0.2039-0.6838 0.2039h-0.4582v1.083h-0.3645z" style="font-feature-settings:normal;font-variant-caps:normal;font-variant-ligatures:normal;font-variant-numeric:normal"/>
  <path d="m22.2 51.63q-0.4023 0-0.5575 0.09202t-0.1552 0.3139q0 0.1768 0.1155 0.2814 0.1172 0.1029 0.3175 0.1029 0.276 0 0.442-0.1949 0.1678-0.1967 0.1678-0.5214v-0.07397zm0.6621-0.1371v1.153h-0.3319v-0.3067q-0.1136 0.184-0.2832 0.2724-0.1696 0.08663-0.415 0.08663-0.3103 0-0.4943-0.1732-0.1822-0.175-0.1822-0.4673 0-0.341 0.2273-0.5142 0.2291-0.1732 0.682-0.1732h0.4655v-0.03248q0-0.2291-0.1516-0.3536-0.1498-0.1263-0.4222-0.1263-0.1732 0-0.3374 0.0415-0.1641 0.04149-0.3157 0.1245v-0.3067q0.1822-0.07037 0.3536-0.1047 0.1714-0.03608 0.3337-0.03608 0.4384 0 0.6549 0.2273t0.2165 0.6892z" style="font-feature-settings:normal;font-variant-caps:normal;font-variant-ligatures:normal;font-variant-numeric:normal"/>
  <path d="m23.88 50.06v0.5737h0.6838v0.2579h-0.6838v1.097q0 0.2472 0.06675 0.3175 0.06856 0.07034 0.276 0.07034h0.341v0.2778h-0.341q-0.3843 0-0.5304-0.1425-0.1461-0.1443-0.1461-0.5231v-1.097h-0.2436v-0.2579h0.2436v-0.5737z" style="font-feature-settings:normal;font-variant-caps:normal;font-variant-ligatures:normal;font-variant-numeric:normal"/>
  <path d="m26.18 50.95q-0.05594-0.03248-0.1227-0.04691-0.06494-0.01623-0.1443-0.01623-0.2814 0-0.433 0.184-0.1498 0.1822-0.1498 0.525v1.065h-0.3337v-2.021h0.3337v0.3139q0.1047-0.184 0.2724-0.2724 0.1678-0.09022 0.4077-0.09022 0.03428 0 0.07578 0.0053 0.04151 0.0036 0.09202 0.01267z" style="font-feature-settings:normal;font-variant-caps:normal;font-variant-ligatures:normal;font-variant-numeric:normal"/>
  <path d="m26.53 50.63h0.3319v2.021h-0.3319zm0-0.7863h0.3319v0.4204h-0.3319z" style="font-feature-settings:normal;font-variant-caps:normal;font-variant-ligatures:normal;font-variant-numeric:normal"/>
  <path d="m29 50.71v0.3103q-0.1407-0.07758-0.2832-0.1154-0.1407-0.03971-0.285-0.03971-0.323 0-0.5015 0.2057-0.1786 0.2039-0.1786 0.5737t0.1786 0.5755q0.1786 0.2039 0.5015 0.2039 0.1443 0 0.285-0.03789 0.1425-0.03969 0.2832-0.1172v0.3067q-0.1389 0.06494-0.2887 0.0974-0.148 0.03246-0.3157 0.03246-0.4564 0-0.7253-0.2868-0.2688-0.2868-0.2688-0.7743 0-0.4943 0.2706-0.7773 0.2724-0.2832 0.7451-0.2832 0.1534 0 0.2995 0.03246 0.1461 0.03068 0.2832 0.09381z" style="font-feature-settings:normal;font-variant-caps:normal;font-variant-ligatures:normal;font-variant-numeric:normal"/>
  <path d="m29.59 50.63h0.3319v2.021h-0.3319zm0-0.7863h0.3319v0.4204h-0.3319z" style="font-feature-settings:normal;font-variant-caps:normal;font-variant-ligatures:normal;font-variant-numeric:normal"/>
  <path d="m31.52 51.63q-0.4023 0-0.5575 0.09202t-0.1552 0.3139q0 0.1768 0.1154 0.2814 0.1173 0.1029 0.3175 0.1029 0.276 0 0.442-0.1949 0.1678-0.1967 0.1678-0.5214v-0.07397zm0.6621-0.1371v1.153h-0.3319v-0.3067q-0.1136 0.184-0.2832 0.2724-0.1696 0.08663-0.415 0.08663-0.3103 0-0.4943-0.1732-0.1822-0.175-0.1822-0.4673 0-0.341 0.2273-0.5142 0.2291-0.1732 0.682-0.1732h0.4655v-0.03248q0-0.2291-0.1516-0.3536-0.1498-0.1263-0.4222-0.1263-0.1732 0-0.3374 0.0415-0.1642 0.04149-0.3157 0.1245v-0.3067q0.1822-0.07037 0.3536-0.1047 0.1714-0.03608 0.3337-0.03608 0.4384 0 0.6549 0.2273t0.2165 0.6892z" style="font-feature-settings:normal;font-variant-caps:normal;font-variant-ligatures:normal;font-variant-numeric:normal"/>
  <path d="m57.08 49.6h2.279v0.3066h-0.9561v2.387h-0.3663v-2.387h-0.9561z" style="font-feature-settings:normal;font-variant-caps:normal;font-variant-ligatures:normal;font-variant-numeric:normal"/>
  <path d="m59.1 51.5v-1.223h0.3319v1.21q0 0.2868 0.1118 0.4312 0.1118 0.1425 0.3355 0.1425 0.2688 0 0.4239-0.1714 0.157-0.1714 0.157-0.4673v-1.145h0.3319v2.021h-0.3319v-0.3103q-0.1209 0.184-0.2814 0.2743-0.1587 0.08843-0.3698 0.08843-0.3482 0-0.5286-0.2165t-0.1804-0.6333z" style="font-feature-settings:normal;font-variant-caps:normal;font-variant-ligatures:normal;font-variant-numeric:normal"/>
  <path d="m63.21 51.2v0.1623h-1.526q0.02166 0.3428 0.2057 0.5231 0.1858 0.1786 0.516 0.1786 0.1912 0 0.3699-0.04691 0.1804-0.04691 0.3572-0.1407v0.3139q-0.1786 0.07578-0.3663 0.1154-0.1876 0.03971-0.3806 0.03971-0.4835 0-0.7668-0.2814-0.2814-0.2814-0.2814-0.7616 0-0.4961 0.267-0.7863 0.2688-0.2923 0.7234-0.2923 0.4077 0 0.644 0.2634 0.2381 0.2616 0.2381 0.7126zm-0.3319-0.0974q-0.0036-0.2724-0.1534-0.4348-0.148-0.1623-0.3933-0.1623-0.2778 0-0.4456 0.157-0.166 0.157-0.1912 0.442z" style="font-feature-settings:normal;font-variant-caps:normal;font-variant-ligatures:normal;font-variant-numeric:normal"/>
  <path d="m65.04 50.33v0.3139q-0.1407-0.07217-0.2923-0.1083-0.1516-0.03607-0.3139-0.03607-0.2472 0-0.3717 0.07578-0.1227 0.07578-0.1227 0.2273 0 0.1154 0.08842 0.1822 0.08843 0.06494 0.3554 0.1245l0.1137 0.02526q0.3536 0.07578 0.5015 0.2147 0.1498 0.1371 0.1498 0.3843 0 0.2814-0.2237 0.4456-0.2219 0.1642-0.6116 0.1642-0.1623 0-0.3392-0.03248-0.175-0.03068-0.3699-0.09381v-0.3428q0.184 0.09561 0.3626 0.1443 0.1786 0.04691 0.3536 0.04691 0.2345 0 0.3608-0.07937 0.1263-0.08117 0.1263-0.2273 0-0.1353-0.09202-0.2074-0.09022-0.07217-0.3987-0.1389l-0.1154-0.02706q-0.3085-0.06494-0.4456-0.1985-0.1371-0.1353-0.1371-0.3699 0-0.285 0.2021-0.4402t0.5737-0.1552q0.184 0 0.3464 0.02706 0.1623 0.02706 0.2995 0.08117z" style="font-feature-settings:normal;font-variant-caps:normal;font-variant-ligatures:normal;font-variant-numeric:normal"/>
  <path d="m67.01 50.58v-1.093h0.3319v2.807h-0.3319v-0.3031q-0.1047 0.1804-0.2652 0.2688-0.1587 0.08663-0.3825 0.08663-0.3662 0-0.5971-0.2923-0.2291-0.2923-0.2291-0.7683 0-0.4763 0.2291-0.7683 0.2309-0.2923 0.5971-0.2923 0.2237 0 0.3825 0.08843 0.1605 0.08663 0.2652 0.267zm-1.131 0.7054q0 0.3662 0.1498 0.5755 0.1516 0.2074 0.415 0.2074t0.4149-0.2074q0.1516-0.2092 0.1516-0.5755t-0.1516-0.5737q-0.1516-0.2092-0.4149-0.2092-0.2634 0-0.415 0.2092-0.1498 0.2074-0.1498 0.5737z" style="font-feature-settings:normal;font-variant-caps:normal;font-variant-ligatures:normal;font-variant-numeric:normal"/>
  <path d="m68.94 51.28q-0.4023 0-0.5575 0.09202t-0.1552 0.3139q0 0.1768 0.1155 0.2814 0.1172 0.1029 0.3175 0.1029 0.276 0 0.442-0.1949 0.1678-0.1967 0.1678-0.5214v-0.07397zm0.6621-0.1371v1.153h-0.3319v-0.3066q-0.1137 0.184-0.2832 0.2724-0.1696 0.08663-0.415 0.08663-0.3103 0-0.4943-0.1732-0.1822-0.175-0.1822-0.4673 0-0.341 0.2273-0.5142 0.2291-0.1732 0.682-0.1732h0.4655v-0.03246q0-0.2291-0.1516-0.3536-0.1498-0.1263-0.4222-0.1263-0.1732 0-0.3374 0.04149-0.1641 0.04151-0.3157 0.1245v-0.3067q0.1822-0.07034 0.3536-0.1047 0.1714-0.03608 0.3337-0.03608 0.4384 0 0.6549 0.2273t0.2165 0.6892z" style="font-feature-settings:normal;font-variant-caps:normal;font-variant-ligatures:normal;font-variant-numeric:normal"/>
  <path d="m71.13 52.48q-0.1407 0.3608-0.2743 0.4709-0.1335 0.11-0.3572 0.11h-0.2652v-0.2778h0.1949q0.1371 0 0.2129-0.06494 0.07578-0.06496 0.1678-0.3067l0.05954-0.1516-0.8169-1.988h0.3518l0.6314 1.581 0.6314-1.581h0.3518z" style="font-feature-settings:normal;font-variant-caps:normal;font-variant-ligatures:normal;font-variant-numeric:normal"/>
  <path d="m96.88 68.51q-0.2598 0-0.4095 0.1389-0.148 0.1389-0.148 0.3825 0 0.2435 0.148 0.3825 0.1498 0.1389 0.4095 0.1389 0.2598 0 0.4095-0.1389 0.1498-0.1407 0.1498-0.3825 0-0.2436-0.1498-0.3825-0.148-0.1389-0.4095-0.1389zm-0.3645-0.1552q-0.2345-0.05774-0.3662-0.2183-0.1299-0.1605-0.1299-0.3915 0-0.323 0.2291-0.5106 0.2309-0.1876 0.6314-0.1876 0.4023 0 0.6314 0.1876t0.2291 0.5106q0 0.2309-0.1317 0.3915-0.1299 0.1605-0.3626 0.2183 0.2634 0.06134 0.4095 0.2399 0.148 0.1786 0.148 0.4366 0 0.3915-0.24 0.6007-0.2381 0.2092-0.6838 0.2092-0.4456 0-0.6856-0.2092-0.2382-0.2092-0.2382-0.6007 0-0.258 0.148-0.4366t0.4113-0.2399zm-0.1335-0.5755q0 0.2092 0.1299 0.3265 0.1317 0.1172 0.3681 0.1172 0.2345 0 0.3663-0.1172 0.1335-0.1173 0.1335-0.3265t-0.1335-0.3265q-0.1317-0.1172-0.3663-0.1172-0.2363 0-0.3681 0.1172-0.1299 0.1173-0.1299 0.3265z" style="font-feature-settings:normal;font-variant-caps:normal;font-variant-ligatures:normal;font-variant-numeric:normal"/>
  <path d="m98.52 69.33h0.3806v0.4582h-0.3806zm0-1.452h0.3806v0.4582h-0.3806z" style="font-feature-settings:normal;font-variant-caps:normal;font-variant-ligatures:normal;font-variant-numeric:normal"/>
  <path d="m100.5 67.34q-0.2814 0-0.424 0.2778-0.1407 0.276-0.1407 0.8319 0 0.5539 0.1407 0.8319 0.1425 0.276 0.424 0.276 0.2832 0 0.424-0.276 0.1425-0.2778 0.1425-0.8319 0-0.5557-0.1425-0.8319-0.1407-0.2778-0.424-0.2778zm0-0.2887q0.4528 0 0.691 0.359 0.2399 0.3572 0.2399 1.039 0 0.6802-0.2399 1.039-0.2381 0.3572-0.691 0.3572t-0.6927-0.3572q-0.2381-0.359-0.2381-1.039 0-0.682 0.2381-1.039 0.2399-0.359 0.6927-0.359z" style="font-feature-settings:normal;font-variant-caps:normal;font-variant-ligatures:normal;font-variant-numeric:normal"/>
  <path d="m102.9 67.34q-0.2814 0-0.424 0.2778-0.1407 0.276-0.1407 0.8319 0 0.5539 0.1407 0.8319 0.1425 0.276 0.424 0.276 0.2832 0 0.424-0.276 0.1425-0.2778 0.1425-0.8319 0-0.5557-0.1425-0.8319-0.1407-0.2778-0.424-0.2778zm0-0.2887q0.4528 0 0.691 0.359 0.2399 0.3572 0.2399 1.039 0 0.6802-0.2399 1.039-0.2381 0.3572-0.691 0.3572-0.4528 0-0.6927-0.3572-0.2381-0.359-0.2381-1.039 0-0.682 0.2381-1.039 0.24-0.359 0.6927-0.359z" style="font-feature-settings:normal;font-variant-caps:normal;font-variant-ligatures:normal;font-variant-numeric:normal"/>
  <path d="m105.9 69.48v1.071h-0.3337v-2.789h0.3337v0.3066q0.1047-0.1804 0.2634-0.267 0.1605-0.08843 0.3825-0.08843 0.3681 0 0.5971 0.2923 0.2309 0.2923 0.2309 0.7683 0 0.4763-0.2309 0.7683-0.2292 0.2923-0.5971 0.2923-0.2219 0-0.3825-0.08663-0.1588-0.08843-0.2634-0.2688zm1.13-0.7054q0-0.3662-0.1516-0.5737-0.1498-0.2092-0.4132-0.2092t-0.4149 0.2092q-0.1498 0.2074-0.1498 0.5737t0.1498 0.5755q0.1516 0.2074 0.4149 0.2074 0.2634 0 0.4132-0.2074 0.1516-0.2092 0.1516-0.5755z" style="font-feature-settings:normal;font-variant-caps:normal;font-variant-ligatures:normal;font-variant-numeric:normal"/>
  <path d="m109.4 68.16q0.1245-0.2237 0.2977-0.3301 0.1732-0.1065 0.4077-0.1065 0.3157 0 0.4871 0.2219 0.1714 0.2201 0.1714 0.6278v1.219h-0.3337v-1.209q0-0.2904-0.1029-0.4312-0.1028-0.1407-0.3139-0.1407-0.258 0-0.4077 0.1714-0.1498 0.1714-0.1498 0.4673v1.142h-0.3337v-1.209q0-0.2923-0.1028-0.4312-0.1029-0.1407-0.3175-0.1407-0.2544 0-0.4041 0.1732-0.1498 0.1714-0.1498 0.4655v1.142h-0.3337v-2.021h0.3337v0.3139q0.1136-0.1858 0.2724-0.2743 0.1588-0.08843 0.377-0.08843 0.2201 0 0.3734 0.1118 0.1552 0.1118 0.2291 0.3248z" style="font-feature-settings:normal;font-variant-caps:normal;font-variant-ligatures:normal;font-variant-numeric:normal"/>
  <path d="m21.39 67.08h0.3644v2.506q0 0.4871-0.1858 0.7072-0.184 0.2201-0.5935 0.2201h-0.1389v-0.3067h0.1136q0.2418 0 0.341-0.1353t0.0992-0.4853z" style="font-feature-settings:normal;font-variant-caps:normal;font-variant-ligatures:normal;font-variant-numeric:normal"/>
  <path d="m23.38 68.77q-0.4023 0-0.5575 0.09202t-0.1552 0.3139q0 0.1768 0.1155 0.2814 0.1172 0.1029 0.3175 0.1029 0.276 0 0.442-0.1949 0.1678-0.1967 0.1678-0.5214v-0.07397zm0.6621-0.1371v1.153h-0.3319v-0.3067q-0.1136 0.184-0.2832 0.2724-0.1696 0.08663-0.415 0.08663-0.3103 0-0.4943-0.1732-0.1822-0.175-0.1822-0.4673 0-0.341 0.2273-0.5142 0.2291-0.1732 0.682-0.1732h0.4655v-0.03248q0-0.2291-0.1516-0.3536-0.1498-0.1263-0.4222-0.1263-0.1732 0-0.3374 0.04149t-0.3157 0.1245v-0.3067q0.1822-0.07034 0.3536-0.1047 0.1714-0.03608 0.3337-0.03608 0.4384 0 0.6549 0.2273t0.2165 0.6892z" style="font-feature-settings:normal;font-variant-caps:normal;font-variant-ligatures:normal;font-variant-numeric:normal"/>
  <path d="m26.02 67.82v0.3139q-0.1407-0.07217-0.2923-0.1083-0.1516-0.03608-0.3139-0.03608-0.2472 0-0.3717 0.07578-0.1227 0.07578-0.1227 0.2273 0 0.1154 0.08843 0.1822 0.08843 0.06494 0.3554 0.1245l0.1136 0.02525q0.3536 0.07578 0.5015 0.2147 0.1498 0.1371 0.1498 0.3843 0 0.2814-0.2237 0.4456-0.2219 0.1641-0.6116 0.1641-0.1623 0-0.3392-0.03246-0.175-0.03068-0.3699-0.09381v-0.3428q0.184 0.09561 0.3626 0.1443 0.1786 0.04691 0.3536 0.04691 0.2345 0 0.3608-0.07937 0.1263-0.08117 0.1263-0.2273 0-0.1353-0.09202-0.2074-0.09022-0.07215-0.3987-0.1389l-0.1154-0.02707q-0.3085-0.06494-0.4456-0.1985-0.1371-0.1353-0.1371-0.3699 0-0.285 0.2021-0.4402t0.5737-0.1552q0.184 0 0.3464 0.02706 0.1623 0.02706 0.2995 0.08117z" style="font-feature-settings:normal;font-variant-caps:normal;font-variant-ligatures:normal;font-variant-numeric:normal"/>
  <path d="m27.44 68q-0.267 0-0.4222 0.2092-0.1552 0.2074-0.1552 0.5701 0 0.3626 0.1534 0.5719 0.1552 0.2074 0.4239 0.2074 0.2652 0 0.4204-0.2092t0.1552-0.5701q0-0.359-0.1552-0.5683-0.1552-0.2111-0.4204-0.2111zm0-0.2814q0.433 0 0.6802 0.2814t0.2472 0.7795q0 0.4961-0.2472 0.7795-0.2472 0.2814-0.6802 0.2814-0.4348 0-0.682-0.2814-0.2454-0.2832-0.2454-0.7795 0-0.4979 0.2454-0.7795 0.2472-0.2814 0.682-0.2814z" style="font-feature-settings:normal;font-variant-caps:normal;font-variant-ligatures:normal;font-variant-numeric:normal"/>
  <path d="m30.59 68.56v1.219h-0.3319v-1.209q0-0.2868-0.1118-0.4293t-0.3355-0.1425q-0.2688 0-0.4239 0.1714-0.1552 0.1714-0.1552 0.4673v1.142h-0.3337v-2.021h0.3337v0.3139q0.1191-0.1822 0.2796-0.2724 0.1623-0.09022 0.3735-0.09022 0.3482 0 0.5268 0.2165 0.1786 0.2147 0.1786 0.6333z" style="font-feature-settings:normal;font-variant-caps:normal;font-variant-ligatures:normal;font-variant-numeric:normal"/>
 </g>
 <g fill="#7d93b2" stroke-width=".7481">
  <path d="m53.97 67.13h0.368l0.5665 2.276 0.5647-2.276h0.4095l0.5665 2.276 0.5647-2.276h0.3699l-0.6765 2.693h-0.4582l-0.5683-2.338-0.5737 2.338h-0.4582z" style="font-feature-settings:normal;font-variant-caps:normal;font-variant-ligatures:normal;font-variant-numeric:normal"/>
  <path d="m59.35 68.73v0.1623h-1.526q0.02166 0.3428 0.2057 0.5232 0.1858 0.1786 0.516 0.1786 0.1912 0 0.3699-0.04691 0.1804-0.04691 0.3572-0.1407v0.3139q-0.1786 0.07578-0.3663 0.1155-0.1876 0.03969-0.3806 0.03969-0.4835 0-0.7668-0.2814-0.2814-0.2814-0.2814-0.7616 0-0.4961 0.267-0.7863 0.2688-0.2923 0.7235-0.2923 0.4077 0 0.644 0.2634 0.2381 0.2616 0.2381 0.7126zm-0.3319-0.0974q-0.0036-0.2724-0.1534-0.4348-0.1479-0.1623-0.3933-0.1623-0.2778 0-0.4456 0.157-0.166 0.157-0.1912 0.442z" style="font-feature-settings:normal;font-variant-caps:normal;font-variant-ligatures:normal;font-variant-numeric:normal"/>
  <path d="m61.22 68.11v-1.093h0.3319v2.807h-0.3319v-0.3031q-0.1047 0.1804-0.2652 0.2688-0.1587 0.08663-0.3825 0.08663-0.3662 0-0.5971-0.2923-0.2291-0.2923-0.2291-0.7683 0-0.4763 0.2291-0.7683 0.2309-0.2923 0.5971-0.2923 0.2237 0 0.3825 0.08843 0.1605 0.08663 0.2652 0.267zm-1.131 0.7054q0 0.3663 0.1498 0.5755 0.1516 0.2074 0.415 0.2074t0.4149-0.2074q0.1516-0.2092 0.1516-0.5755t-0.1516-0.5737q-0.1516-0.2092-0.4149-0.2092t-0.415 0.2092q-0.1498 0.2074-0.1498 0.5737z" style="font-feature-settings:normal;font-variant-caps:normal;font-variant-ligatures:normal;font-variant-numeric:normal"/>
  <path d="m63.93 68.6v1.219h-0.3319v-1.209q0-0.2868-0.1118-0.4294-0.1118-0.1425-0.3355-0.1425-0.2688 0-0.4239 0.1714-0.1552 0.1714-0.1552 0.4673v1.142h-0.3337v-2.021h0.3337v0.3139q0.119-0.1822 0.2796-0.2724 0.1623-0.09022 0.3735-0.09022 0.3482 0 0.5268 0.2165 0.1786 0.2147 0.1786 0.6333z" style="font-feature-settings:normal;font-variant-caps:normal;font-variant-ligatures:normal;font-variant-numeric:normal"/>
  <path d="m66.32 68.73v0.1623h-1.526q0.02163 0.3428 0.2057 0.5232 0.1858 0.1786 0.516 0.1786 0.1912 0 0.3699-0.04691 0.1804-0.04691 0.3572-0.1407v0.3139q-0.1786 0.07578-0.3663 0.1155-0.1876 0.03969-0.3806 0.03969-0.4835 0-0.7668-0.2814-0.2814-0.2814-0.2814-0.7616 0-0.4961 0.267-0.7863 0.2688-0.2923 0.7235-0.2923 0.4077 0 0.644 0.2634 0.2381 0.2616 0.2381 0.7126zm-0.3319-0.0974q-0.0036-0.2724-0.1534-0.4348-0.148-0.1623-0.3933-0.1623-0.2778 0-0.4456 0.157-0.166 0.157-0.1912 0.442z" style="font-feature-settings:normal;font-variant-caps:normal;font-variant-ligatures:normal;font-variant-numeric:normal"/>
  <path d="m68.15 67.86v0.3139q-0.1407-0.07215-0.2923-0.1082-0.1516-0.03608-0.3139-0.03608-0.2472 0-0.3717 0.07578-0.1227 0.07578-0.1227 0.2273 0 0.1155 0.08843 0.1822 0.08843 0.06494 0.3554 0.1245l0.1136 0.02526q0.3536 0.07578 0.5015 0.2147 0.1498 0.1371 0.1498 0.3843 0 0.2814-0.2237 0.4456-0.2219 0.1642-0.6116 0.1642-0.1623 0-0.3392-0.03248-0.175-0.03066-0.3699-0.09381v-0.3428q0.184 0.09561 0.3626 0.1443 0.1786 0.04691 0.3536 0.04691 0.2345 0 0.3608-0.07937 0.1263-0.08117 0.1263-0.2273 0-0.1353-0.09202-0.2074-0.09022-0.07217-0.3987-0.1389l-0.1155-0.02706q-0.3085-0.06494-0.4456-0.1985-0.1371-0.1353-0.1371-0.3699 0-0.285 0.2021-0.4402t0.5737-0.1552q0.184 0 0.3464 0.02706 0.1623 0.02707 0.2995 0.08117z" style="font-feature-settings:normal;font-variant-caps:normal;font-variant-ligatures:normal;font-variant-numeric:normal"/>
  <path d="m70.12 68.11v-1.093h0.3319v2.807h-0.3319v-0.3031q-0.1047 0.1804-0.2652 0.2688-0.1587 0.08663-0.3825 0.08663-0.3663 0-0.5971-0.2923-0.2291-0.2923-0.2291-0.7683 0-0.4763 0.2291-0.7683 0.2309-0.2923 0.5971-0.2923 0.2237 0 0.3825 0.08843 0.1605 0.08663 0.2652 0.267zm-1.131 0.7054q0 0.3663 0.1498 0.5755 0.1516 0.2074 0.4149 0.2074 0.2634 0 0.415-0.2074 0.1516-0.2092 0.1516-0.5755t-0.1516-0.5737q-0.1516-0.2092-0.415-0.2092t-0.4149 0.2092q-0.1498 0.2074-0.1498 0.5737z" style="font-feature-settings:normal;font-variant-caps:normal;font-variant-ligatures:normal;font-variant-numeric:normal"/>
  <path d="m72.05 68.8q-0.4023 0-0.5575 0.09202t-0.1552 0.3139q0 0.1769 0.1154 0.2814 0.1173 0.1029 0.3175 0.1029 0.276 0 0.442-0.1948 0.1678-0.1967 0.1678-0.5214v-0.07396zm0.6621-0.1371v1.153h-0.3319v-0.3067q-0.1136 0.184-0.2832 0.2724-0.1696 0.08663-0.4149 0.08663-0.3103 0-0.4943-0.1732-0.1822-0.175-0.1822-0.4673 0-0.341 0.2273-0.5142 0.2291-0.1732 0.682-0.1732h0.4655v-0.03246q0-0.2291-0.1516-0.3536-0.1498-0.1263-0.4222-0.1263-0.1732 0-0.3374 0.04149-0.1642 0.04151-0.3157 0.1245v-0.3066q0.1822-0.07037 0.3536-0.1047 0.1714-0.03608 0.3337-0.03608 0.4384 0 0.6549 0.2273t0.2165 0.6892z" style="font-feature-settings:normal;font-variant-caps:normal;font-variant-ligatures:normal;font-variant-numeric:normal"/>
  <path d="m74.24 70.01q-0.1407 0.3608-0.2743 0.4709-0.1335 0.11-0.3572 0.11h-0.2652v-0.2778h0.1949q0.1371 0 0.2129-0.06494 0.07578-0.06494 0.1678-0.3067l0.05952-0.1516-0.8169-1.988h0.3518l0.6314 1.581 0.6314-1.581h0.3518z" style="font-feature-settings:normal;font-variant-caps:normal;font-variant-ligatures:normal;font-variant-numeric:normal"/>
 </g>
 <g fill="#ceddf2" stroke-width=".7481">
  <path d="m96.13 86.56v-0.3319q0.1371 0.06494 0.2778 0.0992t0.276 0.03426q0.3608 0 0.5502-0.2418 0.1912-0.2436 0.2183-0.7379-0.1047 0.1552-0.2652 0.2382-0.1605 0.08297-0.3554 0.08297-0.4041 0-0.6404-0.2435-0.2345-0.2454-0.2345-0.6693 0-0.415 0.2454-0.6657 0.2454-0.2508 0.6531-0.2508 0.4673 0 0.7126 0.359 0.2472 0.3572 0.2472 1.039 0 0.6369-0.3031 1.017-0.3013 0.3788-0.8117 0.3788-0.1371 0-0.2778-0.02708t-0.2923-0.08117zm0.7253-1.142q0.2454 0 0.3879-0.1678 0.1443-0.1678 0.1443-0.46 0-0.2905-0.1443-0.4582-0.1425-0.1696-0.3879-0.1696t-0.3897 0.1696q-0.1425 0.1678-0.1425 0.4582 0 0.2923 0.1425 0.46 0.1443 0.1678 0.3897 0.1678z" style="font-feature-settings:normal;font-variant-caps:normal;font-variant-ligatures:normal;font-variant-numeric:normal"/>
  <path d="m98.52 86.19h0.3806v0.4582h-0.3806zm0-1.452h0.3806v0.4582h-0.3806z" style="font-feature-settings:normal;font-variant-caps:normal;font-variant-ligatures:normal;font-variant-numeric:normal"/>
  <path d="m100.5 84.17q-0.2814 0-0.424 0.2778-0.1407 0.276-0.1407 0.8319 0 0.5538 0.1407 0.8319 0.1425 0.276 0.424 0.276 0.2832 0 0.424-0.276 0.1425-0.2778 0.1425-0.8319 0-0.5557-0.1425-0.8319-0.1407-0.2778-0.424-0.2778zm0-0.2886q0.4528 0 0.6909 0.359 0.2399 0.3572 0.2399 1.039 0 0.6802-0.2399 1.039-0.2381 0.3572-0.6909 0.3572t-0.6927-0.3572q-0.2381-0.359-0.2381-1.039 0-0.682 0.2381-1.039 0.24-0.359 0.6927-0.359z" style="font-feature-settings:normal;font-variant-caps:normal;font-variant-ligatures:normal;font-variant-numeric:normal"/>
  <path d="m102.9 84.17q-0.2814 0-0.424 0.2778-0.1407 0.276-0.1407 0.8319 0 0.5538 0.1407 0.8319 0.1425 0.276 0.424 0.276 0.2832 0 0.424-0.276 0.1425-0.2778 0.1425-0.8319 0-0.5557-0.1425-0.8319-0.1407-0.2778-0.424-0.2778zm0-0.2886q0.4528 0 0.691 0.359 0.24 0.3572 0.24 1.039 0 0.6802-0.24 1.039-0.2381 0.3572-0.691 0.3572-0.4528 0-0.6927-0.3572-0.2381-0.359-0.2381-1.039 0-0.682 0.2381-1.039 0.24-0.359 0.6927-0.359z" style="font-feature-settings:normal;font-variant-caps:normal;font-variant-ligatures:normal;font-variant-numeric:normal"/>
  <path d="m105.9 86.34v1.071h-0.3337v-2.789h0.3337v0.3067q0.1047-0.1804 0.2634-0.267 0.1605-0.08843 0.3824-0.08843 0.3681 0 0.5971 0.2923 0.2309 0.2923 0.2309 0.7683 0 0.4762-0.2309 0.7683-0.2291 0.2923-0.5971 0.2923-0.2219 0-0.3824-0.08663-0.1588-0.08843-0.2634-0.2688zm1.13-0.7054q0-0.3663-0.1516-0.5737-0.1498-0.2092-0.4132-0.2092t-0.4149 0.2092q-0.1498 0.2074-0.1498 0.5737 0 0.3662 0.1498 0.5755 0.1516 0.2074 0.4149 0.2074 0.2634 0 0.4132-0.2074 0.1516-0.2092 0.1516-0.5755z" style="font-feature-settings:normal;font-variant-caps:normal;font-variant-ligatures:normal;font-variant-numeric:normal"/>
  <path d="m109.4 84.99q0.1245-0.2237 0.2977-0.3301 0.1732-0.1065 0.4077-0.1065 0.3157 0 0.4871 0.2219 0.1714 0.2201 0.1714 0.6278v1.219h-0.3337v-1.209q0-0.2905-0.1028-0.4312-0.1029-0.1407-0.3139-0.1407-0.258 0-0.4077 0.1714-0.1498 0.1714-0.1498 0.4673v1.142h-0.3337v-1.209q0-0.2923-0.1028-0.4312-0.1029-0.1407-0.3175-0.1407-0.2544 0-0.4041 0.1732-0.1498 0.1714-0.1498 0.4655v1.142h-0.3337v-2.021h0.3337v0.3139q0.1137-0.1858 0.2725-0.2743 0.1588-0.08843 0.377-0.08843 0.2201 0 0.3734 0.1118 0.1552 0.1118 0.2292 0.3248z" style="font-feature-settings:normal;font-variant-caps:normal;font-variant-ligatures:normal;font-variant-numeric:normal"/>
  <path d="m18.88 84.32h1.703v0.3067h-1.338v0.7975h1.283v0.3067h-1.283v0.9763h1.371v0.3067h-1.736z" style="font-feature-settings:normal;font-variant-caps:normal;font-variant-ligatures:normal;font-variant-numeric:normal"/>
  <path d="m21.21 84.24h0.3319v2.807h-0.3319z" style="font-feature-settings:normal;font-variant-caps:normal;font-variant-ligatures:normal;font-variant-numeric:normal"/>
  <path d="m23.96 85.97v0.1623h-1.526q0.02166 0.3428 0.2057 0.5232 0.1858 0.1786 0.516 0.1786 0.1912 0 0.3699-0.0469 0.1804-0.04691 0.3572-0.1407v0.3139q-0.1786 0.07578-0.3662 0.1154-0.1876 0.03965-0.3806 0.03965-0.4835 0-0.7668-0.2814-0.2814-0.2814-0.2814-0.7616 0-0.4961 0.267-0.7863 0.2688-0.2923 0.7234-0.2923 0.4077 0 0.644 0.2634 0.2381 0.2616 0.2381 0.7126zm-0.3319-0.0974q-0.0036-0.2724-0.1534-0.4348-0.148-0.1624-0.3933-0.1624-0.2778 0-0.4456 0.157-0.166 0.157-0.1912 0.442z" style="font-feature-settings:normal;font-variant-caps:normal;font-variant-ligatures:normal;font-variant-numeric:normal"/>
  <path d="m25.42 86.04q-0.4023 0-0.5575 0.09202t-0.1552 0.3139q0 0.1768 0.1154 0.2814 0.1173 0.1029 0.3175 0.1029 0.276 0 0.442-0.1948 0.1678-0.1967 0.1678-0.5214v-0.07399zm0.6621-0.1371v1.153h-0.3319v-0.3067q-0.1136 0.184-0.2832 0.2724-0.1696 0.08663-0.4149 0.08663-0.3103 0-0.4943-0.1732-0.1822-0.175-0.1822-0.4673 0-0.341 0.2273-0.5142 0.2291-0.1732 0.682-0.1732h0.4655v-0.03247q0-0.2291-0.1516-0.3536-0.1498-0.1263-0.4222-0.1263-0.1732 0-0.3374 0.04152t-0.3157 0.1245v-0.3067q0.1822-0.07039 0.3536-0.1047 0.1714-0.03606 0.3337-0.03606 0.4384 0 0.6549 0.2273t0.2165 0.6892z" style="font-feature-settings:normal;font-variant-caps:normal;font-variant-ligatures:normal;font-variant-numeric:normal"/>
  <path d="m28.45 85.82v1.219h-0.3319v-1.209q0-0.2868-0.1118-0.4294-0.1118-0.1425-0.3356-0.1425-0.2688 0-0.4239 0.1714t-0.1552 0.4673v1.142h-0.3337v-2.021h0.3337v0.3139q0.119-0.1822 0.2796-0.2725 0.1623-0.09022 0.3735-0.09022 0.3482 0 0.5268 0.2165 0.1786 0.2147 0.1786 0.6332z" style="font-feature-settings:normal;font-variant-caps:normal;font-variant-ligatures:normal;font-variant-numeric:normal"/>
  <path d="m29.9 85.22q-0.267 0-0.4222 0.2092-0.1552 0.2074-0.1552 0.5701t0.1534 0.5719q0.1552 0.2074 0.4239 0.2074 0.2652 0 0.4204-0.2092t0.1552-0.5701q0-0.359-0.1552-0.5683-0.1552-0.2111-0.4204-0.2111zm0-0.2814q0.433 0 0.6802 0.2814t0.2472 0.7795q0 0.4961-0.2472 0.7795-0.2472 0.2814-0.6802 0.2814-0.4348 0-0.682-0.2814-0.2454-0.2832-0.2454-0.7795 0-0.4979 0.2454-0.7795 0.2472-0.2814 0.682-0.2814z" style="font-feature-settings:normal;font-variant-caps:normal;font-variant-ligatures:normal;font-variant-numeric:normal"/>
  <path d="m32.54 85.37q-0.05591-0.03247-0.1227-0.04691-0.06494-0.01623-0.1443-0.01623-0.2814 0-0.433 0.184-0.1498 0.1822-0.1498 0.525v1.065h-0.3337v-2.021h0.3337v0.3139q0.1047-0.184 0.2724-0.2725 0.1678-0.09022 0.4077-0.09022 0.03426 0 0.07578 0.0052 0.04149 0.0037 0.09202 0.01265z" style="font-feature-settings:normal;font-variant-caps:normal;font-variant-ligatures:normal;font-variant-numeric:normal"/>
  <path d="m56 84.02h2.279v0.3067h-0.9561v2.387h-0.3662v-2.387h-0.9561z" style="font-feature-settings:normal;font-variant-caps:normal;font-variant-ligatures:normal;font-variant-numeric:normal"/>
  <path d="m60.3 85.44v1.219h-0.3319v-1.209q0-0.2868-0.1118-0.4294-0.1118-0.1425-0.3355-0.1425-0.2688 0-0.4239 0.1714-0.1552 0.1714-0.1552 0.4673v1.142h-0.3337v-2.807h0.3337v1.1q0.1191-0.1822 0.2796-0.2724 0.1623-0.09022 0.3735-0.09022 0.3482 0 0.5268 0.2165 0.1786 0.2147 0.1786 0.6333z" style="font-feature-settings:normal;font-variant-caps:normal;font-variant-ligatures:normal;font-variant-numeric:normal"/>
  <path d="m60.93 85.89v-1.223h0.3319v1.21q0 0.2869 0.1118 0.4312 0.1118 0.1425 0.3355 0.1425 0.2688 0 0.4239-0.1714 0.157-0.1714 0.157-0.4673v-1.145h0.3319v2.021h-0.3319v-0.3103q-0.1209 0.184-0.2814 0.2743-0.1587 0.08843-0.3699 0.08843-0.3482 0-0.5286-0.2165t-0.1804-0.6333z" style="font-feature-settings:normal;font-variant-caps:normal;font-variant-ligatures:normal;font-variant-numeric:normal"/>
  <path d="m64.48 84.99q-0.05594-0.03247-0.1227-0.04691-0.06494-0.01623-0.1443-0.01623-0.2814 0-0.433 0.184-0.1498 0.1822-0.1498 0.525v1.065h-0.3337v-2.021h0.3337v0.3139q0.1047-0.184 0.2724-0.2724 0.1678-0.09022 0.4077-0.09022 0.03429 0 0.07578 0.0052 0.04151 0.0037 0.09202 0.01265z" style="font-feature-settings:normal;font-variant-caps:normal;font-variant-ligatures:normal;font-variant-numeric:normal"/>
  <path d="m66.12 84.69v0.3139q-0.1407-0.07219-0.2923-0.1082-0.1516-0.03606-0.3139-0.03606-0.2472 0-0.3717 0.07578-0.1227 0.07578-0.1227 0.2273 0 0.1154 0.08843 0.1822 0.08843 0.06494 0.3554 0.1245l0.1137 0.02529q0.3536 0.07578 0.5015 0.2147 0.1498 0.1371 0.1498 0.3843 0 0.2814-0.2237 0.4456-0.2219 0.1641-0.6116 0.1641-0.1623 0-0.3392-0.03247-0.175-0.03067-0.3699-0.09381v-0.3428q0.184 0.09561 0.3626 0.1443 0.1786 0.04691 0.3536 0.04691 0.2345 0 0.3608-0.07937 0.1263-0.08117 0.1263-0.2273 0-0.1353-0.09202-0.2074-0.09022-0.07219-0.3987-0.1389l-0.1154-0.02708q-0.3085-0.06494-0.4456-0.1985-0.1371-0.1353-0.1371-0.3699 0-0.285 0.2021-0.4402t0.5737-0.1552q0.184 0 0.3464 0.02708 0.1623 0.02708 0.2995 0.08117z" style="font-feature-settings:normal;font-variant-caps:normal;font-variant-ligatures:normal;font-variant-numeric:normal"/>
  <path d="m68.08 84.99v-1.093h0.3319v2.807h-0.3319v-0.3031q-0.1047 0.1804-0.2652 0.2688-0.1587 0.08663-0.3825 0.08663-0.3662 0-0.5971-0.2923-0.2291-0.2923-0.2291-0.7683 0-0.4762 0.2291-0.7683 0.2309-0.2922 0.5971-0.2922 0.2237 0 0.3825 0.08843 0.1605 0.08663 0.2652 0.267zm-1.131 0.7054q0 0.3663 0.1498 0.5755 0.1516 0.2074 0.415 0.2074t0.4149-0.2074q0.1516-0.2092 0.1516-0.5755 0-0.3662-0.1516-0.5737-0.1516-0.2092-0.4149-0.2092t-0.415 0.2092q-0.1498 0.2074-0.1498 0.5737z" style="font-feature-settings:normal;font-variant-caps:normal;font-variant-ligatures:normal;font-variant-numeric:normal"/>
  <path d="m70.02 85.67q-0.4023 0-0.5575 0.09202t-0.1552 0.3139q0 0.1768 0.1155 0.2814 0.1172 0.1029 0.3175 0.1029 0.276 0 0.442-0.1949 0.1678-0.1967 0.1678-0.5214v-0.07399zm0.6621-0.1371v1.153h-0.3319v-0.3067q-0.1137 0.184-0.2832 0.2725-0.1696 0.08663-0.415 0.08663-0.3103 0-0.4943-0.1732-0.1822-0.175-0.1822-0.4673 0-0.341 0.2273-0.5142 0.2291-0.1732 0.682-0.1732h0.4655v-0.03247q0-0.2291-0.1516-0.3536-0.1498-0.1263-0.4222-0.1263-0.1732 0-0.3374 0.04152-0.1641 0.04152-0.3157 0.1245v-0.3067q0.1822-0.0704 0.3536-0.1047 0.1714-0.03606 0.3337-0.03606 0.4384 0 0.6549 0.2273t0.2165 0.6892z" style="font-feature-settings:normal;font-variant-caps:normal;font-variant-ligatures:normal;font-variant-numeric:normal"/>
  <path d="m72.21 86.86q-0.1407 0.3608-0.2743 0.4709-0.1335 0.11-0.3572 0.11h-0.2652v-0.2778h0.1949q0.1371 0 0.2129-0.06494 0.07578-0.06494 0.1678-0.3067l0.05954-0.1516-0.8169-1.988h0.3518l0.6314 1.581 0.6314-1.581h0.3518z" style="font-feature-settings:normal;font-variant-caps:normal;font-variant-ligatures:normal;font-variant-numeric:normal"/>
 </g>
 <g transform="matrix(.81 0 0 .81 12.264 3.6574)" fill="#fff" stroke-width=".14671" style="font-variant-caps:normal;font-variant-east-asian:normal;font-variant-ligatures:normal;font-variant-numeric:normal" aria-label="DAY">
  <path d="m59.284 18.623q-0.1115 0-0.18192-0.06455-0.06455-0.06455-0.06455-0.17018v-3.6676q0-0.10563 0.06455-0.17018 0.07042-0.06455 0.18192-0.06455h1.1443q0.99173 0 1.5316 0.53988 0.54574 0.53401 0.54574 1.5257 0 0.99173-0.54574 1.5316-0.54574 0.53988-1.5316 0.53988zm1.115-0.41078q1.6079 0 1.6079-1.6607 0-1.6548-1.6079-1.6548h-0.88023v3.3155z" style="font-variant-caps:normal;font-variant-east-asian:normal;font-variant-ligatures:normal;font-variant-numeric:normal"/>
  <path d="m66.84 18.347q0.02347 0.04695 0.02347 0.09976 0 0.08802-0.07042 0.1467-0.06455 0.05868-0.15844 0.05868-0.1467 0-0.20539-0.14084l-0.41664-0.95065h-2.2123l-0.42251 0.95065q-0.05868 0.14084-0.20539 0.14084-0.09389 0-0.16431-0.05868-0.07042-0.06455-0.07042-0.15257 0-0.04695 0.02347-0.09389l1.6783-3.7322q0.03521-0.08216 0.10563-0.12323 0.07042-0.04108 0.15257-0.04108 0.08802 0 0.15844 0.04694 0.07042 0.04108 0.10563 0.11736zm-1.0035-1.1854-0.93305-2.1067-0.92718 2.1067z" style="font-variant-caps:normal;font-variant-east-asian:normal;font-variant-ligatures:normal;font-variant-numeric:normal"/>
  <path d="m69.671 14.55q0.07042-0.08802 0.17018-0.08802 0.08216 0 0.14671 0.06455t0.06455 0.15844q0 0.08802-0.05281 0.1467l-1.426 1.8015v1.7722q0 0.11736-0.07042 0.18192-0.06455 0.06455-0.17018 0.06455t-0.17605-0.06455q-0.06455-0.06455-0.06455-0.18192v-1.7781l-1.426-1.7957q-0.05868-0.06455-0.05868-0.1467 0-0.09389 0.06455-0.15844 0.07042-0.06455 0.15844-0.06455 0.09976 0 0.17018 0.08802l1.338 1.7076z" style="font-variant-caps:normal;font-variant-east-asian:normal;font-variant-ligatures:normal;font-variant-numeric:normal"/>
 </g>
 <g transform="matrix(.9 0 0 .9 10.338 2.1654)" fill="#fff" stroke-width=".14671" style="font-variant-caps:normal;font-variant-east-asian:normal;font-variant-ligatures:normal;font-variant-numeric:normal" aria-label="TIME">
  <path d="m98.576 18.652q-0.1115 0-0.18192-0.06455-0.06455-0.07042-0.06455-0.18192v-3.5092h-1.2617q-0.10563 0-0.16431-0.05281t-0.05868-0.15257 0.05868-0.15257 0.16431-0.05281h3.0104q0.10563 0 0.16431 0.05281 0.0587 0.05281 0.0587 0.15257t-0.0587 0.15257-0.16431 0.05281h-1.2617v3.5092q0 0.1115-0.06455 0.18192-0.06455 0.06455-0.17605 0.06455z" style="font-variant-caps:normal;font-variant-east-asian:normal;font-variant-ligatures:normal;font-variant-numeric:normal"/>
  <path d="m101.08 18.652q-0.1115 0-0.17605-0.06455-0.0646-0.07042-0.0646-0.18192v-3.7028q0-0.1115 0.0646-0.17605 0.0645-0.07042 0.17605-0.07042 0.11149 0 0.17605 0.07042 0.0645 0.06455 0.0645 0.17605v3.7028q0 0.1115-0.0645 0.18192-0.0646 0.06455-0.17605 0.06455z" style="font-variant-caps:normal;font-variant-east-asian:normal;font-variant-ligatures:normal;font-variant-numeric:normal"/>
  <path d="m106.01 14.456q0.11149 0 0.17018 0.07042 0.0645 0.06455 0.0645 0.17605v3.7146q0 0.10563-0.0587 0.17018t-0.16431 0.06455q-0.10562 0-0.15844-0.06455-0.0528-0.06455-0.0528-0.17018v-2.9987l-1.2734 2.4412q-0.0822 0.17018-0.2406 0.17018-0.15257 0-0.2406-0.17018l-1.2793-2.4118v2.9693q0 0.10563-0.0587 0.17018-0.0528 0.06455-0.15844 0.06455-0.10563 0-0.16431-0.06455-0.0587-0.06455-0.0587-0.17018v-3.7146q0-0.1115 0.0645-0.17605 0.0646-0.07042 0.17605-0.07042 0.1467 0 0.23472 0.17018l1.4905 2.8578 1.4729-2.8578q0.0469-0.09389 0.0998-0.1291 0.0587-0.04108 0.13497-0.04108z" style="font-variant-caps:normal;font-variant-east-asian:normal;font-variant-ligatures:normal;font-variant-numeric:normal"/>
  <path d="m107.53 18.623q-0.11149 0-0.18191-0.06455-0.0645-0.06455-0.0645-0.17018v-3.6676q0-0.10563 0.0645-0.17018 0.0704-0.06455 0.18191-0.06455h2.1947q0.10562 0 0.16431 0.05281 0.0587 0.05281 0.0587 0.1467t-0.0587 0.1467-0.16431 0.05281h-1.9658v1.4377h1.8485q0.10563 0 0.16431 0.05281 0.0587 0.05281 0.0587 0.1467t-0.0587 0.1467-0.16431 0.05281h-1.8485v1.5023h1.9658q0.10562 0 0.16431 0.05281 0.0587 0.04694 0.0587 0.1467 0 0.09389-0.0587 0.1467t-0.16431 0.05281z" style="font-variant-caps:normal;font-variant-east-asian:normal;font-variant-ligatures:normal;font-variant-numeric:normal"/>
 </g>
 <g transform="matrix(.9 0 0 .9 2.5706 2.1811)" fill="#fff" stroke-width=".1467" style="font-variant-caps:normal;font-variant-east-asian:normal;font-variant-ligatures:normal;font-variant-numeric:normal" aria-label="ASSESSOR">
  <path d="m14.56 18.329q0.02347 0.04695 0.02347 0.09976 0 0.08802-0.07042 0.1467-0.06455 0.05868-0.15844 0.05868-0.1467 0-0.20539-0.14084l-0.41664-0.95064h-2.2123l-0.42251 0.95064q-0.05868 0.14084-0.20539 0.14084-0.09389 0-0.16431-0.05868-0.07042-0.06455-0.07042-0.15257 0-0.04695 0.02347-0.09389l1.6783-3.7322q0.03521-0.08215 0.10563-0.12323t0.15257-0.04108q0.08802 0 0.15844 0.04695 0.07042 0.04108 0.10563 0.11736zm-1.0035-1.1854-0.93304-2.1067-0.92717 2.1067z"/>
  <path d="m16.548 18.652q-0.44011 0-0.84502-0.1291-0.39904-0.13497-0.63963-0.35796-0.08802-0.08215-0.08802-0.20539 0-0.08215 0.04695-0.14084 0.04695-0.06455 0.1115-0.06455 0.07629 0 0.16431 0.06455 0.54574 0.42251 1.2441 0.42251 0.50466 0 0.7746-0.19365t0.26994-0.55161q0-0.20539-0.1291-0.32862-0.1291-0.1291-0.34035-0.20539t-0.56921-0.15844q-0.48119-0.1115-0.7922-0.23473-0.30514-0.12323-0.4988-0.35209-0.18778-0.22886-0.18778-0.59855 0-0.35209 0.18778-0.62203 0.19365-0.2758 0.534-0.42251 0.34622-0.15257 0.78633-0.15257 0.41077 0 0.76286 0.1291 0.35796 0.12323 0.59855 0.35796 0.09389 0.09389 0.09389 0.20539 0 0.08216-0.04694 0.1467-0.04695 0.05868-0.1115 0.05868t-0.17018-0.06455q-0.28754-0.23473-0.534-0.32862t-0.59268-0.09389q-0.48706 0-0.75699 0.20539-0.26994 0.19952-0.26994 0.56334 0 0.31101 0.23473 0.46945 0.2406 0.15257 0.73352 0.26994 0.534 0.1291 0.83915 0.2406 0.30514 0.10563 0.50466 0.32275 0.20539 0.21712 0.20539 0.58095 0 0.34622-0.19365 0.61029-0.18778 0.26407-0.534 0.41077t-0.7922 0.1467z"/>
  <path d="m20.17 18.652q-0.44011 0-0.84502-0.1291-0.39904-0.13497-0.63963-0.35796-0.08802-0.08215-0.08802-0.20539 0-0.08215 0.04694-0.14084 0.04695-0.06455 0.1115-0.06455 0.07629 0 0.16431 0.06455 0.54574 0.42251 1.2441 0.42251 0.50466 0 0.7746-0.19365t0.26994-0.55161q0-0.20539-0.1291-0.32862-0.1291-0.1291-0.34035-0.20539t-0.56921-0.15844q-0.48119-0.1115-0.7922-0.23473-0.30514-0.12323-0.49879-0.35209-0.18778-0.22886-0.18778-0.59855 0-0.35209 0.18778-0.62203 0.19365-0.2758 0.534-0.42251 0.34622-0.15257 0.78634-0.15257 0.41077 0 0.76286 0.1291 0.35796 0.12323 0.59855 0.35796 0.09389 0.09389 0.09389 0.20539 0 0.08216-0.04695 0.1467-0.04695 0.05868-0.1115 0.05868t-0.17018-0.06455q-0.28754-0.23473-0.534-0.32862t-0.59268-0.09389q-0.48706 0-0.75699 0.20539-0.26994 0.19952-0.26994 0.56334 0 0.31101 0.23473 0.46945 0.2406 0.15257 0.73352 0.26994 0.534 0.1291 0.83915 0.2406 0.30514 0.10563 0.50466 0.32275 0.20539 0.21712 0.20539 0.58095 0 0.34622-0.19365 0.61029-0.18778 0.26407-0.534 0.41077t-0.7922 0.1467z"/>
  <path d="m22.717 18.605q-0.1115 0-0.18191-0.06455-0.06455-0.06455-0.06455-0.17018v-3.6676q0-0.10563 0.06455-0.17018 0.07042-0.06455 0.18191-0.06455h2.1947q0.10563 0 0.16431 0.05281t0.05868 0.1467-0.05868 0.1467-0.16431 0.05281h-1.9658v1.4377h1.8485q0.10563 0 0.16431 0.05281t0.05868 0.1467-0.05868 0.1467-0.16431 0.05281h-1.8485v1.5023h1.9658q0.10563 0 0.16431 0.05281 0.05868 0.04695 0.05868 0.1467 0 0.09389-0.05868 0.1467t-0.16431 0.05281z"/>
  <path d="m27.149 18.652q-0.44011 0-0.84502-0.1291-0.39904-0.13497-0.63963-0.35796-0.08802-0.08215-0.08802-0.20539 0-0.08215 0.04695-0.14084 0.04695-0.06455 0.1115-0.06455 0.07629 0 0.16431 0.06455 0.54574 0.42251 1.2441 0.42251 0.50466 0 0.7746-0.19365t0.26994-0.55161q0-0.20539-0.1291-0.32862-0.1291-0.1291-0.34035-0.20539t-0.56921-0.15844q-0.48119-0.1115-0.7922-0.23473-0.30514-0.12323-0.49879-0.35209-0.18778-0.22886-0.18778-0.59855 0-0.35209 0.18778-0.62203 0.19365-0.2758 0.534-0.42251 0.34622-0.15257 0.78634-0.15257 0.41077 0 0.76286 0.1291 0.35796 0.12323 0.59855 0.35796 0.09389 0.09389 0.09389 0.20539 0 0.08216-0.04694 0.1467-0.04695 0.05868-0.1115 0.05868t-0.17018-0.06455q-0.28754-0.23473-0.534-0.32862t-0.59268-0.09389q-0.48706 0-0.75699 0.20539-0.26994 0.19952-0.26994 0.56334 0 0.31101 0.23473 0.46945 0.2406 0.15257 0.73352 0.26994 0.534 0.1291 0.83915 0.2406 0.30514 0.10563 0.50466 0.32275 0.20539 0.21712 0.20539 0.58095 0 0.34622-0.19365 0.61029-0.18778 0.26407-0.534 0.41077t-0.7922 0.1467z"/>
  <path d="m30.771 18.652q-0.44011 0-0.84502-0.1291-0.39904-0.13497-0.63963-0.35796-0.08802-0.08215-0.08802-0.20539 0-0.08215 0.04694-0.14084 0.04695-0.06455 0.1115-0.06455 0.07629 0 0.16431 0.06455 0.54574 0.42251 1.2441 0.42251 0.50466 0 0.7746-0.19365t0.26994-0.55161q0-0.20539-0.1291-0.32862-0.1291-0.1291-0.34035-0.20539t-0.56921-0.15844q-0.48119-0.1115-0.7922-0.23473-0.30514-0.12323-0.49879-0.35209-0.18778-0.22886-0.18778-0.59855 0-0.35209 0.18778-0.62203 0.19365-0.2758 0.534-0.42251 0.34622-0.15257 0.78634-0.15257 0.41077 0 0.76286 0.1291 0.35796 0.12323 0.59855 0.35796 0.09389 0.09389 0.09389 0.20539 0 0.08216-0.04695 0.1467-0.04694 0.05868-0.1115 0.05868-0.06455 0-0.17018-0.06455-0.28754-0.23473-0.534-0.32862t-0.59268-0.09389q-0.48706 0-0.75699 0.20539-0.26994 0.19952-0.26994 0.56334 0 0.31101 0.23473 0.46945 0.2406 0.15257 0.73352 0.26994 0.534 0.1291 0.83915 0.2406 0.30514 0.10563 0.50466 0.32275 0.20539 0.21712 0.20539 0.58095 0 0.34622-0.19365 0.61029-0.18778 0.26407-0.534 0.41077t-0.7922 0.1467z"/>
  <path d="m34.804 18.652q-0.57508 0-1.0035-0.2582-0.42251-0.2582-0.65137-0.73352t-0.22886-1.1208q0-0.65137 0.22299-1.1267 0.22886-0.48119 0.65137-0.73352 0.42838-0.2582 1.0093-0.2582 0.58095 0 1.0035 0.2582 0.42838 0.25233 0.65137 0.73352 0.22886 0.47532 0.22886 1.1208 0 0.6455-0.22886 1.1267-0.22886 0.47532-0.65724 0.73352-0.42251 0.2582-0.99759 0.2582zm0-0.41077q0.65724 0 1.0211-0.44011 0.3697-0.44598 0.3697-1.2675t-0.36383-1.2617q-0.36383-0.44011-1.0269-0.44011-0.65724 0-1.0269 0.44598-0.36383 0.44011-0.36383 1.2558 0 0.81568 0.36383 1.2617 0.3697 0.44598 1.0269 0.44598z"/>
  <path d="m40.711 18.306q0.04108 0.06455 0.04108 0.13497 0 0.08802-0.07042 0.1467-0.06455 0.05281-0.15257 0.05281-0.13497 0-0.21125-0.11736l-0.78634-1.2441q-0.15257-0.2406-0.31688-0.32862-0.16431-0.09389-0.44598-0.09389h-0.73939v1.5316q0 0.1115-0.06455 0.18191-0.06455 0.06455-0.17018 0.06455-0.1115 0-0.17604-0.06455-0.06455-0.07042-0.06455-0.18191v-3.6852q0-0.10563 0.06455-0.17018 0.07042-0.06455 0.18191-0.06455h1.4553q0.67484 0 1.0269 0.29928 0.35796 0.29928 0.35796 0.88023 0 0.49293-0.28754 0.7922-0.28167 0.29928-0.80981 0.36383 0.1467 0.04695 0.26407 0.15257 0.11736 0.10563 0.23473 0.29341zm-1.4964-1.8485q0.48119 0 0.71592-0.19952 0.2406-0.19952 0.2406-0.60442 0-0.39904-0.23473-0.59268-0.23473-0.19365-0.72178-0.19365h-1.1854v1.5903z"/>
 </g>
</svg>
