<?xml version="1.0" encoding="UTF-8"?>
<svg width="490" height="360" version="1.1" viewBox="0 0 490 360" xmlns="http://www.w3.org/2000/svg" xmlns:xlink="http://www.w3.org/1999/xlink">
 <defs>
  <linearGradient id="linearGradient2712" x1="219.46" x2="219.46" y1="123.13" y2="334.98" gradientTransform="translate(-.13039 -.50903)" gradientUnits="userSpaceOnUse">
   <stop stop-color="#7d93b2" offset="0"/>
   <stop stop-color="#7d93b2" stop-opacity="0" offset="1"/>
  </linearGradient>
 </defs>
 <path d="m7.9324 0h474.14c4.3946 0 7.9324 3.5379 7.9324 7.9324v344.14c0 4.3946-3.5378 7.9324-7.9324 7.9324h-474.14c-4.3945 0-7.9324-3.5378-7.9324-7.9324v-344.14c0-4.3945 3.5379-7.9324 7.9324-7.9324z" fill="#fff"/>
 <path d="m39.52 97.165h410.07c3.5733 0 6.45 2.8767 6.45 6.45v48.552c0 3.5733-2.8767 6.45-6.45 6.45h-410.07c-3.5733 0-6.45-2.8767-6.45-6.45v-48.552c0-3.5733 2.8767-6.45 6.45-6.45z" fill="none" stroke="#38e0c4" stroke-linecap="round" stroke-linejoin="round" stroke-width="2.0021"/>
 <path d="m424.77 119.29a8.5983 8.5983 0 0 0-8.5983 8.5983 8.5983 8.5983 0 0 0 8.5983 8.6012 8.5983 8.5983 0 0 0 8.5983-8.6012 8.5983 8.5983 0 0 0-8.5983-8.5983zm4.6597 4.6625a0.74815 0.74815 0 0 1 0.57708 1.2698l-6.0508 6.3703a0.74815 0.74815 0 0 1-1.0945-0.0117l-3.3449-3.6616a0.74882 0.74882 0 1 1 1.1061-1.0097l2.8026 3.0706 5.4966-5.7878a0.74815 0.74815 0 0 1 0.50838-0.2397z" fill="#38e0c4" fill-rule="evenodd" stroke-width=".67322"/>
 <path d="m46.332 68.991q-0.48472 0-0.78559-0.30086-0.28415-0.30086-0.28415-0.78559v-9.8115q0-0.48472 0.28415-0.76887 0.30086-0.30086 0.78559-0.30086 0.50144 0 0.78559 0.30086 0.30086 0.28415 0.30086 0.76887v9.8115q0 0.48472-0.30086 0.78559-0.28415 0.30086-0.78559 0.30086z" fill="#7d93b2" style="font-variant-caps:normal;font-variant-east-asian:normal;font-variant-ligatures:normal;font-variant-numeric:normal"/>
 <path d="m57.861 60.517q1.7049 0 2.5239 0.85244 0.83573 0.83573 0.83573 2.5573v4.0784q0 0.45129-0.26743 0.71873-0.26743 0.25072-0.73544 0.25072-0.43458 0-0.71873-0.26743-0.26743-0.26743-0.26743-0.70201v-0.36772q-0.28415 0.65187-0.90259 1.0196-0.60173 0.36772-1.404 0.36772-0.81902 0-1.4876-0.33429t-1.053-0.9193-0.38444-1.3037q0-0.90259 0.4513-1.4207 0.46801-0.51815 1.5043-0.75216 1.0363-0.234 2.8582-0.234h0.41786v-0.38444q0-0.81902-0.35101-1.1867-0.35101-0.38444-1.1366-0.38444-0.48472 0-0.98616 0.15043-0.50144 0.13372-1.1867 0.40115-0.43458 0.21729-0.63516 0.21729-0.30086 0-0.50144-0.21729-0.18386-0.21729-0.18386-0.5683 0-0.28415 0.13372-0.48472 0.15043-0.21729 0.48472-0.40115 0.58501-0.31758 1.3873-0.50144 0.81902-0.18386 1.6046-0.18386zm-0.51815 7.0034q0.83573 0 1.3539-0.55158 0.53487-0.5683 0.53487-1.4542v-0.35101h-0.30086q-1.1199 0-1.7383 0.10029-0.61844 0.10029-0.88587 0.35101t-0.26743 0.6853q0 0.53487 0.36772 0.88587 0.38444 0.33429 0.93602 0.33429z" fill="#7d93b2" style="font-variant-caps:normal;font-variant-east-asian:normal;font-variant-ligatures:normal;font-variant-numeric:normal"/>
 <path d="m73.039 60.517q1.3372 0 2.0392 0.8023 0.71873 0.78559 0.71873 2.5573v4.1118q0 0.48472-0.30086 0.75216-0.28415 0.25072-0.75216 0.25072-0.45129 0-0.75216-0.25072-0.28415-0.26743-0.28415-0.75216v-4.1118q0-0.9193-0.33429-1.3037-0.31758-0.40115-0.98616-0.40115-0.81902 0-1.3037 0.5683-0.48472 0.55158-0.48472 1.521v3.7274q0 0.48472-0.30086 0.75216-0.28415 0.25072-0.73544 0.25072t-0.75216-0.25072q-0.30086-0.26743-0.30086-0.75216v-4.1118q0-0.9193-0.33429-1.3037-0.31758-0.40115-0.98616-0.40115-0.81902 0-1.3037 0.5683-0.46801 0.55158-0.46801 1.521v3.7274q0 0.48472-0.30086 0.75216-0.30086 0.25072-0.75216 0.25072t-0.75216-0.25072q-0.28415-0.26743-0.28415-0.75216v-6.4686q0-0.46801 0.30086-0.71873 0.30086-0.25072 0.75216-0.25072 0.43458 0 0.70201 0.25072 0.28415 0.234 0.28415 0.6853v0.40115q0.38444-0.66858 1.0196-1.0196 0.65187-0.35101 1.4876-0.35101 1.8386 0 2.457 1.5377 0.36772-0.70201 1.0864-1.1199t1.6213-0.41786z" fill="#7d93b2" style="font-variant-caps:normal;font-variant-east-asian:normal;font-variant-ligatures:normal;font-variant-numeric:normal"/>
 <path d="m86.002 60.517q1.7049 0 2.5239 0.85244 0.83573 0.83573 0.83573 2.5573v4.0784q0 0.45129-0.26743 0.71873-0.26743 0.25072-0.73544 0.25072-0.43458 0-0.71873-0.26743-0.26743-0.26743-0.26743-0.70201v-0.36772q-0.28415 0.65187-0.90259 1.0196-0.60173 0.36772-1.404 0.36772-0.81902 0-1.4876-0.33429t-1.053-0.9193q-0.38444-0.58501-0.38444-1.3037 0-0.90259 0.45129-1.4207 0.46801-0.51815 1.5043-0.75216 1.0363-0.234 2.8582-0.234h0.41786v-0.38444q0-0.81902-0.35101-1.1867-0.35101-0.38444-1.1366-0.38444-0.48472 0-0.98616 0.15043-0.50144 0.13372-1.1867 0.40115-0.43458 0.21729-0.63516 0.21729-0.30086 0-0.50144-0.21729-0.18386-0.21729-0.18386-0.5683 0-0.28415 0.13372-0.48472 0.15043-0.21729 0.48472-0.40115 0.58501-0.31758 1.3873-0.50144 0.81902-0.18386 1.6046-0.18386zm-0.51815 7.0034q0.83573 0 1.3539-0.55158 0.53487-0.5683 0.53487-1.4542v-0.35101h-0.30086q-1.1199 0-1.7383 0.10029-0.61844 0.10029-0.88587 0.35101-0.26743 0.25072-0.26743 0.6853 0 0.53487 0.36772 0.88587 0.38444 0.33429 0.93602 0.33429z" fill="#7d93b2" style="font-variant-caps:normal;font-variant-east-asian:normal;font-variant-ligatures:normal;font-variant-numeric:normal"/>
 <path d="m101.18 60.517q1.3372 0 2.0392 0.8023 0.71872 0.78559 0.71872 2.5573v4.1118q0 0.48472-0.30086 0.75216-0.28415 0.25072-0.75216 0.25072-0.45129 0-0.75215-0.25072-0.28415-0.26743-0.28415-0.75216v-4.1118q0-0.9193-0.33429-1.3037-0.31758-0.40115-0.98616-0.40115-0.81902 0-1.3037 0.5683-0.48472 0.55158-0.48472 1.521v3.7274q0 0.48472-0.30086 0.75216-0.28415 0.25072-0.73544 0.25072t-0.75216-0.25072q-0.30086-0.26743-0.30086-0.75216v-4.1118q0-0.9193-0.33429-1.3037-0.31758-0.40115-0.98616-0.40115-0.81902 0-1.3037 0.5683-0.46801 0.55158-0.46801 1.521v3.7274q0 0.48472-0.30086 0.75216-0.30086 0.25072-0.75216 0.25072t-0.75216-0.25072q-0.28415-0.26743-0.28415-0.75216v-6.4686q0-0.46801 0.30086-0.71873t0.75216-0.25072q0.43458 0 0.70201 0.25072 0.28415 0.234 0.28415 0.6853v0.40115q0.38444-0.66858 1.0196-1.0196 0.65187-0.35101 1.4876-0.35101 1.8386 0 2.457 1.5377 0.36772-0.70201 1.0864-1.1199 0.71873-0.41786 1.6213-0.41786z" fill="#7d93b2" style="font-variant-caps:normal;font-variant-east-asian:normal;font-variant-ligatures:normal;font-variant-numeric:normal"/>
 <path d="m109.6 60.517q1.7049 0 2.5239 0.85244 0.83573 0.83573 0.83573 2.5573v4.0784q0 0.45129-0.26743 0.71873-0.26744 0.25072-0.73544 0.25072-0.43458 0-0.71873-0.26743-0.26744-0.26743-0.26744-0.70201v-0.36772q-0.28414 0.65187-0.90258 1.0196-0.60173 0.36772-1.404 0.36772-0.81902 0-1.4876-0.33429t-1.053-0.9193-0.38444-1.3037q0-0.90259 0.4513-1.4207 0.46801-0.51815 1.5043-0.75216 1.0363-0.234 2.8582-0.234h0.41786v-0.38444q0-0.81902-0.351-1.1867-0.35101-0.38444-1.1366-0.38444-0.48472 0-0.98616 0.15043-0.50143 0.13372-1.1867 0.40115-0.43458 0.21729-0.63516 0.21729-0.30086 0-0.50144-0.21729-0.18386-0.21729-0.18386-0.5683 0-0.28415 0.13372-0.48472 0.15043-0.21729 0.48472-0.40115 0.58501-0.31758 1.3873-0.50144 0.81901-0.18386 1.6046-0.18386zm-0.51816 7.0034q0.83573 0 1.3539-0.55158 0.53486-0.5683 0.53486-1.4542v-0.35101h-0.30086q-1.1199 0-1.7383 0.10029-0.61844 0.10029-0.88587 0.35101t-0.26743 0.6853q0 0.53487 0.36772 0.88587 0.38443 0.33429 0.93601 0.33429z" fill="#7d93b2" style="font-variant-caps:normal;font-variant-east-asian:normal;font-variant-ligatures:normal;font-variant-numeric:normal"/>
 <path d="m121.16 67.319q0.93602 0 0.93602 0.78559 0 0.36772-0.23401 0.58501-0.234 0.20058-0.70201 0.20058h-5.5827q-0.41787 0-0.6853-0.26743-0.26744-0.26743-0.26744-0.63516 0-0.38444 0.30087-0.73544l4.2956-4.9642h-3.7274q-0.46801 0-0.70201-0.20058-0.23401-0.20058-0.23401-0.58501 0-0.38444 0.23401-0.58501 0.234-0.20058 0.70201-0.20058h5.3988q0.43458 0 0.6853 0.26743 0.26743 0.25072 0.26743 0.63516 0 0.40115-0.28415 0.73544l-4.3124 4.9642z" fill="#7d93b2" style="font-variant-caps:normal;font-variant-east-asian:normal;font-variant-ligatures:normal;font-variant-numeric:normal"/>
 <path d="m129.83 66.651q0.28415 0 0.4513 0.21729 0.18386 0.21729 0.18386 0.58501 0 0.51815-0.61844 0.86916-0.5683 0.31758-1.287 0.51815-0.71873 0.18386-1.3706 0.18386-1.9723 0-3.1256-1.1366-1.1533-1.1366-1.1533-3.1089 0-1.2536 0.50144-2.223 0.50144-0.96945 1.404-1.5043 0.91931-0.53487 2.0726-0.53487 1.1032 0 1.9222 0.48472 0.81902 0.48472 1.2703 1.3706 0.4513 0.88587 0.4513 2.0893 0 0.71873-0.63516 0.71873h-4.9308q0.10028 1.1533 0.65187 1.7049 0.55158 0.53487 1.6046 0.53487 0.53486 0 0.93601-0.13372 0.41787-0.13372 0.93602-0.36772 0.50144-0.26743 0.73544-0.26743zm-2.8916-4.6634q-0.85245 0-1.3706 0.53487-0.50144 0.53487-0.60172 1.5377h3.7775q-0.0334-1.0196-0.50144-1.5377-0.46801-0.53487-1.3037-0.53487z" fill="#7d93b2" style="font-variant-caps:normal;font-variant-east-asian:normal;font-variant-ligatures:normal;font-variant-numeric:normal"/>
 <path d="m139.06 57.023q0.46801 0 0.76887 0.26743 0.30087 0.26743 0.30087 0.70201v9.9953q0 0.45129-0.28415 0.71873t-0.75216 0.26743-0.75216-0.26743q-0.28414-0.26743-0.28414-0.71873v-0.41786q-0.36772 0.6853-1.0697 1.0697-0.6853 0.38444-1.5712 0.38444-1.053 0-1.8888-0.53487-0.81902-0.53487-1.287-1.5043-0.4513-0.98616-0.4513-2.2565 0-1.2703 0.4513-2.223 0.468-0.95273 1.287-1.4709 0.81902-0.51815 1.8888-0.51815 0.88587 0 1.5712 0.36772 0.6853 0.36772 1.053 1.0363v-3.9614q0-0.41786 0.26744-0.66858 0.28414-0.26743 0.75215-0.26743zm-3.0922 10.38q1.0029 0 1.5377-0.6853 0.55159-0.6853 0.55159-1.9556 0-1.2703-0.55159-1.9389-0.53486-0.6853-1.521-0.6853-1.0029 0-1.5545 0.66858t-0.55158 1.9222q0 1.2703 0.55158 1.9723t1.5377 0.70201z" fill="#7d93b2" style="font-variant-caps:normal;font-variant-east-asian:normal;font-variant-ligatures:normal;font-variant-numeric:normal"/>
 <path d="m151.08 67.436q0.83573 0.05014 0.83573 0.75216 0 0.40115-0.33429 0.61844-0.31758 0.20058-0.9193 0.16715l-0.4513-0.03343q-2.808-0.20058-2.808-3.0086v-3.6438h-0.83573q-0.45129 0-0.70201-0.20058-0.23401-0.20058-0.23401-0.58501 0-0.38444 0.23401-0.58501 0.25072-0.20058 0.70201-0.20058h0.83573v-1.5377q0-0.45129 0.28415-0.71873 0.28415-0.26743 0.76887-0.26743 0.46801 0 0.75216 0.26743 0.28415 0.26743 0.28415 0.71873v1.5377h1.4207q0.45129 0 0.6853 0.20058 0.25071 0.20058 0.25071 0.58501 0 0.38444-0.25071 0.58501-0.23401 0.20058-0.6853 0.20058h-1.4207v3.7942q0 1.2369 1.1366 1.3205z" fill="#7d93b2" style="font-variant-caps:normal;font-variant-east-asian:normal;font-variant-ligatures:normal;font-variant-numeric:normal"/>
 <path d="m157.79 60.517q2.8749 0 2.8749 3.3596v4.1118q0 0.46801-0.28415 0.73544-0.26743 0.26743-0.75216 0.26743-0.48472 0-0.76887-0.26743-0.28415-0.26743-0.28415-0.73544v-4.1118q0-0.88587-0.36772-1.287-0.35101-0.41786-1.1199-0.41786-0.90259 0-1.4542 0.5683-0.53486 0.5683-0.53486 1.521v3.7274q0 0.46801-0.28415 0.73544-0.28415 0.26743-0.76887 0.26743-0.48473 0-0.76888-0.26743-0.26743-0.26743-0.26743-0.73544v-9.9953q0-0.43458 0.28415-0.70201 0.30086-0.26743 0.76887-0.26743t0.75216 0.25072 0.28415 0.6853v3.8945q0.41786-0.65187 1.1032-0.98616 0.70201-0.35101 1.5879-0.35101z" fill="#7d93b2" style="font-variant-caps:normal;font-variant-east-asian:normal;font-variant-ligatures:normal;font-variant-numeric:normal"/>
 <path d="m166.34 60.517q1.7049 0 2.5239 0.85244 0.83573 0.83573 0.83573 2.5573v4.0784q0 0.45129-0.26743 0.71873-0.26744 0.25072-0.73545 0.25072-0.43458 0-0.71872-0.26743-0.26744-0.26743-0.26744-0.70201v-0.36772q-0.28415 0.65187-0.90259 1.0196-0.60172 0.36772-1.404 0.36772-0.81902 0-1.4876-0.33429-0.66859-0.33429-1.053-0.9193-0.38444-0.58501-0.38444-1.3037 0-0.90259 0.4513-1.4207 0.468-0.51815 1.5043-0.75216 1.0363-0.234 2.8582-0.234h0.41786v-0.38444q0-0.81902-0.351-1.1867-0.35101-0.38444-1.1366-0.38444-0.48472 0-0.98616 0.15043-0.50144 0.13372-1.1867 0.40115-0.43458 0.21729-0.63515 0.21729-0.30086 0-0.50144-0.21729-0.18386-0.21729-0.18386-0.5683 0-0.28415 0.13372-0.48472 0.15043-0.21729 0.48472-0.40115 0.58501-0.31758 1.3873-0.50144 0.81902-0.18386 1.6046-0.18386zm-0.51815 7.0034q0.83573 0 1.3539-0.55158 0.53487-0.5683 0.53487-1.4542v-0.35101h-0.30086q-1.1199 0-1.7383 0.10029-0.61844 0.10029-0.88587 0.35101-0.26744 0.25072-0.26744 0.6853 0 0.53487 0.36772 0.88587 0.38444 0.33429 0.93602 0.33429z" fill="#7d93b2" style="font-variant-caps:normal;font-variant-east-asian:normal;font-variant-ligatures:normal;font-variant-numeric:normal"/>
 <path d="m176.05 67.436q0.83573 0.05014 0.83573 0.75216 0 0.40115-0.33429 0.61844-0.31758 0.20058-0.9193 0.16715l-0.4513-0.03343q-2.808-0.20058-2.808-3.0086v-3.6438h-0.83573q-0.45129 0-0.70201-0.20058-0.23401-0.20058-0.23401-0.58501 0-0.38444 0.23401-0.58501 0.25072-0.20058 0.70201-0.20058h0.83573v-1.5377q0-0.45129 0.28415-0.71873 0.28415-0.26743 0.76887-0.26743 0.46801 0 0.75216 0.26743 0.28415 0.26743 0.28415 0.71873v1.5377h1.4207q0.45129 0 0.6853 0.20058 0.25072 0.20058 0.25072 0.58501 0 0.38444-0.25072 0.58501-0.23401 0.20058-0.6853 0.20058h-1.4207v3.7942q0 1.2369 1.1366 1.3205z" fill="#7d93b2" style="font-variant-caps:normal;font-variant-east-asian:normal;font-variant-ligatures:normal;font-variant-numeric:normal"/>
 <path d="m186.06 60.517q1.7049 0 2.5239 0.85244 0.83573 0.83573 0.83573 2.5573v4.0784q0 0.45129-0.26743 0.71873-0.26744 0.25072-0.73544 0.25072-0.43458 0-0.71873-0.26743-0.26744-0.26743-0.26744-0.70201v-0.36772q-0.28414 0.65187-0.90258 1.0196-0.60173 0.36772-1.404 0.36772-0.81902 0-1.4876-0.33429t-1.053-0.9193-0.38444-1.3037q0-0.90259 0.4513-1.4207 0.46801-0.51815 1.5043-0.75216 1.0363-0.234 2.8582-0.234h0.41786v-0.38444q0-0.81902-0.351-1.1867-0.35101-0.38444-1.1366-0.38444-0.48472 0-0.98616 0.15043-0.50143 0.13372-1.1867 0.40115-0.43458 0.21729-0.63516 0.21729-0.30086 0-0.50144-0.21729-0.18386-0.21729-0.18386-0.5683 0-0.28415 0.13372-0.48472 0.15043-0.21729 0.48472-0.40115 0.58501-0.31758 1.3873-0.50144 0.81901-0.18386 1.6046-0.18386zm-0.51816 7.0034q0.83573 0 1.3539-0.55158 0.53486-0.5683 0.53486-1.4542v-0.35101h-0.30086q-1.1199 0-1.7383 0.10029-0.61844 0.10029-0.88587 0.35101t-0.26743 0.6853q0 0.53487 0.36772 0.88587 0.38443 0.33429 0.93601 0.33429z" fill="#7d93b2" style="font-variant-caps:normal;font-variant-east-asian:normal;font-variant-ligatures:normal;font-variant-numeric:normal"/>
 <path d="m196.27 60.517q1.4709 0 2.1896 0.83573 0.71873 0.83573 0.71873 2.5239v4.1118q0 0.46801-0.28415 0.73544-0.26743 0.26743-0.75215 0.26743-0.48473 0-0.76888-0.26743-0.28414-0.26743-0.28414-0.73544v-3.9948q0-0.95273-0.36772-1.3873-0.35101-0.43458-1.1199-0.43458-0.90259 0-1.4542 0.5683-0.53487 0.5683-0.53487 1.521v3.7274q0 0.46801-0.28415 0.73544-0.28415 0.26743-0.76887 0.26743t-0.76887-0.26743q-0.26743-0.26743-0.26743-0.73544v-6.4686q0-0.43458 0.28414-0.70201 0.28415-0.26743 0.76887-0.26743 0.43458 0 0.70202 0.26743 0.28415 0.25072 0.28415 0.66858v0.45129q0.41786-0.6853 1.1199-1.053 0.70202-0.36772 1.5879-0.36772z" fill="#7d93b2" style="font-variant-caps:normal;font-variant-east-asian:normal;font-variant-ligatures:normal;font-variant-numeric:normal"/>
 <path d="m207.02 61.152q0.13372-0.30086 0.35101-0.43458 0.23401-0.15043 0.50144-0.15043 0.38444 0 0.6853 0.26743 0.31758 0.25072 0.31758 0.63515 0 0.18386-0.10029 0.38444l-4.5631 9.5608q-0.28415 0.5683-0.88587 0.5683-0.38444 0-0.6853-0.25072-0.28415-0.234-0.28415-0.60173 0-0.18386 0.10029-0.41786l1.1366-2.3902-3.1089-6.4686q-0.0836-0.16715-0.0836-0.38444 0-0.38444 0.31758-0.65187 0.33429-0.26743 0.75216-0.26743 0.28415 0 0.51815 0.15043 0.234 0.13372 0.36772 0.43458l2.34 5.1648z" fill="#7d93b2" style="font-variant-caps:normal;font-variant-east-asian:normal;font-variant-ligatures:normal;font-variant-numeric:normal"/>
 <path d="m213.7 69.024q-1.2536 0-2.2063-0.51815-0.93602-0.51815-1.4542-1.4876-0.51815-0.96945-0.51815-2.2565 0-1.287 0.51815-2.2398 0.51815-0.96945 1.4542-1.4876 0.95273-0.51815 2.2063-0.51815 1.2536 0 2.1896 0.51815 0.95273 0.51815 1.4542 1.4876 0.51815 0.95273 0.51815 2.2398 0 1.287-0.51815 2.2565-0.50144 0.96945-1.4542 1.4876-0.93602 0.51815-2.1896 0.51815zm-0.0167-1.6213q1.0196 0 1.5545-0.66858t0.53487-1.9723q0-1.287-0.53487-1.9556-0.53487-0.6853-1.5377-0.6853-1.0029 0-1.5545 0.6853-0.53487 0.66858-0.53487 1.9556 0 1.3037 0.53487 1.9723 0.53486 0.66858 1.5377 0.66858z" fill="#7d93b2" style="font-variant-caps:normal;font-variant-east-asian:normal;font-variant-ligatures:normal;font-variant-numeric:normal"/>
 <path d="m224.32 60.517q1.4709 0 2.1896 0.83573t0.71873 2.5239v4.1118q0 0.46801-0.28415 0.73544-0.26743 0.26743-0.75216 0.26743-0.48472 0-0.76887-0.26743-0.28414-0.26743-0.28414-0.73544v-3.9948q0-0.95273-0.36773-1.3873-0.351-0.43458-1.1199-0.43458-0.90259 0-1.4542 0.5683-0.53487 0.5683-0.53487 1.521v3.7274q0 0.46801-0.28415 0.73544-0.28415 0.26743-0.76887 0.26743t-0.76887-0.26743q-0.26744-0.26743-0.26744-0.73544v-6.4686q0-0.43458 0.28415-0.70201t0.76887-0.26743q0.43458 0 0.70202 0.26743 0.28414 0.25072 0.28414 0.66858v0.45129q0.41787-0.6853 1.1199-1.053 0.70202-0.36772 1.5879-0.36772z" fill="#7d93b2" style="font-variant-caps:normal;font-variant-east-asian:normal;font-variant-ligatures:normal;font-variant-numeric:normal"/>
 <path d="m235.83 66.651q0.28415 0 0.45129 0.21729 0.18386 0.21729 0.18386 0.58501 0 0.51815-0.61844 0.86916-0.56829 0.31758-1.287 0.51815-0.71873 0.18386-1.3706 0.18386-1.9723 0-3.1256-1.1366-1.1533-1.1366-1.1533-3.1089 0-1.2536 0.50143-2.223 0.50144-0.96945 1.404-1.5043 0.9193-0.53487 2.0726-0.53487 1.1032 0 1.9222 0.48472 0.81901 0.48472 1.2703 1.3706 0.45129 0.88587 0.45129 2.0893 0 0.71873-0.63515 0.71873h-4.9308q0.10029 1.1533 0.65187 1.7049 0.55158 0.53487 1.6046 0.53487 0.53487 0 0.93602-0.13372 0.41786-0.13372 0.93602-0.36772 0.50144-0.26743 0.73544-0.26743zm-2.8916-4.6634q-0.85244 0-1.3706 0.53487-0.50144 0.53487-0.60173 1.5377h3.7775q-0.0334-1.0196-0.50144-1.5377-0.46801-0.53487-1.3037-0.53487z" fill="#7d93b2" style="font-variant-caps:normal;font-variant-east-asian:normal;font-variant-ligatures:normal;font-variant-numeric:normal"/>
 <path d="m237.96 70.144q-0.36772 0-0.58501-0.18386-0.21729-0.16715-0.21729-0.45129 0-0.26743 0.21729-0.45129 0.234-0.16715 0.58501-0.16715h6.7527q0.35101 0 0.56829 0.16715 0.23401 0.18386 0.23401 0.45129 0 0.28415-0.21729 0.45129-0.21729 0.18386-0.58501 0.18386z" fill="#7d93b2" style="font-variant-caps:normal;font-variant-east-asian:normal;font-variant-ligatures:normal;font-variant-numeric:normal"/>
 <path d="m246.32 70.144q-0.36772 0-0.58501-0.18386-0.21729-0.16715-0.21729-0.45129 0-0.26743 0.21729-0.45129 0.234-0.16715 0.58501-0.16715h6.7527q0.351 0 0.56829 0.16715 0.23401 0.18386 0.23401 0.45129 0 0.28415-0.21729 0.45129-0.21729 0.18386-0.58501 0.18386z" fill="#7d93b2" style="font-variant-caps:normal;font-variant-east-asian:normal;font-variant-ligatures:normal;font-variant-numeric:normal"/>
 <path d="m254.67 70.144q-0.36772 0-0.58501-0.18386-0.21729-0.16715-0.21729-0.45129 0-0.26743 0.21729-0.45129 0.234-0.16715 0.58501-0.16715h6.7527q0.351 0 0.56829 0.16715 0.23401 0.18386 0.23401 0.45129 0 0.28415-0.21729 0.45129-0.21729 0.18386-0.58501 0.18386z" fill="#7d93b2" style="font-variant-caps:normal;font-variant-east-asian:normal;font-variant-ligatures:normal;font-variant-numeric:normal"/>
 <path d="m263.03 70.144q-0.36772 0-0.58501-0.18386-0.21729-0.16715-0.21729-0.45129 0-0.26743 0.21729-0.45129 0.234-0.16715 0.58501-0.16715h6.7527q0.351 0 0.56829 0.16715 0.23401 0.18386 0.23401 0.45129 0 0.28415-0.21729 0.45129-0.21729 0.18386-0.58501 0.18386z" fill="#7d93b2" style="font-variant-caps:normal;font-variant-east-asian:normal;font-variant-ligatures:normal;font-variant-numeric:normal"/>
 <path d="m271.39 70.144q-0.36772 0-0.58501-0.18386-0.21729-0.16715-0.21729-0.45129 0-0.26743 0.21729-0.45129 0.234-0.16715 0.58501-0.16715h6.7527q0.351 0 0.56829 0.16715 0.23401 0.18386 0.23401 0.45129 0 0.28415-0.21729 0.45129-0.21729 0.18386-0.58501 0.18386z" fill="#7d93b2" style="font-variant-caps:normal;font-variant-east-asian:normal;font-variant-ligatures:normal;font-variant-numeric:normal"/>
 <path d="m279.75 70.144q-0.36772 0-0.58501-0.18386-0.21729-0.16715-0.21729-0.45129 0-0.26743 0.21729-0.45129 0.234-0.16715 0.58501-0.16715h6.7527q0.351 0 0.56829 0.16715 0.23401 0.18386 0.23401 0.45129 0 0.28415-0.21729 0.45129-0.21729 0.18386-0.58501 0.18386z" fill="#7d93b2" style="font-variant-caps:normal;font-variant-east-asian:normal;font-variant-ligatures:normal;font-variant-numeric:normal"/>
 <path d="m288.1 70.144q-0.36772 0-0.58501-0.18386-0.21729-0.16715-0.21729-0.45129 0-0.26743 0.21729-0.45129 0.234-0.16715 0.58501-0.16715h6.7527q0.351 0 0.56829 0.16715 0.23401 0.18386 0.23401 0.45129 0 0.28415-0.21729 0.45129-0.21729 0.18386-0.58501 0.18386z" fill="#7d93b2" style="font-variant-caps:normal;font-variant-east-asian:normal;font-variant-ligatures:normal;font-variant-numeric:normal"/>
 <path d="m300.5 67.436q0.83573 0.05014 0.83573 0.75216 0 0.40115-0.33429 0.61844-0.31758 0.20058-0.9193 0.16715l-0.4513-0.03343q-2.808-0.20058-2.808-3.0086v-3.6438h-0.83573q-0.4513 0-0.70201-0.20058-0.23401-0.20058-0.23401-0.58501 0-0.38444 0.23401-0.58501 0.25071-0.20058 0.70201-0.20058h0.83573v-1.5377q0-0.45129 0.28415-0.71873 0.28414-0.26743 0.76887-0.26743 0.46801 0 0.75216 0.26743 0.28414 0.26743 0.28414 0.71873v1.5377h1.4207q0.4513 0 0.6853 0.20058 0.25072 0.20058 0.25072 0.58501 0 0.38444-0.25072 0.58501-0.234 0.20058-0.6853 0.20058h-1.4207v3.7942q0 1.2369 1.1366 1.3205z" fill="#7d93b2" style="font-variant-caps:normal;font-variant-east-asian:normal;font-variant-ligatures:normal;font-variant-numeric:normal"/>
 <path d="m306.15 69.024q-1.2536 0-2.2063-0.51815-0.93602-0.51815-1.4542-1.4876-0.51815-0.96945-0.51815-2.2565 0-1.287 0.51815-2.2398 0.51815-0.96945 1.4542-1.4876 0.95273-0.51815 2.2063-0.51815 1.2536 0 2.1896 0.51815 0.95273 0.51815 1.4542 1.4876 0.51815 0.95273 0.51815 2.2398 0 1.287-0.51815 2.2565-0.50144 0.96945-1.4542 1.4876-0.93602 0.51815-2.1896 0.51815zm-0.0167-1.6213q1.0196 0 1.5545-0.66858t0.53487-1.9723q0-1.287-0.53487-1.9556-0.53487-0.6853-1.5377-0.6853-1.0029 0-1.5545 0.6853-0.53487 0.66858-0.53487 1.9556 0 1.3037 0.53487 1.9723t1.5377 0.66858z" fill="#7d93b2" style="font-variant-caps:normal;font-variant-east-asian:normal;font-variant-ligatures:normal;font-variant-numeric:normal"/>
 <path d="m320.81 67.436q0.83573 0.05014 0.83573 0.75216 0 0.40115-0.33429 0.61844-0.31758 0.20058-0.91931 0.16715l-0.45129-0.03343q-2.808-0.20058-2.808-3.0086v-3.6438h-0.83573q-0.4513 0-0.70202-0.20058-0.234-0.20058-0.234-0.58501 0-0.38444 0.234-0.58501 0.25072-0.20058 0.70202-0.20058h0.83573v-1.5377q0-0.45129 0.28414-0.71873 0.28415-0.26743 0.76888-0.26743 0.46801 0 0.75215 0.26743 0.28415 0.26743 0.28415 0.71873v1.5377h1.4207q0.4513 0 0.6853 0.20058 0.25072 0.20058 0.25072 0.58501 0 0.38444-0.25072 0.58501-0.234 0.20058-0.6853 0.20058h-1.4207v3.7942q0 1.2369 1.1366 1.3205z" fill="#7d93b2" style="font-variant-caps:normal;font-variant-east-asian:normal;font-variant-ligatures:normal;font-variant-numeric:normal"/>
 <path d="m327.51 60.517q2.8749 0 2.8749 3.3596v4.1118q0 0.46801-0.28415 0.73544-0.26743 0.26743-0.75215 0.26743-0.48473 0-0.76888-0.26743-0.28414-0.26743-0.28414-0.73544v-4.1118q0-0.88587-0.36773-1.287-0.351-0.41786-1.1199-0.41786-0.90259 0-1.4542 0.5683-0.53487 0.5683-0.53487 1.521v3.7274q0 0.46801-0.28415 0.73544-0.28415 0.26743-0.76887 0.26743t-0.76887-0.26743q-0.26744-0.26743-0.26744-0.73544v-9.9953q0-0.43458 0.28415-0.70201 0.30087-0.26743 0.76887-0.26743 0.46801 0 0.75216 0.25072t0.28415 0.6853v3.8945q0.41786-0.65187 1.1032-0.98616 0.70202-0.35101 1.5879-0.35101z" fill="#7d93b2" style="font-variant-caps:normal;font-variant-east-asian:normal;font-variant-ligatures:normal;font-variant-numeric:normal"/>
 <path d="m338.99 66.651q0.28414 0 0.45129 0.21729 0.18386 0.21729 0.18386 0.58501 0 0.51815-0.61844 0.86916-0.5683 0.31758-1.287 0.51815-0.71873 0.18386-1.3706 0.18386-1.9723 0-3.1256-1.1366-1.1533-1.1366-1.1533-3.1089 0-1.2536 0.50144-2.223 0.50144-0.96945 1.404-1.5043 0.9193-0.53487 2.0726-0.53487 1.1032 0 1.9222 0.48472 0.81902 0.48472 1.2703 1.3706 0.4513 0.88587 0.4513 2.0893 0 0.71873-0.63516 0.71873h-4.9308q0.10028 1.1533 0.65187 1.7049 0.55158 0.53487 1.6046 0.53487 0.53487 0 0.93602-0.13372 0.41786-0.13372 0.93601-0.36772 0.50144-0.26743 0.73545-0.26743zm-2.8916-4.6634q-0.85244 0-1.3706 0.53487-0.50144 0.53487-0.60172 1.5377h3.7775q-0.0334-1.0196-0.50144-1.5377-0.46801-0.53487-1.3037-0.53487z" fill="#7d93b2" style="font-variant-caps:normal;font-variant-east-asian:normal;font-variant-ligatures:normal;font-variant-numeric:normal"/>
 <path d="m350.64 60.517q1.053 0 1.872 0.53487 0.83573 0.53487 1.287 1.521 0.46801 0.96945 0.46801 2.2398 0 1.2703-0.46801 2.223-0.4513 0.95273-1.2703 1.4709-0.81902 0.51815-1.8888 0.51815-0.86916 0-1.5545-0.36772t-1.053-1.0196v3.4098q0 0.43458-0.28415 0.6853t-0.75216 0.25072q-0.468 0-0.76887-0.26743-0.28415-0.26743-0.28415-0.70201v-9.4772q0-0.45129 0.26744-0.71873 0.28415-0.26743 0.75215-0.26743 0.46801 0 0.75216 0.26743t0.28415 0.71873v0.41786q0.36772-0.6853 1.053-1.053 0.70201-0.38444 1.5879-0.38444zm-0.55158 6.8864q0.98616 0 1.5377-0.66858 0.55158-0.6853 0.55158-1.9222 0-1.2703-0.55158-1.9723-0.55158-0.70201-1.5377-0.70201-1.0029 0-1.5545 0.6853-0.53487 0.6853-0.53487 1.9556 0 1.2536 0.53487 1.9389 0.55158 0.6853 1.5545 0.6853z" fill="#7d93b2" style="font-variant-caps:normal;font-variant-east-asian:normal;font-variant-ligatures:normal;font-variant-numeric:normal"/>
 <path d="m360.56 60.55q0.43458-0.03343 0.6853 0.18386 0.25072 0.21729 0.25072 0.65187 0 0.4513-0.21729 0.66858-0.21729 0.21729-0.78559 0.28415l-0.50144 0.05014q-0.98616 0.10029-1.4542 0.66858-0.45129 0.5683-0.45129 1.4207v3.5101q0 0.48472-0.30086 0.75216-0.30087 0.25072-0.75216 0.25072t-0.75216-0.25072q-0.28414-0.26743-0.28414-0.75216v-6.4686q0-0.46801 0.28414-0.71873 0.30087-0.25072 0.73545-0.25072t0.70201 0.25072q0.26743 0.234 0.26743 0.6853v0.66858q0.31758-0.73544 0.93602-1.1366 0.63515-0.40115 1.404-0.45129z" fill="#7d93b2" style="font-variant-caps:normal;font-variant-east-asian:normal;font-variant-ligatures:normal;font-variant-numeric:normal"/>
 <path d="m365.96 69.024q-1.2536 0-2.2063-0.51815-0.93601-0.51815-1.4542-1.4876-0.51815-0.96945-0.51815-2.2565 0-1.287 0.51815-2.2398 0.51816-0.96945 1.4542-1.4876 0.95274-0.51815 2.2063-0.51815 1.2536 0 2.1896 0.51815 0.95274 0.51815 1.4542 1.4876 0.51816 0.95273 0.51816 2.2398 0 1.287-0.51816 2.2565-0.50143 0.96945-1.4542 1.4876-0.93601 0.51815-2.1896 0.51815zm-0.0167-1.6213q1.0196 0 1.5544-0.66858 0.53487-0.66858 0.53487-1.9723 0-1.287-0.53487-1.9556-0.53486-0.6853-1.5377-0.6853-1.0029 0-1.5545 0.6853-0.53486 0.66858-0.53486 1.9556 0 1.3037 0.53486 1.9723 0.53487 0.66858 1.5378 0.66858z" fill="#7d93b2" style="font-variant-caps:normal;font-variant-east-asian:normal;font-variant-ligatures:normal;font-variant-numeric:normal"/>
 <path d="m376.53 60.517q1.053 0 1.872 0.53487 0.83573 0.53487 1.287 1.521 0.46801 0.96945 0.46801 2.2398 0 1.2703-0.46801 2.223-0.4513 0.95273-1.2703 1.4709-0.81902 0.51815-1.8888 0.51815-0.86916 0-1.5545-0.36772t-1.053-1.0196v3.4098q0 0.43458-0.28415 0.6853t-0.75215 0.25072q-0.46801 0-0.76888-0.26743-0.28414-0.26743-0.28414-0.70201v-9.4772q0-0.45129 0.26743-0.71873 0.28415-0.26743 0.75216-0.26743 0.468 0 0.75215 0.26743t0.28415 0.71873v0.41786q0.36772-0.6853 1.053-1.053 0.70201-0.38444 1.5879-0.38444zm-0.55158 6.8864q0.98616 0 1.5377-0.66858 0.55158-0.6853 0.55158-1.9222 0-1.2703-0.55158-1.9723-0.55158-0.70201-1.5377-0.70201-1.0029 0-1.5545 0.6853-0.53487 0.6853-0.53487 1.9556 0 1.2536 0.53487 1.9389 0.55158 0.6853 1.5545 0.6853z" fill="#7d93b2" style="font-variant-caps:normal;font-variant-east-asian:normal;font-variant-ligatures:normal;font-variant-numeric:normal"/>
 <path d="m385.61 69.024q-1.2536 0-2.2063-0.51815-0.93602-0.51815-1.4542-1.4876-0.51815-0.96945-0.51815-2.2565 0-1.287 0.51815-2.2398 0.51816-0.96945 1.4542-1.4876 0.95273-0.51815 2.2063-0.51815 1.2536 0 2.1896 0.51815 0.95274 0.51815 1.4542 1.4876 0.51816 0.95273 0.51816 2.2398 0 1.287-0.51816 2.2565-0.50143 0.96945-1.4542 1.4876-0.93601 0.51815-2.1896 0.51815zm-0.0167-1.6213q1.0196 0 1.5545-0.66858 0.53486-0.66858 0.53486-1.9723 0-1.287-0.53486-1.9556-0.53487-0.6853-1.5378-0.6853-1.0029 0-1.5545 0.6853-0.53486 0.66858-0.53486 1.9556 0 1.3037 0.53486 1.9723 0.53487 0.66858 1.5378 0.66858z" fill="#7d93b2" style="font-variant-caps:normal;font-variant-east-asian:normal;font-variant-ligatures:normal;font-variant-numeric:normal"/>
 <path d="m394.44 69.024q-1.8219 0-2.9418-0.71873-0.53487-0.31758-0.53487-0.90259 0-0.33429 0.18386-0.53487 0.18386-0.21729 0.4513-0.21729 0.28415 0 0.78558 0.26743 0.53487 0.25072 0.96945 0.38444 0.45129 0.13372 1.1366 0.13372 0.70202 0 1.0864-0.234 0.40115-0.234 0.40115-0.65187 0-0.28415-0.16714-0.4513-0.15043-0.16715-0.5683-0.30086-0.40115-0.15043-1.2369-0.33429-1.4876-0.30086-2.1395-0.85244-0.63515-0.55158-0.63515-1.521 0-0.73544 0.43458-1.3205 0.43458-0.60172 1.1867-0.9193 0.76887-0.33429 1.7383-0.33429 0.70201 0 1.3539 0.18386 0.65187 0.16715 1.17 0.50144 0.53486 0.33429 0.53486 0.88587 0 0.33429-0.18386 0.5683-0.18386 0.21729-0.45129 0.21729-0.18386 0-0.36772-0.06686-0.16715-0.08357-0.43458-0.234-0.48473-0.25072-0.83573-0.36772-0.35101-0.13372-0.86916-0.13372-0.61844 0-0.98616 0.25072-0.35101 0.25072-0.35101 0.6853 0 0.41786 0.36772 0.63515 0.36772 0.21729 1.4207 0.43458 1.1199 0.234 1.755 0.53487 0.63515 0.30086 0.90258 0.75216 0.28415 0.45129 0.28415 1.1533 0 1.1366-0.95273 1.8219-0.93602 0.6853-2.5072 0.6853z" fill="#7d93b2" style="font-variant-caps:normal;font-variant-east-asian:normal;font-variant-ligatures:normal;font-variant-numeric:normal"/>
 <path d="m403.12 60.517q1.7049 0 2.5239 0.85244 0.83573 0.83573 0.83573 2.5573v4.0784q0 0.45129-0.26744 0.71873-0.26743 0.25072-0.73544 0.25072-0.43458 0-0.71873-0.26743-0.26743-0.26743-0.26743-0.70201v-0.36772q-0.28415 0.65187-0.90259 1.0196-0.60173 0.36772-1.404 0.36772-0.81901 0-1.4876-0.33429-0.66858-0.33429-1.053-0.9193-0.38443-0.58501-0.38443-1.3037 0-0.90259 0.45129-1.4207 0.46801-0.51815 1.5043-0.75216 1.0363-0.234 2.8582-0.234h0.41787v-0.38444q0-0.81902-0.35101-1.1867-0.351-0.38444-1.1366-0.38444-0.48472 0-0.98616 0.15043-0.50144 0.13372-1.1867 0.40115-0.43458 0.21729-0.63515 0.21729-0.30087 0-0.50144-0.21729-0.18386-0.21729-0.18386-0.5683 0-0.28415 0.13371-0.48472 0.15044-0.21729 0.48473-0.40115 0.58501-0.31758 1.3873-0.50144 0.81902-0.18386 1.6046-0.18386zm-0.51815 7.0034q0.83573 0 1.3539-0.55158 0.53487-0.5683 0.53487-1.4542v-0.35101h-0.30086q-1.1199 0-1.7383 0.10029-0.61844 0.10029-0.88588 0.35101-0.26743 0.25072-0.26743 0.6853 0 0.53487 0.36772 0.88587 0.38444 0.33429 0.93602 0.33429z" fill="#7d93b2" style="font-variant-caps:normal;font-variant-east-asian:normal;font-variant-ligatures:normal;font-variant-numeric:normal"/>
 <path d="m409.62 68.991q-0.45129 0-0.75215-0.25072-0.28415-0.26743-0.28415-0.75216v-9.9786q0-0.48472 0.28415-0.73544 0.30086-0.25072 0.75215-0.25072 0.4513 0 0.75216 0.25072t0.30086 0.73544v9.9786q0 0.48472-0.30086 0.75216-0.30086 0.25072-0.75216 0.25072z" fill="#7d93b2" style="font-variant-caps:normal;font-variant-east-asian:normal;font-variant-ligatures:normal;font-variant-numeric:normal"/>
 <path d="m413.82 68.991q-0.53487 0-0.88588-0.35101-0.351-0.36772-0.351-0.90259t0.351-0.88587q0.35101-0.36772 0.88588-0.36772t0.88587 0.36772q0.35101 0.35101 0.35101 0.88587t-0.35101 0.90259q-0.351 0.35101-0.88587 0.35101z" fill="#7d93b2" style="font-variant-caps:normal;font-variant-east-asian:normal;font-variant-ligatures:normal;font-variant-numeric:normal"/>
 <path d="m57.035 120.26c-0.20962 0-0.41337 0.0633-0.61133 0.1914l-2.6562 1.7305c-0.18633 0.10481-0.2793 0.27889-0.2793 0.52344 0 0.17468 0.0593 0.33885 0.17578 0.49024 0.1281 0.15138 0.27252 0.22656 0.43555 0.22656 0.0932 0 0.18614-0.0297 0.2793-0.0879l1.9043-1.2402v9.3633h-2.166c-0.20962 0-0.37183 0.0515-0.48828 0.15625-0.11645 0.10481-0.17579 0.25118-0.17579 0.4375 1e-5 0.19798 0.0534 0.34832 0.15821 0.45313 0.11645 0.10481 0.2846 0.1582 0.50586 0.1582h5.7812c0.22126 0 0.38543-0.0534 0.49023-0.1582 0.11646-0.10481 0.17383-0.25515 0.17383-0.45313 0-0.18632-0.0574-0.33269-0.17383-0.4375-0.11645-0.1048-0.28062-0.15625-0.49023-0.15625h-2.1836v-10.463c0-0.2329-0.0633-0.41486-0.1914-0.54297-0.1281-0.1281-0.29031-0.1914-0.48828-0.1914zm43.48 0c-0.22126 0-0.39729 0.0633-0.52539 0.1914-0.12809 0.12811-0.1914 0.29227-0.1914 0.49024v11.109c0 0.20962 0.0633 0.37777 0.1914 0.50586 0.1281 0.1281 0.30413 0.19336 0.52539 0.19336 0.22127 0 0.38941-0.0653 0.50586-0.19336 0.1281-0.12809 0.19141-0.29624 0.19141-0.50586v-0.94335c0.25619 0.53568 0.63004 0.9491 1.1191 1.2402 0.50075 0.29113 1.0823 0.4375 1.7461 0.4375 0.7453 0 1.404-0.18789 1.9746-0.56055 0.57062-0.37264 1.0137-0.89091 1.3281-1.5547 0.31443-0.67543 0.4707-1.4548 0.4707-2.3398 0-0.87339-0.15627-1.6429-0.4707-2.3066-0.31442-0.66378-0.75751-1.1761-1.3281-1.5371-0.57061-0.361-1.2293-0.54101-1.9746-0.54101-0.66378 0-1.2453 0.14636-1.7461 0.4375-0.4891 0.29112-0.86295 0.70454-1.1191 1.2402v-4.6816c0-0.20961-0.0633-0.37378-0.19141-0.49024-0.11645-0.12809-0.28459-0.1914-0.50586-0.1914zm10.166 0.12305c-0.27949 0-0.50696 0.0811-0.68164 0.24414-0.17467 0.16303-0.26172 0.37271-0.26172 0.6289 0 0.26784 0.087 0.48345 0.26172 0.64649 0.17468 0.16304 0.40215 0.24414 0.68164 0.24414s0.50696-0.0811 0.68164-0.24414 0.26172-0.37865 0.26172-0.64649c0-0.25619-0.087-0.46587-0.26172-0.6289-0.17468-0.16304-0.40215-0.24414-0.68164-0.24414zm22.137 1.0996c-0.22126 0-0.39729 0.0633-0.52539 0.1914-0.1281 0.11645-0.19141 0.28655-0.19141 0.50781v1.9727h-1.1699c-0.19797 0-0.3562 0.0534-0.47266 0.1582-0.1048 0.10482-0.15625 0.24525-0.15625 0.41993 0 0.16303 0.0515 0.29557 0.15625 0.40039 0.11646 0.0932 0.27469 0.14062 0.47266 0.14062h1.1699v4.3848c0 0.98984 0.22154 1.7277 0.66406 2.2168 0.44253 0.48911 1.1289 0.76998 2.0606 0.83985l0.47266 0.0351c0.29113 0.0233 0.50674-0.0123 0.64648-0.10547 0.15139-0.1048 0.22657-0.25711 0.22657-0.45507 0-0.33772-0.20375-0.52366-0.61133-0.5586l-0.47266-0.0352c-0.52403-0.0349-0.91966-0.19123-1.1875-0.47071-0.2562-0.29113-0.38281-0.75794-0.38281-1.3984v-4.4531h1.9375c0.18632 0 0.33269-0.0475 0.4375-0.14062 0.11645-0.10482 0.17383-0.23736 0.17383-0.40039 0-0.17468-0.0574-0.31511-0.17383-0.41993-0.10481-0.1048-0.25118-0.1582-0.4375-0.1582h-1.9375v-1.9727c0-0.22126-0.0653-0.39136-0.19336-0.50781-0.1281-0.1281-0.29625-0.1914-0.50586-0.1914zm-39.18 2.4629c-0.80352 0-1.5137 0.18001-2.1309 0.54101-0.60555 0.36101-1.0783 0.87926-1.416 1.5547-0.32607 0.66378-0.48828 1.4392-0.48828 2.3242s0.16221 1.6644 0.48828 2.3398c0.33771 0.66378 0.81046 1.1761 1.416 1.5371 0.6172 0.36101 1.3273 0.54297 2.1309 0.54297 0.80353 0 1.5137-0.18196 2.1309-0.54297 0.6172-0.361 1.088-0.87333 1.4141-1.5371 0.33772-0.67543 0.50782-1.4548 0.50782-2.3398s-0.1701-1.6604-0.50782-2.3242c-0.32606-0.67543-0.79686-1.1937-1.4141-1.5547-0.6172-0.361-1.3273-0.54101-2.1309-0.54101zm23.898 0c-0.78023 0-1.4785 0.18594-2.0957 0.55859-0.60556 0.37265-1.0783 0.89684-1.416 1.5723-0.33771 0.66379-0.50586 1.4332-0.50586 2.3066 0 1.3741 0.37783 2.4502 1.1348 3.2305 0.76859 0.78024 1.811 1.1719 3.127 1.1719 0.44252 0 0.89747-0.0593 1.3633-0.17578 0.46581-0.1281 0.90695-0.31404 1.3262-0.5586 0.40759-0.24454 0.61133-0.5116 0.61133-0.80273 0-0.16303-0.0455-0.29754-0.13867-0.40234-0.0932-0.10481-0.20394-0.15821-0.33203-0.15821-0.10481 0-0.30855 0.087-0.61133 0.26172-0.37265 0.20962-0.72276 0.37971-1.0488 0.50781-0.32606 0.11645-0.71575 0.17383-1.1699 0.17383-1.7934 0-2.7428-1.0009-2.8477-3.0039h5.625c0.20962 0 0.36192-0.0534 0.45508-0.15821 0.0932-0.1048 0.13867-0.27296 0.13867-0.50586 0-1.2344-0.32638-2.2116-0.97851-2.9336-0.65214-0.72201-1.5304-1.084-2.6367-1.084zm9.2812 0c-0.80353 0-1.5137 0.18594-2.1309 0.55859s-1.0999 0.89684-1.4492 1.5723c-0.33771 0.67543-0.50781 1.4508-0.50781 2.3242 0 0.8734 0.16417 1.6409 0.49023 2.3047 0.33772 0.66378 0.80851 1.1761 1.4141 1.5371 0.6172 0.36101 1.3214 0.54297 2.1133 0.54297 0.46581 0 0.92669-0.0653 1.3809-0.19336 0.4658-0.13975 0.86143-0.31976 1.1875-0.54102 0.22126-0.15138 0.3716-0.28589 0.45312-0.40234 0.0815-0.12809 0.12305-0.26657 0.12305-0.41797 0-0.16303-0.0475-0.29754-0.14063-0.40234-0.0815-0.10481-0.18635-0.1582-0.31445-0.1582-0.0815-1e-5 -0.18043 0.0297-0.29688 0.0879s-0.23713 0.12747-0.36523 0.20898c-0.29113 0.19797-0.58387 0.3562-0.875 0.47266-0.27948 0.11645-0.61578 0.17382-1.0117 0.17382-0.8501 0-1.5147-0.27891-1.9922-0.83789-0.46581-0.55897-0.69921-1.3502-0.69921-2.375 0-1.0248 0.2334-1.8239 0.69921-2.3945 0.47746-0.58226 1.1421-0.87304 1.9922-0.87304 0.39594 0 0.7263 0.0593 0.99414 0.17578 0.27949 0.11645 0.57223 0.27273 0.875 0.4707 0.0233 0.0116 0.0629 0.0413 0.1211 0.0879 0.0699 0.0466 0.15097 0.0921 0.24414 0.13867 0.0932 0.0466 0.18215 0.0703 0.26367 0.0703 0.13974 0 0.25051-0.0514 0.33203-0.15624 0.0932-0.10481 0.13867-0.23932 0.13867-0.40235s-0.0455-0.3094-0.13867-0.4375c-0.0815-0.13974-0.22789-0.27822-0.4375-0.41797-0.32607-0.2329-0.70982-0.40894-1.1523-0.52539-0.43088-0.1281-0.86803-0.1914-1.3106-0.1914zm13.787 0c-0.62885 0-1.1926 0.11077-1.6934 0.33203-0.4891 0.22126-0.87481 0.52391-1.1543 0.9082-0.27948 0.38429-0.41797 0.82738-0.41797 1.3281 0 0.64049 0.22155 1.1469 0.66407 1.5195 0.44252 0.37264 1.1764 0.66936 2.2012 0.89062 0.60555 0.1281 1.0645 0.25667 1.3789 0.38477 0.31443 0.11645 0.53597 0.25493 0.66407 0.41797 0.1281 0.15139 0.1914 0.35513 0.1914 0.61132 0 0.41923-0.17407 0.73968-0.52343 0.96094s-0.83795 0.33203-1.4668 0.33203c-0.51239 0-0.94361-0.0574-1.293-0.17383-0.33771-0.1281-0.68189-0.29819-1.0312-0.50781-0.26784-0.17468-0.47158-0.26172-0.61133-0.26172-0.13974 0-0.25644 0.0534-0.34961 0.15821-0.0815 0.0932-0.12109 0.2158-0.12109 0.36718 0 0.17468 0.0396 0.32503 0.12109 0.45313 0.0932 0.11645 0.24547 0.24502 0.45508 0.38476 0.37265 0.23291 0.79793 0.41292 1.2754 0.54102 0.4891 0.1281 1.0014 0.19336 1.5371 0.19336 1.0131 0 1.8281-0.22154 2.4453-0.66406 0.6172-0.45417 0.92578-1.0496 0.92578-1.7832 0-0.46581-0.093-0.84957-0.27929-1.1523-0.18633-0.30278-0.50084-0.55796-0.94336-0.76758-0.43088-0.20961-1.0421-0.40149-1.834-0.57617-0.53568-0.11645-0.9491-0.23316-1.2402-0.34961-0.27949-0.12809-0.48324-0.26853-0.61133-0.41992-0.11645-0.16303-0.17578-0.37271-0.17578-0.62891 0-0.40758 0.16417-0.73397 0.49023-0.97851 0.33772-0.24456 0.77885-0.36719 1.3262-0.36719 0.43087 0 0.79285 0.0593 1.084 0.17578 0.29113 0.11645 0.59972 0.27867 0.92578 0.48828 0.27949 0.19797 0.48917 0.29688 0.62891 0.29688 0.1281 0 0.23887-0.0515 0.33203-0.15625 0.0932-0.10481 0.13867-0.23338 0.13867-0.38477 0-0.30278-0.19782-0.59356-0.59375-0.87305-0.32607-0.22126-0.70389-0.39136-1.1348-0.50781-0.41923-0.1281-0.85638-0.1914-1.3106-0.1914zm-29.924 0.0352c-0.20961 0-0.3837 0.0633-0.52344 0.19141-0.1281 0.11645-0.19336 0.28655-0.19336 0.50781v8.1738c0 0.64049-0.12661 1.1014-0.38281 1.3809-0.24455 0.27948-0.63026 0.43577-1.1543 0.4707l-0.48828 0.0352c-0.40758 0.0466-0.61133 0.22659-0.61133 0.54101 0 0.19797 0.0752 0.34434 0.22657 0.4375 0.13974 0.10479 0.35535 0.14632 0.64648 0.12305l0.49024-0.0352c0.91998-0.0699 1.5945-0.34879 2.0254-0.83789 0.44252-0.4891 0.66406-1.223 0.66406-2.2012v-8.0879c0-0.22126-0.0633-0.39136-0.19141-0.50781-0.1281-0.1281-0.2982-0.19141-0.50781-0.19141zm6.873 1.0664c0.73364 0 1.3034 0.23146 1.7109 0.69726 0.40761 0.45417 0.62322 1.1129 0.64649 1.9746h-4.9434c0.0815-0.8501 0.34459-1.5088 0.78711-1.9746 0.45417-0.4658 1.0535-0.69726 1.7988-0.69726zm-23.916 0.0684c0.82682 0 1.4677 0.28681 1.9219 0.85742 0.45416 0.55897 0.67968 1.3561 0.67968 2.3926 0 1.0597-0.22552 1.8688-0.67968 2.4277-0.44252 0.54733-1.0834 0.82031-1.9219 0.82031s-1.4853-0.27891-1.9394-0.83789c-0.44252-0.55897-0.66406-1.3621-0.66406-2.4102 0-1.0364 0.22748-1.8336 0.68164-2.3926 0.45416-0.57061 1.0951-0.85742 1.9219-0.85742zm10.16 0.0176c0.82682 0 1.4677 0.28087 1.9219 0.83984 0.45417 0.55897 0.68164 1.3443 0.68164 2.3574 0 1.0364-0.22747 1.8455-0.68164 2.4277-0.45416 0.57062-1.095 0.85546-1.9219 0.85546s-1.4677-0.27891-1.9219-0.83789c-0.44252-0.57062-0.66406-1.3737-0.66406-2.4102 0-1.0364 0.22154-1.8336 0.66406-2.3926 0.45416-0.55897 1.0951-0.83984 1.9219-0.83984zm-32.121 59.361c-0.67584 0-1.3354 0.11957-1.9785 0.35938s-1.1878 0.56624-1.6348 0.98047c-0.1744 0.1417-0.26172 0.32772-0.26172 0.55664 0 0.16351 0.0437 0.30392 0.13086 0.42383 0.0872 0.109 0.19064 0.16406 0.31055 0.16406 0.14171 0 0.29353-0.0645 0.45703-0.19531 0.47964-0.39243 0.95983-0.68188 1.4394-0.86719 0.47963-0.19621 0.98068-0.29492 1.5039-0.29492 0.66494 0 1.1774 0.16989 1.5371 0.50781 0.37062 0.33792 0.55664 0.82284 0.55664 1.4551 0 0.49052-0.12624 0.98017-0.37695 1.4707-0.23982 0.47963-0.63075 1.0263-1.1758 1.6367l-3.9414 4.332c-0.15261 0.15261-0.22852 0.33195-0.22852 0.53906 0 0.16351 0.0598 0.30588 0.17969 0.42578 0.11991 0.10901 0.27172 0.16407 0.45703 0.16407h6.4102c0.41423 0 0.62109-0.19075 0.62109-0.57227 0-0.17441-0.055-0.31205-0.16406-0.41015-0.10901-0.0981-0.26082-0.14649-0.45703-0.14649h-5.1836l3.2695-3.5488c0.68674-0.75214 1.1783-1.4325 1.4726-2.043 0.30522-0.61044 0.45703-1.2491 0.45703-1.9141 1e-5 -0.92655-0.3103-1.662-0.93164-2.207-0.61044-0.54503-1.4332-0.81641-2.4688-0.81641zm41.143 0.0488c-0.20711 0-0.37033 0.0598-0.49023 0.17969-0.11991 0.11991-0.18164 0.27172-0.18164 0.45703v10.4c0 0.19621 0.0617 0.35274 0.18164 0.47266 0.1199 0.1199 0.28312 0.18164 0.49023 0.18164 0.20712 0 0.36365-0.0617 0.47266-0.18164 0.11991-0.11992 0.18164-0.27645 0.18164-0.47266v-0.88281c0.23981 0.50143 0.58709 0.88764 1.0449 1.1602 0.46873 0.27252 1.0154 0.4082 1.6367 0.4082 0.69764 0 1.3135-0.17462 1.8477-0.52344 0.53413-0.34883 0.94787-0.83374 1.2422-1.4551 0.29432-0.63224 0.44141-1.363 0.44141-2.1914 0-0.81755-0.14709-1.5369-0.44141-2.1582-0.29431-0.62134-0.70805-1.0996-1.2422-1.4375-0.53414-0.33792-1.15-0.50781-1.8477-0.50781-0.62134 0-1.168 0.13568-1.6367 0.4082-0.45783 0.27252-0.80511 0.66068-1.0449 1.1621v-4.3828c0-0.19621-0.0617-0.34802-0.18164-0.45703-0.10901-0.11991-0.26554-0.17969-0.47266-0.17969zm49.697 0c-0.20712 0-0.37033 0.0598-0.49024 0.17969-0.109 0.10901-0.16406 0.26082-0.16406 0.45703v4.3828c-0.23981-0.50143-0.59377-0.88959-1.0625-1.1621-0.45783-0.27252-0.9978-0.4082-1.6191-0.4082-0.69765 0-1.3135 0.16989-1.8477 0.50781s-0.94786 0.81616-1.2422 1.4375-0.44141 1.3407-0.44141 2.1582c0 0.82845 0.14709 1.5592 0.44141 2.1914 0.29432 0.62134 0.70805 1.1062 1.2422 1.4551 0.53413 0.34882 1.15 0.52344 1.8477 0.52344 0.62134 0 1.1613-0.13569 1.6191-0.4082 0.46873-0.27252 0.82269-0.65873 1.0625-1.1602v0.88281c0 0.19621 0.0551 0.35274 0.16406 0.47266 0.11991 0.1199 0.28312 0.18164 0.49024 0.18164 0.20711 0 0.37033-0.0617 0.49023-0.18164 0.11991-0.11992 0.17969-0.27645 0.17969-0.47266v-10.4c0-0.18531-0.0598-0.33712-0.17969-0.45703-0.1199-0.11991-0.28312-0.17969-0.49023-0.17969zm-40.182 0.11328c-0.26162 0-0.47321 0.0779-0.63672 0.23047-0.16351 0.15262-0.2461 0.34808-0.2461 0.58789 1e-5 0.25072 0.0826 0.45286 0.2461 0.60547 0.16351 0.15261 0.3751 0.22852 0.63672 0.22852s0.47516-0.0759 0.63867-0.22852c0.16351-0.15261 0.24414-0.35475 0.24414-0.60547 0-0.23981-0.0806-0.43527-0.24414-0.58789-0.16351-0.1526-0.37705-0.23047-0.63867-0.23047zm20.721 1.0312c-0.20711 0-0.37033 0.0598-0.49023 0.17969-0.11991 0.10901-0.17969 0.2675-0.17969 0.47461v1.8477h-1.0957c-0.18532 0-0.3324 0.0484-0.44141 0.14648-0.0981 0.0981-0.14649 0.22907-0.14649 0.39258 0 0.15261 0.0484 0.27689 0.14649 0.375 0.10901 0.0872 0.25609 0.13086 0.44141 0.13086h1.0957v4.1055c0 0.92655 0.20687 1.6183 0.62109 2.0762 0.41423 0.45783 1.0576 0.71976 1.9297 0.78515l0.44141 0.0332c0.27251 0.0218 0.47465-0.0124 0.60547-0.0996 0.1417-0.0981 0.21289-0.23852 0.21289-0.42383 0-0.31609-0.19074-0.4907-0.57227-0.52344l-0.44141-0.0332c-0.49053-0.0327-0.86256-0.17979-1.1133-0.44141-0.23981-0.27251-0.35937-0.70905-0.35937-1.3086v-4.1699h1.8144c0.17441 0 0.31205-0.0437 0.41016-0.13086 0.109-0.0981 0.16211-0.22239 0.16211-0.375 0-0.16351-0.0531-0.29447-0.16211-0.39258-0.0981-0.0981-0.23575-0.14648-0.41016-0.14648h-1.8144v-1.8477c0-0.20711-0.0598-0.3656-0.17969-0.47461-0.11991-0.11991-0.2784-0.17969-0.47461-0.17969zm-36.674 2.3047c-0.75214 0-1.4184 0.16989-1.9961 0.50781-0.56684 0.33792-1.0081 0.82284-1.3242 1.4551-0.30522 0.62134-0.45703 1.3454-0.45703 2.1738s0.15181 1.5592 0.45703 2.1914c0.31611 0.62134 0.75738 1.1015 1.3242 1.4394 0.57773 0.33792 1.244 0.50586 1.9961 0.50586 0.75215 0 1.4164-0.16794 1.9941-0.50586 0.57774-0.33792 1.019-0.81811 1.3242-1.4394 0.31612-0.63224 0.47461-1.363 0.47461-2.1914s-0.15849-1.5525-0.47461-2.1738c-0.30522-0.63224-0.74648-1.1172-1.3242-1.4551-0.57773-0.33792-1.242-0.50781-1.9941-0.50781zm22.371 0c-0.73035 0-1.3852 0.17462-1.9629 0.52344-0.56684 0.34882-1.0081 0.84042-1.3242 1.4726-0.31612 0.62134-0.47461 1.3406-0.47461 2.1582 0 1.2863 0.35396 2.2931 1.0625 3.0234 0.71944 0.73034 1.696 1.0957 2.9277 1.0957 0.41423 0 0.83937-0.0531 1.2754-0.16211 0.43603-0.11991 0.84977-0.29453 1.2422-0.52344 0.38153-0.22891 0.57227-0.47943 0.57227-0.75195 0-0.15261-0.0437-0.27885-0.13086-0.37696-0.0872-0.0981-0.19064-0.14648-0.31055-0.14648-0.0981 0-0.28885 0.0806-0.57227 0.24414-0.34882 0.19621-0.67525 0.3547-0.98047 0.47461-0.30521 0.10901-0.67057 0.16406-1.0957 0.16406-1.6787 0-2.5679-0.93758-2.666-2.8125h5.2656c0.19621 0 0.33663-0.0503 0.42383-0.14843 0.0872-0.0981 0.13086-0.25465 0.13086-0.47266 0-1.1555-0.30363-2.0722-0.91406-2.748-0.61044-0.67584-1.4332-1.0137-2.4688-1.0137zm8.6875 0c-0.75215 0-1.4184 0.17462-1.9961 0.52344-0.57773 0.34882-1.0284 0.84042-1.3555 1.4726-0.31612 0.63224-0.47461 1.3563-0.47461 2.1738s0.15182 1.5369 0.45704 2.1582c0.31612 0.62134 0.75738 1.1015 1.3242 1.4394 0.57774 0.33792 1.2373 0.50586 1.9785 0.50586 0.43603 0 0.86784-0.0598 1.293-0.17969 0.43603-0.13081 0.80611-0.29875 1.1113-0.50586 0.20711-0.14171 0.34947-0.26795 0.42578-0.37695 0.0763-0.11991 0.11328-0.25087 0.11328-0.39258 0-0.15261-0.0436-0.27689-0.13086-0.375-0.0763-0.0981-0.17306-0.14844-0.29297-0.14844-0.0763 0-0.17029 0.0276-0.2793 0.082-0.109 0.0545-0.22384 0.12097-0.34375 0.19727-0.27252 0.18531-0.54389 0.3324-0.8164 0.44141-0.26162 0.109-0.5786 0.1621-0.94922 0.16211-0.79575 0-1.4164-0.25997-1.8633-0.78321-0.43603-0.52322-0.6543-1.2654-0.6543-2.2246s0.21827-1.7061 0.6543-2.2402c0.44692-0.54504 1.0675-0.81836 1.8633-0.81836 0.37062 0 0.68092 0.055 0.93164 0.16406 0.26161 0.10901 0.53494 0.25609 0.81836 0.44141 0.0218 0.0109 0.0608 0.0384 0.11523 0.082 0.0654 0.0436 0.14131 0.0873 0.22852 0.13086 0.0872 0.0436 0.16784 0.0664 0.24414 0.0664 0.13081 0 0.23425-0.0503 0.31055-0.14843 0.0872-0.0981 0.13086-0.22239 0.13086-0.375s-0.0437-0.29025-0.13086-0.41016c-0.0763-0.13081-0.21199-0.26176-0.40821-0.39258-0.30522-0.21801-0.66389-0.38123-1.0781-0.49023-0.40333-0.11991-0.81234-0.17969-1.2266-0.17969zm13.348 0c-0.73034 0-1.3852 0.17462-1.9629 0.52344-0.56683 0.34882-1.0081 0.84042-1.3242 1.4726-0.31612 0.62134-0.47461 1.3406-0.47461 2.1582 0 1.2863 0.35396 2.2931 1.0625 3.0234 0.71945 0.73034 1.696 1.0957 2.9277 1.0957 0.41422 0 0.83936-0.0531 1.2754-0.16211 0.43603-0.11991 0.84976-0.29453 1.2422-0.52344 0.38152-0.22891 0.57226-0.47943 0.57226-0.75195 0-0.15261-0.0437-0.27885-0.13086-0.37696-0.0872-0.0981-0.19064-0.14648-0.31054-0.14648-0.0981 0-0.28886 0.0806-0.57227 0.24414-0.34882 0.19621-0.67525 0.3547-0.98047 0.47461-0.30522 0.10901-0.67058 0.16406-1.0957 0.16406-1.6787 0-2.5679-0.93758-2.666-2.8125h5.2656c0.19621 0 0.33857-0.0503 0.42578-0.14843 0.0872-0.0981 0.13086-0.25465 0.13086-0.47266 0-1.1555-0.30558-2.0722-0.91602-2.748-0.61044-0.67584-1.4332-1.0137-2.4688-1.0137zm-28.453 0.0332c-0.19621 0-0.35942 0.0598-0.49024 0.17969-0.1199 0.10901-0.17968 0.2675-0.17968 0.47461v7.6523c0 0.59954-0.11957 1.0294-0.35938 1.291-0.22891 0.26159-0.58955 0.40867-1.0801 0.44141l-0.45703 0.0332c-0.38153 0.0436-0.57226 0.21154-0.57226 0.50586 0 0.18531 0.0712 0.32295 0.21289 0.41015 0.1308 0.0981 0.331 0.13509 0.60351 0.11329l0.45899-0.0312c0.86115-0.0654 1.4932-0.32733 1.8965-0.78516 0.41422-0.45783 0.62109-1.1449 0.62109-2.0606v-7.5703c0-0.20711-0.0598-0.3656-0.17968-0.47461-0.11991-0.11991-0.2784-0.17969-0.47461-0.17969zm6.4336 0.99805c0.68674 0 1.22 0.21632 1.6016 0.65234 0.38153 0.42512 0.58367 1.041 0.60547 1.8477h-4.627c0.0763-0.79575 0.32211-1.4116 0.73633-1.8477 0.42512-0.43602 0.98594-0.65234 1.6836-0.65234zm22.035 0c0.68674 0 1.222 0.21632 1.6035 0.65234 0.38152 0.42512 0.58172 1.041 0.60352 1.8477h-4.627c0.0763-0.79575 0.3221-1.4116 0.73632-1.8477 0.42512-0.43602 0.98595-0.65234 1.6836-0.65234zm-44.422 0.0645c0.77395 0 1.3737 0.26665 1.7988 0.80078 0.42513 0.52324 0.63672 1.2701 0.63672 2.2402 0 0.99196-0.21159 1.7502-0.63672 2.2734-0.41423 0.51233-1.014 0.76758-1.7988 0.76758-0.78484 0-1.3893-0.25997-1.8144-0.78321-0.41423-0.52322-0.62305-1.2768-0.62305-2.2578 0-0.97016 0.21355-1.717 0.63867-2.2402 0.42513-0.53413 1.0249-0.80078 1.7988-0.80078zm9.5117 0.0156c0.77395 0 1.3718 0.26192 1.7969 0.78515 0.42512 0.52324 0.63867 1.2587 0.63867 2.207 0 0.97016-0.21355 1.7284-0.63867 2.2734-0.42513 0.53414-1.0229 0.80079-1.7969 0.80079-0.77395-1e-5 -1.3737-0.25997-1.7988-0.78321-0.41422-0.53413-0.62109-1.2877-0.62109-2.2578 0-0.97016 0.20687-1.717 0.62109-2.2402 0.42513-0.52323 1.0249-0.78515 1.7988-0.78515zm43.549 0c0.77395 0 1.369 0.26192 1.7832 0.78515 0.42513 0.52324 0.63672 1.2701 0.63672 2.2402 0 0.97015-0.21159 1.7237-0.63672 2.2578-0.41422 0.52324-1.0092 0.78321-1.7832 0.78321s-1.3784-0.26665-1.8144-0.80079c-0.42513-0.54503-0.63868-1.3033-0.63868-2.2734 0-0.94836 0.21355-1.6838 0.63868-2.207 0.43602-0.52323 1.0405-0.78515 1.8144-0.78515zm-111.6 32.791a1.0001 1.0001 0 1 0 0 2h394.59a1.0001 1.0001 0 1 0 0-2zm23.816 28.184c-0.67584 0-1.3354 0.11956-1.9785 0.35937-0.63224 0.23982-1.1722 0.56625-1.6191 0.98047-0.1744 0.16352-0.26172 0.34953-0.26172 0.55664 0 0.16351 0.0437 0.2992 0.13086 0.40821 0.0872 0.109 0.19064 0.16406 0.31055 0.16406 0.15261 0 0.30443-0.0598 0.45703-0.17969 0.47964-0.39243 0.95983-0.68188 1.4394-0.86719 0.47963-0.19621 0.97595-0.29492 1.4883-0.29492 0.67584 0 1.1997 0.16989 1.5703 0.50781 0.37062 0.32702 0.55469 0.80054 0.55469 1.4219 0 0.70854-0.22772 1.2532-0.68555 1.6348-0.45783 0.37062-1.1126 0.55664-1.9629 0.55664h-0.60547c-0.17441 0-0.31482 0.0551-0.42383 0.16407-0.0981 0.109-0.14844 0.23996-0.14844 0.39258 0 0.1526 0.0503 0.28829 0.14844 0.4082 0.10901 0.10901 0.24942 0.16406 0.42383 0.16406h0.86719c1.7659 0 2.6484 0.70319 2.6484 2.1094 0 0.69764-0.21159 1.2309-0.63671 1.6016-0.41423 0.37062-1.0254 0.55664-1.832 0.55664-0.55594 0-1.0731-0.094-1.5527-0.2793s-0.97122-0.47948-1.4727-0.88281c-0.1526-0.11991-0.30441-0.17969-0.45703-0.17969-0.1199 0-0.22334 0.0551-0.31054 0.16407-0.0872 0.109-0.13086 0.24469-0.13086 0.4082 0 0.20711 0.0873 0.39313 0.26172 0.55664 0.44692 0.41423 0.99162 0.74065 1.6348 0.98047 0.65404 0.23981 1.3344 0.35937 2.043 0.35937 1.1664 0 2.0878-0.2875 2.7637-0.86523 0.67584-0.57774 1.0137-1.3682 1.0137-2.3711 0-0.70854-0.18406-1.3036-0.55468-1.7832-0.35972-0.47963-0.8883-0.81746-1.5859-1.0137 0.58863-0.21801 1.046-0.57197 1.373-1.0625 0.33792-0.50143 0.50585-1.0851 0.50585-1.75 0-0.89385-0.3103-1.6018-0.93164-2.125-0.61044-0.53413-1.4379-0.80078-2.4844-0.80078zm41.158 0.0488c-0.20711 0-0.37033 0.0598-0.49023 0.17968-0.11991 0.11992-0.18164 0.27173-0.18164 0.45703v10.4c0 0.19621 0.0617 0.3547 0.18164 0.4746 0.1199 0.11991 0.28312 0.17969 0.49023 0.17969 0.20712 0 0.36365-0.0598 0.47266-0.17969 0.11991-0.1199 0.18164-0.27839 0.18164-0.4746v-0.88282c0.23981 0.50144 0.58709 0.88764 1.0449 1.1602 0.46873 0.27251 1.0154 0.4082 1.6367 0.4082 0.69764 0 1.3135-0.17462 1.8477-0.52344 0.53413-0.34882 0.94787-0.83373 1.2422-1.4551 0.29432-0.63224 0.44141-1.361 0.44141-2.1895 0-0.81755-0.14709-1.5369-0.44141-2.1582-0.29431-0.62133-0.70805-1.1015-1.2422-1.4394-0.53414-0.33793-1.15-0.50782-1.8477-0.50782-0.62134 1e-5 -1.168 0.13764-1.6367 0.41016-0.45783 0.27251-0.80511 0.65872-1.0449 1.1602v-4.3828c0-0.19621-0.0617-0.34802-0.18164-0.45703-0.10901-0.1199-0.26554-0.17968-0.47266-0.17968zm9.5156 0.11328c-0.26162 0-0.47321 0.0779-0.63672 0.23047-0.16351 0.15261-0.2461 0.34807-0.2461 0.58789 1e-5 0.25071 0.0826 0.45285 0.2461 0.60547 0.16351 0.1526 0.3751 0.22851 0.63672 0.22851s0.47516-0.0759 0.63867-0.22851c0.16351-0.15262 0.24414-0.35476 0.24414-0.60547 0-0.23982-0.0806-0.43528-0.24414-0.58789-0.16351-0.15261-0.37705-0.23047-0.63867-0.23047zm20.721 1.0312c-0.20711 0-0.37033 0.0598-0.49023 0.17968-0.11991 0.10901-0.17969 0.2675-0.17969 0.47461v1.8477h-1.0957c-0.18532 0-0.3324 0.0484-0.44141 0.14649-0.0981 0.0981-0.14649 0.22906-0.14649 0.39257 0 0.15261 0.0484 0.27885 0.14649 0.37696 0.10901 0.0872 0.25609 0.13086 0.44141 0.13086h1.0957v4.1035c0 0.92656 0.20687 1.6184 0.62109 2.0762 0.41423 0.45784 1.0576 0.71976 1.9297 0.78516l0.44141 0.0332c0.27251 0.0218 0.47465-0.0124 0.60547-0.0996 0.1417-0.0981 0.21289-0.23852 0.21289-0.42382 0-0.3161-0.19074-0.49071-0.57227-0.52344l-0.44141-0.0332c-0.49053-0.0327-0.86256-0.17979-1.1133-0.4414-0.23981-0.27252-0.35937-0.70906-0.35937-1.3086v-4.168h1.8144c0.17441 0 0.31205-0.0437 0.41016-0.13086 0.109-0.0981 0.16211-0.22435 0.16211-0.37696 0-0.16351-0.0531-0.29448-0.16211-0.39257-0.0981-0.0981-0.23575-0.14649-0.41016-0.14649h-1.8144v-1.8477c0-0.20711-0.0598-0.3656-0.17969-0.47461-0.11991-0.1199-0.2784-0.17968-0.47461-0.17968zm-36.674 2.3047c-0.75214 1e-5 -1.4184 0.16989-1.9961 0.50782-0.56684 0.33792-1.0081 0.82284-1.3242 1.4551-0.30522 0.62134-0.45703 1.3454-0.45703 2.1738s0.15181 1.5592 0.45703 2.1914c0.31611 0.62134 0.75738 1.1015 1.3242 1.4394 0.57773 0.33792 1.244 0.50586 1.9961 0.50586 0.75215 0 1.4164-0.16794 1.9941-0.50586 0.57774-0.33792 1.019-0.81811 1.3242-1.4394 0.31612-0.63224 0.47461-1.363 0.47461-2.1914s-0.15849-1.5525-0.47461-2.1738c-0.30522-0.63224-0.74648-1.1172-1.3242-1.4551-0.57773-0.33793-1.242-0.50782-1.9941-0.50782zm22.371 0c-0.73035 1e-5 -1.3852 0.17462-1.9629 0.52344-0.56684 0.34882-1.0081 0.84042-1.3242 1.4727-0.31612 0.62133-0.47461 1.3406-0.47461 2.1582 0 1.2863 0.35396 2.2931 1.0625 3.0234 0.71944 0.73035 1.696 1.0957 2.9277 1.0957 0.41423 0 0.83937-0.0531 1.2754-0.16211 0.43603-0.1199 0.84977-0.29452 1.2422-0.52343 0.38153-0.22892 0.57227-0.47944 0.57227-0.75196 0-0.1526-0.0437-0.27884-0.13086-0.37695-0.0872-0.0981-0.19064-0.14649-0.31055-0.14649-0.0981 0-0.28885 0.0806-0.57227 0.24415-0.34882 0.1962-0.67525 0.3547-0.98047 0.47461-0.30521 0.109-0.67057 0.16406-1.0957 0.16406-1.6787 0-2.5679-0.93759-2.666-2.8125h5.2656c0.19621 0 0.33663-0.0484 0.42383-0.14649 0.0872-0.0981 0.13086-0.25659 0.13086-0.47461 0-1.1555-0.30363-2.0722-0.91406-2.748-0.61044-0.67585-1.4332-1.0137-2.4688-1.0137zm8.6875 0c-0.75215 0-1.4184 0.17462-1.9961 0.52344-0.57773 0.34882-1.0284 0.84042-1.3555 1.4727-0.31612 0.63223-0.47461 1.3563-0.47461 2.1738 0 0.81754 0.15182 1.5369 0.45704 2.1582 0.31612 0.62134 0.75738 1.1015 1.3242 1.4394 0.57774 0.33792 1.2373 0.50586 1.9785 0.50586 0.43603 0 0.86784-0.0598 1.293-0.17968 0.43603-0.13081 0.80611-0.29875 1.1113-0.50586 0.20711-0.14171 0.34947-0.26795 0.42578-0.37696 0.0763-0.11991 0.11328-0.25087 0.11328-0.39258 0-0.1526-0.0436-0.27689-0.13086-0.375-0.0763-0.0981-0.17306-0.14843-0.29297-0.14843-0.0763 0-0.17029 0.0276-0.2793 0.082-0.109 0.0545-0.22384 0.12096-0.34375 0.19726-0.27252 0.18531-0.54389 0.3324-0.8164 0.44141-0.26162 0.10901-0.5786 0.16211-0.94922 0.16211-0.79575 0-1.4164-0.25998-1.8633-0.7832-0.43603-0.52324-0.6543-1.2654-0.6543-2.2246s0.21827-1.7061 0.6543-2.2402c0.44692-0.54503 1.0675-0.8164 1.8633-0.8164 0.37062 0 0.68092 0.0531 0.93164 0.16211 0.26161 0.109 0.53494 0.25609 0.81836 0.4414 0.0218 0.0109 0.0608 0.0384 0.11523 0.082 0.0654 0.0436 0.14131 0.0873 0.22852 0.13086 0.0872 0.0436 0.16784 0.0664 0.24414 0.0664 0.13081 0 0.23425-0.0503 0.31055-0.14844 0.0872-0.0981 0.13086-0.22239 0.13086-0.375s-0.0437-0.29025-0.13086-0.41016c-0.0763-0.1308-0.21199-0.25981-0.40821-0.39062-0.30522-0.21801-0.66389-0.38318-1.0781-0.49219-0.40333-0.11991-0.81234-0.17969-1.2266-0.17969zm-15.105 0.0332c-0.19621 0-0.35942 0.0598-0.49024 0.17969-0.1199 0.109-0.17968 0.26749-0.17968 0.4746v7.6524c0 0.59954-0.11957 1.0294-0.35938 1.291-0.22891 0.26159-0.58955 0.40868-1.0801 0.44141l-0.45703 0.0332c-0.38153 0.0436-0.57226 0.2135-0.57226 0.50782 0 0.18531 0.0712 0.32099 0.21289 0.4082 0.1308 0.0981 0.331 0.13508 0.60351 0.11328l0.45899-0.0312c0.86115-0.0654 1.4932-0.32733 1.8965-0.78516 0.41422-0.45783 0.62109-1.1449 0.62109-2.0605v-7.5703c0-0.20711-0.0598-0.3656-0.17968-0.4746-0.11991-0.11991-0.2784-0.17969-0.47461-0.17969zm6.4336 0.99805c0.68674 0 1.22 0.21827 1.6016 0.65429 0.38153 0.42513 0.58367 1.041 0.60547 1.8477h-4.627c0.0763-0.79575 0.32211-1.4116 0.73633-1.8477 0.42512-0.43602 0.98594-0.65429 1.6836-0.65429zm-22.387 0.0645c0.77395 0 1.3737 0.26665 1.7988 0.80078 0.42513 0.52323 0.63672 1.2701 0.63672 2.2402 0 0.99196-0.21159 1.7502-0.63672 2.2734-0.41423 0.51233-1.014 0.76758-1.7988 0.76758-0.78484 0-1.3893-0.25998-1.8144-0.7832-0.41423-0.52324-0.62305-1.2768-0.62305-2.2578 0-0.97016 0.21355-1.717 0.63867-2.2402 0.42513-0.53413 1.0249-0.80078 1.7988-0.80078zm9.5117 0.0176c0.77395 0 1.3718 0.25997 1.7969 0.7832 0.42512 0.52323 0.63867 1.2606 0.63867 2.209 0 0.97016-0.21355 1.7264-0.63867 2.2715-0.42513 0.53413-1.0229 0.80078-1.7969 0.80078s-1.3737-0.25998-1.7988-0.7832c-0.41422-0.53414-0.62109-1.2877-0.62109-2.2578s0.20687-1.717 0.62109-2.2402c0.42513-0.52323 1.0249-0.7832 1.7988-0.7832zm-68.049 31.994a1.0001 1.0001 0 1 0 0 2h394.59a1.0001 1.0001 0 1 0 0-2z" color="#000000" color-rendering="auto" dominant-baseline="auto" fill="url(#linearGradient2712)" image-rendering="auto" shape-rendering="auto" solid-color="#000000" style="font-feature-settings:normal;font-variant-alternates:normal;font-variant-caps:normal;font-variant-ligatures:normal;font-variant-numeric:normal;font-variant-position:normal;isolation:auto;mix-blend-mode:normal;shape-padding:0;text-decoration-color:#000000;text-decoration-line:none;text-decoration-style:solid;text-indent:0;text-orientation:mixed;text-transform:none;white-space:normal"/>
</svg>
