<?xml version="1.0" encoding="UTF-8"?>
<svg width="490" height="360" version="1.1" viewBox="0 0 490 360" xmlns="http://www.w3.org/2000/svg" xmlns:xlink="http://www.w3.org/1999/xlink">
 <defs>
  <linearGradient id="linearGradient2101" x1="3348" x2="3498" y1="6679" y2="6679" gradientTransform="matrix(.74656 0 0 .74656 -2121.2 -4811.9)" gradientUnits="userSpaceOnUse">
   <stop stop-color="#e5f0ff" offset="0"/>
   <stop stop-color="#e5f0ff" stop-opacity="0" offset="1"/>
  </linearGradient>
  <linearGradient id="linearGradient1329" x1="418.65" x2="462.2" y1="282.85" y2="282.85" gradientUnits="userSpaceOnUse">
   <stop stop-color="#859ab6" offset="0"/>
   <stop stop-color="#859ab6" stop-opacity="0" offset="1"/>
  </linearGradient>
  <linearGradient id="linearGradient1337" x1="395.79" x2="472.75" y1="253.21" y2="253.21" gradientUnits="userSpaceOnUse">
   <stop stop-color="#859ab6" offset="0"/>
   <stop stop-color="#859ab6" stop-opacity="0" offset="1"/>
  </linearGradient>
 </defs>
 <path d="m1e-5 0h490v360h-490z" fill="#fff" stroke-width="2.8342"/>
 <path d="m11.114 119.36h108.99c0.68477 0 1.2361 0.55132 1.2361 1.2361v108.99c0 0.68477-0.55132 1.2361-1.2361 1.2361h-108.99c-0.68477 0-1.2361-0.55132-1.2361-1.2361v-108.99c0-0.68477 0.55132-1.2361 1.2361-1.2361z" fill="#e5f0ff" stroke-width="2.8215"/>
 <path d="m133.96 119.36h108.99c0.68477 0 1.2361 0.55132 1.2361 1.2361v108.99c0 0.68477-0.55131 1.2361-1.2361 1.2361h-108.99c-0.68478 0-1.2361-0.55132-1.2361-1.2361v-108.99c0-0.68477 0.55131-1.2361 1.2361-1.2361z" fill="#e5f0ff" stroke-width="2.8215"/>
 <path d="m256.81 119.36h108.99c0.68477 0 1.2358 0.55132 1.2358 1.2361v108.99c0 0.68477-0.55131 1.2361-1.2358 1.2361h-108.99c-0.68477 0-1.2361-0.55132-1.2361-1.2361v-108.99c0-0.68477 0.55132-1.2361 1.2361-1.2361z" fill="#e5f0ff" stroke-width="2.8215"/>
 <path d="m379.77 119.36h108.99c0.6848 0 1.2358 0.55132 1.2358 1.2361v108.99c0 0.68477-0.5513 1.2361-1.2358 1.2361h-108.99c-0.68477 0-1.2358-0.55132-1.2358-1.2361v-108.99c0-0.68477 0.55131-1.2361 1.2358-1.2361z" fill="url(#linearGradient2101)" stroke-width="2.8215"/>
 <path d="m13.797 208.57 22.247-24.152 37.497-6.3568 22.247-29.879 22.247-6.3568" fill="none" stroke="#bed0e9" stroke-linecap="round" stroke-linejoin="round" stroke-width="1.4931"/>
 <path d="m20.949 208.09a5.4031 5.4031 0 0 1-5.4031 5.4031 5.4031 5.4031 0 0 1-5.4031-5.4031 5.4031 5.4031 0 0 1 5.4031-5.4031 5.4031 5.4031 0 0 1 5.4031 5.4031z" fill="#bed0e9" fill-rule="evenodd" stroke-width=".90654"/>
 <path d="m42.52 186.28a5.4031 5.4031 0 0 1-5.4031 5.4031 5.4031 5.4031 0 0 1-5.4031-5.4031 5.4031 5.4031 0 0 1 5.4031-5.4031 5.4031 5.4031 0 0 1 5.4031 5.4031z" fill="#bed0e9" fill-rule="evenodd" stroke-width=".90654"/>
 <path d="m79.368 179.31a5.4031 5.4031 0 0 1-5.4031 5.4031 5.4031 5.4031 0 0 1-5.4031-5.4031 5.4031 5.4031 0 0 1 5.4031-5.4031 5.4031 5.4031 0 0 1 5.4031 5.4031z" fill="#bed0e9" fill-rule="evenodd" stroke-width=".90654"/>
 <path d="m100.95 150.56a5.4031 5.4031 0 0 1-5.4031 5.4031 5.4031 5.4031 0 0 1-5.4031-5.4031 5.4031 5.4031 0 0 1 5.4031-5.4031 5.4031 5.4031 0 0 1 5.4031 5.4031z" fill="#bed0e9" fill-rule="evenodd" stroke-width=".90654"/>
 <path d="m143.87 182.7a5.4031 5.4031 0 0 1-5.4031 5.4031 5.4031 5.4031 0 0 1-5.4031-5.4031 5.4031 5.4031 0 0 1 5.4031-5.4031 5.4031 5.4031 0 0 1 5.4031 5.4031z" fill="#bed0e9" fill-rule="evenodd" stroke-width=".90654"/>
 <path d="m164.77 178.66a5.4031 5.4031 0 0 1-5.4031 5.4031 5.4031 5.4031 0 0 1-5.4031-5.4031 5.4031 5.4031 0 0 1 5.4031-5.4031 5.4031 5.4031 0 0 1 5.4031 5.4031z" fill="#bed0e9" fill-rule="evenodd" stroke-width=".90654"/>
 <path d="m196.01 166.73a5.4031 5.4031 0 0 1-5.4031 5.4031 5.4031 5.4031 0 0 1-5.4031-5.4031 5.4031 5.4031 0 0 1 5.4031-5.4031 5.4031 5.4031 0 0 1 5.4031 5.4031z" fill="#bed0e9" fill-rule="evenodd" stroke-width=".90654"/>
 <path d="m227.92 165.86a5.4031 5.4031 0 0 1-5.4031 5.4031 5.4031 5.4031 0 0 1-5.4031-5.4031 5.4031 5.4031 0 0 1 5.4031-5.4031 5.4031 5.4031 0 0 1 5.4031 5.4031z" fill="#bed0e9" fill-rule="evenodd" stroke-width=".90654"/>
 <path d="m137.97 181.99 21.124-3.146 31.685-12.135 31.685-0.67405 21.124-7.4148" fill="none" stroke="#bed0e9" stroke-linecap="round" stroke-linejoin="round" stroke-width="1.4931"/>
 <path d="m260 192.32 23.37-23.822 32.814 4.046 25.619-17.978 23.37-11.235" fill="none" stroke="#bed0e9" stroke-linecap="round" stroke-linejoin="round" stroke-width="1.4931"/>
 <path d="m266.69 192.66a5.4031 5.4031 0 0 1-5.4031 5.4031 5.4031 5.4031 0 0 1-5.4031-5.4031 5.4031 5.4031 0 0 1 5.4031-5.4031 5.4031 5.4031 0 0 1 5.4031 5.4031z" fill="#bed0e9" fill-rule="evenodd" stroke-width=".90654"/>
 <path d="m288.35 169.97a5.4031 5.4031 0 0 1-5.4031 5.4031 5.4031 5.4031 0 0 1-5.4031-5.4031 5.4031 5.4031 0 0 1 5.4031-5.4031 5.4031 5.4031 0 0 1 5.4031 5.4031z" fill="#bed0e9" fill-rule="evenodd" stroke-width=".90654"/>
 <path d="m322.21 171.78a5.4031 5.4031 0 0 1-5.4031 5.4031 5.4031 5.4031 0 0 1-5.4031-5.4031 5.4031 5.4031 0 0 1 5.4031-5.4031 5.4031 5.4031 0 0 1 5.4031 5.4031z" fill="#bed0e9" fill-rule="evenodd" stroke-width=".90654"/>
 <path d="m347.04 155.13a5.4031 5.4031 0 0 1-5.4031 5.4031 5.4031 5.4031 0 0 1-5.4031-5.4031 5.4031 5.4031 0 0 1 5.4031-5.4031 5.4031 5.4031 0 0 1 5.4031 5.4031z" fill="#bed0e9" fill-rule="evenodd" stroke-width=".90654"/>
 <path d="m389.65 172.71a5.4031 5.4031 0 0 1-5.4031 5.4031 5.4031 5.4031 0 0 1-5.4031-5.4031 5.4031 5.4031 0 0 1 5.4031-5.4031 5.4031 5.4031 0 0 1 5.4031 5.4031z" fill="#bed0e9" fill-rule="evenodd" stroke-width=".90654"/>
 <path d="m409.68 150.68a5.4031 5.4031 0 0 1-5.4031 5.4031 5.4031 5.4031 0 0 1-5.4031-5.4031 5.4031 5.4031 0 0 1 5.4031-5.4031 5.4031 5.4031 0 0 1 5.4031 5.4031z" fill="#bed0e9" fill-rule="evenodd" stroke-width=".90654"/>
 <path d="m383.72 172.32 20.001-23.147 34.62-4.046" fill="none" stroke="#bed0e9" stroke-linecap="round" stroke-linejoin="round" stroke-width="1.4931"/>
 <g fill="#859ab6" stroke-width=".38692" style="font-variant-caps:normal;font-variant-east-asian:normal;font-variant-ligatures:normal;font-variant-numeric:normal" aria-label="Speaking">
  <path d="m38.622 257.42q-1.1608 0-2.2287-0.34049-1.0524-0.35597-1.687-0.94409-0.23215-0.21667-0.23215-0.54168 0-0.21668 0.12381-0.37145 0.12381-0.17024 0.29406-0.17024 0.2012 0 0.43335 0.17024 1.4393 1.1143 3.2811 1.1143 1.331 0 2.0429-0.51073 0.71193-0.51074 0.71193-1.4548 0-0.54169-0.34049-0.8667-0.34049-0.34049-0.89765-0.54169-0.55716-0.2012-1.5012-0.41787-1.2691-0.29406-2.0894-0.61908-0.80479-0.32501-1.3155-0.9286-0.49526-0.6036-0.49526-1.5786 0-0.92861 0.49526-1.6405 0.51073-0.72741 1.4084-1.1143 0.91313-0.4024 2.0739-0.4024 1.0834 0 2.012 0.34049 0.94408 0.32502 1.5786 0.94409 0.24763 0.24763 0.24763 0.54169 0 0.21667-0.12381 0.38692-0.12381 0.15477-0.29406 0.15477t-0.44883-0.17025q-0.75836-0.61907-1.4084-0.8667-0.65003-0.24763-1.5632-0.24763-1.2846 0-1.9965 0.54169-0.71193 0.52621-0.71193 1.4858 0 0.82027 0.61907 1.2382 0.63455 0.40239 1.9346 0.71193 1.4084 0.34049 2.2132 0.63455 0.80479 0.27858 1.331 0.85122 0.54169 0.57264 0.54169 1.5322 0 0.91314-0.51073 1.6096-0.49526 0.69646-1.4084 1.0834t-2.0894 0.38692z"/>
  <path d="m48.298 249.57q0.99052 0 1.7489 0.49526 0.75836 0.49526 1.1762 1.3929 0.41787 0.88218 0.41787 2.0584 0 1.1762-0.41787 2.0584-0.41787 0.8667-1.1762 1.3465-0.74289 0.47978-1.7489 0.47978-0.88218 0-1.5477-0.38692-0.65002-0.38692-0.99052-1.0988v3.637q0 0.27858-0.17024 0.43335-0.15477 0.17024-0.44883 0.17024t-0.4643-0.17024q-0.17024-0.17025-0.17024-0.43335v-9.3325q0-0.27859 0.17024-0.44883 0.17024-0.17025 0.4643-0.17025t0.44883 0.17025q0.17024 0.17024 0.17024 0.44883v0.83574q0.34049-0.71193 0.99052-1.0988 0.6655-0.38692 1.5477-0.38692zm-0.24763 6.7943q1.0989 0 1.7024-0.74289 0.6036-0.74289 0.6036-2.1048 0-1.362-0.6036-2.1203-0.6036-0.77384-1.7024-0.77384-1.0989 0-1.7024 0.74289-0.58812 0.74289-0.58812 2.1203 0 1.3774 0.58812 2.1358 0.6036 0.74289 1.7024 0.74289z"/>
  <path d="m59.349 255.55q0.17024 0 0.29406 0.1393 0.12382 0.13929 0.12382 0.35596 0 0.38692-0.54169 0.71194-0.55716 0.32501-1.1762 0.49525-0.61907 0.15477-1.2072 0.15477-1.7489 0-2.7703-1.0369-1.006-1.037-1.006-2.8632 0-1.1608 0.44883-2.0429 0.44883-0.89765 1.2536-1.3929 0.82027-0.49526 1.8572-0.49526 1.4703 0 2.337 0.95956t0.8667 2.6001q0 0.30954-0.12382 0.44883-0.12381 0.13929-0.4024 0.13929h-4.9835q0.13929 2.662 2.5227 2.662 0.6036 0 1.0369-0.15477 0.43335-0.17024 0.92861-0.44882 0.4024-0.23216 0.54169-0.23216zm-2.7084-4.999q-0.99052 0-1.5941 0.61907-0.58812 0.61907-0.69646 1.7489h4.3799q-0.03095-1.1453-0.57264-1.7489-0.54169-0.61907-1.5167-0.61907z"/>
  <path d="m64.755 249.57q2.8323 0 2.8323 2.9716v4.2097q0 0.27858-0.17024 0.44882-0.15477 0.17025-0.43335 0.17025-0.27858 0-0.44883-0.17025-0.17024-0.17024-0.17024-0.44882v-0.74289q-0.29406 0.6655-0.89765 1.0369-0.6036 0.35597-1.3929 0.35597-0.72741 0-1.3465-0.29406-0.6036-0.29406-0.95956-0.82027-0.35597-0.52621-0.35597-1.1608 0-0.85122 0.43335-1.3155 0.43335-0.47978 1.4239-0.68098 0.99052-0.21667 2.7549-0.21667h0.34049v-0.51074q0-0.9286-0.38692-1.362-0.37144-0.43335-1.2227-0.43335-1.0524 0-2.1358 0.57264-0.41787 0.2631-0.58812 0.2631-0.18572 0-0.30954-0.13929-0.12381-0.13929-0.12381-0.35596 0-0.21668 0.12381-0.37145 0.13929-0.17024 0.43335-0.34049 0.54169-0.30953 1.2227-0.47978 0.69646-0.18572 1.3774-0.18572zm-0.51073 6.8408q0.92861 0 1.5167-0.61908 0.6036-0.63455 0.6036-1.6251v-0.44883h-0.27858q-1.362 0-2.0739 0.12382-0.71193 0.10833-1.0215 0.38692-0.29406 0.2631-0.29406 0.78931 0 0.6036 0.43335 1.006 0.44883 0.38692 1.1143 0.38692z"/>
  <path d="m75.888 256.31q0.24763 0.23215 0.24763 0.49526 0 0.23215-0.17024 0.40239-0.15477 0.17025-0.38692 0.17025-0.2012 0-0.41787-0.18572l-4.0394-3.4823v3.0489q0 0.29405-0.18572 0.4643-0.17024 0.15477-0.43335 0.15477-0.27858 0-0.4643-0.15477-0.17024-0.17025-0.17024-0.4643v-9.8278q0-0.29406 0.17024-0.44883 0.18572-0.17024 0.4643-0.17024 0.2631 0 0.43335 0.17024 0.18572 0.15477 0.18572 0.44883v6.2836l3.699-3.3894q0.18572-0.18572 0.41787-0.18572t0.4024 0.17024q0.17024 0.17025 0.17024 0.4024 0 0.2631-0.21668 0.4643l-3.0489 2.7239z"/>
  <path d="m78.24 257.37q-0.27858 0-0.4643-0.15477-0.17024-0.17025-0.17024-0.4643v-6.5312q0-0.29406 0.17024-0.44883 0.18572-0.17025 0.4643-0.17025 0.27858 0 0.44883 0.17025 0.17024 0.15477 0.17024 0.44883v6.5312q0 0.30953-0.17024 0.4643-0.17024 0.15477-0.44883 0.15477zm0-9.3944q-0.37144 0-0.6036-0.21668-0.23215-0.21667-0.23215-0.57264 0-0.34049 0.23215-0.55716 0.23215-0.21668 0.6036-0.21668t0.6036 0.21668q0.23215 0.21667 0.23215 0.55716 0 0.35597-0.23215 0.57264-0.23215 0.21668-0.6036 0.21668z"/>
  <path d="m84.995 249.57q2.7084 0 2.7084 2.987v4.1942q0 0.29405-0.17024 0.4643-0.15477 0.15477-0.44883 0.15477-0.29406 0-0.4643-0.15477-0.17024-0.17025-0.17024-0.4643v-4.1168q0-1.0524-0.41787-1.5322-0.4024-0.47978-1.3001-0.47978-1.0369 0-1.656 0.63455t-0.61907 1.7179v3.7763q0 0.29405-0.17024 0.4643-0.15477 0.15477-0.44883 0.15477t-0.4643-0.15477q-0.17024-0.17025-0.17024-0.4643v-6.5312q0-0.27859 0.17024-0.44883 0.17024-0.17025 0.4643-0.17025 0.27858 0 0.43335 0.17025 0.17024 0.17024 0.17024 0.43335v0.78932q0.37144-0.69646 1.0369-1.0524 0.6655-0.37144 1.5167-0.37144z"/>
  <path d="m96.113 249.61q0.29406 0 0.4643 0.17025 0.17024 0.17024 0.17024 0.44883v6.5622q0 1.687-0.8667 2.5382-0.8667 0.8667-2.5691 0.8667-1.656 0-2.7549-0.65002-0.55716-0.30954-0.55716-0.71193 0-0.21668 0.10834-0.35597 0.12381-0.13929 0.30954-0.13929 0.15477 0 0.55716 0.21667 0.54169 0.27859 1.0679 0.44883 0.52621 0.17025 1.2536 0.17025 1.0989 0 1.656-0.58812 0.55716-0.57264 0.55716-1.687v-1.331q-0.32501 0.72741-1.006 1.1143-0.6655 0.38692-1.5786 0.38692-0.99052 0-1.7644-0.4643-0.75836-0.46431-1.1917-1.3155-0.41787-0.85122-0.41787-1.9656t0.41787-1.9656q0.43335-0.85122 1.1917-1.3155 0.77384-0.4643 1.7644-0.4643 0.89766 0 1.5632 0.38692 0.6655 0.38692 1.006 1.0988v-0.83574q0-0.27859 0.15477-0.44883 0.17024-0.17025 0.4643-0.17025zm-2.9406 6.4229q1.0834 0 1.7024-0.71194 0.61907-0.72741 0.61907-1.9965 0-1.2536-0.61907-1.9656-0.6036-0.72741-1.7024-0.72741t-1.7334 0.72741q-0.61907 0.71193-0.61907 1.9656 0 1.2691 0.61907 1.9965 0.63455 0.71194 1.7334 0.71194z"/>
 </g>
 <g fill="#859ab6" stroke-width=".38692" style="font-variant-caps:normal;font-variant-east-asian:normal;font-variant-ligatures:normal;font-variant-numeric:normal" aria-label="+16%">
  <path d="m52.41 283.41q0.2012 0 0.34049 0.1393 0.15477 0.13929 0.15477 0.34048 0 0.2012-0.13929 0.35597-0.13929 0.13929-0.35597 0.13929h-2.8013v2.7858q0 0.21667-0.13929 0.35596t-0.34049 0.13929q-0.2012 0-0.34049-0.13929-0.13929-0.15477-0.13929-0.35596v-2.7858h-2.8013q-0.2012 0-0.35597-0.13929-0.13929-0.15477-0.13929-0.35597 0-0.20119 0.13929-0.34048 0.15477-0.1393 0.35597-0.1393h2.8013v-2.7858q0-0.21668 0.13929-0.35597 0.13929-0.15476 0.34049-0.15476 0.2012 0 0.34049 0.15476 0.13929 0.13929 0.13929 0.35597v2.7858z"/>
  <path d="m61.381 287.24q0.27858 0 0.43335 0.13929 0.15477 0.1393 0.15477 0.38692 0 0.26311-0.15477 0.4024-0.13929 0.13929-0.43335 0.13929h-5.1228q-0.29406 0-0.44883-0.13929-0.13929-0.13929-0.13929-0.4024 0-0.24762 0.15477-0.38692 0.15477-0.13929 0.43335-0.13929h1.9191v-8.2956l-1.687 1.0988q-0.12381 0.0774-0.24763 0.0774-0.21668 0-0.38692-0.2012-0.15477-0.2012-0.15477-0.43335 0-0.32502 0.24763-0.46431l2.3525-1.5322q0.2631-0.17025 0.54169-0.17025 0.2631 0 0.43335 0.17025 0.17024 0.17024 0.17024 0.47978v9.2706z"/>
  <path d="m68.138 281.45q0.99052 0 1.7644 0.43335t1.2072 1.2227q0.43335 0.78931 0.43335 1.8108 0 1.006-0.44883 1.8108-0.44883 0.80479-1.2536 1.2536-0.80479 0.44883-1.8108 0.44883-1.981 0-3.0644-1.3774-1.0679-1.3774-1.0679-3.9311 0-1.8263 0.49526-3.1418 0.49526-1.3155 1.4393-2.012 0.94408-0.69646 2.2441-0.69646 0.88218 0 1.7489 0.34049 0.88218 0.34049 1.5012 0.92861 0.26311 0.24763 0.26311 0.52621 0 0.23216-0.12381 0.38692-0.12382 0.15477-0.29406 0.15477-0.21668 0-0.44883-0.17024-1.3465-1.0989-2.6156-1.0989-1.3774 0-2.1513 1.2536-0.77384 1.2536-0.77384 3.5132v0.2012q0.35597-0.8667 1.1453-1.362 0.80479-0.49526 1.8108-0.49526zm-0.17024 5.9121q1.0524 0 1.687-0.6655 0.63455-0.66551 0.63455-1.7644t-0.65003-1.7489q-0.63455-0.6655-1.687-0.6655-1.0679 0-1.7489 0.68098-0.6655 0.6655-0.6655 1.7334 0 1.0834 0.6655 1.7644 0.68098 0.6655 1.7644 0.6655z"/>
  <path d="m77.016 288.23q-0.2012 0.34049-0.51074 0.34049-0.2012 0-0.35597-0.13929-0.13929-0.13929-0.13929-0.37145 0-0.18572 0.10834-0.35596l5.9121-10.23q0.2012-0.34049 0.51073-0.34049 0.2012 0 0.34049 0.15477 0.15477 0.13929 0.15477 0.35597 0 0.17024-0.09286 0.35596zm-1.2072-4.2871q-1.2381 0-1.9346-0.83575-0.69646-0.85123-0.69646-2.5072 0-1.6405 0.69646-2.4763 0.69646-0.85123 1.9346-0.85123t1.9346 0.85123q0.69646 0.83575 0.69646 2.4763 0 1.656-0.69646 2.5072-0.69646 0.83575-1.9346 0.83575zm0-0.89766q0.75836 0 1.1143-0.58812 0.37144-0.58812 0.37144-1.8572 0-1.2536-0.37144-1.8417-0.35597-0.58812-1.1143-0.58812-0.75836 0-1.1298 0.58812t-0.37144 1.8417q0 1.2691 0.37144 1.8572t1.1298 0.58812zm7.4289 5.3704q-1.2381 0-1.9346-0.83575-0.69646-0.85122-0.69646-2.5072 0-1.6405 0.69646-2.4763 0.69646-0.85122 1.9346-0.85122 1.2536 0 1.9346 0.83575 0.69646 0.83574 0.69646 2.4918t-0.69646 2.5072q-0.68098 0.83575-1.9346 0.83575zm0-0.89765q0.77384 0 1.1298-0.57265 0.37144-0.58811 0.37144-1.8727 0-1.2536-0.37144-1.8417t-1.1298-0.58812q-0.75836 0-1.1298 0.58812-0.35597 0.58812-0.35597 1.8417 0 1.2691 0.35597 1.8572 0.37144 0.58812 1.1298 0.58812z"/>
 </g>
 <g fill="#859ab6" stroke-width=".38692" style="font-variant-caps:normal;font-variant-east-asian:normal;font-variant-ligatures:normal;font-variant-numeric:normal" aria-label="Grammar">
  <path d="m164.99 251.62q0.23215 0 0.37145 0.13929 0.15476 0.13929 0.15476 0.38692v3.8537q0 0.37145-0.12381 0.55717-0.10834 0.18572-0.41787 0.29406-0.61908 0.2631-1.5012 0.41787-0.88218 0.15477-1.7644 0.15477-1.6251 0-2.8013-0.6655-1.1762-0.66551-1.8108-1.9191-0.61907-1.2536-0.61907-3.0025 0-1.7179 0.61907-2.9715 0.61908-1.2536 1.7798-1.9191 1.1608-0.68098 2.7239-0.68098 1.0834 0 2.012 0.34049 0.92861 0.32502 1.5632 0.94409 0.26311 0.2631 0.26311 0.54169 0 0.21667-0.12381 0.38692-0.12382 0.15477-0.30954 0.15477t-0.43335-0.18573q-0.80479-0.61907-1.4548-0.85122-0.65003-0.24763-1.5012-0.24763-1.8417 0-2.8322 1.1608-0.97504 1.1608-0.97504 3.3275 0 2.2132 0.99051 3.374 1.006 1.1453 2.9406 1.1453 1.4394 0 2.6156-0.43335v-3.312h-2.2596q-0.2631 0-0.41787-0.13929t-0.15477-0.35596q0-0.23216 0.15477-0.35597 0.15477-0.13929 0.41787-0.13929z"/>
  <path d="m171.64 249.61q0.65003-0.0464 0.65003 0.52621 0 0.24763-0.1393 0.4024-0.13929 0.13929-0.47978 0.17025l-0.4643 0.0464q-1.037 0.0929-1.5477 0.74288-0.49526 0.63455-0.49526 1.5012v3.7609q0 0.30953-0.17024 0.4643-0.17025 0.15477-0.44883 0.15477t-0.4643-0.15477q-0.17025-0.17025-0.17025-0.4643v-6.5312q0-0.29406 0.18572-0.44883 0.18572-0.17025 0.44883-0.17025 0.24763 0 0.41787 0.17025 0.17025 0.15477 0.17025 0.43335v0.8667q0.32501-0.68098 0.91313-1.037 0.6036-0.35596 1.3774-0.41787z"/>
  <path d="m176.4 249.57q2.8322 0 2.8322 2.9716v4.2097q0 0.27858-0.17024 0.44882-0.15477 0.17025-0.43335 0.17025t-0.44883-0.17025q-0.17024-0.17024-0.17024-0.44882v-0.74289q-0.29406 0.6655-0.89766 1.0369-0.60359 0.35597-1.3929 0.35597-0.72741 0-1.3465-0.29406-0.6036-0.29406-0.95956-0.82027-0.35597-0.52621-0.35597-1.1608 0-0.85122 0.43335-1.3155 0.43335-0.47978 1.4239-0.68098 0.99051-0.21667 2.7549-0.21667h0.34049v-0.51074q0-0.9286-0.38692-1.362-0.37145-0.43335-1.2227-0.43335-1.0524 0-2.1358 0.57264-0.41787 0.2631-0.58812 0.2631-0.18572 0-0.30953-0.13929-0.12382-0.13929-0.12382-0.35596 0-0.21668 0.12382-0.37145 0.13929-0.17024 0.43335-0.34049 0.54169-0.30953 1.2227-0.47978 0.69646-0.18572 1.3774-0.18572zm-0.51073 6.8408q0.9286 0 1.5167-0.61908 0.6036-0.63455 0.6036-1.6251v-0.44883h-0.27859q-1.362 0-2.0739 0.12382-0.71193 0.10833-1.0215 0.38692-0.29405 0.2631-0.29405 0.78931 0 0.6036 0.43335 1.006 0.44882 0.38692 1.1143 0.38692z"/>
  <path d="m189.9 249.57q2.5072 0 2.5072 2.987v4.1942q0 0.29405-0.17025 0.4643-0.17024 0.15477-0.44883 0.15477-0.27858 0-0.4643-0.15477-0.17024-0.17025-0.17024-0.4643v-4.1633q0-1.037-0.37145-1.5012-0.37144-0.46431-1.1608-0.46431-0.94408 0-1.4858 0.63455t-0.54169 1.7179v3.7763q0 0.29405-0.18572 0.4643-0.17025 0.15477-0.44883 0.15477t-0.44882-0.15477q-0.17025-0.17025-0.17025-0.4643v-4.1633q0-1.037-0.37144-1.5012-0.37145-0.46431-1.1762-0.46431-0.92861 0-1.4858 0.63455-0.54169 0.63455-0.54169 1.7179v3.7763q0 0.29405-0.17025 0.4643-0.17024 0.15477-0.44882 0.15477t-0.46431-0.15477q-0.17024-0.17025-0.17024-0.4643v-6.5312q0-0.27859 0.17024-0.44883 0.18573-0.17025 0.46431-0.17025 0.2631 0 0.43335 0.17025 0.17024 0.15477 0.17024 0.43335v0.74289q0.34049-0.66551 0.94409-1.0215 0.60359-0.35597 1.3929-0.35597 1.7644 0 2.306 1.4858 0.32502-0.68098 0.99052-1.0834 0.6655-0.4024 1.5167-0.4024z"/>
  <path d="m203.08 249.57q2.5072 0 2.5072 2.987v4.1942q0 0.29405-0.17025 0.4643-0.17024 0.15477-0.44882 0.15477-0.27859 0-0.46431-0.15477-0.17024-0.17025-0.17024-0.4643v-4.1633q0-1.037-0.37145-1.5012-0.37144-0.46431-1.1608-0.46431-0.94408 0-1.4858 0.63455t-0.54169 1.7179v3.7763q0 0.29405-0.18572 0.4643-0.17024 0.15477-0.44883 0.15477-0.27858 0-0.44882-0.15477-0.17025-0.17025-0.17025-0.4643v-4.1633q0-1.037-0.37144-1.5012-0.37144-0.46431-1.1762-0.46431-0.92861 0-1.4858 0.63455-0.54169 0.63455-0.54169 1.7179v3.7763q0 0.29405-0.17024 0.4643-0.17025 0.15477-0.44883 0.15477t-0.4643-0.15477q-0.17025-0.17025-0.17025-0.4643v-6.5312q0-0.27859 0.17025-0.44883 0.18572-0.17025 0.4643-0.17025 0.26311 0 0.43335 0.17025 0.17025 0.15477 0.17025 0.43335v0.74289q0.34048-0.66551 0.94408-1.0215 0.6036-0.35597 1.3929-0.35597 1.7644 0 2.306 1.4858 0.32501-0.68098 0.99051-1.0834 0.6655-0.4024 1.5167-0.4024z"/>
  <path d="m210.95 249.57q2.8322 0 2.8322 2.9716v4.2097q0 0.27858-0.17024 0.44882-0.15477 0.17025-0.43335 0.17025-0.27859 0-0.44883-0.17025-0.17025-0.17024-0.17025-0.44882v-0.74289q-0.29406 0.6655-0.89765 1.0369-0.6036 0.35597-1.3929 0.35597-0.72741 0-1.3465-0.29406-0.6036-0.29406-0.95957-0.82027-0.35596-0.52621-0.35596-1.1608 0-0.85122 0.43335-1.3155 0.43335-0.47978 1.4239-0.68098 0.99052-0.21667 2.7549-0.21667h0.34049v-0.51074q0-0.9286-0.38692-1.362-0.37144-0.43335-1.2227-0.43335-1.0524 0-2.1358 0.57264-0.41788 0.2631-0.58812 0.2631-0.18572 0-0.30954-0.13929-0.12381-0.13929-0.12381-0.35596 0-0.21668 0.12381-0.37145 0.1393-0.17024 0.43335-0.34049 0.54169-0.30953 1.2227-0.47978 0.69646-0.18572 1.3774-0.18572zm-0.51074 6.8408q0.92861 0 1.5167-0.61908 0.60359-0.63455 0.60359-1.6251v-0.44883h-0.27858q-1.362 0-2.0739 0.12382-0.71193 0.10833-1.0215 0.38692-0.29406 0.2631-0.29406 0.78931 0 0.6036 0.43335 1.006 0.44883 0.38692 1.1143 0.38692z"/>
  <path d="m219.79 249.61q0.65003-0.0464 0.65003 0.52621 0 0.24763-0.13929 0.4024-0.13929 0.13929-0.47978 0.17025l-0.46431 0.0464q-1.0369 0.0929-1.5477 0.74288-0.49525 0.63455-0.49525 1.5012v3.7609q0 0.30953-0.17025 0.4643-0.17024 0.15477-0.44883 0.15477-0.27858 0-0.4643-0.15477-0.17024-0.17025-0.17024-0.4643v-6.5312q0-0.29406 0.18572-0.44883 0.18572-0.17025 0.44882-0.17025 0.24763 0 0.41788 0.17025 0.17024 0.15477 0.17024 0.43335v0.8667q0.32502-0.68098 0.91313-1.037 0.6036-0.35596 1.3774-0.41787z"/>
 </g>
 <g fill="#859ab6" stroke-width=".38692" style="font-variant-caps:normal;font-variant-east-asian:normal;font-variant-ligatures:normal;font-variant-numeric:normal" aria-label="+9%">
  <path d="m179.9 283.41q0.2012 0 0.34049 0.1393 0.15477 0.13929 0.15477 0.34048 0 0.2012-0.13929 0.35597-0.13929 0.13929-0.35597 0.13929h-2.8013v2.7858q0 0.21667-0.13929 0.35596t-0.34049 0.13929-0.34049-0.13929q-0.13929-0.15477-0.13929-0.35596v-2.7858h-2.8013q-0.2012 0-0.35597-0.13929-0.13929-0.15477-0.13929-0.35597 0-0.20119 0.13929-0.34048 0.15477-0.1393 0.35597-0.1393h2.8013v-2.7858q0-0.21668 0.13929-0.35597 0.13929-0.15476 0.34049-0.15476t0.34049 0.15476q0.13929 0.13929 0.13929 0.35597v2.7858z"/>
  <path d="m185.56 277.27q1.981 0 3.0489 1.3774 1.0834 1.3774 1.0834 3.9311 0 1.8263-0.49525 3.1418-0.49526 1.3155-1.4394 2.012-0.94408 0.69646-2.2441 0.69646-0.88218 0-1.7644-0.34049-0.8667-0.34049-1.4858-0.92861-0.26311-0.24763-0.26311-0.52621 0-0.23215 0.12382-0.38692 0.12381-0.15477 0.29406-0.15477 0.21667 0 0.44882 0.17025 1.3465 1.0988 2.6156 1.0988 1.3774 0 2.1513-1.2536t0.77384-3.5132v-0.20119q-0.35597 0.8667-1.1608 1.362-0.78932 0.49526-1.7953 0.49526-0.99052 0-1.7644-0.43335t-1.2072-1.2227q-0.43335-0.78931-0.43335-1.8108 0-1.006 0.44883-1.8108 0.44883-0.80479 1.2536-1.2536 0.8048-0.44883 1.8108-0.44883zm0.0774 5.9121q1.0679 0 1.7334-0.6655 0.68098-0.68098 0.68098-1.7489 0-1.0834-0.68098-1.7489-0.6655-0.68098-1.7489-0.68098-1.0524 0-1.687 0.66551-0.63455 0.6655-0.63455 1.7644t0.63455 1.7644q0.65003 0.65002 1.7024 0.65002z"/>
  <path d="m195.23 288.23q-0.2012 0.34049-0.51073 0.34049-0.2012 0-0.35597-0.13929-0.13929-0.13929-0.13929-0.37145 0-0.18572 0.10834-0.35596l5.9121-10.23q0.2012-0.34049 0.51074-0.34049 0.2012 0 0.34049 0.15477 0.15477 0.13929 0.15477 0.35597 0 0.17024-0.0929 0.35596zm-1.2072-4.2871q-1.2381 0-1.9346-0.83575-0.69646-0.85123-0.69646-2.5072 0-1.6405 0.69646-2.4763 0.69646-0.85123 1.9346-0.85123t1.9346 0.85123q0.69646 0.83575 0.69646 2.4763 0 1.656-0.69646 2.5072-0.69646 0.83575-1.9346 0.83575zm0-0.89766q0.75836 0 1.1143-0.58812 0.37144-0.58812 0.37144-1.8572 0-1.2536-0.37144-1.8417-0.35597-0.58812-1.1143-0.58812t-1.1298 0.58812q-0.37144 0.58812-0.37144 1.8417 0 1.2691 0.37144 1.8572 0.37145 0.58812 1.1298 0.58812zm7.4289 5.3704q-1.2381 0-1.9346-0.83575-0.69645-0.85122-0.69645-2.5072 0-1.6405 0.69645-2.4763 0.69646-0.85122 1.9346-0.85122 1.2536 0 1.9346 0.83575 0.69646 0.83574 0.69646 2.4918t-0.69646 2.5072q-0.68097 0.83575-1.9346 0.83575zm0-0.89765q0.77384 0 1.1298-0.57265 0.37144-0.58811 0.37144-1.8727 0-1.2536-0.37144-1.8417t-1.1298-0.58812q-0.75836 0-1.1298 0.58812-0.35597 0.58812-0.35597 1.8417 0 1.2691 0.35597 1.8572 0.37144 0.58812 1.1298 0.58812z"/>
 </g>
 <g fill="#859ab6" stroke-width=".38692" style="font-variant-caps:normal;font-variant-east-asian:normal;font-variant-ligatures:normal;font-variant-numeric:normal" aria-label="Writing">
  <path d="m300.91 246.7q0.0619-0.2012 0.21668-0.29406 0.15476-0.10834 0.34049-0.10834 0.24763 0 0.41787 0.15477 0.18572 0.13929 0.18572 0.38692 0 0.10833-0.0464 0.24763l-3.4978 9.8587q-0.0774 0.21667-0.2631 0.34049-0.18572 0.10833-0.41787 0.10833-0.21668 0-0.4024-0.10833-0.18572-0.12382-0.26311-0.34049l-3.0334-8.5742-3.0644 8.5742q-0.0774 0.21667-0.2631 0.34049-0.18572 0.10833-0.4024 0.10833-0.21667 0-0.4024-0.10833-0.18572-0.12382-0.2631-0.34049l-3.5132-9.8587q-0.0464-0.12382-0.0464-0.23216 0-0.24763 0.18573-0.40239 0.20119-0.15477 0.44882-0.15477 0.18573 0 0.34049 0.10834 0.17025 0.0929 0.23216 0.29406l3.0489 8.7908 3.0954-8.698q0.0774-0.23216 0.24763-0.34049 0.17025-0.12382 0.37145-0.12382t0.37144 0.12382q0.17024 0.12381 0.24763 0.35596l3.0489 8.7134z"/>
  <path d="m306.68 249.61q0.65002-0.0464 0.65002 0.52621 0 0.24763-0.13929 0.4024-0.13929 0.13929-0.47978 0.17025l-0.4643 0.0464q-1.037 0.0929-1.5477 0.74288-0.49526 0.63455-0.49526 1.5012v3.7609q0 0.30953-0.17024 0.4643-0.17025 0.15477-0.44883 0.15477t-0.46431-0.15477q-0.17024-0.17025-0.17024-0.4643v-6.5312q0-0.29406 0.18572-0.44883 0.18572-0.17025 0.44883-0.17025 0.24763 0 0.41787 0.17025 0.17025 0.15477 0.17025 0.43335v0.8667q0.32501-0.68098 0.91313-1.037 0.60359-0.35596 1.3774-0.41787z"/>
  <path d="m309.06 257.37q-0.27858 0-0.4643-0.15477-0.17025-0.17025-0.17025-0.4643v-6.5312q0-0.29406 0.17025-0.44883 0.18572-0.17025 0.4643-0.17025t0.44883 0.17025q0.17024 0.15477 0.17024 0.44883v6.5312q0 0.30953-0.17024 0.4643-0.17025 0.15477-0.44883 0.15477zm0-9.3944q-0.37144 0-0.6036-0.21668-0.23215-0.21667-0.23215-0.57264 0-0.34049 0.23215-0.55716 0.23216-0.21668 0.6036-0.21668t0.60359 0.21668q0.23216 0.21667 0.23216 0.55716 0 0.35597-0.23216 0.57264-0.23215 0.21668-0.60359 0.21668z"/>
  <path d="m315.5 256.38q0.54169 0.0464 0.54169 0.49526 0 0.26311-0.2012 0.4024-0.18572 0.12381-0.57264 0.0929l-0.41788-0.031q-1.2381-0.0929-1.8263-0.74288-0.58812-0.65003-0.58812-1.9656v-3.8847h-1.0369q-0.26311 0-0.41788-0.12382-0.13929-0.13929-0.13929-0.35596 0-0.23216 0.13929-0.37145 0.15477-0.13929 0.41788-0.13929h1.0369v-1.7489q0-0.29406 0.17025-0.44882 0.17024-0.17025 0.4643-0.17025 0.27858 0 0.44883 0.17025 0.17024 0.15476 0.17024 0.44882v1.7489h1.7179q0.24763 0 0.38692 0.13929 0.15476 0.13929 0.15476 0.37145 0 0.21667-0.15476 0.35596-0.13929 0.12382-0.38692 0.12382h-1.7179v3.9466q0 0.85122 0.34049 1.2381 0.35597 0.37145 1.0524 0.41788z"/>
  <path d="m317.92 257.37q-0.27858 0-0.4643-0.15477-0.17025-0.17025-0.17025-0.4643v-6.5312q0-0.29406 0.17025-0.44883 0.18572-0.17025 0.4643-0.17025t0.44883 0.17025q0.17024 0.15477 0.17024 0.44883v6.5312q0 0.30953-0.17024 0.4643-0.17025 0.15477-0.44883 0.15477zm0-9.3944q-0.37144 0-0.6036-0.21668-0.23215-0.21667-0.23215-0.57264 0-0.34049 0.23215-0.55716 0.23216-0.21668 0.6036-0.21668t0.60359 0.21668q0.23216 0.21667 0.23216 0.55716 0 0.35597-0.23216 0.57264-0.23215 0.21668-0.60359 0.21668z"/>
  <path d="m324.67 249.57q2.7084 0 2.7084 2.987v4.1942q0 0.29405-0.17024 0.4643-0.15477 0.15477-0.44883 0.15477t-0.4643-0.15477q-0.17025-0.17025-0.17025-0.4643v-4.1168q0-1.0524-0.41787-1.5322-0.4024-0.47978-1.3-0.47978-1.037 0-1.656 0.63455t-0.61907 1.7179v3.7763q0 0.29405-0.17025 0.4643-0.15476 0.15477-0.44882 0.15477t-0.46431-0.15477q-0.17024-0.17025-0.17024-0.4643v-6.5312q0-0.27859 0.17024-0.44883 0.17025-0.17025 0.46431-0.17025 0.27858 0 0.43335 0.17025 0.17024 0.17024 0.17024 0.43335v0.78932q0.37144-0.69646 1.037-1.0524 0.6655-0.37144 1.5167-0.37144z"/>
  <path d="m335.79 249.61q0.29406 0 0.4643 0.17025 0.17025 0.17024 0.17025 0.44883v6.5622q0 1.687-0.86671 2.5382-0.8667 0.8667-2.5691 0.8667-1.656 0-2.7549-0.65002-0.55717-0.30954-0.55717-0.71193 0-0.21668 0.10834-0.35597 0.12381-0.13929 0.30953-0.13929 0.15477 0 0.55717 0.21667 0.54169 0.27859 1.0679 0.44883 0.52621 0.17025 1.2536 0.17025 1.0988 0 1.656-0.58812 0.55716-0.57264 0.55716-1.687v-1.331q-0.32501 0.72741-1.006 1.1143-0.6655 0.38692-1.5786 0.38692-0.99052 0-1.7644-0.4643-0.75836-0.46431-1.1917-1.3155-0.41788-0.85122-0.41788-1.9656t0.41788-1.9656q0.43335-0.85122 1.1917-1.3155 0.77384-0.4643 1.7644-0.4643 0.89765 0 1.5632 0.38692t1.006 1.0988v-0.83574q0-0.27859 0.15477-0.44883 0.17025-0.17025 0.46431-0.17025zm-2.9406 6.4229q1.0834 0 1.7024-0.71194 0.61907-0.72741 0.61907-1.9965 0-1.2536-0.61907-1.9656-0.60359-0.72741-1.7024-0.72741-1.0988 0-1.7334 0.72741-0.61907 0.71193-0.61907 1.9656 0 1.2691 0.61907 1.9965 0.63455 0.71194 1.7334 0.71194z"/>
 </g>
 <g fill="#859ab6" stroke-width=".38692" style="font-variant-caps:normal;font-variant-east-asian:normal;font-variant-ligatures:normal;font-variant-numeric:normal" aria-label="+12%">
  <path d="m298.11 283.41q0.2012 0 0.34049 0.1393 0.15477 0.13929 0.15477 0.34048 0 0.2012-0.13929 0.35597-0.13929 0.13929-0.35597 0.13929h-2.8013v2.7858q0 0.21667-0.13929 0.35596t-0.34049 0.13929-0.34049-0.13929q-0.13929-0.15477-0.13929-0.35596v-2.7858h-2.8013q-0.2012 0-0.35597-0.13929-0.13929-0.15477-0.13929-0.35597 0-0.20119 0.13929-0.34048 0.15477-0.1393 0.35597-0.1393h2.8013v-2.7858q0-0.21668 0.13929-0.35597 0.13929-0.15476 0.34049-0.15476t0.34049 0.15476q0.13929 0.13929 0.13929 0.35597v2.7858z"/>
  <path d="m307.08 287.24q0.27858 0 0.43335 0.13929 0.15477 0.1393 0.15477 0.38692 0 0.26311-0.15477 0.4024-0.13929 0.13929-0.43335 0.13929h-5.1228q-0.29406 0-0.44883-0.13929-0.13929-0.13929-0.13929-0.4024 0-0.24762 0.15477-0.38692 0.15477-0.13929 0.43335-0.13929h1.9191v-8.2956l-1.687 1.0988q-0.12381 0.0774-0.24763 0.0774-0.21667 0-0.38692-0.2012-0.15476-0.2012-0.15476-0.43335 0-0.32502 0.24762-0.46431l2.3525-1.5322q0.2631-0.17025 0.54169-0.17025 0.2631 0 0.43335 0.17025 0.17024 0.17024 0.17024 0.47978v9.2706z"/>
  <path d="m316.61 287.24q0.27859 0 0.43335 0.13929 0.15477 0.1393 0.15477 0.38692 0 0.54169-0.58812 0.54169h-6.0669q-0.26311 0-0.43335-0.15477-0.17025-0.17024-0.17025-0.40239 0-0.29406 0.21668-0.51074l3.7299-4.1014q0.77384-0.8667 1.1143-1.5477 0.35596-0.69645 0.35596-1.3929 0-0.89765-0.52621-1.3774-0.51073-0.47978-1.4548-0.47978-0.74288 0-1.4239 0.27859-0.68098 0.2631-1.362 0.82027-0.23215 0.18572-0.43335 0.18572-0.17025 0-0.29406-0.15477-0.12382-0.17024-0.12382-0.4024 0-0.32501 0.24763-0.52621 0.63455-0.58812 1.5477-0.92861t1.8727-0.34049q1.4703 0 2.337 0.77384 0.88218 0.77384 0.88218 2.0894 0 0.94409-0.43335 1.8108-0.41787 0.8667-1.3929 1.9346l-3.0954 3.3585z"/>
  <path d="m322.71 288.23q-0.20119 0.34049-0.51073 0.34049-0.2012 0-0.35597-0.13929-0.13929-0.13929-0.13929-0.37145 0-0.18572 0.10834-0.35596l5.9121-10.23q0.2012-0.34049 0.51073-0.34049 0.2012 0 0.34049 0.15477 0.15477 0.13929 0.15477 0.35597 0 0.17024-0.0929 0.35596zm-1.2072-4.2871q-1.2381 0-1.9346-0.83575-0.69645-0.85123-0.69645-2.5072 0-1.6405 0.69645-2.4763 0.69646-0.85123 1.9346-0.85123 1.2382 0 1.9346 0.85123 0.69646 0.83575 0.69646 2.4763 0 1.656-0.69646 2.5072-0.69645 0.83575-1.9346 0.83575zm0-0.89766q0.75837 0 1.1143-0.58812 0.37145-0.58812 0.37145-1.8572 0-1.2536-0.37145-1.8417-0.35596-0.58812-1.1143-0.58812-0.75836 0-1.1298 0.58812-0.37145 0.58812-0.37145 1.8417 0 1.2691 0.37145 1.8572 0.37144 0.58812 1.1298 0.58812zm7.4289 5.3704q-1.2382 0-1.9346-0.83575-0.69646-0.85122-0.69646-2.5072 0-1.6405 0.69646-2.4763 0.69645-0.85122 1.9346-0.85122 1.2536 0 1.9346 0.83575 0.69645 0.83574 0.69645 2.4918t-0.69645 2.5072q-0.68098 0.83575-1.9346 0.83575zm0-0.89765q0.77384 0 1.1298-0.57265 0.37145-0.58811 0.37145-1.8727 0-1.2536-0.37145-1.8417-0.37144-0.58812-1.1298-0.58812t-1.1298 0.58812q-0.35596 0.58812-0.35596 1.8417 0 1.2691 0.35596 1.8572 0.37145 0.58812 1.1298 0.58812z"/>
 </g>
 <path d="m396.44 246.28c-0.16508 0-0.31508 0.05643-0.44922 0.16993-0.13412 0.10317-0.20117 0.23725-0.20117 0.40234 0 0.07223 0.01594 0.14987 0.04688 0.23242l4.4258 9.875c0.06191 0.13413 0.15548 0.23637 0.2793 0.30859 0.12382 0.07223 0.25789 0.10938 0.40234 0.10938s0.27853-0.03715 0.40234-0.10938c0.12379-0.07222 0.21541-0.17446 0.27735-0.30859l4.4434-9.875c0.04126-0.08255 0.06054-0.16355 0.06054-0.24609 0-0.15478-0.06704-0.2855-0.20117-0.38867-0.12381-0.1135-0.26851-0.16993-0.43359-0.16993-0.1135 0-0.22105 0.03182-0.32422 0.09375-0.09285 0.06191-0.1652 0.15018-0.2168 0.26368l-3.9766 9.0215-3.9941-9.0215c-0.1135-0.23732-0.29339-0.35743-0.54102-0.35743zm34.967 0.03125c-0.19603 0-0.35134 0.05643-0.46484 0.16993-0.1135 0.11349-0.16993 0.25818-0.16993 0.43359v9.8438c0 0.18572 0.05643 0.33572 0.16993 0.44922s0.26881 0.16992 0.46484 0.16992c0.19604 0 0.34409-0.05642 0.44727-0.16992 0.1135-0.1135 0.17187-0.2635 0.17187-0.44922v-0.83594c0.22699 0.47462 0.55689 0.84166 0.99023 1.0996 0.44367 0.25795 0.95876 0.38672 1.5469 0.38672 0.66035 0 1.2444-0.16592 1.75-0.49609s0.89719-0.78884 1.1758-1.377c0.27858-0.59844 0.41797-1.2901 0.41797-2.0742 0-0.77384-0.13939-1.4548-0.41797-2.043-0.27859-0.58812-0.67021-1.0415-1.1758-1.3613-0.50557-0.31986-1.0896-0.48047-1.75-0.48047-0.58812 0-1.1032 0.12877-1.5469 0.38672-0.43334 0.25794-0.76324 0.62499-0.99023 1.0996v-4.1484c0-0.18572-0.05837-0.33041-0.17187-0.43359-0.10318-0.1135-0.25123-0.16993-0.44727-0.16993zm17.682 0c-0.18573 0-0.33908 0.05643-0.46289 0.16993-0.11349 0.10318-0.16992 0.25317-0.16992 0.44921v9.8281c0 0.19603 0.05643 0.35134 0.16992 0.46484 0.12381 0.10318 0.27716 0.1543 0.46289 0.1543 0.1754 0 0.32009-0.05112 0.43359-0.1543 0.12382-0.1135 0.18555-0.26881 0.18555-0.46484v-9.8281c0-0.19604-0.06173-0.34603-0.18555-0.44921-0.1135-0.1135-0.25819-0.16993-0.43359-0.16993zm-39.373 3.2656c-0.71193 0-1.3418 0.16061-1.8887 0.48047-0.53652 0.31985-0.95468 0.77851-1.2539 1.377-0.2889 0.58811-0.4336 1.2744-0.4336 2.0586s0.1447 1.4758 0.4336 2.0742c0.29922 0.58812 0.71738 1.0415 1.2539 1.3613 0.54685 0.31985 1.1767 0.48047 1.8887 0.48047 0.71194 0 1.3418-0.16062 1.8887-0.48047 0.54684-0.31985 0.965-0.77321 1.2539-1.3613 0.29922-0.59843 0.44727-1.2901 0.44727-2.0742s-0.14805-1.4705-0.44727-2.0586c-0.2889-0.59844-0.70706-1.0571-1.2539-1.377-0.54685-0.31986-1.1767-0.48047-1.8887-0.48047zm8.6309 0c-0.71193 0-1.3418 0.16592-1.8887 0.49609-0.54685 0.33018-0.97366 0.79415-1.2832 1.3926-0.29922 0.59843-0.44922 1.2848-0.44922 2.0586s0.14469 1.4548 0.43359 2.043c0.29922 0.58812 0.71738 1.0415 1.2539 1.3613 0.54685 0.31985 1.1695 0.48047 1.8711 0.48047 0.41272 0 0.82026-0.05643 1.2227-0.16992 0.41271-0.12382 0.76383-0.28444 1.0527-0.48047 0.19604-0.13413 0.33012-0.25229 0.40235-0.35547 0.07222-0.1135 0.10937-0.23892 0.10937-0.37305 0-0.14445-0.04246-0.2626-0.125-0.35546-0.07222-0.09287-0.16385-0.13868-0.27734-0.13868-0.07223 0-0.16049 0.02653-0.26367 0.07813-0.10318 0.05159-0.21073 0.11332-0.32422 0.18555-0.25795 0.1754-0.51745 0.31478-0.77539 0.41796-0.24764 0.10318-0.54568 0.1543-0.89649 0.1543-0.7532 0-1.3426-0.24888-1.7656-0.74414-0.41272-0.49526-0.61914-1.1955-0.61914-2.1035 0-0.90796 0.20642-1.6155 0.61914-2.1211 0.42303-0.51589 1.0124-0.77344 1.7656-0.77344 0.35081 0 0.64355 0.05112 0.88086 0.1543 0.24763 0.10318 0.50713 0.24257 0.77539 0.41797 0.02063 0.01033 0.05582 0.03686 0.10743 0.07812 0.0619 0.04128 0.13425 0.08178 0.21679 0.12305 0.08255 0.04127 0.1602 0.0625 0.23242 0.0625 0.12382 0 0.2227-0.04581 0.29493-0.13867 0.08254-0.09286 0.12304-0.21297 0.12304-0.35742s-0.0405-0.27322-0.12304-0.38672c-0.07223-0.12382-0.20296-0.24728-0.38868-0.3711-0.2889-0.20636-0.62941-0.36166-1.0215-0.46484-0.38177-0.11349-0.76808-0.16992-1.1602-0.16992zm7.3125 0c-0.45398 0-0.91264 0.06173-1.377 0.18555-0.45399 0.1135-0.86153 0.27411-1.2227 0.48046-0.19603 0.1135-0.34072 0.22635-0.43359 0.33985-0.08254 0.10318-0.12305 0.22664-0.12305 0.37109s0.04051 0.26456 0.12305 0.35742c0.08255 0.09286 0.18673 0.13868 0.31055 0.13868 0.1135 0 0.30931-0.08828 0.58789-0.26368 0.72224-0.38176 1.4331-0.57226 2.1348-0.57226 0.56748 0 0.97503 0.14469 1.2227 0.43359 0.25795 0.2889 0.38672 0.74226 0.38672 1.3613v0.51172h-0.33985c-1.1762 0-2.0936 0.07235-2.7539 0.2168-0.66034 0.13413-1.1349 0.35983-1.4238 0.67968-0.2889 0.30954-0.43359 0.74893-0.43359 1.3164 0 0.42303 0.11816 0.80935 0.35547 1.1602 0.23731 0.3508 0.55658 0.62427 0.95898 0.82031 0.41271 0.19604 0.86272 0.29492 1.3477 0.29492 0.5262 0 0.99017-0.12011 1.3926-0.35742 0.4024-0.24763 0.70045-0.59149 0.89649-1.0352v0.74219c0 0.18572 0.05837 0.33572 0.17187 0.44922s0.26154 0.16992 0.44727 0.16992c0.18572 0 0.33041-0.05642 0.43359-0.16992 0.1135-0.1135 0.16992-0.2635 0.16992-0.44922v-4.209c0-1.981-0.94386-2.9727-2.832-2.9727zm29.473 0c-0.45399 0-0.91265 0.06173-1.377 0.18555-0.45399 0.1135-0.86153 0.27411-1.2227 0.48046-0.19603 0.1135-0.34073 0.22635-0.43359 0.33985-0.08254 0.10318-0.12305 0.22664-0.12305 0.37109s0.04051 0.26456 0.12305 0.35742 0.18673 0.13868 0.31054 0.13868c0.1135 0 0.30931-0.08828 0.58789-0.26368 0.72225-0.38176 1.4332-0.57226 2.1348-0.57226 0.56748 0 0.97503 0.14469 1.2227 0.43359 0.25794 0.2889 0.38671 0.74226 0.38671 1.3613v0.51172h-0.33984c-1.1762 0-2.0936 0.07235-2.7539 0.2168-0.66034 0.13413-1.1349 0.35983-1.4238 0.67968-0.2889 0.30954-0.4336 0.74893-0.4336 1.3164 0 0.42303 0.11816 0.80935 0.35547 1.1602 0.23731 0.3508 0.55659 0.62427 0.95899 0.82031 0.41271 0.19604 0.86271 0.29492 1.3476 0.29492 0.52621 0 0.99018-0.12011 1.3926-0.35742 0.40239-0.24763 0.70044-0.59149 0.89648-1.0352v0.74219c0 0.18572 0.05838 0.33572 0.17188 0.44922 0.11349 0.1135 0.26154 0.16992 0.44727 0.16992 0.18572 0 0.33041-0.05642 0.43359-0.16992 0.11349-0.1135 0.16992-0.2635 0.16992-0.44922v-4.209c0-1.981-0.94386-2.9727-2.832-2.9727zm-14.748 0.03125c-0.19604 0-0.35135 0.05642-0.46484 0.16992-0.1135 0.11349-0.16992 0.26349-0.16992 0.44922v4.209c0 0.9802 0.22765 1.723 0.68164 2.2285 0.45398 0.49526 1.1297 0.74414 2.0273 0.74414 0.53653 0 1.0164-0.12011 1.4394-0.35742 0.43335-0.23731 0.76855-0.58117 1.0059-1.0352v0.77344c0 0.1754 0.05112 0.32009 0.1543 0.43359 0.11349 0.10318 0.2635 0.1543 0.44922 0.1543 0.19604 0 0.34408-0.05642 0.44726-0.16992 0.1135-0.1135 0.17188-0.25819 0.17188-0.4336v-6.5469c0-0.18573-0.05838-0.33573-0.17188-0.44922-0.10317-0.1135-0.25122-0.16992-0.44726-0.16992s-0.35135 0.05642-0.46484 0.16992c-0.1135 0.11349-0.16993 0.26349-0.16993 0.44922v3.791c0 0.70162-0.20112 1.2698-0.60351 1.7031-0.4024 0.42303-0.93341 0.63477-1.5938 0.63477-0.5778 0-1.0013-0.15531-1.2695-0.46485-0.26827-0.31985-0.40235-0.81567-0.40235-1.4863v-4.1777c0-0.18573-0.05643-0.33573-0.16992-0.44922-0.10318-0.1135-0.25318-0.16992-0.44922-0.16992zm20.494 0c-0.1754 0-0.32345 0.05642-0.44726 0.16992-0.12382 0.10318-0.18555 0.25318-0.18555 0.44922v6.5312c0 0.19603 0.05643 0.35134 0.16992 0.46484 0.12382 0.10318 0.27717 0.1543 0.46289 0.1543 0.18573 0 0.33573-0.05112 0.44922-0.1543 0.1135-0.10318 0.16992-0.25849 0.16992-0.46484v-3.7617c0-0.5778 0.16593-1.077 0.4961-1.5 0.34049-0.43332 0.85558-0.68221 1.5469-0.74414l0.46485-0.04492c0.22699-0.02064 0.3876-0.07902 0.48047-0.17188 0.09286-0.10318 0.13867-0.23725 0.13867-0.40234 0-0.38174-0.21704-0.55632-0.65039-0.52539l-0.2168 0.01562c-0.51589 0.04128-0.97455 0.18067-1.377 0.41797-0.39208 0.23732-0.69543 0.58313-0.91211 1.0371v-0.86719c0-0.18572-0.05838-0.33041-0.17188-0.43359-0.1135-0.1135-0.25288-0.16992-0.41797-0.16992zm5.0274 0c-0.16509 0-0.31844 0.05642-0.46289 0.16992-0.13414 0.11349-0.20118 0.24757-0.20118 0.40234 0 0.08254 0.01928 0.1602 0.06055 0.23243l3.0644 6.625-1.082 2.3359c-0.04126 0.08255-0.0625 0.16551-0.0625 0.24805 0 0.15477 0.05643 0.27823 0.16992 0.37109 0.12382 0.10318 0.26321 0.1543 0.41797 0.1543 0.10318 0 0.20207-0.02986 0.29493-0.0918 0.10316-0.0619 0.17886-0.15017 0.23046-0.26367l4.3496-9.3789c0.04127-0.07223 0.0625-0.15519 0.0625-0.24805 0-0.15477-0.06173-0.28354-0.18554-0.38672-0.12382-0.10318-0.26321-0.1543-0.41797-0.1543-0.24764 0-0.42948 0.12347-0.54297 0.3711l-2.584 5.7734-2.584-5.8047c-0.05159-0.11348-0.12925-0.19979-0.23242-0.26172-0.09286-0.06193-0.19174-0.09375-0.29492-0.09375zm-56.189 1.0059c0.73257 0 1.3007 0.25224 1.7031 0.75781 0.40239 0.49526 0.60351 1.2028 0.60351 2.1211 0 0.93893-0.20112 1.6551-0.60351 2.1504-0.39208 0.48494-0.96024 0.72852-1.7031 0.72852-0.74288 0-1.3164-0.24888-1.7188-0.74414-0.39207-0.49526-0.58789-1.2062-0.58789-2.1348 0-0.91828 0.20113-1.6258 0.60352-2.1211 0.4024-0.50557 0.97056-0.75781 1.7031-0.75781zm24.6 0.01562c0.73258 0 1.3007 0.24693 1.7031 0.74219s0.60351 1.1922 0.60351 2.0898c0 0.91829-0.20111 1.6364-0.60351 2.1524-0.4024 0.50558-0.97055 0.75781-1.7031 0.75781-0.73256 0-1.2988-0.24888-1.7012-0.74414-0.39208-0.50557-0.58789-1.2165-0.58789-2.1348 0-0.91828 0.19581-1.6258 0.58789-2.1211 0.40239-0.49526 0.96861-0.74219 1.7012-0.74219zm-7.3242 3.0957h0.27735v0.44922c0 0.66033-0.20112 1.202-0.60352 1.625-0.39208 0.41271-0.89655 0.61914-1.5156 0.61914-0.44367 0-0.81602-0.13073-1.1152-0.38868-0.2889-0.26826-0.43359-0.60346-0.43359-1.0059 0-0.3508 0.09888-0.61366 0.29492-0.78906 0.20636-0.18572 0.54687-0.3145 1.0215-0.38672 0.47462-0.08254 1.1662-0.12304 2.0742-0.12304zm29.473 0h0.27734v0.44922c0 0.66033-0.20112 1.202-0.60351 1.625-0.39208 0.41271-0.89655 0.61914-1.5156 0.61914-0.44366 0-0.81601-0.13073-1.1152-0.38868-0.2889-0.26826-0.43359-0.60346-0.43359-1.0059 0-0.3508 0.09888-0.61366 0.29492-0.78906 0.20636-0.18572 0.54686-0.3145 1.0215-0.38672 0.47462-0.08254 1.1662-0.12304 2.0742-0.12304z" fill="url(#linearGradient1337)" style="font-variant-caps:normal;font-variant-east-asian:normal;font-variant-ligatures:normal;font-variant-numeric:normal"/>
 <path d="m446.56 277.13c-0.20635 0-0.37758 0.11285-0.51171 0.33984l-5.9121 10.23c-0.07223 0.1135-0.10743 0.23166-0.10743 0.35547 0 0.15477 0.04581 0.27823 0.13868 0.37109 0.10317 0.09286 0.22133 0.14063 0.35546 0.14063 0.20636 0 0.37759-0.1148 0.51172-0.3418l5.9277-10.23c0.06193-0.12381 0.09179-0.24197 0.09179-0.35547 0-0.14445-0.05111-0.2626-0.15429-0.35546-0.09286-0.10318-0.20571-0.1543-0.33985-0.1543zm-6.7324 0.13867c-0.82543 0-1.4712 0.28408-1.9356 0.85156-0.4643 0.55717-0.69726 1.3829-0.69726 2.4766 0 1.104 0.23296 1.9384 0.69726 2.5059 0.4643 0.55716 1.1101 0.83593 1.9356 0.83593s1.4693-0.27877 1.9336-0.83593c0.4643-0.56749 0.69726-1.4019 0.69726-2.5059 0-1.0937-0.23296-1.9194-0.69726-2.4766-0.46431-0.56748-1.1082-0.85156-1.9336-0.85156zm-6.3086 0.04688c-0.227 0-0.41414 0.09161-0.5586 0.27734l-5.0605 7.3203c-0.1135 0.17541-0.16992 0.33602-0.16992 0.48047 0 0.15477 0.05111 0.28355 0.15429 0.38672 0.10318 0.10318 0.24788 0.1543 0.4336 0.1543h4.582v1.7969c0 0.20636 0.05643 0.36502 0.16992 0.47852 0.1135 0.1135 0.2635 0.16992 0.44922 0.16992s0.33376-0.05642 0.44726-0.16992c0.12382-0.1135 0.18555-0.27216 0.18555-0.47852v-1.7969h1.1621c0.39208 0 0.58789-0.17459 0.58789-0.52539 0-0.15477-0.05112-0.27824-0.1543-0.3711-0.10318-0.10318-0.24787-0.15429-0.43359-0.15429h-1.1621v-6.918c0-0.20636-0.06173-0.36698-0.18555-0.48047-0.12382-0.1135-0.27186-0.16992-0.44726-0.16992zm6.3086 0.85156c0.50558 0 0.87597 0.19581 1.1133 0.58789 0.24763 0.39208 0.3711 1.006 0.3711 1.8418 0 0.84606-0.12347 1.4653-0.3711 1.8574-0.23731 0.39208-0.6077 0.58789-1.1133 0.58789s-0.88323-0.19581-1.1309-0.58789c-0.24762-0.39208-0.37109-1.0114-0.37109-1.8574 0-0.83575 0.12347-1.4497 0.37109-1.8418 0.24763-0.39208 0.62528-0.58789 1.1309-0.58789zm-6.9277 1.3457v5.3711h-3.7305l3.7305-5.3711zm-10.473 0.60352c-0.13413 0-0.24698 0.05112-0.33984 0.15429-0.09286 0.09286-0.14063 0.21102-0.14063 0.35547v2.7871h-2.8008c-0.13413 0-0.25229 0.04581-0.35547 0.13867-0.09286 0.09286-0.13867 0.20572-0.13867 0.33985s0.04581 0.25424 0.13867 0.35742c0.10318 0.09286 0.22134 0.13867 0.35547 0.13867h2.8008v2.7852c0 0.13412 0.04777 0.25424 0.14063 0.35742 0.09286 0.09286 0.20571 0.13867 0.33984 0.13867s0.24698-0.04581 0.33984-0.13867 0.14063-0.21298 0.14063-0.35742v-2.7852h2.8008c0.14445 0 0.26261-0.04581 0.35547-0.13867 0.09286-0.10318 0.14062-0.22329 0.14062-0.35742s-0.05307-0.24699-0.15624-0.33985c-0.09286-0.09286-0.20572-0.13867-0.33985-0.13867h-2.8008v-2.7871c0-0.14445-0.04777-0.26261-0.14063-0.35547-0.09285-0.10317-0.20571-0.15429-0.33984-0.15429zm24.828 1.625c-0.82543 0-1.4693 0.28408-1.9336 0.85156-0.4643 0.55717-0.69726 1.3829-0.69726 2.4766 0 1.104 0.23296 1.9384 0.69726 2.5059 0.46431 0.55717 1.1082 0.83594 1.9336 0.83594 0.83574 0 1.4816-0.27877 1.9355-0.83594 0.46431-0.56748 0.69532-1.4018 0.69532-2.5059 0-1.104-0.23101-1.935-0.69532-2.4922-0.45398-0.55716-1.0998-0.83593-1.9355-0.83593zm0 0.89843c0.50557 1e-5 0.88322 0.19582 1.1309 0.5879 0.24762 0.39208 0.37109 1.006 0.37109 1.8418 0 0.85639-0.12347 1.481-0.37109 1.873-0.23732 0.38177-0.61497 0.57226-1.1309 0.57226-0.50558 0-0.88128-0.19581-1.1289-0.58789-0.23731-0.39208-0.35742-1.0114-0.35742-1.8574 0-0.83574 0.12011-1.4497 0.35742-1.8418 0.24763-0.39208 0.62333-0.5879 1.1289-0.5879z" fill="url(#linearGradient1329)" style="font-variant-caps:normal;font-variant-east-asian:normal;font-variant-ligatures:normal;font-variant-numeric:normal"/>
 <g fill="#859ab6" stroke-width=".32976" style="font-variant-caps:normal;font-variant-east-asian:normal;font-variant-ligatures:normal;font-variant-numeric:normal" aria-label="Progress report">
  <path d="m163.5 71.498h4.1155q1.8356 0 2.8145 0.81795 0.9854 0.81151 0.9854 2.3186 0 1.5135-0.9854 2.3315-0.97896 0.81151-2.8145 0.81151h-1.6359v3.3362h-2.4796zm2.4796 1.7969v2.6857h1.3718q0.72134 0 1.1142-0.34779 0.39287-0.35423 0.39287-0.99828 0-0.64405-0.39287-0.99184-0.39287-0.34779-1.1142-0.34779z" style="font-variant-caps:normal;font-variant-east-asian:normal;font-variant-ligatures:normal;font-variant-numeric:normal"/>
  <path d="m178.41 75.865q-0.3027-0.14169-0.60541-0.2061-0.29626-0.07085-0.59897-0.07085-0.88879 0-1.3718 0.57321-0.4766 0.56677-0.4766 1.6295v3.3233h-2.3057v-7.2134h2.3057v1.1851q0.4444-0.70846 1.0176-1.0305 0.57964-0.32847 1.3847-0.32847 0.11593 0 0.25118 0.01288 0.13525 0.0064 0.39287 0.03864z" style="font-variant-caps:normal;font-variant-east-asian:normal;font-variant-ligatures:normal;font-variant-numeric:normal"/>
  <path d="m183 75.375q-0.76642 0-1.1722 0.55388-0.39931 0.54744-0.39931 1.5844t0.39931 1.5908q0.40576 0.54744 1.1722 0.54744 0.75354 0 1.1528-0.54744 0.39932-0.55388 0.39932-1.5908t-0.39932-1.5844q-0.39931-0.55388-1.1528-0.55388zm0-1.6488q1.8613 0 2.9047 1.0047 1.0498 1.0047 1.0498 2.7823 0 1.7776-1.0498 2.7823-1.0434 1.0047-2.9047 1.0047-1.8678 0-2.924-1.0047-1.0498-1.0047-1.0498-2.7823 0-1.7776 1.0498-2.7823 1.0562-1.0047 2.924-1.0047z" style="font-variant-caps:normal;font-variant-east-asian:normal;font-variant-ligatures:normal;font-variant-numeric:normal"/>
  <path d="m193.55 79.89q-0.4766 0.63117-1.0498 0.92744-0.57321 0.29626-1.3268 0.29626-1.3203 0-2.1833-1.0369-0.86303-1.0434-0.86303-2.6535 0-1.6166 0.86303-2.6471 0.86303-1.0369 2.1833-1.0369 0.75354 0 1.3268 0.29626 0.5732 0.29626 1.0498 0.93388v-1.0691h2.3186v6.4856q0 1.7389-1.1013 2.6535-1.0949 0.921-3.1816 0.921-0.67625 0-1.3074-0.10305-0.63117-0.10305-1.2688-0.31559v-1.7969q0.60541 0.34779 1.1851 0.51524 0.57965 0.17389 1.1657 0.17389 1.1335 0 1.6617-0.49592 0.52812-0.49592 0.52812-1.5522zm-1.52-4.489q-0.7149 0-1.1142 0.52812-0.39932 0.52812-0.39932 1.4942 0 0.99184 0.38644 1.5071 0.38643 0.5088 1.1271 0.5088 0.72134 0 1.1206-0.52812 0.39931-0.52812 0.39931-1.4878 0-0.96608-0.39931-1.4942-0.39931-0.52812-1.1206-0.52812z" style="font-variant-caps:normal;font-variant-east-asian:normal;font-variant-ligatures:normal;font-variant-numeric:normal"/>
  <path d="m203.45 75.865q-0.3027-0.14169-0.60541-0.2061-0.29626-0.07085-0.59896-0.07085-0.8888 0-1.3718 0.57321-0.4766 0.56677-0.4766 1.6295v3.3233h-2.3057v-7.2134h2.3057v1.1851q0.4444-0.70846 1.0176-1.0305 0.57964-0.32847 1.3847-0.32847 0.11593 0 0.25118 0.01288 0.13525 0.0064 0.39287 0.03864z" style="font-variant-caps:normal;font-variant-east-asian:normal;font-variant-ligatures:normal;font-variant-numeric:normal"/>
  <path d="m211.81 77.488v0.65693h-5.3907q0.0837 0.81151 0.58609 1.2173 0.50236 0.40575 1.404 0.40575 0.72778 0 1.4878-0.21254 0.76643-0.21898 1.5715-0.65693v1.7776q-0.81795 0.30914-1.6359 0.46372-0.81795 0.16101-1.6359 0.16101-1.9579 0-3.0464-0.99184-1.082-0.99828-1.082-2.7952 0-1.7647 1.0627-2.7759 1.0691-1.0112 2.9369-1.0112 1.7003 0 2.7179 1.024 1.024 1.024 1.024 2.7372zm-2.3701-0.76642q0-0.65693-0.38644-1.0562-0.37999-0.40575-0.99828-0.40575-0.66981 0-1.0884 0.37999-0.41863 0.37355-0.52168 1.082z" style="font-variant-caps:normal;font-variant-east-asian:normal;font-variant-ligatures:normal;font-variant-numeric:normal"/>
  <path d="m219.19 74.126v1.7518q-0.74066-0.30914-1.4298-0.46372-0.68913-0.15457-1.301-0.15457-0.65694 0-0.97896 0.16745-0.31559 0.16101-0.31559 0.50236 0 0.27694 0.2383 0.42508 0.24474 0.14813 0.86947 0.21898l0.40575 0.05797q1.7712 0.22542 2.383 0.74066 0.61185 0.51524 0.61185 1.6166 0 1.1529-0.85015 1.7325-0.85015 0.57965-2.5376 0.57965-0.7149 0-1.4813-0.11593-0.75998-0.10949-1.565-0.33491v-1.7518q0.68914 0.33491 1.4105 0.50236 0.72778 0.16745 1.4749 0.16745 0.67625 0 1.0176-0.18678 0.34135-0.18678 0.34135-0.55388 0-0.30914-0.2383-0.45728-0.23186-0.15457-0.93388-0.2383l-0.40575-0.05152q-1.5393-0.19322-2.1576-0.7149-0.6183-0.52168-0.6183-1.5844 0-1.1464 0.78575-1.7003 0.78574-0.55389 2.4088-0.55389 0.63761 0 1.3396 0.09661 0.70201 0.09661 1.5264 0.3027z" style="font-variant-caps:normal;font-variant-east-asian:normal;font-variant-ligatures:normal;font-variant-numeric:normal"/>
  <path d="m227.04 74.126v1.7518q-0.74067-0.30914-1.4298-0.46372-0.68914-0.15457-1.301-0.15457-0.65693 0-0.97896 0.16745-0.31558 0.16101-0.31558 0.50236 0 0.27694 0.2383 0.42508 0.24474 0.14813 0.86947 0.21898l0.40575 0.05797q1.7711 0.22542 2.383 0.74066 0.61185 0.51524 0.61185 1.6166 0 1.1529-0.85014 1.7325-0.85015 0.57965-2.5376 0.57965-0.7149 0-1.4813-0.11593-0.75999-0.10949-1.565-0.33491v-1.7518q0.68913 0.33491 1.4105 0.50236 0.72778 0.16745 1.4749 0.16745 0.67626 0 1.0176-0.18678 0.34135-0.18678 0.34135-0.55388 0-0.30914-0.2383-0.45728-0.23186-0.15457-0.93388-0.2383l-0.40575-0.05152q-1.5393-0.19322-2.1576-0.7149-0.61829-0.52168-0.61829-1.5844 0-1.1464 0.78574-1.7003 0.78575-0.55389 2.4088-0.55389 0.63761 0 1.3396 0.09661t1.5264 0.3027z" style="font-variant-caps:normal;font-variant-east-asian:normal;font-variant-ligatures:normal;font-variant-numeric:normal"/>
  <path d="m239.21 75.865q-0.30271-0.14169-0.60541-0.2061-0.29627-0.07085-0.59897-0.07085-0.88879 0-1.3718 0.57321-0.4766 0.56677-0.4766 1.6295v3.3233h-2.3057v-7.2134h2.3057v1.1851q0.4444-0.70846 1.0176-1.0305 0.57965-0.32847 1.3847-0.32847 0.11593 0 0.25118 0.01288 0.13525 0.0064 0.39287 0.03864z" style="font-variant-caps:normal;font-variant-east-asian:normal;font-variant-ligatures:normal;font-variant-numeric:normal"/>
  <path d="m247.57 77.488v0.65693h-5.3907q0.0837 0.81151 0.58609 1.2173 0.50236 0.40575 1.404 0.40575 0.72778 0 1.4878-0.21254 0.76642-0.21898 1.5715-0.65693v1.7776q-0.81795 0.30914-1.6359 0.46372-0.81794 0.16101-1.6359 0.16101-1.9579 0-3.0464-0.99184-1.082-0.99828-1.082-2.7952 0-1.7647 1.0627-2.7759 1.0691-1.0112 2.9369-1.0112 1.7003 0 2.7179 1.024 1.024 1.024 1.024 2.7372zm-2.3701-0.76642q0-0.65693-0.38643-1.0562-0.37999-0.40575-0.99828-0.40575-0.66982 0-1.0884 0.37999-0.41864 0.37355-0.52168 1.082z" style="font-variant-caps:normal;font-variant-east-asian:normal;font-variant-ligatures:normal;font-variant-numeric:normal"/>
  <path d="m251.62 80.07v3.787h-2.3057v-9.9571h2.3057v1.0562q0.4766-0.63117 1.0562-0.92744 0.57965-0.3027 1.3332-0.3027 1.3332 0 2.1898 1.0627 0.85659 1.0562 0.85659 2.7243 0 1.6681-0.85659 2.7308-0.85659 1.0562-2.1898 1.0562-0.75354 0-1.3332-0.29626-0.57964-0.3027-1.0562-0.93388zm1.5328-4.6694q-0.74066 0-1.14 0.54744-0.39287 0.541-0.39287 1.565t0.39287 1.5715q0.39931 0.541 1.14 0.541t1.1271-0.541q0.39288-0.541 0.39288-1.5715 0-1.0305-0.39288-1.5715-0.38643-0.541-1.1271-0.541z" style="font-variant-caps:normal;font-variant-east-asian:normal;font-variant-ligatures:normal;font-variant-numeric:normal"/>
  <path d="m262.2 75.375q-0.76643 0-1.1722 0.55388-0.39931 0.54744-0.39931 1.5844t0.39931 1.5908q0.40575 0.54744 1.1722 0.54744 0.75354 0 1.1528-0.54744 0.39931-0.55388 0.39931-1.5908t-0.39931-1.5844q-0.39931-0.55388-1.1528-0.55388zm0-1.6488q1.8613 0 2.9047 1.0047 1.0498 1.0047 1.0498 2.7823 0 1.7776-1.0498 2.7823-1.0434 1.0047-2.9047 1.0047-1.8678 0-2.924-1.0047-1.0498-1.0047-1.0498-2.7823 0-1.7776 1.0498-2.7823 1.0562-1.0047 2.924-1.0047z" style="font-variant-caps:normal;font-variant-east-asian:normal;font-variant-ligatures:normal;font-variant-numeric:normal"/>
  <path d="m273.19 75.865q-0.3027-0.14169-0.60541-0.2061-0.29626-0.07085-0.59897-0.07085-0.88879 0-1.3718 0.57321-0.4766 0.56677-0.4766 1.6295v3.3233h-2.3057v-7.2134h2.3057v1.1851q0.4444-0.70846 1.0176-1.0305 0.57964-0.32847 1.3847-0.32847 0.11593 0 0.25118 0.01288 0.13525 0.0064 0.39287 0.03864z" style="font-variant-caps:normal;font-variant-east-asian:normal;font-variant-ligatures:normal;font-variant-numeric:normal"/>
  <path d="m276.87 71.852v2.0481h2.3766v1.6488h-2.3766v3.0593q0 0.50236 0.19965 0.6827 0.19966 0.17389 0.79219 0.17389h1.185v1.6488h-1.9772q-1.3654 0-1.9386-0.56677-0.56676-0.57321-0.56676-1.9386v-3.0593h-1.1464v-1.6488h1.1464v-2.0481z" style="font-variant-caps:normal;font-variant-east-asian:normal;font-variant-ligatures:normal;font-variant-numeric:normal"/>
 </g>
</svg>
