<?xml version="1.0" encoding="UTF-8"?>
<svg width="490" height="360" version="1.1" viewBox="0 0 490 360" xmlns="http://www.w3.org/2000/svg">
 <path d="m0 0h490v360h-490z" fill="#fff"/>
 <path d="m58.078 76.22h95.124c1.8216 0 3.288 1.4664 3.288 3.288v3.334c0 1.8216-1.4664 3.288-3.288 3.288h-95.124c-1.8216 0-3.288-1.4664-3.288-3.288v-3.334c0-1.8216 1.4664-3.288 3.288-3.288z" fill="#bed0e9"/>
 <g fill="#e5f0ff">
  <path d="m58.08 95.09h51.34c1.821 0 3.288 1.466 3.288 3.288v3.335c0 1.821-1.466 3.288-3.288 3.288h-51.34c-1.821 0-3.288-1.466-3.288-3.288v-3.335c0-1.821 1.466-3.288 3.288-3.288z"/>
  <path d="m120.9 95.09h82.6c1.821 0 3.288 1.466 3.288 3.288v3.335c0 1.821-1.466 3.288-3.288 3.288h-82.6c-1.821 0-3.288-1.466-3.288-3.288v-3.335c0-1.821 1.466-3.288 3.288-3.288z"/>
  <path d="m215.5 95.09h32.33c1.821 0 3.288 1.466 3.288 3.288v3.335c0 1.821-1.466 3.288-3.288 3.288h-32.33c-1.821 0-3.288-1.466-3.288-3.288v-3.335c0-1.821 1.466-3.288 3.288-3.288z"/>
  <path d="m259.7 95.09h170.7c1.821 0 3.288 1.466 3.288 3.288v3.335c0 1.821-1.466 3.288-3.288 3.288h-170.7c-1.821 0-3.288-1.466-3.288-3.288v-3.335c0-1.821 1.466-3.288 3.288-3.288z"/>
  <path d="m58.08 113.6h94.13c1.821 0 3.288 1.466 3.288 3.288v3.335c0 1.821-1.466 3.288-3.288 3.288h-94.13c-1.821 0-3.288-1.466-3.288-3.288v-3.335c0-1.821 1.466-3.288 3.288-3.288z"/>
  <path d="m166.4 113.6h135.9c1.821 0 3.288 1.466 3.288 3.288v3.335c0 1.821-1.466 3.288-3.288 3.288h-135.9c-1.821 0-3.288-1.466-3.288-3.288v-3.335c0-1.821 1.466-3.288 3.288-3.288z"/>
  <path d="m314.9 113.6h57.57c1.821 0 3.288 1.466 3.288 3.288v3.335c0 1.821-1.466 3.288-3.288 3.288h-57.57c-1.821 0-3.288-1.466-3.288-3.288v-3.335c0-1.821 1.466-3.288 3.288-3.288z"/>
  <path d="m385.7 113.6h32.51c1.821 0 3.288 1.466 3.288 3.288v3.335c0 1.821-1.466 3.288-3.288 3.288h-32.51c-1.821 0-3.288-1.466-3.288-3.288v-3.335c0-1.821 1.466-3.288 3.288-3.288z"/>
 </g>
 <g fill="#e5f0ff">
  <path d="m263.5 180.1-4.582 13.21 1.891 0.6543 4.582-13.21z"/>
  <path d="m216.3 182.1c-1.821 0-3.289 1.468-3.289 3.289v3.334c0 1.821 1.468 3.287 3.289 3.287h30.36c1.821 0 3.287-1.466 3.287-3.287v-3.334c0-1.821-1.466-3.289-3.287-3.289z"/>
  <path d="m278.5 182.1c-1.821 0-3.287 1.468-3.287 3.289v3.334c0 1.821 1.466 3.287 3.287 3.287h30.36c1.821 0 3.289-1.466 3.289-3.287v-3.334c0-1.821-1.468-3.289-3.289-3.289z"/>
 </g>
 <path d="m332 182.1c-1.821 0-3.289 1.468-3.289 3.289v3.334c0 1.821 1.468 3.287 3.289 3.287h78.87c1.821 0 3.289-1.466 3.289-3.287v-3.334c0-1.821-1.468-3.289-3.289-3.289z" fill="#bed0e9"/>
 <g fill="#e5f0ff">
  <path d="m318 186v2h4.582v-2z"/>
  <path d="m263.5 211.8-4.582 13.21 1.891 0.6543 4.582-13.21z"/>
  <path d="m216.3 213.8c-1.821 0-3.289 1.468-3.289 3.289v3.334c0 1.821 1.468 3.287 3.289 3.287h30.36c1.821 0 3.287-1.466 3.287-3.287v-3.334c0-1.821-1.466-3.289-3.287-3.289z"/>
  <path d="m278.5 213.8c-1.821 0-3.287 1.468-3.287 3.289v3.334c0 1.821 1.466 3.287 3.287 3.287h30.36c1.821 0 3.289-1.466 3.289-3.287v-3.334c0-1.821-1.468-3.289-3.289-3.289z"/>
 </g>
 <path d="m332 213.8c-1.821 0-3.289 1.468-3.289 3.289v3.334c0 1.821 1.468 3.287 3.289 3.287h78.87c1.821 0 3.289-1.466 3.289-3.287v-3.334c0-1.821-1.468-3.289-3.289-3.289z" fill="#bed0e9"/>
 <g fill="#e5f0ff">
  <path d="m318 217.8v2h4.582v-2z"/>
  <path d="m263.5 243.6-4.582 13.21 1.891 0.6543 4.582-13.21z"/>
  <path d="m216.3 245.5c-1.821 0-3.289 1.468-3.289 3.289v3.334c0 1.821 1.468 3.287 3.289 3.287h30.36c1.821 0 3.287-1.466 3.287-3.287v-3.334c0-1.821-1.466-3.289-3.287-3.289z"/>
  <path d="m278.5 245.5c-1.821 0-3.287 1.468-3.287 3.289v3.334c0 1.821 1.466 3.287 3.287 3.287h30.36c1.821 0 3.289-1.466 3.289-3.287v-3.334c0-1.821-1.468-3.289-3.289-3.289z"/>
 </g>
 <path d="m332 245.5c-1.821 0-3.289 1.468-3.289 3.289v3.334c0 1.821 1.468 3.287 3.289 3.287h78.87c1.821 0 3.289-1.466 3.289-3.287v-3.334c0-1.821-1.468-3.289-3.289-3.289z" fill="#bed0e9"/>
 <g fill="#e5f0ff">
  <path d="m318 249.5v2h4.582v-2z"/>
  <path d="m263.5 275.3-4.582 13.21 1.891 0.6543 4.582-13.21z"/>
  <path d="m216.3 277.3c-1.821 0-3.289 1.468-3.289 3.289v3.334c0 1.821 1.468 3.287 3.289 3.287h30.36c1.821 0 3.287-1.466 3.287-3.287v-3.334c0-1.821-1.466-3.289-3.287-3.289z"/>
  <path d="m278.5 277.3c-1.821 0-3.287 1.468-3.287 3.289v3.334c0 1.821 1.466 3.287 3.287 3.287h30.36c1.821 0 3.289-1.466 3.289-3.287v-3.334c0-1.821-1.468-3.289-3.289-3.289z"/>
 </g>
 <path d="m332 277.3c-1.821 0-3.289 1.468-3.289 3.289v3.334c0 1.821 1.468 3.287 3.289 3.287h78.87c1.821 0 3.289-1.466 3.289-3.287v-3.334c0-1.821-1.468-3.289-3.289-3.289z" fill="#bed0e9"/>
 <g fill="#e5f0ff">
  <path d="m318 281.2v2h4.582v-2z"/>
  <path d="m263.5 307-4.582 13.21 1.891 0.6543 4.582-13.21z"/>
  <path d="m216.3 309c-1.821 0-3.289 1.468-3.289 3.289v3.334c0 1.821 1.468 3.287 3.289 3.287h30.36c1.821 0 3.287-1.466 3.287-3.287v-3.334c0-1.821-1.466-3.289-3.287-3.289z"/>
  <path d="m278.5 309c-1.821 0-3.287 1.468-3.287 3.289v3.334c0 1.821 1.466 3.287 3.287 3.287h30.36c1.821 0 3.289-1.466 3.289-3.287v-3.334c0-1.821-1.468-3.289-3.289-3.289z"/>
 </g>
 <path d="m332 309c-1.821 0-3.289 1.468-3.289 3.289v3.334c0 1.821 1.468 3.287 3.289 3.287h78.87c1.821 0 3.289-1.466 3.289-3.287v-3.334c0-1.821-1.468-3.289-3.289-3.289z" fill="#bed0e9"/>
 <path d="m318 312.9v2h4.582v-2z" fill="#e5f0ff"/>
 <g fill="#8095b4" stroke-width=".404" style="font-variant-caps:normal;font-variant-east-asian:normal;font-variant-ligatures:normal;font-variant-numeric:normal" aria-label="Assessor recommendations">
  <path d="m66.469 61.746q0.09697 0.21011 0.09697 0.42022 0 0.37173-0.30708 0.63032-0.29092 0.25859-0.67881 0.25859-0.25859 0-0.48486-0.1293-0.22627-0.14546-0.35557-0.43638l-0.96973-2.1657h-5.6891l-0.96973 2.1657q-0.1293 0.29092-0.35557 0.43638-0.22627 0.1293-0.50103 0.1293-0.37173 0-0.67881-0.25859-0.30708-0.25859-0.30708-0.63032 0-0.21011 0.09697-0.42022l4.4607-9.5841q0.14546-0.32324 0.43638-0.48486 0.30708-0.17778 0.64648-0.17778t0.63032 0.17778q0.30708 0.16162 0.45254 0.48486zm-3.4102-3.0385-2.1334-4.8001-2.1334 4.8001z" style="font-variant-caps:normal;font-variant-east-asian:normal;font-variant-ligatures:normal;font-variant-numeric:normal"/>
  <path d="m70.694 63.12q-1.7617 0-2.8445-0.69497-0.51719-0.30708-0.51719-0.87275 0-0.32324 0.17778-0.51719 0.17778-0.21011 0.43638-0.21011 0.27476 0 0.75962 0.25859 0.51719 0.24243 0.9374 0.37173 0.43638 0.1293 1.099 0.1293 0.67881 0 1.0505-0.22627 0.38789-0.22627 0.38789-0.63032 0-0.27476-0.16162-0.43638-0.14546-0.16162-0.54951-0.29092-0.38789-0.14546-1.196-0.32324-1.4384-0.29092-2.0687-0.82427-0.61416-0.53335-0.61416-1.4708 0-0.71113 0.42021-1.2768 0.42022-0.58184 1.1475-0.88892 0.74346-0.32324 1.6809-0.32324 0.67881 0 1.3091 0.17778 0.63032 0.16162 1.1313 0.48486 0.51719 0.32324 0.51719 0.85659 0 0.32324-0.17778 0.54951-0.17778 0.21011-0.43638 0.21011-0.17778 0-0.35557-0.06465-0.16162-0.08081-0.42022-0.22627-0.4687-0.24243-0.8081-0.35557-0.3394-0.1293-0.84043-0.1293-0.598 0-0.95356 0.24243-0.3394 0.24243-0.3394 0.66265 0 0.40405 0.35557 0.61416 0.35557 0.21011 1.3738 0.42022 1.0829 0.22627 1.697 0.51719 0.61416 0.29092 0.87275 0.7273 0.27476 0.43638 0.27476 1.1152 0 1.099-0.92124 1.7617-0.90508 0.66265-2.4243 0.66265z" style="font-variant-caps:normal;font-variant-east-asian:normal;font-variant-ligatures:normal;font-variant-numeric:normal"/>
  <path d="m78.522 63.12q-1.7617 0-2.8445-0.69497-0.51719-0.30708-0.51719-0.87275 0-0.32324 0.17778-0.51719 0.17778-0.21011 0.43638-0.21011 0.27476 0 0.75962 0.25859 0.51719 0.24243 0.9374 0.37173 0.43638 0.1293 1.099 0.1293 0.67881 0 1.0505-0.22627 0.38789-0.22627 0.38789-0.63032 0-0.27476-0.16162-0.43638-0.14546-0.16162-0.54951-0.29092-0.38789-0.14546-1.196-0.32324-1.4384-0.29092-2.0687-0.82427-0.61416-0.53335-0.61416-1.4708 0-0.71113 0.42021-1.2768 0.42022-0.58184 1.1475-0.88892 0.74346-0.32324 1.6809-0.32324 0.67881 0 1.3091 0.17778 0.63032 0.16162 1.1313 0.48486 0.51719 0.32324 0.51719 0.85659 0 0.32324-0.17778 0.54951-0.17778 0.21011-0.43638 0.21011-0.17778 0-0.35557-0.06465-0.16162-0.08081-0.42022-0.22627-0.4687-0.24243-0.8081-0.35557-0.3394-0.1293-0.84043-0.1293-0.598 0-0.95356 0.24243-0.3394 0.24243-0.3394 0.66265 0 0.40405 0.35557 0.61416 0.35557 0.21011 1.3738 0.42022 1.0829 0.22627 1.697 0.51719t0.87275 0.7273q0.27476 0.43638 0.27476 1.1152 0 1.099-0.92124 1.7617-0.90508 0.66265-2.4243 0.66265z" style="font-variant-caps:normal;font-variant-east-asian:normal;font-variant-ligatures:normal;font-variant-numeric:normal"/>
  <path d="m89.745 60.825q0.27476 0 0.43638 0.21011 0.17778 0.21011 0.17778 0.56567 0 0.50102-0.598 0.84043-0.54951 0.30708-1.2445 0.50102-0.69497 0.17778-1.3253 0.17778-1.9071 0-3.0223-1.099-1.1152-1.099-1.1152-3.0062 0-1.2122 0.48486-2.1496t1.3576-1.4546q0.88892-0.51719 2.0041-0.51719 1.0667 0 1.8586 0.4687 0.79194 0.4687 1.2283 1.3253 0.43638 0.85659 0.43638 2.0203 0 0.69497-0.61416 0.69497h-4.7678q0.09697 1.1152 0.63032 1.6485 0.53335 0.51719 1.5516 0.51719 0.51719 0 0.90508-0.1293 0.40405-0.1293 0.90508-0.35557 0.48486-0.25859 0.71113-0.25859zm-2.796-4.5092q-0.82427 0-1.3253 0.51719-0.48486 0.51719-0.58184 1.4869h3.6526q-0.03232-0.98589-0.48486-1.4869-0.45254-0.51719-1.2606-0.51719z" style="font-variant-caps:normal;font-variant-east-asian:normal;font-variant-ligatures:normal;font-variant-numeric:normal"/>
  <path d="m94.937 63.12q-1.7617 0-2.8445-0.69497-0.51719-0.30708-0.51719-0.87275 0-0.32324 0.17778-0.51719 0.17778-0.21011 0.43638-0.21011 0.27476 0 0.75962 0.25859 0.51719 0.24243 0.9374 0.37173 0.43638 0.1293 1.099 0.1293 0.67881 0 1.0505-0.22627 0.38789-0.22627 0.38789-0.63032 0-0.27476-0.16162-0.43638-0.14546-0.16162-0.54951-0.29092-0.38789-0.14546-1.196-0.32324-1.4384-0.29092-2.0687-0.82427-0.61416-0.53335-0.61416-1.4708 0-0.71113 0.42022-1.2768 0.42022-0.58184 1.1475-0.88892 0.74346-0.32324 1.6809-0.32324 0.67881 0 1.3091 0.17778 0.63032 0.16162 1.1313 0.48486 0.51719 0.32324 0.51719 0.85659 0 0.32324-0.17778 0.54951-0.17778 0.21011-0.43638 0.21011-0.17778 0-0.35557-0.06465-0.16162-0.08081-0.42022-0.22627-0.4687-0.24243-0.8081-0.35557-0.3394-0.1293-0.84043-0.1293-0.598 0-0.95356 0.24243-0.3394 0.24243-0.3394 0.66265 0 0.40405 0.35557 0.61416 0.35557 0.21011 1.3738 0.42022 1.0829 0.22627 1.697 0.51719t0.87275 0.7273q0.27476 0.43638 0.27476 1.1152 0 1.099-0.92124 1.7617-0.90508 0.66265-2.4243 0.66265z" style="font-variant-caps:normal;font-variant-east-asian:normal;font-variant-ligatures:normal;font-variant-numeric:normal"/>
  <path d="m102.77 63.12q-1.7617 0-2.8445-0.69497-0.51719-0.30708-0.51719-0.87275 0-0.32324 0.17778-0.51719 0.17778-0.21011 0.43637-0.21011 0.27476 0 0.75962 0.25859 0.51719 0.24243 0.9374 0.37173 0.43638 0.1293 1.099 0.1293 0.6788 0 1.0505-0.22627 0.38789-0.22627 0.38789-0.63032 0-0.27476-0.16162-0.43638-0.14546-0.16162-0.54951-0.29092-0.38789-0.14546-1.196-0.32324-1.4384-0.29092-2.0687-0.82427-0.61416-0.53335-0.61416-1.4708 0-0.71113 0.42021-1.2768 0.42022-0.58184 1.1475-0.88892 0.74346-0.32324 1.6809-0.32324 0.67881 0 1.3091 0.17778 0.63032 0.16162 1.1314 0.48486 0.51718 0.32324 0.51718 0.85659 0 0.32324-0.17778 0.54951-0.17778 0.21011-0.43638 0.21011-0.17778 0-0.35556-0.06465-0.16162-0.08081-0.42022-0.22627-0.4687-0.24243-0.8081-0.35557-0.33941-0.1293-0.84043-0.1293-0.598 0-0.95357 0.24243-0.3394 0.24243-0.3394 0.66265 0 0.40405 0.35557 0.61416 0.35556 0.21011 1.3738 0.42022 1.0829 0.22627 1.697 0.51719 0.61415 0.29092 0.87275 0.7273 0.27475 0.43638 0.27475 1.1152 0 1.099-0.92124 1.7617-0.90507 0.66265-2.4243 0.66265z" style="font-variant-caps:normal;font-variant-east-asian:normal;font-variant-ligatures:normal;font-variant-numeric:normal"/>
  <path d="m111.34 63.12q-1.2122 0-2.1334-0.50102-0.90508-0.50102-1.4061-1.4384-0.50102-0.9374-0.50102-2.1819t0.50102-2.1657q0.50103-0.9374 1.4061-1.4384 0.92124-0.50102 2.1334-0.50102 1.2122 0 2.1172 0.50102 0.92124 0.50102 1.4061 1.4384 0.50103 0.92124 0.50103 2.1657t-0.50103 2.1819q-0.48486 0.9374-1.4061 1.4384-0.90508 0.50102-2.1172 0.50102zm-0.0162-1.5677q0.98589 0 1.5031-0.64648 0.51718-0.64648 0.51718-1.9071 0-1.2445-0.51718-1.891-0.51719-0.66265-1.4869-0.66265-0.96972 0-1.5031 0.66265-0.51719 0.64648-0.51719 1.891 0 1.2606 0.51719 1.9071t1.4869 0.64648z" style="font-variant-caps:normal;font-variant-east-asian:normal;font-variant-ligatures:normal;font-variant-numeric:normal"/>
  <path d="m121.43 54.925q0.42021-0.03232 0.66264 0.17778 0.24244 0.21011 0.24244 0.63032 0 0.43638-0.21011 0.64648t-0.75962 0.27476l-0.48486 0.04849q-0.95357 0.09697-1.4061 0.64648-0.43637 0.54951-0.43637 1.3738v3.394q0 0.4687-0.29092 0.7273-0.29092 0.24243-0.7273 0.24243-0.43637 0-0.72729-0.24243-0.27476-0.25859-0.27476-0.7273v-6.2547q0-0.45254 0.27476-0.69497 0.29092-0.24243 0.71113-0.24243 0.42022 0 0.67881 0.24243 0.25859 0.22627 0.25859 0.66265v0.64648q0.30708-0.71113 0.90508-1.099 0.61416-0.38789 1.3576-0.43638z" style="font-variant-caps:normal;font-variant-east-asian:normal;font-variant-ligatures:normal;font-variant-numeric:normal"/>
  <path d="m132 54.925q0.42022-0.03232 0.66265 0.17778 0.24243 0.21011 0.24243 0.63032 0 0.43638-0.21011 0.64648t-0.75962 0.27476l-0.48486 0.04849q-0.95356 0.09697-1.4061 0.64648-0.43638 0.54951-0.43638 1.3738v3.394q0 0.4687-0.29092 0.7273-0.29091 0.24243-0.72729 0.24243t-0.7273-0.24243q-0.27475-0.25859-0.27475-0.7273v-6.2547q0-0.45254 0.27475-0.69497 0.29092-0.24243 0.71114-0.24243 0.42021 0 0.6788 0.24243 0.2586 0.22627 0.2586 0.66265v0.64648q0.30708-0.71113 0.90508-1.099 0.61416-0.38789 1.3576-0.43638z" style="font-variant-caps:normal;font-variant-east-asian:normal;font-variant-ligatures:normal;font-variant-numeric:normal"/>
  <path d="m139.87 60.825q0.27476 0 0.43638 0.21011 0.17778 0.21011 0.17778 0.56567 0 0.50102-0.598 0.84043-0.54951 0.30708-1.2445 0.50102-0.69497 0.17778-1.3253 0.17778-1.9071 0-3.0223-1.099-1.1152-1.099-1.1152-3.0062 0-1.2122 0.48487-2.1496 0.48486-0.9374 1.3576-1.4546 0.88892-0.51719 2.0041-0.51719 1.0667 0 1.8586 0.4687 0.79195 0.4687 1.2283 1.3253 0.43638 0.85659 0.43638 2.0203 0 0.69497-0.61416 0.69497h-4.7678q0.097 1.1152 0.63032 1.6485 0.53335 0.51719 1.5516 0.51719 0.51719 0 0.90508-0.1293 0.40405-0.1293 0.90508-0.35557 0.48486-0.25859 0.71113-0.25859zm-2.796-4.5092q-0.82427 0-1.3253 0.51719-0.48487 0.51719-0.58184 1.4869h3.6526q-0.0323-0.98589-0.48486-1.4869-0.45254-0.51719-1.2606-0.51719z" style="font-variant-caps:normal;font-variant-east-asian:normal;font-variant-ligatures:normal;font-variant-numeric:normal"/>
  <path d="m145.71 63.12q-1.1798 0-2.0849-0.50102-0.88892-0.50102-1.3738-1.4223-0.48486-0.92124-0.48486-2.1496 0-1.2283 0.50102-2.1657 0.51719-0.95356 1.4384-1.4708t2.1172-0.51719q0.63032 0 1.2606 0.17778 0.64648 0.17778 1.1313 0.48486 0.51719 0.3394 0.51719 0.85659 0 0.35557-0.17778 0.58184-0.16162 0.21011-0.43638 0.21011-0.17778 0-0.37173-0.08081-0.19394-0.08081-0.38789-0.19394-0.35556-0.21011-0.67881-0.32324-0.32324-0.1293-0.74345-0.1293-1.002 0-1.5516 0.66265-0.53335 0.64648-0.53335 1.8748 0 1.2122 0.53335 1.8748 0.54951 0.64648 1.5516 0.64648 0.40405 0 0.71113-0.11314 0.32324-0.1293 0.71113-0.3394 0.24243-0.14546 0.42022-0.21011 0.17778-0.08081 0.35556-0.08081 0.2586 0 0.43638 0.22627 0.17778 0.22627 0.17778 0.56567 0 0.27476-0.12929 0.48486-0.11314 0.19394-0.38789 0.35557-0.50103 0.32324-1.1637 0.51719-0.66264 0.17778-1.3576 0.17778z" style="font-variant-caps:normal;font-variant-east-asian:normal;font-variant-ligatures:normal;font-variant-numeric:normal"/>
  <path d="m153.7 63.12q-1.2122 0-2.1334-0.50102-0.90508-0.50102-1.4061-1.4384-0.50103-0.9374-0.50103-2.1819t0.50103-2.1657q0.50102-0.9374 1.4061-1.4384 0.92124-0.50102 2.1334-0.50102 1.2122 0 2.1172 0.50102 0.92124 0.50102 1.4061 1.4384 0.50103 0.92124 0.50103 2.1657t-0.50103 2.1819q-0.48486 0.9374-1.4061 1.4384-0.90508 0.50102-2.1172 0.50102zm-0.0162-1.5677q0.98589 0 1.5031-0.64648t0.51719-1.9071q0-1.2445-0.51719-1.891-0.51719-0.66265-1.4869-0.66265-0.96972 0-1.5031 0.66265-0.51719 0.64648-0.51719 1.891 0 1.2606 0.51719 1.9071t1.4869 0.64648z" style="font-variant-caps:normal;font-variant-east-asian:normal;font-variant-ligatures:normal;font-variant-numeric:normal"/>
  <path d="m168.77 54.893q1.293 0 1.9718 0.77578 0.69497 0.75962 0.69497 2.4728v3.9759q0 0.4687-0.29092 0.7273-0.27475 0.24243-0.72729 0.24243-0.43638 0-0.72729-0.24243-0.27476-0.25859-0.27476-0.7273v-3.9759q0-0.88892-0.32324-1.2606-0.30708-0.38789-0.95357-0.38789-0.79194 0-1.2606 0.54951-0.4687 0.53335-0.4687 1.4708v3.6041q0 0.4687-0.29092 0.7273-0.27475 0.24243-0.71113 0.24243t-0.7273-0.24243q-0.29091-0.25859-0.29091-0.7273v-3.9759q0-0.88892-0.32325-1.2606-0.30708-0.38789-0.95356-0.38789-0.79194 0-1.2606 0.54951-0.45254 0.53335-0.45254 1.4708v3.6041q0 0.4687-0.29092 0.7273-0.29092 0.24243-0.72729 0.24243-0.43638 0-0.7273-0.24243-0.27475-0.25859-0.27475-0.7273v-6.2547q0-0.45254 0.29091-0.69497 0.29092-0.24243 0.7273-0.24243 0.42021 0 0.67881 0.24243 0.27475 0.22627 0.27475 0.66265v0.38789q0.37173-0.64648 0.98589-0.98589 0.63032-0.3394 1.4384-0.3394 1.7778 0 2.3758 1.4869 0.35556-0.67881 1.0505-1.0829 0.69497-0.40405 1.5677-0.40405z" style="font-variant-caps:normal;font-variant-east-asian:normal;font-variant-ligatures:normal;font-variant-numeric:normal"/>
  <path d="m182.88 54.893q1.293 0 1.9718 0.77578 0.69497 0.75962 0.69497 2.4728v3.9759q0 0.4687-0.29092 0.7273-0.27475 0.24243-0.72729 0.24243-0.43638 0-0.7273-0.24243-0.27475-0.25859-0.27475-0.7273v-3.9759q0-0.88892-0.32325-1.2606-0.30707-0.38789-0.95356-0.38789-0.79194 0-1.2606 0.54951-0.4687 0.53335-0.4687 1.4708v3.6041q0 0.4687-0.29092 0.7273-0.27476 0.24243-0.71113 0.24243-0.43638 0-0.7273-0.24243-0.29092-0.25859-0.29092-0.7273v-3.9759q0-0.88892-0.32324-1.2606-0.30708-0.38789-0.95356-0.38789-0.79194 0-1.2606 0.54951-0.45253 0.53335-0.45253 1.4708v3.6041q0 0.4687-0.29092 0.7273-0.29092 0.24243-0.7273 0.24243-0.43637 0-0.72729-0.24243-0.27476-0.25859-0.27476-0.7273v-6.2547q0-0.45254 0.29092-0.69497 0.29092-0.24243 0.7273-0.24243 0.42021 0 0.6788 0.24243 0.27476 0.22627 0.27476 0.66265v0.38789q0.37173-0.64648 0.98589-0.98589 0.63032-0.3394 1.4384-0.3394 1.7778 0 2.3758 1.4869 0.35557-0.67881 1.0505-1.0829 0.69497-0.40405 1.5677-0.40405z" style="font-variant-caps:normal;font-variant-east-asian:normal;font-variant-ligatures:normal;font-variant-numeric:normal"/>
  <path d="m193.85 60.825q0.27476 0 0.43638 0.21011 0.17778 0.21011 0.17778 0.56567 0 0.50102-0.59799 0.84043-0.54952 0.30708-1.2445 0.50102-0.69497 0.17778-1.3253 0.17778-1.9071 0-3.0223-1.099-1.1152-1.099-1.1152-3.0062 0-1.2122 0.48487-2.1496 0.48486-0.9374 1.3576-1.4546 0.88892-0.51719 2.0041-0.51719 1.0667 0 1.8586 0.4687 0.79194 0.4687 1.2283 1.3253 0.43638 0.85659 0.43638 2.0203 0 0.69497-0.61416 0.69497h-4.7678q0.097 1.1152 0.63032 1.6485 0.53335 0.51719 1.5516 0.51719 0.51718 0 0.90507-0.1293 0.40406-0.1293 0.90508-0.35557 0.48486-0.25859 0.71113-0.25859zm-2.796-4.5092q-0.82427 0-1.3253 0.51719-0.48487 0.51719-0.58184 1.4869h3.6526q-0.0323-0.98589-0.48487-1.4869-0.45254-0.51719-1.2606-0.51719z" style="font-variant-caps:normal;font-variant-east-asian:normal;font-variant-ligatures:normal;font-variant-numeric:normal"/>
  <path d="m200.77 54.893q1.4223 0 2.1172 0.8081t0.69497 2.4405v3.9759q0 0.45254-0.27475 0.71113-0.2586 0.25859-0.7273 0.25859t-0.74345-0.25859q-0.27476-0.25859-0.27476-0.71113v-3.8627q0-0.92124-0.35557-1.3415-0.3394-0.42021-1.0829-0.42021-0.87275 0-1.4061 0.54951-0.51719 0.54951-0.51719 1.4708v3.6041q0 0.45254-0.27475 0.71113-0.27476 0.25859-0.74346 0.25859t-0.74346-0.25859q-0.25859-0.25859-0.25859-0.71113v-6.2547q0-0.42022 0.27476-0.67881 0.27475-0.25859 0.74345-0.25859 0.42022 0 0.67881 0.25859 0.27476 0.24243 0.27476 0.64648v0.43638q0.40405-0.66265 1.0829-1.0182t1.5354-0.35557z" style="font-variant-caps:normal;font-variant-east-asian:normal;font-variant-ligatures:normal;font-variant-numeric:normal"/>
  <path d="m212.25 51.515q0.45254 0 0.74346 0.25859 0.29092 0.25859 0.29092 0.67881v9.6649q0 0.43638-0.27476 0.69497-0.27475 0.25859-0.72729 0.25859t-0.7273-0.25859q-0.27475-0.25859-0.27475-0.69497v-0.40405q-0.35557 0.66265-1.0344 1.0344-0.66264 0.37173-1.5192 0.37173-1.0182 0-1.8263-0.51719-0.79194-0.51719-1.2445-1.4546-0.43638-0.95356-0.43638-2.1819 0-1.2283 0.43638-2.1496 0.45254-0.92124 1.2445-1.4223t1.8263-0.50102q0.85659 0 1.5192 0.35557 0.66265 0.35557 1.0182 1.002v-3.8304q0-0.40405 0.25859-0.64648 0.27476-0.25859 0.72729-0.25859zm-2.99 10.037q0.96972 0 1.4869-0.66265 0.53335-0.66265 0.53335-1.891t-0.53335-1.8748q-0.51719-0.66265-1.4708-0.66265-0.96973 0-1.5031 0.64648t-0.53335 1.8586q0 1.2283 0.53335 1.9071 0.53335 0.67881 1.4869 0.67881z" style="font-variant-caps:normal;font-variant-east-asian:normal;font-variant-ligatures:normal;font-variant-numeric:normal"/>
  <path d="m218.8 54.893q1.6485 0 2.4405 0.82427 0.80811 0.8081 0.80811 2.4728v3.9436q0 0.43638-0.2586 0.69497-0.25859 0.24243-0.71113 0.24243-0.42021 0-0.69497-0.25859-0.25859-0.25859-0.25859-0.67881v-0.35557q-0.27476 0.63032-0.87276 0.98589-0.58183 0.35557-1.3576 0.35557-0.79194 0-1.4384-0.32324-0.64648-0.32324-1.0182-0.88892-0.37173-0.56567-0.37173-1.2606 0-0.87275 0.43638-1.3738 0.45254-0.50102 1.4546-0.7273 1.002-0.22627 2.7637-0.22627h0.40405v-0.37173q0-0.79194-0.33941-1.1475-0.3394-0.37173-1.099-0.37173-0.4687 0-0.95356 0.14546-0.48487 0.1293-1.1475 0.38789-0.42022 0.21011-0.61416 0.21011-0.29092 0-0.48486-0.21011-0.17779-0.21011-0.17779-0.54951 0-0.27476 0.1293-0.4687 0.14546-0.21011 0.4687-0.38789 0.56567-0.30708 1.3414-0.48486 0.79195-0.17778 1.5516-0.17778zm-0.50103 6.7719q0.80811 0 1.3091-0.53335 0.51719-0.54951 0.51719-1.4061v-0.3394h-0.29092q-1.0829 0-1.6809 0.09697t-0.85659 0.3394q-0.25859 0.24243-0.25859 0.66265 0 0.51719 0.35556 0.85659 0.37173 0.32324 0.90508 0.32324z" style="font-variant-caps:normal;font-variant-east-asian:normal;font-variant-ligatures:normal;font-variant-numeric:normal"/>
  <path d="m228.19 61.584q0.80811 0.04849 0.80811 0.72729 0 0.38789-0.32325 0.598-0.30708 0.19394-0.88891 0.16162l-0.43638-0.03232q-2.7152-0.19394-2.7152-2.9092v-3.5233h-0.80811q-0.43637 0-0.6788-0.19394-0.22627-0.19394-0.22627-0.56567 0-0.37173 0.22627-0.56567 0.24243-0.19394 0.6788-0.19394h0.80811v-1.4869q0-0.43638 0.27476-0.69497 0.27475-0.25859 0.74345-0.25859 0.45254 0 0.7273 0.25859 0.27475 0.25859 0.27475 0.69497v1.4869h1.3738q0.43638 0 0.66265 0.19394 0.24243 0.19394 0.24243 0.56567 0 0.37173-0.24243 0.56567-0.22627 0.19394-0.66265 0.19394h-1.3738v3.6688q0 1.196 1.099 1.2768z" style="font-variant-caps:normal;font-variant-east-asian:normal;font-variant-ligatures:normal;font-variant-numeric:normal"/>
  <path d="m231.06 63.087q-0.43637 0-0.72729-0.24243-0.27476-0.25859-0.27476-0.7273v-6.2386q0-0.4687 0.27476-0.71113 0.29092-0.24243 0.72729-0.24243 0.43638 0 0.7273 0.24243 0.29092 0.24243 0.29092 0.71113v6.2386q0 0.4687-0.29092 0.7273-0.29092 0.24243-0.7273 0.24243zm0-9.6003q-0.54951 0-0.87275-0.29092-0.32324-0.30708-0.32324-0.79194t0.32324-0.77578q0.32324-0.29092 0.87275-0.29092 0.53335 0 0.85659 0.29092 0.33941 0.29092 0.33941 0.77578t-0.32324 0.79194q-0.32325 0.29092-0.87276 0.29092z" style="font-variant-caps:normal;font-variant-east-asian:normal;font-variant-ligatures:normal;font-variant-numeric:normal"/>
  <path d="m237.76 63.12q-1.2122 0-2.1334-0.50102-0.90508-0.50102-1.4061-1.4384-0.50102-0.9374-0.50102-2.1819t0.50102-2.1657q0.50103-0.9374 1.4061-1.4384 0.92124-0.50102 2.1334-0.50102 1.2122 0 2.1172 0.50102 0.92124 0.50102 1.4061 1.4384 0.50103 0.92124 0.50103 2.1657t-0.50103 2.1819q-0.48486 0.9374-1.4061 1.4384-0.90508 0.50102-2.1172 0.50102zm-0.0162-1.5677q0.98589 0 1.5031-0.64648 0.51718-0.64648 0.51718-1.9071 0-1.2445-0.51718-1.891-0.51719-0.66265-1.4869-0.66265-0.96972 0-1.5031 0.66265-0.51719 0.64648-0.51719 1.891 0 1.2606 0.51719 1.9071t1.4869 0.64648z" style="font-variant-caps:normal;font-variant-east-asian:normal;font-variant-ligatures:normal;font-variant-numeric:normal"/>
  <path d="m248.03 54.893q1.4223 0 2.1172 0.8081t0.69497 2.4405v3.9759q0 0.45254-0.27476 0.71113-0.25859 0.25859-0.72729 0.25859t-0.74346-0.25859q-0.27476-0.25859-0.27476-0.71113v-3.8627q0-0.92124-0.35556-1.3415-0.33941-0.42021-1.0829-0.42021-0.87276 0-1.4061 0.54951-0.51718 0.54951-0.51718 1.4708v3.6041q0 0.45254-0.27476 0.71113-0.27475 0.25859-0.74346 0.25859-0.4687 0-0.74345-0.25859-0.2586-0.25859-0.2586-0.71113v-6.2547q0-0.42022 0.27476-0.67881 0.27476-0.25859 0.74346-0.25859 0.42021 0 0.6788 0.25859 0.27476 0.24243 0.27476 0.64648v0.43638q0.40405-0.66265 1.0829-1.0182t1.5354-0.35557z" style="font-variant-caps:normal;font-variant-east-asian:normal;font-variant-ligatures:normal;font-variant-numeric:normal"/>
  <path d="m255.77 63.12q-1.7617 0-2.8445-0.69497-0.51718-0.30708-0.51718-0.87275 0-0.32324 0.17778-0.51719 0.17778-0.21011 0.43638-0.21011 0.27475 0 0.75961 0.25859 0.51719 0.24243 0.93741 0.37173 0.43637 0.1293 1.099 0.1293 0.67881 0 1.0505-0.22627 0.3879-0.22627 0.3879-0.63032 0-0.27476-0.16163-0.43638-0.14545-0.16162-0.54951-0.29092-0.38789-0.14546-1.196-0.32324-1.4384-0.29092-2.0688-0.82427-0.61416-0.53335-0.61416-1.4708 0-0.71113 0.42021-1.2768 0.42022-0.58184 1.1475-0.88892 0.74346-0.32324 1.6809-0.32324 0.67881 0 1.3091 0.17778 0.63032 0.16162 1.1314 0.48486 0.51719 0.32324 0.51719 0.85659 0 0.32324-0.17779 0.54951-0.17778 0.21011-0.43637 0.21011-0.17779 0-0.35557-0.06465-0.16162-0.08081-0.42022-0.22627-0.4687-0.24243-0.8081-0.35557-0.3394-0.1293-0.84043-0.1293-0.598 0-0.95356 0.24243-0.33941 0.24243-0.33941 0.66265 0 0.40405 0.35557 0.61416 0.35556 0.21011 1.3738 0.42022 1.0829 0.22627 1.697 0.51719t0.87275 0.7273q0.27476 0.43638 0.27476 1.1152 0 1.099-0.92124 1.7617-0.90508 0.66265-2.4243 0.66265z" style="font-variant-caps:normal;font-variant-east-asian:normal;font-variant-ligatures:normal;font-variant-numeric:normal"/>
 </g>
 <g fill="#8095b4" stroke-width=".3947" style="font-variant-caps:normal;font-variant-east-asian:normal;font-variant-ligatures:normal;font-variant-numeric:normal" aria-label="Scores">
  <path d="m59.69 159.27q-1.2158 0-2.3053-0.3158-1.0737-0.33159-1.7527-0.88424-0.36317-0.26843-0.36317-0.75792 0-0.33159 0.18948-0.56844 0.20527-0.25264 0.4737-0.25264 0.28422 0 0.64739 0.22106 0.67897 0.48949 1.4211 0.71055t1.6422 0.22106q1.1527 0 1.7685-0.39475 0.61581-0.41054 0.61581-1.1842 0-0.60002-0.58423-0.91582-0.56844-0.33159-1.9106-0.6316-1.3895-0.30001-2.258-0.69476t-1.3106-1.0106-0.44212-1.5632q0-0.97898 0.55265-1.7527t1.5316-1.2q0.99477-0.44212 2.2264-0.44212 2.258 0 3.6791 1.2 0.20527 0.17369 0.28422 0.34738 0.09474 0.1579 0.09474 0.41054 0 0.33159-0.20527 0.58423-0.18948 0.23685-0.45791 0.23685-0.1579 0-0.30001-0.0474-0.12632-0.0474-0.34738-0.17369-0.64739-0.4737-1.2632-0.69476-0.60002-0.23685-1.4843-0.23685-1.0737 0-1.7053 0.44212-0.61581 0.42633-0.61581 1.2 0 0.64739 0.55265 0.99477t1.879 0.64739q1.4053 0.3158 2.2738 0.71055 0.88424 0.37896 1.3422 0.97898 0.4737 0.60002 0.4737 1.5 0 0.97898-0.55265 1.7369-0.53686 0.74213-1.5316 1.1685-0.97898 0.41054-2.258 0.41054z" style="font-variant-caps:normal;font-variant-east-asian:normal;font-variant-ligatures:normal;font-variant-numeric:normal"/>
  <path d="m69.175 159.26q-1.1527 0-2.0369-0.48949-0.86845-0.48949-1.3422-1.3895t-0.4737-2.1001 0.48949-2.1159q0.50528-0.93161 1.4053-1.4369t2.0685-0.50528q0.61581 0 1.2316 0.17369 0.6316 0.17369 1.1053 0.4737 0.50528 0.33159 0.50528 0.83687 0 0.34738-0.17369 0.56844-0.1579 0.20527-0.42633 0.20527-0.17369 0-0.36317-0.0789t-0.37896-0.18948q-0.34738-0.20527-0.66318-0.3158-0.3158-0.12632-0.72634-0.12632-0.97898 0-1.5158 0.64739-0.52107 0.6316-0.52107 1.8316 0 1.1842 0.52107 1.8316 0.53686 0.6316 1.5158 0.6316 0.39475 0 0.69476-0.11053 0.3158-0.12632 0.69476-0.33159 0.23685-0.14211 0.41054-0.20527 0.17369-0.079 0.34738-0.079 0.25264 0 0.42633 0.22106t0.17369 0.55265q0 0.26843-0.12632 0.4737-0.11053 0.18948-0.37896 0.34738-0.48949 0.3158-1.1369 0.50528-0.64739 0.17369-1.3264 0.17369z" style="font-variant-caps:normal;font-variant-east-asian:normal;font-variant-ligatures:normal;font-variant-numeric:normal"/>
  <path d="m76.98 159.26q-1.1842 0-2.0843-0.48949-0.88424-0.48949-1.3737-1.4053t-0.48949-2.1316 0.48949-2.1159q0.48949-0.91582 1.3737-1.4053 0.90003-0.48949 2.0843-0.48949t2.0685 0.48949q0.90003 0.48949 1.3737 1.4053 0.48949 0.90003 0.48949 2.1159t-0.48949 2.1316q-0.4737 0.91582-1.3737 1.4053-0.88424 0.48949-2.0685 0.48949zm-0.01579-1.5316q0.96319 0 1.4685-0.6316t0.50528-1.8632q0-1.2158-0.50528-1.8474-0.50528-0.64739-1.4527-0.64739t-1.4685 0.64739q-0.50528 0.6316-0.50528 1.8474 0 1.2316 0.50528 1.8632t1.4527 0.6316z" style="font-variant-caps:normal;font-variant-east-asian:normal;font-variant-ligatures:normal;font-variant-numeric:normal"/>
  <path d="m86.836 151.25q0.41054-0.0316 0.64739 0.17369 0.23685 0.20527 0.23685 0.61581 0 0.42633-0.20527 0.6316t-0.74213 0.26843l-0.4737 0.0474q-0.93161 0.0947-1.3737 0.6316-0.42633 0.53686-0.42633 1.3422v3.3159q0 0.45791-0.28422 0.71055-0.28422 0.23685-0.71055 0.23685t-0.71055-0.23685q-0.26843-0.25264-0.26843-0.71055v-6.1107q0-0.44212 0.26843-0.67897 0.28422-0.23685 0.69476-0.23685t0.66318 0.23685q0.25264 0.22106 0.25264 0.64739v0.6316q0.30001-0.69476 0.88424-1.0737 0.60002-0.37896 1.3264-0.42633z" style="font-variant-caps:normal;font-variant-east-asian:normal;font-variant-ligatures:normal;font-variant-numeric:normal"/>
  <path d="m94.526 157.01q0.26843 0 0.42633 0.20527 0.17369 0.20527 0.17369 0.55265 0 0.48949-0.58423 0.82108-0.53686 0.30001-1.2158 0.48949-0.67897 0.17369-1.2948 0.17369-1.8632 0-2.9527-1.0737t-1.0895-2.9369q0-1.1842 0.4737-2.1001t1.3264-1.4211q0.86845-0.50528 1.958-0.50528 1.0421 0 1.8158 0.45791t1.2 1.2948 0.42633 1.9738q0 0.67897-0.60002 0.67897h-4.658q0.09474 1.0895 0.61581 1.6106 0.52107 0.50528 1.5158 0.50528 0.50528 0 0.88424-0.12632 0.39475-0.12632 0.88424-0.34738 0.4737-0.25264 0.69476-0.25264zm-2.7317-4.4054q-0.80529 0-1.2948 0.50528-0.4737 0.50528-0.56844 1.4527h3.5685q-0.03158-0.96319-0.4737-1.4527-0.44212-0.50528-1.2316-0.50528z" style="font-variant-caps:normal;font-variant-east-asian:normal;font-variant-ligatures:normal;font-variant-numeric:normal"/>
  <path d="m99.599 159.26q-1.7211 0-2.779-0.67897-0.50528-0.30001-0.50528-0.85266 0-0.3158 0.17369-0.50528 0.17369-0.20527 0.42633-0.20527 0.26843 0 0.74213 0.25264 0.50528 0.23685 0.91582 0.36317 0.42633 0.12632 1.0737 0.12632 0.66318 0 1.0263-0.22106 0.37896-0.22106 0.37896-0.61581 0-0.26843-0.1579-0.42633-0.14211-0.1579-0.53686-0.28422-0.37896-0.14211-1.1685-0.3158-1.4053-0.28422-2.0211-0.80529-0.60002-0.52107-0.60002-1.4369 0-0.69476 0.41054-1.2474 0.41054-0.56844 1.1211-0.86845 0.72634-0.3158 1.6422-0.3158 0.66318 0 1.279 0.17369 0.61581 0.1579 1.1053 0.4737 0.50528 0.3158 0.50528 0.83687 0 0.3158-0.17369 0.53686-0.17369 0.20527-0.42633 0.20527-0.17369 0-0.34738-0.0632-0.1579-0.079-0.41054-0.22106-0.45791-0.23685-0.7895-0.34738-0.33159-0.12632-0.82108-0.12632-0.58423 0-0.93161 0.23685-0.33159 0.23685-0.33159 0.64739 0 0.39475 0.34738 0.60002t1.3421 0.41054q1.0579 0.22106 1.658 0.50528t0.85266 0.71055q0.26843 0.42633 0.26843 1.0895 0 1.0737-0.90003 1.7211-0.88424 0.64739-2.3685 0.64739z" style="font-variant-caps:normal;font-variant-east-asian:normal;font-variant-ligatures:normal;font-variant-numeric:normal"/>
 </g>
 <g fill="#8095b4" stroke-width=".39696" style="font-variant-caps:normal;font-variant-east-asian:normal;font-variant-ligatures:normal;font-variant-numeric:normal" aria-label="Speaking">
  <path d="m94.6 191q-1.1911 0-2.2868-0.34937-1.0799-0.36526-1.731-0.96873-0.23821-0.22233-0.23821-0.55582 0-0.22233 0.12704-0.38114 0.12705-0.17468 0.30173-0.17468 0.20645 0 0.44466 0.17468 1.4769 1.1434 3.3667 1.1434 1.3657 0 2.0963-0.52406t0.73051-1.4928q0-0.55582-0.34938-0.88931-0.34938-0.34938-0.92108-0.55583t-1.5404-0.42878q-1.3022-0.30173-2.1439-0.63523-0.8258-0.33349-1.3499-0.95284-0.50818-0.61935-0.50818-1.6198 0-0.95284 0.50818-1.6834 0.52406-0.7464 1.4451-1.1434 0.93696-0.4129 2.128-0.4129 1.1116 0 2.0645 0.34937 0.96872 0.3335 1.6198 0.96873 0.25409 0.25409 0.25409 0.55582 0 0.22233-0.12704 0.39702-0.12705 0.1588-0.30173 0.1588-0.17469 0-0.46054-0.17468-0.77815-0.63523-1.4451-0.88932-0.66699-0.25409-1.604-0.25409-1.3181 0-2.0486 0.55582-0.73051 0.53994-0.73051 1.5246 0 0.84168 0.63523 1.2704 0.65111 0.4129 1.9851 0.73052 1.4451 0.34937 2.2709 0.65111 0.8258 0.28585 1.3657 0.87343 0.55582 0.58759 0.55582 1.5722 0 0.93696-0.52406 1.6516-0.50818 0.71463-1.4451 1.1116-0.93696 0.39702-2.1439 0.39702z" style="font-variant-caps:normal;font-variant-east-asian:normal;font-variant-ligatures:normal;font-variant-numeric:normal"/>
  <path d="m104.53 182.94q1.0164 0 1.7945 0.50818 0.77816 0.50818 1.2069 1.4293 0.42878 0.9052 0.42878 2.1121 0 1.2069-0.42878 2.1121-0.42877 0.88932-1.2069 1.3816-0.76227 0.4923-1.7945 0.4923-0.9052 0-1.5881-0.39702-0.66699-0.39701-1.0164-1.1275v3.732q0 0.28585-0.17469 0.44466-0.15881 0.17469-0.46054 0.17469t-0.47642-0.17469-0.17469-0.44466v-9.5761q0-0.28586 0.17469-0.46054 0.17469-0.17469 0.47642-0.17469t0.46054 0.17469q0.17469 0.17468 0.17469 0.46054v0.85755q0.34937-0.73051 1.0164-1.1275 0.68287-0.39701 1.5881-0.39701zm-0.25409 6.9716q1.1275 0 1.7469-0.76227t0.61935-2.1598q0-1.3975-0.61935-2.1757-0.61935-0.79404-1.7469-0.79404t-1.7469 0.76228q-0.60346 0.76227-0.60346 2.1756 0 1.4134 0.60346 2.1915 0.61935 0.76227 1.7469 0.76227z" style="font-variant-caps:normal;font-variant-east-asian:normal;font-variant-ligatures:normal;font-variant-numeric:normal"/>
  <path d="m115.87 189.07q0.17469 0 0.30173 0.14292 0.12705 0.14293 0.12705 0.36526 0 0.39702-0.55583 0.73051-0.5717 0.3335-1.2069 0.50818-0.63523 0.15881-1.2387 0.15881-1.7945 0-2.8426-1.064-1.0322-1.064-1.0322-2.9379 0-1.1911 0.46054-2.0963 0.46055-0.92108 1.2863-1.4293 0.84168-0.50818 1.9057-0.50818 1.5087 0 2.398 0.9846t0.88932 2.668q0 0.31761-0.12705 0.46054-0.12704 0.14292-0.41289 0.14292h-5.1136q0.14293 2.7315 2.5886 2.7315 0.61934 0 1.064-0.15881 0.44466-0.17469 0.95284-0.46054 0.4129-0.23821 0.55583-0.23821zm-2.7791-5.1295q-1.0164 0-1.6357 0.63523-0.60346 0.63523-0.71463 1.7945h4.4942q-0.0318-1.1752-0.58759-1.7945-0.55582-0.63523-1.5563-0.63523z" style="font-variant-caps:normal;font-variant-east-asian:normal;font-variant-ligatures:normal;font-variant-numeric:normal"/>
  <path d="m121.42 182.94q2.9062 0 2.9062 3.0491v4.3196q0 0.28585-0.17469 0.46054-0.1588 0.17469-0.44466 0.17469-0.28585 0-0.46054-0.17469-0.17468-0.17469-0.17468-0.46054v-0.76227q-0.30174 0.68287-0.92109 1.064-0.61934 0.36525-1.4293 0.36525-0.74639 0-1.3816-0.30173-0.61935-0.30174-0.9846-0.84168-0.36526-0.53994-0.36526-1.191 0-0.87344 0.44466-1.3499 0.44466-0.4923 1.461-0.69875 1.0164-0.22233 2.8268-0.22233h0.34938v-0.52406q0-0.95285-0.39702-1.3975-0.38114-0.44466-1.2546-0.44466-1.0799 0-2.1915 0.58759-0.42878 0.26997-0.60347 0.26997-0.19057 0-0.31761-0.14292-0.12705-0.14293-0.12705-0.36526t0.12705-0.38114q0.14292-0.17468 0.44465-0.34937 0.55583-0.31762 1.2546-0.4923 0.71463-0.19057 1.4134-0.19057zm-0.52406 7.0193q0.95284 0 1.5563-0.63523 0.61935-0.65111 0.61935-1.6675v-0.46055h-0.28586q-1.3975 0-2.128 0.12705-0.73051 0.11117-1.0481 0.39702-0.30173 0.26997-0.30173 0.80991 0 0.61935 0.44466 1.0322 0.46054 0.39702 1.1434 0.39702z" style="font-variant-caps:normal;font-variant-east-asian:normal;font-variant-ligatures:normal;font-variant-numeric:normal"/>
  <path d="m132.84 189.85q0.25409 0.23821 0.25409 0.50818 0 0.23821-0.17469 0.4129-0.1588 0.17469-0.39701 0.17469-0.20645 0-0.42878-0.19057l-4.1449-3.5732v3.1285q0 0.30174-0.19056 0.47642-0.17469 0.15881-0.44466 0.15881-0.28586 0-0.47642-0.15881-0.17469-0.17468-0.17469-0.47642v-10.084q0-0.30174 0.17469-0.46054 0.19056-0.17469 0.47642-0.17469 0.26997 0 0.44466 0.17469 0.19056 0.1588 0.19056 0.46054v6.4476l3.7955-3.4779q0.19057-0.19057 0.42878-0.19057t0.4129 0.17469 0.17469 0.4129q0 0.26997-0.22233 0.47642l-3.1285 2.795z" style="font-variant-caps:normal;font-variant-east-asian:normal;font-variant-ligatures:normal;font-variant-numeric:normal"/>
  <path d="m135.25 190.95q-0.28586 0-0.47642-0.15881-0.17469-0.17468-0.17469-0.47642v-6.7016q0-0.30174 0.17469-0.46054 0.19056-0.17469 0.47642-0.17469 0.28585 0 0.46054 0.17469 0.17468 0.1588 0.17468 0.46054v6.7016q0 0.31762-0.17468 0.47642-0.17469 0.15881-0.46054 0.15881zm0-9.6396q-0.38114 0-0.61935-0.22233t-0.23821-0.58759q0-0.34938 0.23821-0.57171t0.61935-0.22233q0.38113 0 0.61934 0.22233t0.23821 0.57171q0 0.36526-0.23821 0.58759t-0.61934 0.22233z" style="font-variant-caps:normal;font-variant-east-asian:normal;font-variant-ligatures:normal;font-variant-numeric:normal"/>
  <path d="m142.18 182.94q2.7791 0 2.7791 3.065v4.3037q0 0.30174-0.17468 0.47642-0.15881 0.15881-0.46055 0.15881-0.30173 0-0.47642-0.15881-0.17468-0.17468-0.17468-0.47642v-4.2243q0-1.0799-0.42878-1.5722-0.4129-0.49231-1.334-0.49231-1.064 0-1.6992 0.65111-0.63522 0.65111-0.63522 1.7628v3.8749q0 0.30174-0.17469 0.47642-0.15881 0.15881-0.46054 0.15881-0.30174 0-0.47642-0.15881-0.17469-0.17468-0.17469-0.47642v-6.7016q0-0.28586 0.17469-0.46054 0.17468-0.17469 0.47642-0.17469 0.28585 0 0.44466 0.17469 0.17468 0.17468 0.17468 0.44466v0.80991q0.38114-0.71463 1.064-1.0799 0.68287-0.38113 1.5563-0.38113z" style="font-variant-caps:normal;font-variant-east-asian:normal;font-variant-ligatures:normal;font-variant-numeric:normal"/>
  <path d="m153.59 182.98q0.30174 0 0.47642 0.17469 0.17469 0.17468 0.17469 0.46054v6.7334q0 1.731-0.88932 2.6044-0.88932 0.88932-2.6362 0.88932-1.6992 0-2.8268-0.66699-0.5717-0.31762-0.5717-0.73051 0-0.22233 0.11116-0.36526 0.12705-0.14293 0.31762-0.14293 0.1588 0 0.5717 0.22233 0.55583 0.28586 1.0958 0.46054 0.53994 0.17469 1.2863 0.17469 1.1275 0 1.6992-0.60347 0.57171-0.58758 0.57171-1.731v-1.3657q-0.3335 0.74639-1.0322 1.1434-0.68287 0.39702-1.6198 0.39702-1.0164 0-1.8104-0.47642-0.77816-0.47643-1.2228-1.3499-0.42877-0.87344-0.42877-2.0168t0.42877-2.0168q0.44466-0.87344 1.2228-1.3499 0.79403-0.47642 1.8104-0.47642 0.92108 0 1.604 0.39701 0.68287 0.39702 1.0322 1.1275v-0.85755q0-0.28586 0.15881-0.46054 0.17469-0.17469 0.47642-0.17469zm-3.0173 6.5905q1.1116 0 1.7469-0.73051 0.63522-0.7464 0.63522-2.0486 0-1.2863-0.63522-2.0168-0.61935-0.7464-1.7469-0.7464t-1.7786 0.7464q-0.63523 0.73051-0.63523 2.0168 0 1.3022 0.63523 2.0486 0.65111 0.73051 1.7786 0.73051z" style="font-variant-caps:normal;font-variant-east-asian:normal;font-variant-ligatures:normal;font-variant-numeric:normal"/>
 </g>
 <g fill="#8095b4" stroke-width=".38202" style="font-variant-caps:normal;font-variant-east-asian:normal;font-variant-ligatures:normal;font-variant-numeric:normal" aria-label="Grammar">
  <path d="m98.75 218.26q0.22924 0 0.36679 0.13754 0.15283 0.13755 0.15283 0.38207v3.8054q0 0.36678-0.12226 0.55018-0.10698 0.18339-0.41264 0.29037-0.61131 0.25981-1.4824 0.41264-0.87112 0.15282-1.7422 0.15282-1.6047 0-2.7662-0.65716-1.1615-0.65716-1.7881-1.8951-0.61131-1.2379-0.61131-2.9649 0-1.6964 0.61131-2.9343 0.61131-1.2379 1.7575-1.8951 1.1462-0.67244 2.6898-0.67244 1.0698 0 1.9868 0.33622 0.91697 0.32094 1.5436 0.93225 0.25981 0.25981 0.25981 0.5349 0 0.21396-0.12226 0.38207-0.12226 0.15282-0.30566 0.15282-0.18339 0-0.42792-0.18339-0.7947-0.61131-1.4366-0.84055-0.64188-0.24453-1.4824-0.24453-1.8187 0-2.7968 1.1462-0.96282 1.1462-0.96282 3.2858 0 2.1854 0.9781 3.3316 0.99338 1.1309 2.9037 1.1309 1.4213 0 2.5828-0.42792v-3.2705h-2.2313q-0.25981 0-0.41264-0.13754-0.15283-0.13755-0.15283-0.35151 0-0.22924 0.15283-0.3515 0.15283-0.13754 0.41264-0.13754z" style="font-variant-caps:normal;font-variant-east-asian:normal;font-variant-ligatures:normal;font-variant-numeric:normal"/>
  <path d="m105.32 216.28q0.64188-0.0459 0.64188 0.51962 0 0.24452-0.13755 0.39735-0.13754 0.13754-0.47376 0.16811l-0.45849 0.0459q-1.0239 0.0917-1.5283 0.73357-0.48905 0.6266-0.48905 1.4824v3.7137q0 0.30566-0.16811 0.45849t-0.4432 0.15283-0.45848-0.15283q-0.16811-0.16811-0.16811-0.45849v-6.4493q0-0.29037 0.18339-0.4432 0.18339-0.16811 0.4432-0.16811 0.24453 0 0.41264 0.16811 0.16811 0.15283 0.16811 0.42792v0.85584q0.32094-0.67245 0.90168-1.024 0.59603-0.3515 1.3602-0.41264z" style="font-variant-caps:normal;font-variant-east-asian:normal;font-variant-ligatures:normal;font-variant-numeric:normal"/>
  <path d="m110.02 216.25q2.7968 0 2.7968 2.9343v4.1569q0 0.27509-0.16811 0.44321-0.15283 0.16811-0.42792 0.16811t-0.4432-0.16811q-0.16811-0.16812-0.16811-0.44321v-0.73357q-0.29038 0.65716-0.88641 1.024-0.59603 0.3515-1.3754 0.3515-0.71829 0-1.3296-0.29037-0.59603-0.29037-0.94754-0.80999-0.3515-0.51961-0.3515-1.1462 0-0.84055 0.42792-1.299 0.42792-0.47376 1.406-0.67244 0.97809-0.21396 2.7203-0.21396h0.33623v-0.50433q0-0.91697-0.38207-1.3449-0.36679-0.42792-1.2074-0.42792-1.0392 0-2.109 0.56547-0.41264 0.2598-0.58075 0.2598-0.18339 0-0.30565-0.13754-0.12227-0.13755-0.12227-0.35151 0-0.21395 0.12227-0.36678 0.13754-0.16811 0.42791-0.33622 0.5349-0.30566 1.2073-0.47377 0.68773-0.18339 1.3602-0.18339zm-0.50433 6.755q0.91697 0 1.4977-0.61131 0.59603-0.62659 0.59603-1.6047v-0.4432h-0.2751q-1.3449 0-2.0479 0.12226-0.70301 0.10698-1.0087 0.38207-0.29037 0.25981-0.29037 0.77942 0 0.59603 0.42792 0.99338 0.4432 0.38207 1.1004 0.38207z" style="font-variant-caps:normal;font-variant-east-asian:normal;font-variant-ligatures:normal;font-variant-numeric:normal"/>
  <path d="m123.35 216.25q2.4758 0 2.4758 2.9496v4.1416q0 0.29038-0.16811 0.45849-0.16812 0.15283-0.44321 0.15283t-0.45848-0.15283q-0.16811-0.16811-0.16811-0.45849v-4.1111q0-1.024-0.36679-1.4824t-1.1462-0.45848q-0.93225 0-1.4672 0.62659-0.53489 0.6266-0.53489 1.6964v3.729q0 0.29038-0.1834 0.45849-0.16811 0.15283-0.4432 0.15283t-0.4432-0.15283q-0.16811-0.16811-0.16811-0.45849v-4.1111q0-1.024-0.36679-1.4824t-1.1615-0.45848q-0.91697 0-1.4672 0.62659-0.5349 0.6266-0.5349 1.6964v3.729q0 0.29038-0.16811 0.45849-0.16811 0.15283-0.4432 0.15283t-0.45848-0.15283q-0.16812-0.16811-0.16812-0.45849v-6.4493q0-0.27509 0.16812-0.4432 0.18339-0.16811 0.45848-0.16811 0.25981 0 0.42792 0.16811 0.16811 0.15283 0.16811 0.42792v0.73357q0.33622-0.65716 0.93225-1.0087t1.3754-0.3515q1.7422 0 2.2771 1.4671 0.32094-0.67244 0.9781-1.0698t1.4977-0.39735z" style="font-variant-caps:normal;font-variant-east-asian:normal;font-variant-ligatures:normal;font-variant-numeric:normal"/>
  <path d="m136.36 216.25q2.4758 0 2.4758 2.9496v4.1416q0 0.29038-0.16812 0.45849-0.16811 0.15283-0.4432 0.15283t-0.45848-0.15283q-0.16811-0.16811-0.16811-0.45849v-4.1111q0-1.024-0.36679-1.4824t-1.1462-0.45848q-0.93225 0-1.4672 0.62659-0.5349 0.6266-0.5349 1.6964v3.729q0 0.29038-0.18339 0.45849-0.16811 0.15283-0.4432 0.15283t-0.4432-0.15283q-0.16811-0.16811-0.16811-0.45849v-4.1111q0-1.024-0.36679-1.4824t-1.1615-0.45848q-0.91697 0-1.4672 0.62659-0.5349 0.6266-0.5349 1.6964v3.729q0 0.29038-0.16811 0.45849-0.16811 0.15283-0.4432 0.15283t-0.45849-0.15283q-0.16811-0.16811-0.16811-0.45849v-6.4493q0-0.27509 0.16811-0.4432 0.1834-0.16811 0.45849-0.16811 0.25981 0 0.42792 0.16811 0.16811 0.15283 0.16811 0.42792v0.73357q0.33622-0.65716 0.93225-1.0087t1.3754-0.3515q1.7422 0 2.2771 1.4671 0.32094-0.67244 0.9781-1.0698t1.4977-0.39735z" style="font-variant-caps:normal;font-variant-east-asian:normal;font-variant-ligatures:normal;font-variant-numeric:normal"/>
  <path d="m144.13 216.25q2.7968 0 2.7968 2.9343v4.1569q0 0.27509-0.16811 0.44321-0.15283 0.16811-0.42792 0.16811t-0.4432-0.16811q-0.16811-0.16812-0.16811-0.44321v-0.73357q-0.29037 0.65716-0.8864 1.024-0.59603 0.3515-1.3754 0.3515-0.71829 0-1.3296-0.29037-0.59603-0.29037-0.94753-0.80999-0.3515-0.51961-0.3515-1.1462 0-0.84055 0.42791-1.299 0.42792-0.47376 1.406-0.67244 0.9781-0.21396 2.7203-0.21396h0.33622v-0.50433q0-0.91697-0.38207-1.3449-0.36679-0.42792-1.2073-0.42792-1.0392 0-2.109 0.56547-0.41263 0.2598-0.58074 0.2598-0.1834 0-0.30566-0.13754-0.12226-0.13755-0.12226-0.35151 0-0.21395 0.12226-0.36678 0.13755-0.16811 0.42792-0.33622 0.5349-0.30566 1.2073-0.47377 0.68773-0.18339 1.3602-0.18339zm-0.50433 6.755q0.91697 0 1.4977-0.61131 0.59603-0.62659 0.59603-1.6047v-0.4432h-0.27509q-1.3449 0-2.0479 0.12226-0.70301 0.10698-1.0087 0.38207-0.29037 0.25981-0.29037 0.77942 0 0.59603 0.42792 0.99338 0.4432 0.38207 1.1004 0.38207z" style="font-variant-caps:normal;font-variant-east-asian:normal;font-variant-ligatures:normal;font-variant-numeric:normal"/>
  <path d="m152.87 216.28q0.64187-0.0459 0.64187 0.51962 0 0.24452-0.13754 0.39735-0.13755 0.13754-0.47377 0.16811l-0.45848 0.0459q-1.024 0.0917-1.5283 0.73357-0.48905 0.6266-0.48905 1.4824v3.7137q0 0.30566-0.16811 0.45849t-0.4432 0.15283-0.45849-0.15283q-0.16811-0.16811-0.16811-0.45849v-6.4493q0-0.29037 0.1834-0.4432 0.18339-0.16811 0.4432-0.16811 0.24452 0 0.41263 0.16811 0.16811 0.15283 0.16811 0.42792v0.85584q0.32094-0.67245 0.90169-1.024 0.59603-0.3515 1.3602-0.41264z" style="font-variant-caps:normal;font-variant-east-asian:normal;font-variant-ligatures:normal;font-variant-numeric:normal"/>
 </g>
 <g fill="#8095b4" stroke-width=".3522" style="font-variant-caps:normal;font-variant-east-asian:normal;font-variant-ligatures:normal;font-variant-numeric:normal" aria-label="Vocabulary">
  <path d="m99.737 243.45q0.07933-0.17453 0.22213-0.26973 0.15867-0.0952 0.3332-0.0952 0.25387 0 0.44427 0.17453 0.20627 0.15867 0.20627 0.39667 0 0.12693-0.0635 0.25387l-4.5537 10.123q-0.0952 0.20627-0.2856 0.31733-0.1904 0.11107-0.41253 0.11107t-0.41253-0.11107q-0.1904-0.11106-0.2856-0.31733l-4.5378-10.123q-0.0476-0.12694-0.0476-0.238 0-0.25387 0.20627-0.41254 0.20627-0.17453 0.46013-0.17453 0.3808 0 0.55534 0.36493l4.0936 9.2503z" style="font-variant-caps:normal;font-variant-east-asian:normal;font-variant-ligatures:normal;font-variant-numeric:normal"/>
  <path d="m104.62 254.49q-1.0948 0-1.9357-0.49186-0.82507-0.49187-1.2852-1.3963-0.44426-0.92027-0.44426-2.1261t0.44426-2.1103q0.46014-0.92027 1.2852-1.4121 0.84093-0.49187 1.9357-0.49187 1.0948 0 1.9357 0.49187 0.84094 0.49187 1.2852 1.4121 0.46014 0.9044 0.46014 2.1103t-0.46014 2.1261q-0.44426 0.9044-1.2852 1.3963-0.84093 0.49186-1.9357 0.49186zm0-1.0631q1.1424 0 1.7453-0.74574 0.6188-0.7616 0.6188-2.2055 0-1.4121-0.6188-2.1737-0.6188-0.77747-1.7453-0.77747-1.1265 0-1.7453 0.77747-0.61881 0.7616-0.61881 2.1737 0 1.428 0.60294 2.1896 0.6188 0.76161 1.7612 0.76161z" style="font-variant-caps:normal;font-variant-east-asian:normal;font-variant-ligatures:normal;font-variant-numeric:normal"/>
  <path d="m113.41 254.49q-1.0789 0-1.9199-0.49186-0.82507-0.49187-1.2852-1.3963-0.44427-0.9044-0.44427-2.0944 0-1.19 0.46014-2.1103 0.476-0.92027 1.3169-1.428 0.84093-0.50774 1.9357-0.50774 0.60294 0 1.19 0.17454 0.60293 0.15866 1.0472 0.476 0.2856 0.1904 0.39666 0.3808 0.12694 0.17453 0.12694 0.39667 0 0.22213-0.12694 0.36493-0.11106 0.1428-0.30146 0.1428-0.11107 0-0.238-0.0635-0.12694-0.0635-0.22214-0.12693-0.0793-0.0635-0.11106-0.0793-0.41254-0.26974-0.79334-0.4284-0.36493-0.15867-0.9044-0.15867-1.1583 0-1.8088 0.79333-0.63467 0.77747-0.63467 2.1737t0.63467 2.1579q0.65053 0.76161 1.8088 0.76161 0.53947 0 0.92027-0.15867 0.39667-0.15867 0.79333-0.4284 0.17454-0.11107 0.3332-0.1904 0.15867-0.0793 0.26974-0.0793 0.17453 0 0.2856 0.1428 0.12693 0.1428 0.12693 0.36494 0 0.20627-0.11107 0.3808-0.11106 0.15867-0.41253 0.36493-0.44427 0.30147-1.0789 0.49187-0.61881 0.17453-1.2535 0.17453z" style="font-variant-caps:normal;font-variant-east-asian:normal;font-variant-ligatures:normal;font-variant-numeric:normal"/>
  <path d="m120.97 246.47q2.9036 0 2.9036 3.0464v4.3157q0 0.2856-0.17453 0.46014-0.15867 0.17453-0.44427 0.17453t-0.46013-0.17453q-0.17454-0.17454-0.17454-0.46014v-0.7616q-0.30146 0.68227-0.92026 1.0631-0.61881 0.36493-1.428 0.36493-0.74573 0-1.3804-0.30146-0.6188-0.30147-0.98374-0.84094-0.36493-0.53947-0.36493-1.19 0-0.87267 0.44427-1.3487 0.44426-0.49187 1.4597-0.69813 1.0155-0.22214 2.8243-0.22214h0.34906v-0.5236q0-0.952-0.39666-1.3963-0.3808-0.44427-1.2535-0.44427-1.0789 0-2.1896 0.58707-0.4284 0.26974-0.60293 0.26974-0.1904 0-0.31734-0.14281-0.12693-0.1428-0.12693-0.36493t0.12693-0.3808q0.1428-0.17453 0.44427-0.34907 0.55534-0.31733 1.2535-0.49187 0.714-0.1904 1.4121-0.1904zm-0.5236 7.0131q0.952 0 1.5549-0.63467 0.6188-0.65054 0.6188-1.666v-0.46013h-0.2856q-1.3963 0-2.1261 0.12693-0.72987 0.11107-1.0472 0.39667-0.30146 0.26973-0.30146 0.8092 0 0.6188 0.44426 1.0313 0.46014 0.39667 1.1424 0.39667z" style="font-variant-caps:normal;font-variant-east-asian:normal;font-variant-ligatures:normal;font-variant-numeric:normal"/>
  <path d="m130.09 246.47q1.0155 0 1.7929 0.49187t1.2059 1.3963 0.4284 2.0944q0 1.2059-0.4284 2.1261-0.4284 0.90441-1.2059 1.4121t-1.7929 0.50773q-0.9044 0-1.5867-0.39666-0.6664-0.39667-1.0155-1.1265v0.8568q0 0.2856-0.17453 0.46014-0.15867 0.17453-0.46013 0.17453-0.30147 0-0.47601-0.17453-0.17453-0.17454-0.17453-0.46014v-10.091q0-0.26973 0.17453-0.44427 0.17454-0.17453 0.47601-0.17453 0.30146 0 0.46013 0.17453 0.17453 0.15867 0.17453 0.44427v4.2523q0.34907-0.72987 1.0155-1.1265 0.68227-0.39667 1.5867-0.39667zm-0.25386 6.9655q1.1265 0 1.7453-0.77747 0.6188-0.79334 0.6188-2.2055 0-1.3804-0.6188-2.142t-1.7453-0.7616q-1.1265 0-1.7453 0.7616-0.60294 0.7616-0.60294 2.1737t0.60294 2.1896q0.6188 0.76161 1.7453 0.76161z" style="font-variant-caps:normal;font-variant-east-asian:normal;font-variant-ligatures:normal;font-variant-numeric:normal"/>
  <path d="m141.31 246.5q0.30147 0 0.46014 0.17453 0.17453 0.17454 0.17453 0.46014v6.7116q0 0.26973-0.17453 0.44427-0.15867 0.17453-0.46014 0.17453-0.2856 0-0.46013-0.15867-0.15867-0.17453-0.15867-0.44426v-0.79334q-0.36493 0.69814-1.0313 1.0631-0.65054 0.36493-1.4756 0.36493-1.3804 0-2.0785-0.7616-0.69814-0.77747-0.69814-2.2848v-4.3157q0-0.2856 0.17453-0.46014 0.17454-0.17453 0.476-0.17453 0.30147 0 0.46014 0.17453 0.17453 0.17454 0.17453 0.46014v4.284q0 1.0313 0.41254 1.5232 0.41253 0.476 1.3011 0.476 1.0155 0 1.6343-0.65054 0.6188-0.6664 0.6188-1.7453v-3.8873q0-0.2856 0.17453-0.46014 0.17454-0.17453 0.476-0.17453z" style="font-variant-caps:normal;font-variant-east-asian:normal;font-variant-ligatures:normal;font-variant-numeric:normal"/>
  <path d="m144.99 254.46q-0.2856 0-0.476-0.15867-0.17453-0.17453-0.17453-0.476v-10.075q0-0.30147 0.17453-0.46014 0.1904-0.17453 0.476-0.17453 0.26973 0 0.44427 0.17453 0.1904 0.15867 0.1904 0.46014v10.075q0 0.30147-0.1904 0.476-0.17454 0.15867-0.44427 0.15867z" style="font-variant-caps:normal;font-variant-east-asian:normal;font-variant-ligatures:normal;font-variant-numeric:normal"/>
  <path d="m151.18 246.47q2.9036 0 2.9036 3.0464v4.3157q0 0.2856-0.17453 0.46014-0.15867 0.17453-0.44427 0.17453t-0.46013-0.17453q-0.17454-0.17454-0.17454-0.46014v-0.7616q-0.30147 0.68227-0.92027 1.0631-0.6188 0.36493-1.428 0.36493-0.74573 0-1.3804-0.30146-0.6188-0.30147-0.98374-0.84094-0.36493-0.53947-0.36493-1.19 0-0.87267 0.44427-1.3487 0.44426-0.49187 1.4597-0.69813 1.0155-0.22214 2.8243-0.22214h0.34907v-0.5236q0-0.952-0.39667-1.3963-0.3808-0.44427-1.2535-0.44427-1.0789 0-2.1896 0.58707-0.4284 0.26974-0.60293 0.26974-0.1904 0-0.31734-0.14281-0.12693-0.1428-0.12693-0.36493t0.12693-0.3808q0.1428-0.17453 0.44427-0.34907 0.55533-0.31733 1.2535-0.49187 0.714-0.1904 1.4121-0.1904zm-0.52361 7.0131q0.95201 0 1.5549-0.63467 0.6188-0.65054 0.6188-1.666v-0.46013h-0.2856q-1.3963 0-2.1261 0.12693-0.72986 0.11107-1.0472 0.39667-0.30147 0.26973-0.30147 0.8092 0 0.6188 0.44427 1.0313 0.46014 0.39667 1.1424 0.39667z" style="font-variant-caps:normal;font-variant-east-asian:normal;font-variant-ligatures:normal;font-variant-numeric:normal"/>
  <path d="m160.25 246.5q0.6664-0.0476 0.6664 0.53947 0 0.25386-0.1428 0.41253-0.1428 0.1428-0.49187 0.17453l-0.476 0.0476q-1.0631 0.0952-1.5867 0.76161-0.50773 0.65053-0.50773 1.5391v3.8556q0 0.31734-0.17454 0.476-0.17453 0.15867-0.46013 0.15867t-0.476-0.15867q-0.17453-0.17453-0.17453-0.476v-6.6957q0-0.30147 0.1904-0.46014 0.1904-0.17453 0.46013-0.17453 0.25387 0 0.4284 0.17453 0.17453 0.15867 0.17453 0.44427v0.88853q0.33321-0.69813 0.93614-1.0631 0.6188-0.36494 1.4121-0.42841z" style="font-variant-caps:normal;font-variant-east-asian:normal;font-variant-ligatures:normal;font-variant-numeric:normal"/>
  <path d="m168.07 246.89q0.17454-0.38081 0.55534-0.38081 0.238 0 0.4284 0.15867t0.1904 0.39667q0 0.1428-0.0635 0.25387l-4.4585 9.6152q-0.0793 0.17453-0.238 0.26973-0.1428 0.0952-0.30147 0.0952-0.238 0-0.4284-0.15867-0.17453-0.1428-0.17453-0.3808 0-0.12693 0.0635-0.25386l1.1107-2.3959-3.1416-6.7909q-0.0635-0.11107-0.0635-0.238 0-0.238 0.20627-0.41254 0.22213-0.17453 0.476-0.17453 0.15866 0 0.30146 0.0952 0.15867 0.0952 0.238 0.26973l2.6497 5.95z" style="font-variant-caps:normal;font-variant-east-asian:normal;font-variant-ligatures:normal;font-variant-numeric:normal"/>
 </g>
 <g fill="#8095b4" stroke-width=".3522" style="font-variant-caps:normal;font-variant-east-asian:normal;font-variant-ligatures:normal;font-variant-numeric:normal" aria-label="Writing">
  <path d="m105.43 275.2q0.0635-0.20627 0.22214-0.30147 0.15866-0.11106 0.34906-0.11106 0.25387 0 0.42841 0.15866 0.1904 0.1428 0.1904 0.39667 0 0.11107-0.0476 0.25387l-3.5859 10.107q-0.0793 0.22213-0.26973 0.34906-0.1904 0.11107-0.4284 0.11107-0.22214 0-0.41254-0.11107-0.1904-0.12693-0.26973-0.34906l-3.1099-8.7902-3.1416 8.7902q-0.07933 0.22213-0.26973 0.34906-0.1904 0.11107-0.41253 0.11107t-0.41253-0.11107q-0.1904-0.12693-0.26973-0.34906l-3.6017-10.107q-0.0476-0.12694-0.0476-0.238 0-0.25387 0.1904-0.41254 0.20627-0.15866 0.46014-0.15866 0.1904 0 0.34907 0.11106 0.17453 0.0952 0.238 0.30147l3.1257 9.0123 3.1733-8.9171q0.07933-0.238 0.25387-0.34907 0.17453-0.12693 0.3808-0.12693t0.3808 0.12693q0.17453 0.12694 0.25387 0.36494l3.1257 8.933z" style="font-variant-caps:normal;font-variant-east-asian:normal;font-variant-ligatures:normal;font-variant-numeric:normal"/>
  <path d="m111.35 278.18q0.6664-0.0476 0.6664 0.53947 0 0.25387-0.1428 0.41253-0.1428 0.1428-0.49186 0.17454l-0.47601 0.0476q-1.0631 0.0952-1.5867 0.7616-0.50773 0.65053-0.50773 1.5391v3.8556q0 0.31733-0.17453 0.476-0.17454 0.15866-0.46014 0.15866t-0.476-0.15866q-0.17453-0.17454-0.17453-0.476v-6.6958q0-0.30147 0.1904-0.46014 0.1904-0.17453 0.46013-0.17453 0.25387 0 0.4284 0.17453 0.17454 0.15867 0.17454 0.44427v0.88854q0.3332-0.69814 0.93613-1.0631 0.6188-0.36494 1.4121-0.4284z" style="font-variant-caps:normal;font-variant-east-asian:normal;font-variant-ligatures:normal;font-variant-numeric:normal"/>
  <path d="m113.79 286.15q-0.2856 0-0.476-0.15866-0.17454-0.17454-0.17454-0.476v-6.6958q0-0.30147 0.17454-0.46014 0.1904-0.17453 0.476-0.17453t0.46013 0.17453q0.17454 0.15867 0.17454 0.46014v6.6958q0 0.31733-0.17454 0.476-0.17453 0.15866-0.46013 0.15866zm0-9.6311q-0.3808 0-0.6188-0.22214-0.238-0.22213-0.238-0.58707 0-0.34906 0.238-0.5712 0.238-0.22213 0.6188-0.22213t0.6188 0.22213q0.238 0.22214 0.238 0.5712 0 0.36494-0.238 0.58707-0.238 0.22214-0.6188 0.22214z" style="font-variant-caps:normal;font-variant-east-asian:normal;font-variant-ligatures:normal;font-variant-numeric:normal"/>
  <path d="m120.39 285.13q0.55533 0.0476 0.55533 0.50774 0 0.26973-0.20626 0.41253-0.1904 0.12694-0.58707 0.0952l-0.4284-0.0317q-1.2693-0.0952-1.8723-0.7616-0.60294-0.6664-0.60294-2.0151v-3.9825h-1.0631q-0.26973 0-0.4284-0.12694-0.1428-0.1428-0.1428-0.36493 0-0.238 0.1428-0.3808 0.15867-0.1428 0.4284-0.1428h1.0631v-1.7929q0-0.30147 0.17454-0.46013 0.17453-0.17454 0.476-0.17454 0.2856 0 0.46013 0.17454 0.17454 0.15866 0.17454 0.46013v1.7929h1.7612q0.25387 0 0.39667 0.1428 0.15866 0.1428 0.15866 0.3808 0 0.22213-0.15866 0.36493-0.1428 0.12694-0.39667 0.12694h-1.7612v4.046q0 0.87267 0.34906 1.2693 0.36494 0.3808 1.0789 0.4284z" style="font-variant-caps:normal;font-variant-east-asian:normal;font-variant-ligatures:normal;font-variant-numeric:normal"/>
  <path d="m122.87 286.15q-0.2856 0-0.476-0.15866-0.17454-0.17454-0.17454-0.476v-6.6958q0-0.30147 0.17454-0.46014 0.1904-0.17453 0.476-0.17453t0.46013 0.17453q0.17454 0.15867 0.17454 0.46014v6.6958q0 0.31733-0.17454 0.476-0.17453 0.15866-0.46013 0.15866zm0-9.6311q-0.3808 0-0.6188-0.22214-0.238-0.22213-0.238-0.58707 0-0.34906 0.238-0.5712 0.238-0.22213 0.6188-0.22213t0.6188 0.22213q0.238 0.22214 0.238 0.5712 0 0.36494-0.238 0.58707-0.238 0.22214-0.6188 0.22214z" style="font-variant-caps:normal;font-variant-east-asian:normal;font-variant-ligatures:normal;font-variant-numeric:normal"/>
  <path d="m129.79 278.15q2.7767 0 2.7767 3.0623v4.2999q0 0.30146-0.17454 0.476-0.15867 0.15866-0.46013 0.15866-0.30147 0-0.476-0.15866-0.17454-0.17454-0.17454-0.476v-4.2206q0-1.0789-0.4284-1.5708-0.41253-0.49187-1.3328-0.49187-1.0631 0-1.6977 0.65054-0.63467 0.65053-0.63467 1.7612v3.8715q0 0.30146-0.17453 0.476-0.15867 0.15866-0.46013 0.15866-0.30147 0-0.47601-0.15866-0.17453-0.17454-0.17453-0.476v-6.6958q0-0.2856 0.17453-0.46014 0.17454-0.17453 0.47601-0.17453 0.2856 0 0.44426 0.17453 0.17454 0.17454 0.17454 0.44427v0.8092q0.3808-0.714 1.0631-1.0789 0.68226-0.3808 1.5549-0.3808z" style="font-variant-caps:normal;font-variant-east-asian:normal;font-variant-ligatures:normal;font-variant-numeric:normal"/>
  <path d="m141.19 278.18q0.30147 0 0.47601 0.17453 0.17453 0.17454 0.17453 0.46014v6.7275q0 1.7295-0.88854 2.6021-0.88853 0.88853-2.6339 0.88853-1.6977 0-2.8243-0.6664-0.5712-0.31733-0.5712-0.72987 0-0.22213 0.11106-0.36493 0.12694-0.1428 0.31734-0.1428 0.15867 0 0.5712 0.22213 0.55533 0.2856 1.0948 0.46014 0.53947 0.17453 1.2852 0.17453 1.1265 0 1.6977-0.60293 0.5712-0.58707 0.5712-1.7295v-1.3645q-0.3332 0.74573-1.0313 1.1424-0.68227 0.39667-1.6184 0.39667-1.0155 0-1.8088-0.476-0.77747-0.476-1.2217-1.3487-0.4284-0.87267-0.4284-2.0151t0.4284-2.0151q0.44427-0.87267 1.2217-1.3487 0.79334-0.476 1.8088-0.476 0.92027 0 1.6025 0.39666 0.68227 0.39667 1.0313 1.1265v-0.8568q0-0.2856 0.15866-0.46014 0.17454-0.17453 0.476-0.17453zm-3.0147 6.5847q1.1107 0 1.7453-0.72987 0.63467-0.74573 0.63467-2.0468 0-1.2852-0.63467-2.0151-0.6188-0.74574-1.7453-0.74574-1.1265 0-1.7771 0.74574-0.63467 0.72987-0.63467 2.0151 0 1.3011 0.63467 2.0468 0.65054 0.72987 1.7771 0.72987z" style="font-variant-caps:normal;font-variant-east-asian:normal;font-variant-ligatures:normal;font-variant-numeric:normal"/>
 </g>
 <g fill="#8095b4" stroke-width=".3522" style="font-variant-caps:normal;font-variant-east-asian:normal;font-variant-ligatures:normal;font-variant-numeric:normal" aria-label="Listening">
  <path d="m90.979 317.8q-0.26973 0-0.46013-0.15867-0.17453-0.17453-0.17453-0.44427v-9.996q0-0.30146 0.17453-0.476 0.17453-0.1904 0.476-0.1904t0.476 0.1904q0.17453 0.17454 0.17453 0.476v9.4883h5.1249q0.2856 0 0.44427 0.1428t0.15867 0.41253q0 0.26974-0.15867 0.41254t-0.44427 0.1428z" style="font-variant-caps:normal;font-variant-east-asian:normal;font-variant-ligatures:normal;font-variant-numeric:normal"/>
  <path d="m99.358 317.88q-0.2856 0-0.476-0.15866-0.17453-0.17454-0.17453-0.47601v-6.6957q0-0.30147 0.17453-0.46014 0.1904-0.17453 0.476-0.17453t0.46013 0.17453q0.17453 0.15867 0.17453 0.46014v6.6957q0 0.31734-0.17453 0.47601-0.17453 0.15866-0.46013 0.15866zm0-9.6311q-0.3808 0-0.6188-0.22214-0.238-0.22213-0.238-0.58707 0-0.34906 0.238-0.5712 0.238-0.22213 0.6188-0.22213t0.6188 0.22213q0.238 0.22214 0.238 0.5712 0 0.36494-0.238 0.58707-0.238 0.22214-0.6188 0.22214z" style="font-variant-caps:normal;font-variant-east-asian:normal;font-variant-ligatures:normal;font-variant-numeric:normal"/>
  <path d="m105 317.91q-0.72987 0-1.3963-0.17454-0.65053-0.17453-1.1583-0.49187-0.2856-0.1904-0.41253-0.34906-0.11107-0.17454-0.11107-0.41254 0-0.20626 0.11107-0.3332 0.12693-0.1428 0.31733-0.1428t0.55534 0.238q0.476 0.2856 0.93613 0.46014 0.476 0.15866 1.1741 0.15866 0.8568 0 1.3328-0.30146 0.476-0.30147 0.476-0.87267 0-0.34907-0.17453-0.55534-0.17454-0.22213-0.60294-0.3808-0.4284-0.17453-1.2535-0.34906-1.3963-0.30147-1.9992-0.80921-0.60293-0.50773-0.60293-1.3804 0-0.68227 0.3808-1.2059t1.0472-0.82507q0.68227-0.30146 1.5391-0.30146 0.6188 0 1.19 0.17453 0.58707 0.15867 1.0313 0.46013 0.53946 0.3808 0.53946 0.79334 0 0.20627-0.12693 0.34907t-0.30147 0.1428q-0.1904 0-0.5712-0.26974-0.44427-0.2856-0.84093-0.44426-0.39667-0.15867-0.98374-0.15867-0.74573 0-1.2059 0.3332-0.44427 0.3332-0.44427 0.88853 0 0.34907 0.15867 0.57121 0.17454 0.20626 0.55534 0.3808 0.39666 0.15866 1.1265 0.31733 1.0789 0.238 1.666 0.5236 0.60293 0.2856 0.8568 0.69814 0.25386 0.41253 0.25386 1.0472 0 0.9996-0.84093 1.6184-0.84094 0.60294-2.2213 0.60294z" style="font-variant-caps:normal;font-variant-east-asian:normal;font-variant-ligatures:normal;font-variant-numeric:normal"/>
  <path d="m113.5 316.86q0.55534 0.0476 0.55534 0.50774 0 0.26973-0.20627 0.41253-0.1904 0.12694-0.58707 0.0952l-0.4284-0.0317q-1.2693-0.0952-1.8723-0.7616-0.60293-0.6664-0.60293-2.0151v-3.9825h-1.0631q-0.26973 0-0.4284-0.12694-0.1428-0.1428-0.1428-0.36493 0-0.238 0.1428-0.3808 0.15867-0.1428 0.4284-0.1428h1.0631v-1.7929q0-0.30147 0.17453-0.46014 0.17454-0.17453 0.476-0.17453 0.2856 0 0.46014 0.17453 0.17453 0.15867 0.17453 0.46014v1.7929h1.7612q0.25387 0 0.39667 0.1428 0.15867 0.1428 0.15867 0.3808 0 0.22213-0.15867 0.36493-0.1428 0.12694-0.39667 0.12694h-1.7612v4.046q0 0.87267 0.34907 1.2693 0.36493 0.3808 1.0789 0.4284z" style="font-variant-caps:normal;font-variant-east-asian:normal;font-variant-ligatures:normal;font-variant-numeric:normal"/>
  <path d="m121.3 316.01q0.17454 0 0.30147 0.1428t0.12693 0.36494q0 0.39666-0.55533 0.72986-0.5712 0.33321-1.2059 0.50774-0.63467 0.15867-1.2376 0.15867-1.7929 0-2.8401-1.0631-1.0313-1.0631-1.0313-2.9353 0-1.19 0.46014-2.0944 0.46013-0.92027 1.2852-1.428 0.84093-0.50773 1.904-0.50773 1.5073 0 2.3959 0.98373 0.88854 0.98374 0.88854 2.6656 0 0.31733-0.12693 0.46013-0.12694 0.1428-0.41254 0.1428h-5.1091q0.1428 2.7291 2.5863 2.7291 0.6188 0 1.0631-0.15866 0.44426-0.17454 0.952-0.46014 0.41253-0.238 0.55533-0.238zm-2.7767-5.1249q-1.0155 0-1.6343 0.63467-0.60294 0.63466-0.714 1.7929h4.4903q-0.0317-1.1741-0.58706-1.7929-0.55534-0.63467-1.5549-0.63467z" style="font-variant-caps:normal;font-variant-east-asian:normal;font-variant-ligatures:normal;font-variant-numeric:normal"/>
  <path d="m127.57 309.88q2.7767 0 2.7767 3.0623v4.2999q0 0.30147-0.17453 0.47601-0.15867 0.15866-0.46013 0.15866-0.30147 0-0.476-0.15866-0.17454-0.17454-0.17454-0.47601v-4.2205q0-1.0789-0.4284-1.5708-0.41253-0.49187-1.3328-0.49187-1.0631 0-1.6977 0.65054-0.63467 0.65053-0.63467 1.7612v3.8715q0 0.30147-0.17453 0.47601-0.15867 0.15866-0.46013 0.15866-0.30147 0-0.47601-0.15866-0.17453-0.17454-0.17453-0.47601v-6.6957q0-0.2856 0.17453-0.46014 0.17454-0.17453 0.47601-0.17453 0.2856 0 0.44426 0.17453 0.17454 0.17454 0.17454 0.44427v0.8092q0.3808-0.714 1.0631-1.0789 0.68226-0.3808 1.5549-0.3808z" style="font-variant-caps:normal;font-variant-east-asian:normal;font-variant-ligatures:normal;font-variant-numeric:normal"/>
  <path d="m133.35 317.88q-0.28561 0-0.47601-0.15866-0.17453-0.17454-0.17453-0.47601v-6.6957q0-0.30147 0.17453-0.46014 0.1904-0.17453 0.47601-0.17453 0.2856 0 0.46013 0.17453 0.17453 0.15867 0.17453 0.46014v6.6957q0 0.31734-0.17453 0.47601-0.17453 0.15866-0.46013 0.15866zm0-9.6311q-0.38081 0-0.61881-0.22214-0.238-0.22213-0.238-0.58707 0-0.34906 0.238-0.5712 0.238-0.22213 0.61881-0.22213 0.3808 0 0.6188 0.22213 0.238 0.22214 0.238 0.5712 0 0.36494-0.238 0.58707-0.238 0.22214-0.6188 0.22214z" style="font-variant-caps:normal;font-variant-east-asian:normal;font-variant-ligatures:normal;font-variant-numeric:normal"/>
  <path d="m140.28 309.88q2.7767 0 2.7767 3.0623v4.2999q0 0.30147-0.17453 0.47601-0.15867 0.15866-0.46014 0.15866-0.30146 0-0.476-0.15866-0.17453-0.17454-0.17453-0.47601v-4.2205q0-1.0789-0.4284-1.5708-0.41254-0.49187-1.3328-0.49187-1.0631 0-1.6977 0.65054-0.63467 0.65053-0.63467 1.7612v3.8715q0 0.30147-0.17453 0.47601-0.15867 0.15866-0.46014 0.15866-0.30146 0-0.476-0.15866-0.17453-0.17454-0.17453-0.47601v-6.6957q0-0.2856 0.17453-0.46014 0.17454-0.17453 0.476-0.17453 0.2856 0 0.44427 0.17453 0.17453 0.17454 0.17453 0.44427v0.8092q0.3808-0.714 1.0631-1.0789 0.68227-0.3808 1.5549-0.3808z" style="font-variant-caps:normal;font-variant-east-asian:normal;font-variant-ligatures:normal;font-variant-numeric:normal"/>
  <path d="m151.68 309.91q0.30147 0 0.47601 0.17453 0.17453 0.17454 0.17453 0.46014v6.7275q0 1.7295-0.88854 2.6021-0.88853 0.88853-2.6339 0.88853-1.6977 0-2.8243-0.6664-0.5712-0.31733-0.5712-0.72987 0-0.22213 0.11106-0.36493 0.12694-0.1428 0.31734-0.1428 0.15867 0 0.5712 0.22213 0.55533 0.2856 1.0948 0.46014 0.53947 0.17453 1.2852 0.17453 1.1265 0 1.6977-0.60293 0.5712-0.58707 0.5712-1.7295v-1.3645q-0.3332 0.74573-1.0313 1.1424-0.68227 0.39667-1.6184 0.39667-1.0155 0-1.8088-0.476-0.77747-0.476-1.2217-1.3487-0.4284-0.87267-0.4284-2.0151 0-1.1424 0.4284-2.0151 0.44427-0.87267 1.2217-1.3487 0.79334-0.476 1.8088-0.476 0.92027 0 1.6025 0.39666 0.68227 0.39667 1.0313 1.1265v-0.8568q0-0.2856 0.15866-0.46014 0.17454-0.17453 0.476-0.17453zm-3.0147 6.5847q1.1107 0 1.7453-0.72987 0.63467-0.74573 0.63467-2.0468 0-1.2852-0.63467-2.0151-0.6188-0.74574-1.7453-0.74574-1.1265 0-1.7771 0.74574-0.63467 0.72986-0.63467 2.0151 0 1.3011 0.63467 2.0468 0.65054 0.72987 1.7771 0.72987z" style="font-variant-caps:normal;font-variant-east-asian:normal;font-variant-ligatures:normal;font-variant-numeric:normal"/>
 </g>
</svg>
