<?xml version="1.0" encoding="UTF-8" standalone="no"?>
<svg
   xmlns:dc="http://purl.org/dc/elements/1.1/"
   xmlns:cc="http://creativecommons.org/ns#"
   xmlns:rdf="http://www.w3.org/1999/02/22-rdf-syntax-ns#"
   xmlns:svg="http://www.w3.org/2000/svg"
   xmlns="http://www.w3.org/2000/svg"
   viewBox="0 0 490 360"
   height="360"
   width="490"
   id="svg2"
   version="1.1">
  <metadata
     id="metadata8">
    <rdf:RDF>
      <cc:Work
         rdf:about="">
        <dc:format>image/svg+xml</dc:format>
        <dc:type
           rdf:resource="http://purl.org/dc/dcmitype/StillImage" />
        <dc:title></dc:title>
      </cc:Work>
    </rdf:RDF>
  </metadata>
  <defs
     id="defs6">
    <filter
       style="color-interpolation-filters:sRGB"
       id="filter2593"
       x="-0.019605923"
       width="1.0392118"
       y="-0.030932615"
       height="1.0618652">
      <feGaussianBlur
         stdDeviation="4.5932715"
         id="feGaussianBlur2595" />
    </filter>
    <filter
       height="1.0927978"
       y="-0.046398921"
       width="1.0588178"
       x="-0.029408884"
       id="filter964"
       style="color-interpolation-filters:sRGB">
      <feGaussianBlur
         id="feGaussianBlur966"
         stdDeviation="6.8899073" />
    </filter>
  </defs>
  <path
     id="rect2511"
     d="M 0,0 H 490 V 360 H 0 Z"
     style="opacity:1;fill:#ffffff;fill-opacity:1;stroke:none;stroke-width:1.50943947;stroke-linecap:round;stroke-linejoin:round;stroke-miterlimit:4;stroke-dasharray:none;stroke-dashoffset:0;stroke-opacity:1" />
  <path
     transform="matrix(0.74990821,0,0,0.74990821,-2195.1712,-3756.0589)"
     id="rect2574"
     d="m 2989.8262,5074.0469 c -6.4637,0 -11.668,5.2043 -11.668,11.6679 v 333.0469 c 0,6.4637 5.2043,11.668 11.668,11.668 h 156.2695 c 6.4637,0 11.668,-5.2043 11.668,-11.668 v -333.0469 c 0,-6.4636 -5.2043,-11.6679 -11.668,-11.6679 z m 190.9179,0 c -6.4636,0 -11.6679,5.2043 -11.6679,11.6679 v 333.0469 c 0,6.4637 5.2043,11.668 11.6679,11.668 h 156.2715 c 6.4637,0 11.666,-5.2043 11.666,-11.668 v -333.0469 c 0,-6.4636 -5.2023,-11.6679 -11.666,-11.6679 z m 191.7481,0 c -6.4637,0 -11.668,5.2043 -11.668,11.6679 v 333.0469 c 0,6.4637 5.2043,11.668 11.668,11.668 h 156.2695 c 6.4637,0 11.668,-5.2043 11.668,-11.668 v -333.0469 c 0,-6.4636 -5.2043,-11.6679 -11.668,-11.6679 z"
     style="opacity:0.55400002;fill:#a4b8d4;fill-opacity:1;stroke:none;stroke-width:2;stroke-linecap:round;stroke-linejoin:round;stroke-miterlimit:4;stroke-dasharray:none;stroke-dashoffset:0;stroke-opacity:1;filter:url(#filter964)" />
  <path
     id="rect2529"
     d="M 329.88791,46.373179 H 447.0765 c 4.84716,0 8.74936,3.902223 8.74936,8.749375 V 304.87745 c 0,4.84716 -3.9022,8.74937 -8.74936,8.74937 H 329.88791 c -4.84717,0 -8.7494,-3.90221 -8.7494,-8.74937 V 55.122554 c 0,-4.847152 3.90223,-8.749375 8.7494,-8.749375 z"
     style="opacity:1;fill:#ffffff;fill-opacity:1;stroke:none;stroke-width:1.49981642;stroke-linecap:round;stroke-linejoin:round;stroke-miterlimit:4;stroke-dasharray:none;stroke-dashoffset:0;stroke-opacity:1" />
  <path
     id="rect2527"
     d="m 186.09501,46.373179 h 117.18861 c 4.84716,0 8.74936,3.902223 8.74936,8.749375 V 304.87745 c 0,4.84716 -3.9022,8.74937 -8.74936,8.74937 H 186.09501 c -4.84716,0 -8.74938,-3.90221 -8.74938,-8.74937 V 55.122554 c 0,-4.847152 3.90222,-8.749375 8.74938,-8.749375 z"
     style="opacity:1;fill:#ffffff;fill-opacity:1;stroke:none;stroke-width:1.49981642;stroke-linecap:round;stroke-linejoin:round;stroke-miterlimit:4;stroke-dasharray:none;stroke-dashoffset:0;stroke-opacity:1" />
  <path
     id="rect2513"
     d="m 42.92351,46.373179 h 117.1886 c 4.84716,0 8.74938,3.902223 8.74938,8.749375 V 304.87745 c 0,4.84716 -3.90222,8.74937 -8.74938,8.74937 H 42.92351 c -4.84715,0 -8.74937,-3.90221 -8.74937,-8.74937 V 55.122554 c 0,-4.847152 3.90222,-8.749375 8.74937,-8.749375 z"
     style="opacity:1;fill:#ffffff;fill-opacity:1;stroke:none;stroke-width:1.49981642;stroke-linecap:round;stroke-linejoin:round;stroke-miterlimit:4;stroke-dasharray:none;stroke-dashoffset:0;stroke-opacity:1" />
  <path
     d="m 77.4288,122.38962 v 5.09802 h 2.3082 q 1.28132,0 1.98105,-0.66337 0.69973,-0.66338 0.69973,-1.89018 0,-1.21771 -0.69973,-1.88109 -0.69973,-0.66338 -1.98105,-0.66338 z m -1.83565,-1.5085 H 79.737 q 2.28093,0 3.44412,1.03596 1.17227,1.02687 1.17227,3.01701 0,2.00831 -1.17227,3.03519 -1.16319,1.02687 -3.44412,1.02687 h -2.3082 v 5.45244 h -1.83565 z"
     style="font-style:normal;font-variant:normal;font-weight:normal;font-stretch:normal;font-size:6.56634045px;line-height:1.25;font-family:sans-serif;-inkscape-font-specification:'sans-serif, Normal';font-variant-ligatures:normal;font-variant-caps:normal;font-variant-numeric:normal;font-feature-settings:normal;text-align:start;letter-spacing:0px;word-spacing:0px;writing-mode:lr-tb;text-anchor:start;fill:#a4b8d4;fill-opacity:1;stroke:none;stroke-width:0.46527427"
     id="path2799" />
  <path
     d="m 86.75246,120.30861 h 1.67208 v 14.13998 h -1.67208 z"
     style="font-style:normal;font-variant:normal;font-weight:normal;font-stretch:normal;font-size:6.56634045px;line-height:1.25;font-family:sans-serif;-inkscape-font-specification:'sans-serif, Normal';font-variant-ligatures:normal;font-variant-caps:normal;font-variant-numeric:normal;font-feature-settings:normal;text-align:start;letter-spacing:0px;word-spacing:0px;writing-mode:lr-tb;text-anchor:start;fill:#a4b8d4;fill-opacity:1;stroke:none;stroke-width:0.46527427"
     id="path2801" />
  <path
     d="m 96.53958,129.33238 q -2.02649,0 -2.808,0.46346 -0.78152,0.46346 -0.78152,1.58121 0,0.89056 0.5816,1.41763 0.59067,0.51798 1.59938,0.51798 1.39037,0 2.22641,-0.98144 0.84512,-0.99052 0.84512,-2.62625 v -0.37259 z m 3.33507,-0.69064 v 5.80685 h -1.67208 v -1.54486 q -0.5725,0.92691 -1.42672,1.37219 -0.85421,0.4362 -2.0901,0.4362 -1.56303,0 -2.48994,-0.87239 -0.91783,-0.88148 -0.91783,-2.35363 0,-1.71752 1.14501,-2.58991 1.1541,-0.87239 3.43504,-0.87239 h 2.34454 v -0.16357 q 0,-1.1541 -0.76334,-1.78112 -0.75425,-0.63612 -2.12645,-0.63612 -0.87239,0 -1.69934,0.209 -0.82695,0.209 -1.59029,0.62703 v -1.54486 q 0.91783,-0.3544 1.78113,-0.52706 0.8633,-0.18177 1.68117,-0.18177 2.20823,0 3.29872,1.14501 1.09048,1.14502 1.09048,3.47139 z"
     style="font-style:normal;font-variant:normal;font-weight:normal;font-stretch:normal;font-size:6.56634045px;line-height:1.25;font-family:sans-serif;-inkscape-font-specification:'sans-serif, Normal';font-variant-ligatures:normal;font-variant-caps:normal;font-variant-numeric:normal;font-feature-settings:normal;text-align:start;letter-spacing:0px;word-spacing:0px;writing-mode:lr-tb;text-anchor:start;fill:#a4b8d4;fill-opacity:1;stroke:none;stroke-width:0.46527427"
     id="path2803" />
  <path
     d="m 111.78822,128.30551 v 6.14308 h -1.67208 v -6.08855 q 0,-1.4449 -0.56342,-2.1628 -0.56342,-0.71791 -1.69025,-0.71791 -1.35402,0 -2.13554,0.86331 -0.78151,0.8633 -0.78151,2.35363 v 5.75232 h -1.68117 v -10.17788 h 1.68117 v 1.58121 q 0.59976,-0.91783 1.40854,-1.3722 0.81787,-0.45437 1.88109,-0.45437 1.75387,0 2.65352,1.09049 0.89965,1.0814 0.89965,3.18967 z"
     style="font-style:normal;font-variant:normal;font-weight:normal;font-stretch:normal;font-size:6.56634045px;line-height:1.25;font-family:sans-serif;-inkscape-font-specification:'sans-serif, Normal';font-variant-ligatures:normal;font-variant-caps:normal;font-variant-numeric:normal;font-feature-settings:normal;text-align:start;letter-spacing:0px;word-spacing:0px;writing-mode:lr-tb;text-anchor:start;fill:#a4b8d4;fill-opacity:1;stroke:none;stroke-width:0.46527427"
     id="path2805" />
  <path
     d="m 121.62077,132.90373 h 2.99884 v -10.35054 l -3.26237,0.65429 v -1.67207 l 3.24419,-0.65429 h 1.83565 v 12.02261 h 2.99884 v 1.54486 h -7.81515 z"
     style="font-style:normal;font-variant:normal;font-weight:normal;font-stretch:normal;font-size:6.56634045px;line-height:1.25;font-family:sans-serif;-inkscape-font-specification:'sans-serif, Normal';font-variant-ligatures:normal;font-variant-caps:normal;font-variant-numeric:normal;font-feature-settings:normal;text-align:start;letter-spacing:0px;word-spacing:0px;writing-mode:lr-tb;text-anchor:start;fill:#a4b8d4;fill-opacity:1;stroke:none;stroke-width:0.46527427"
     id="path2807" />
  <path
     d="m 224.03586,122.38962 v 5.09802 h 2.30819 q 1.28133,0 1.98105,-0.66337 0.69973,-0.66338 0.69973,-1.89018 0,-1.21771 -0.69973,-1.88109 -0.69972,-0.66338 -1.98105,-0.66338 z m -1.83566,-1.5085 h 4.14385 q 2.28094,0 3.44413,1.03596 1.17227,1.02687 1.17227,3.01701 0,2.00831 -1.17227,3.03519 -1.16319,1.02687 -3.44413,1.02687 h -2.30819 v 5.45244 h -1.83566 z"
     style="font-style:normal;font-variant:normal;font-weight:normal;font-stretch:normal;font-size:6.56634045px;line-height:1.25;font-family:sans-serif;-inkscape-font-specification:'sans-serif, Normal';font-variant-ligatures:normal;font-variant-caps:normal;font-variant-numeric:normal;font-feature-settings:normal;text-align:start;letter-spacing:0px;word-spacing:0px;writing-mode:lr-tb;text-anchor:start;fill:#a4b8d4;fill-opacity:1;stroke:none;stroke-width:0.46527427"
     id="path2788" />
  <path
     d="m 233.35952,120.30861 h 1.67208 v 14.13998 h -1.67208 z"
     style="font-style:normal;font-variant:normal;font-weight:normal;font-stretch:normal;font-size:6.56634045px;line-height:1.25;font-family:sans-serif;-inkscape-font-specification:'sans-serif, Normal';font-variant-ligatures:normal;font-variant-caps:normal;font-variant-numeric:normal;font-feature-settings:normal;text-align:start;letter-spacing:0px;word-spacing:0px;writing-mode:lr-tb;text-anchor:start;fill:#a4b8d4;fill-opacity:1;stroke:none;stroke-width:0.46527427"
     id="path2790" />
  <path
     d="m 243.14666,129.33238 q -2.02651,0 -2.80804,0.46346 -0.7815,0.46346 -0.7815,1.58121 0,0.89056 0.5816,1.41763 0.59066,0.51798 1.59936,0.51798 1.39038,0 2.22644,-0.98144 0.8451,-0.99052 0.8451,-2.62625 v -0.37259 z m 3.33506,-0.69064 v 5.80685 h -1.6721 v -1.54486 q -0.5725,0.92691 -1.4267,1.37219 -0.85423,0.4362 -2.0901,0.4362 -1.56304,0 -2.48996,-0.87239 -0.91782,-0.88148 -0.91782,-2.35363 0,-1.71752 1.14501,-2.58991 1.1541,-0.87239 3.43504,-0.87239 h 2.34453 v -0.16357 q 0,-1.1541 -0.76333,-1.78112 -0.75423,-0.63612 -2.12644,-0.63612 -0.8724,0 -1.69936,0.209 -0.82695,0.209 -1.59029,0.62703 v -1.54486 q 0.91783,-0.3544 1.78112,-0.52706 0.8633,-0.18177 1.68116,-0.18177 2.20827,0 3.29874,1.14501 1.0905,1.14502 1.0905,3.47139 z"
     style="font-style:normal;font-variant:normal;font-weight:normal;font-stretch:normal;font-size:6.56634045px;line-height:1.25;font-family:sans-serif;-inkscape-font-specification:'sans-serif, Normal';font-variant-ligatures:normal;font-variant-caps:normal;font-variant-numeric:normal;font-feature-settings:normal;text-align:start;letter-spacing:0px;word-spacing:0px;writing-mode:lr-tb;text-anchor:start;fill:#a4b8d4;fill-opacity:1;stroke:none;stroke-width:0.46527427"
     id="path2792" />
  <path
     d="m 258.3953,128.30551 v 6.14308 h -1.6721 v -6.08855 q 0,-1.4449 -0.56343,-2.1628 -0.5634,-0.71791 -1.69023,-0.71791 -1.35403,0 -2.13553,0.86331 -0.78153,0.8633 -0.78153,2.35363 v 5.75232 h -1.68117 v -10.17788 h 1.68117 v 1.58121 q 0.59976,-0.91783 1.40856,-1.3722 0.81784,-0.45437 1.88107,-0.45437 1.75386,0 2.65352,1.09049 0.89967,1.0814 0.89967,3.18967 z"
     style="font-style:normal;font-variant:normal;font-weight:normal;font-stretch:normal;font-size:6.56634045px;line-height:1.25;font-family:sans-serif;-inkscape-font-specification:'sans-serif, Normal';font-variant-ligatures:normal;font-variant-caps:normal;font-variant-numeric:normal;font-feature-settings:normal;text-align:start;letter-spacing:0px;word-spacing:0px;writing-mode:lr-tb;text-anchor:start;fill:#a4b8d4;fill-opacity:1;stroke:none;stroke-width:0.46527427"
     id="path2794" />
  <path
     d="m 269.49098,132.90373 h 6.40662 v 1.54486 h -8.61485 v -1.54486 q 1.04504,-1.0814 2.84436,-2.89888 1.80837,-1.82656 2.27183,-2.35363 0.88147,-0.99053 1.2268,-1.67208 0.3544,-0.69064 0.3544,-1.35402 0,-1.0814 -0.76333,-1.76295 -0.75426,-0.68156 -1.97196,-0.68156 -0.8633,0 -1.82657,0.29989 -0.95416,0.29988 -2.04466,0.90873 v -1.85382 q 1.10866,-0.44529 2.07193,-0.67247 0.96326,-0.2272 1.76296,-0.2272 2.10826,0 3.36233,1.05414 1.25406,1.05413 1.25406,2.81709 0,0.83604 -0.31806,1.59029 -0.30897,0.74517 -1.13593,1.76295 -0.22731,0.26354 -1.4449,1.52669 -1.2177,1.25406 -3.43503,3.51681 z"
     style="font-style:normal;font-variant:normal;font-weight:normal;font-stretch:normal;font-size:6.56634045px;line-height:1.25;font-family:sans-serif;-inkscape-font-specification:'sans-serif, Normal';font-variant-ligatures:normal;font-variant-caps:normal;font-variant-numeric:normal;font-feature-settings:normal;text-align:start;letter-spacing:0px;word-spacing:0px;writing-mode:lr-tb;text-anchor:start;fill:#a4b8d4;fill-opacity:1;stroke:none;stroke-width:0.46527427"
     id="path2796" />
  <path
     d="m 359.78372,122.38962 v 5.09802 h 2.3082 q 1.2813,0 1.98103,-0.66337 0.69973,-0.66338 0.69973,-1.89018 0,-1.21771 -0.69973,-1.88109 -0.69973,-0.66338 -1.98103,-0.66338 z m -1.83566,-1.5085 h 4.14386 q 2.28093,0 3.44412,1.03596 1.17227,1.02687 1.17227,3.01701 0,2.00831 -1.17227,3.03519 -1.16319,1.02687 -3.44412,1.02687 h -2.3082 v 5.45244 h -1.83566 z"
     style="font-style:normal;font-variant:normal;font-weight:normal;font-stretch:normal;font-size:6.56634045px;line-height:1.25;font-family:sans-serif;-inkscape-font-specification:'sans-serif, Normal';font-variant-ligatures:normal;font-variant-caps:normal;font-variant-numeric:normal;font-feature-settings:normal;text-align:start;letter-spacing:0px;word-spacing:0px;writing-mode:lr-tb;text-anchor:start;fill:#a4b8d4;fill-opacity:1;stroke:none;stroke-width:0.46527427"
     id="path2777" />
  <path
     d="m 369.10737,120.30861 h 1.67207 v 14.13998 h -1.67207 z"
     style="font-style:normal;font-variant:normal;font-weight:normal;font-stretch:normal;font-size:6.56634045px;line-height:1.25;font-family:sans-serif;-inkscape-font-specification:'sans-serif, Normal';font-variant-ligatures:normal;font-variant-caps:normal;font-variant-numeric:normal;font-feature-settings:normal;text-align:start;letter-spacing:0px;word-spacing:0px;writing-mode:lr-tb;text-anchor:start;fill:#a4b8d4;fill-opacity:1;stroke:none;stroke-width:0.46527427"
     id="path2779" />
  <path
     d="m 378.89449,129.33238 q -2.0265,0 -2.808,0.46346 -0.78153,0.46346 -0.78153,1.58121 0,0.89056 0.5816,1.41763 0.5907,0.51798 1.5994,0.51798 1.39036,0 2.2264,-0.98144 0.84513,-0.99052 0.84513,-2.62625 v -0.37259 z m 3.33506,-0.69064 v 5.80685 h -1.67206 v -1.54486 q -0.5725,0.92691 -1.42673,1.37219 -0.8542,0.4362 -2.0901,0.4362 -1.56303,0 -2.48993,-0.87239 -0.91783,-0.88148 -0.91783,-2.35363 0,-1.71752 1.145,-2.58991 1.1541,-0.87239 3.43503,-0.87239 h 2.34456 v -0.16357 q 0,-1.1541 -0.76334,-1.78112 -0.75426,-0.63612 -2.12646,-0.63612 -0.87239,0 -1.69933,0.209 -0.82696,0.209 -1.5903,0.62703 v -1.54486 q 0.91783,-0.3544 1.78113,-0.52706 0.8633,-0.18177 1.68117,-0.18177 2.20823,0 3.29872,1.14501 1.09047,1.14502 1.09047,3.47139 z"
     style="font-style:normal;font-variant:normal;font-weight:normal;font-stretch:normal;font-size:6.56634045px;line-height:1.25;font-family:sans-serif;-inkscape-font-specification:'sans-serif, Normal';font-variant-ligatures:normal;font-variant-caps:normal;font-variant-numeric:normal;font-feature-settings:normal;text-align:start;letter-spacing:0px;word-spacing:0px;writing-mode:lr-tb;text-anchor:start;fill:#a4b8d4;fill-opacity:1;stroke:none;stroke-width:0.46527427"
     id="path2781" />
  <path
     d="m 394.14313,128.30551 v 6.14308 h -1.67209 v -6.08855 q 0,-1.4449 -0.56341,-2.1628 -0.56343,-0.71791 -1.69026,-0.71791 -1.35403,0 -2.13553,0.86331 -0.78153,0.8633 -0.78153,2.35363 v 5.75232 h -1.68116 v -10.17788 h 1.68116 v 1.58121 q 0.5998,-0.91783 1.40856,-1.3722 0.81787,-0.45437 1.8811,-0.45437 1.75386,0 2.6535,1.09049 0.89966,1.0814 0.89966,3.18967 z"
     style="font-style:normal;font-variant:normal;font-weight:normal;font-stretch:normal;font-size:6.56634045px;line-height:1.25;font-family:sans-serif;-inkscape-font-specification:'sans-serif, Normal';font-variant-ligatures:normal;font-variant-caps:normal;font-variant-numeric:normal;font-feature-settings:normal;text-align:start;letter-spacing:0px;word-spacing:0px;writing-mode:lr-tb;text-anchor:start;fill:#a4b8d4;fill-opacity:1;stroke:none;stroke-width:0.46527427"
     id="path2783" />
  <path
     d="m 409.21911,127.13324 q 1.31766,0.2817 2.05373,1.17227 0.74516,0.89056 0.74516,2.19915 0,2.00831 -1.38126,3.10788 -1.3813,1.09958 -3.92576,1.09958 -0.8542,0 -1.76296,-0.17267 -0.89964,-0.16356 -1.8629,-0.4998 v -1.77204 q 0.76333,0.44528 1.67206,0.67246 0.90876,0.2272 1.89927,0.2272 1.72662,0 2.62626,-0.68155 0.90873,-0.68156 0.90873,-1.98105 0,-1.19954 -0.8451,-1.87201 -0.83606,-0.68155 -2.33546,-0.68155 h -1.58123 v -1.50851 h 1.65393 q 1.354,0 2.0719,-0.53615 0.71792,-0.54524 0.71792,-1.56303 0,-1.04505 -0.74516,-1.59938 -0.7361,-0.56342 -2.11736,-0.56342 -0.75427,0 -1.61757,0.16357 -0.8633,0.16356 -1.89926,0.50889 v -1.63573 q 1.04503,-0.2908 1.9538,-0.43619 0.9178,-0.1454 1.72659,-0.1454 2.0901,0 3.3078,0.95417 1.21773,0.94509 1.21773,2.56264 0,1.12684 -0.64523,1.90836 -0.6452,0.77242 -1.83563,1.07231 z"
     style="font-style:normal;font-variant:normal;font-weight:normal;font-stretch:normal;font-size:6.56634045px;line-height:1.25;font-family:sans-serif;-inkscape-font-specification:'sans-serif, Normal';font-variant-ligatures:normal;font-variant-caps:normal;font-variant-numeric:normal;font-feature-settings:normal;text-align:start;letter-spacing:0px;word-spacing:0px;writing-mode:lr-tb;text-anchor:start;fill:#a4b8d4;fill-opacity:1;stroke:none;stroke-width:0.46527427"
     id="path2785" />
  <path
     id="rect2531"
     d="m 81.30796,66.585193 h 40.41969 c 2.12918,0 3.84328,1.714104 3.84328,3.843281 0,2.129176 -1.7141,3.843278 -3.84328,3.843278 H 81.30796 c -2.12918,0 -3.84328,-1.714102 -3.84328,-3.843278 0,-2.129177 1.7141,-3.843281 3.84328,-3.843281 z"
     style="opacity:1;fill:#b05c69;fill-opacity:1;stroke:none;stroke-width:1.55405319;stroke-linecap:round;stroke-linejoin:round;stroke-miterlimit:4;stroke-dasharray:none;stroke-dashoffset:0;stroke-opacity:1" />
  <path
     id="rect2533"
     d="m 225.55748,66.585193 h 40.41971 c 2.12918,0 3.84328,1.714104 3.84328,3.843281 0,2.129176 -1.7141,3.843278 -3.84328,3.843278 h -40.41971 c -2.12918,0 -3.84328,-1.714102 -3.84328,-3.843278 0,-2.129177 1.7141,-3.843281 3.84328,-3.843281 z"
     style="opacity:1;fill:#b05c69;fill-opacity:1;stroke:none;stroke-width:1.55405319;stroke-linecap:round;stroke-linejoin:round;stroke-miterlimit:4;stroke-dasharray:none;stroke-dashoffset:0;stroke-opacity:1" />
  <path
     id="rect2535"
     d="m 368.27236,66.585193 h 40.41971 c 2.12918,0 3.84328,1.714104 3.84328,3.843281 0,2.129176 -1.7141,3.843278 -3.84328,3.843278 h -40.41971 c -2.12918,0 -3.84328,-1.714102 -3.84328,-3.843278 0,-2.129177 1.7141,-3.843281 3.84328,-3.843281 z"
     style="opacity:1;fill:#b05c69;fill-opacity:1;stroke:none;stroke-width:1.55405319;stroke-linecap:round;stroke-linejoin:round;stroke-miterlimit:4;stroke-dasharray:none;stroke-dashoffset:0;stroke-opacity:1" />
  <path
     id="rect2537"
     d="m 65.99582,84.94543 c -0.69706,0 -1.25815,0.56109 -1.25815,1.25816 0,0.69706 0.56109,1.25814 1.25815,1.25814 h 33.42072 c 0.69706,0 1.25814,-0.56108 1.25814,-1.25814 0,-0.69707 -0.56108,-1.25816 -1.25814,-1.25816 z m 37.40167,0 c -0.69706,0 -1.25814,0.56109 -1.25814,1.25816 0,0.69706 0.56108,1.25814 1.25814,1.25814 h 7.73636 c 0.69706,0 1.25814,-0.56108 1.25814,-1.25814 0,-0.69707 -0.56108,-1.25816 -1.25814,-1.25816 z m 11.78176,0 c -0.69706,0 -1.25961,0.56109 -1.25961,1.25816 0,0.69706 0.56255,1.25814 1.25961,1.25814 h 21.06481 c 0.69706,0 1.25815,-0.56108 1.25815,-1.25814 0,-0.69707 -0.56109,-1.25816 -1.25815,-1.25816 z M 59.59231,90.9447 c -0.69706,0 -1.25962,0.56109 -1.25962,1.25815 0,0.69706 0.56256,1.25814 1.25962,1.25814 h 22.65835 c 0.69707,0 1.25816,-0.56108 1.25816,-1.25814 0,-0.69706 -0.56109,-1.25815 -1.25816,-1.25815 z m 27.88721,0 c -0.69706,0 -1.25961,0.56109 -1.25961,1.25815 0,0.69706 0.56255,1.25814 1.25961,1.25814 h 31.46978 c 0.69706,0 1.25815,-0.56108 1.25815,-1.25814 0,-0.69706 -0.56109,-1.25815 -1.25815,-1.25815 z m 36.69863,0 c -0.69706,0 -1.25961,0.56109 -1.25961,1.25815 0,0.69706 0.56255,1.25814 1.25961,1.25814 h 13.94068 c 0.69707,0 1.25815,-0.56108 1.25815,-1.25814 0,-0.69706 -0.56108,-1.25815 -1.25815,-1.25815 z m -62.26728,5.96558 c -0.69707,0 -1.25815,0.56109 -1.25815,1.25815 0,0.69706 0.56108,1.25814 1.25815,1.25814 h 22.65982 c 0.69707,0 1.25815,-0.56108 1.25815,-1.25814 0,-0.69706 -0.56108,-1.25815 -1.25815,-1.25815 z m 26.52801,0 c -0.69707,0 -1.25815,0.56109 -1.25815,1.25815 0,0.69706 0.56108,1.25814 1.25815,1.25814 h 14.03587 c 0.69707,0 1.25815,-0.56108 1.25815,-1.25814 0,-0.69706 -0.56108,-1.25815 -1.25815,-1.25815 z m 17.99779,0 c -0.69706,0 -1.25815,0.56109 -1.25815,1.25815 0,0.69706 0.56109,1.25814 1.25815,1.25814 h 34.09592 c 0.69707,0 1.25816,-0.56108 1.25816,-1.25814 0,-0.69706 -0.56109,-1.25815 -1.25816,-1.25815 z"
     style="opacity:1;fill:#a4b8d4;fill-opacity:1;stroke:none;stroke-width:0.76853234;stroke-linecap:round;stroke-linejoin:round;stroke-miterlimit:4;stroke-dasharray:none;stroke-dashoffset:0;stroke-opacity:1" />
  <path
     style="opacity:1;fill:#a4b8d4;fill-opacity:1;stroke:none;stroke-width:0.62255961;stroke-linecap:round;stroke-linejoin:round;stroke-miterlimit:4;stroke-dasharray:none;stroke-dashoffset:0;stroke-opacity:1"
     d="m 65.99694,174.26735 c -0.69711,0 -1.25819,0.56252 -1.25819,1.25956 0,0.6971 0.56108,1.25818 1.25819,1.25818 h 33.41921 c 0.69704,0 1.25812,-0.56108 1.25812,-1.25818 0,-0.69704 -0.56108,-1.25956 -1.25812,-1.25956 z m 37.40167,0 c -0.69711,0 -1.25819,0.56252 -1.25819,1.25956 0,0.6971 0.56108,1.25818 1.25819,1.25818 h 7.73486 c 0.69704,0 1.25812,-0.56108 1.25812,-1.25818 0,-0.69704 -0.56108,-1.25956 -1.25812,-1.25956 z m 11.78024,0 c -0.69704,0 -1.25812,0.56108 -1.25812,1.25812 0,0.69712 0.56108,1.2582 1.25812,1.2582 h 21.06484 c 0.69704,0 1.25812,-0.56108 1.25812,-1.2582 0,-0.69704 -0.56108,-1.25812 -1.25812,-1.25812 z m -55.58695,5.80011 c -0.69704,0 -1.25812,0.56108 -1.25812,1.25812 0,0.69703 0.56108,1.25811 1.25812,1.25811 h 22.6584 c 0.69704,0 1.25812,-0.56108 1.25812,-1.25811 0,-0.69704 -0.56108,-1.25812 -1.25812,-1.25812 z m 27.88721,0 c -0.69704,0 -1.25812,0.56108 -1.25812,1.25812 0,0.69703 0.56108,1.25811 1.25812,1.25811 h 31.46983 c 0.69703,0 1.25812,-0.56108 1.25812,-1.25811 0,-0.69704 -0.56109,-1.25812 -1.25812,-1.25812 z m 36.69863,0 c -0.69704,0 -1.25812,0.56108 -1.25812,1.25812 0,0.69703 0.56108,1.25811 1.25812,1.25811 h 13.94072 c 0.69704,0 1.25813,-0.56108 1.25813,-1.25811 0,-0.69704 -0.56109,-1.25812 -1.25813,-1.25812 z m -62.26577,5.80008 c -0.69704,0 -1.25812,0.56108 -1.25812,1.25812 -8e-5,0.69704 0.56108,1.25811 1.25812,1.25811 h 22.65832 c 0.69712,0 1.2582,-0.56107 1.2582,-1.25811 0,-0.69704 -0.56108,-1.25812 -1.2582,-1.25812 z m 26.528,0 c -0.69704,0 -1.25812,0.56108 -1.25812,1.25812 -8e-5,0.69704 0.56108,1.25811 1.25812,1.25811 h 14.03438 c 0.69712,0 1.2582,-0.56107 1.2582,-1.25811 0,-0.69704 -0.56108,-1.25812 -1.2582,-1.25812 z m 17.9978,0 c -0.69704,0 -1.25812,0.56108 -1.25812,1.25812 -8e-5,0.69704 0.56108,1.25811 1.25812,1.25811 h 34.09442 c 0.69712,0 1.2582,-0.56107 1.2582,-1.25811 0,-0.69704 -0.56108,-1.25812 -1.2582,-1.25812 z m -36.9857,5.79858 c -0.69712,0 -1.2582,0.56252 -1.2582,1.25962 0,0.69704 0.56108,1.25811 1.2582,1.25811 h 61.13799 c 0.69704,0 1.25812,-0.56107 1.25812,-1.25811 8e-5,-0.6971 -0.56108,-1.25962 -1.25812,-1.25962 z m 18.02704,5.80002 c -0.69704,0 -1.25812,0.56116 -1.25812,1.2582 0,0.69704 0.56108,1.25812 1.25812,1.25812 h 31.46983 c 0.69703,0 1.25812,-0.56108 1.25812,-1.25812 0,-0.69704 -0.56109,-1.2582 -1.25812,-1.2582 z m -24.93002,6.2307 c -0.69704,0 -1.25812,0.56108 -1.25812,1.25817 0,0.69704 0.56108,1.25815 1.25812,1.25815 h 20.56098 c 0.69704,0 1.25962,-0.56111 1.25962,-1.25815 0,-0.69709 -0.56258,-1.25817 -1.25962,-1.25817 z m 24.93445,0 c -0.69704,0 -1.25813,0.56108 -1.25813,1.25817 0,0.69704 0.56109,1.25815 1.25813,1.25815 h 14.09302 c 0.69704,0 1.25962,-0.56111 1.25962,-1.25815 0,-0.69709 -0.56258,-1.25817 -1.25962,-1.25817 z m 17.71658,0 c -0.69704,0 -1.25812,0.56108 -1.25812,1.25817 0,0.69704 0.56108,1.25815 1.25812,1.25815 h 34.34054 c 0.69705,0 1.25963,-0.56111 1.25963,-1.25815 0,-0.69709 -0.56258,-1.25817 -1.25963,-1.25817 z m -36.95053,7.02603 c -0.69711,0 -1.2582,0.56107 -1.2582,1.25811 0,0.69713 0.56109,1.2582 1.2582,1.2582 h 31.83008 c 0.69704,0 1.25812,-0.56107 1.25812,-1.2582 0,-0.69704 -0.56108,-1.25811 -1.25812,-1.25811 z m 35.7275,0 c -0.69704,0 -1.25812,0.56107 -1.25812,1.25811 0,0.69713 0.56108,1.2582 1.25812,1.2582 h 8.3647 c 0.69712,0 1.2582,-0.56107 1.2582,-1.2582 0,-0.69704 -0.56108,-1.25811 -1.2582,-1.25811 z m 13.21713,0 c -0.69704,0 -1.25812,0.56107 -1.25812,1.25811 0,0.69713 0.56108,1.2582 1.25812,1.2582 h 21.30062 c 0.69712,0 1.2582,-0.56107 1.2582,-1.2582 0,-0.69704 -0.56108,-1.25811 -1.2582,-1.25811 z m -55.61911,6.1911 c -0.72824,0 -1.31527,0.56107 -1.31527,1.2582 0,0.69704 0.58703,1.25812 1.31527,1.25812 h 21.47924 c 0.72824,0 1.31534,-0.56108 1.31534,-1.25812 -7e-5,-0.69713 -0.5871,-1.2582 -1.31534,-1.2582 z m 26.5646,0 c -0.69704,0 -1.25812,0.56107 -1.25812,1.2582 0,0.69704 0.56108,1.25812 1.25812,1.25812 h 32.46577 c 0.69704,0 1.25962,-0.56108 1.25962,-1.25812 0,-0.69713 -0.56258,-1.2582 -1.25962,-1.2582 z m 36.93297,0 c -0.69703,0 -1.25812,0.56107 -1.25812,1.2582 0,0.69704 0.56109,1.25812 1.25812,1.25812 h 14.28051 c 0.69704,0 1.25962,-0.56108 1.25962,-1.25812 0,-0.69713 -0.56258,-1.2582 -1.25962,-1.2582 z m -61.69749,6.06959 c -0.69712,0 -1.2582,0.56108 -1.2582,1.25812 0,0.69712 0.56108,1.2582 1.2582,1.2582 H 85.8944 c 0.69704,0 1.25813,-0.56108 1.25813,-1.2582 0,-0.69704 -0.56109,-1.25812 -1.25813,-1.25812 z m 26.24679,0 c -0.69712,0 -1.2582,0.56108 -1.2582,1.25812 0,0.69712 0.56108,1.2582 1.2582,1.2582 h 13.77071 c 0.69711,0 1.25819,-0.56108 1.25819,-1.2582 0,-0.69704 -0.56108,-1.25812 -1.25819,-1.25812 z m 17.76487,0 c -0.69704,0 -1.25812,0.56108 -1.25812,1.25812 0,0.69712 0.56108,1.2582 1.25812,1.2582 h 33.52322 c 0.69712,0 1.2582,-0.56108 1.2582,-1.2582 0,-0.69704 -0.56108,-1.25812 -1.2582,-1.25812 z m -37.93478,6.06954 c -0.69712,0 -1.2582,0.56108 -1.2582,1.2582 0,0.69704 0.56108,1.25812 1.2582,1.25812 h 61.13799 c 0.69704,0 1.25812,-0.56108 1.25812,-1.25812 8e-5,-0.69712 -0.56108,-1.2582 -1.25812,-1.2582 z m 18.02704,6.06962 c -0.69704,0 -1.25812,0.56108 -1.25812,1.25812 0,0.69709 0.56108,1.25817 1.25812,1.25817 h 31.46983 c 0.69703,0 1.25812,-0.56108 1.25812,-1.25817 0,-0.69704 -0.56109,-1.25812 -1.25812,-1.25812 z m -24.93002,6.06951 c -0.69704,0 -1.25812,0.56108 -1.25812,1.2582 0,0.69704 0.56108,1.25812 1.25812,1.25812 h 20.56098 c 0.69704,0 1.25962,-0.56108 1.25962,-1.25812 0,-0.69712 -0.56258,-1.2582 -1.25962,-1.2582 z m 24.93445,0 c -0.69704,0 -1.25813,0.56108 -1.25813,1.2582 0,0.69704 0.56109,1.25812 1.25813,1.25812 h 14.09302 c 0.69704,0 1.25962,-0.56108 1.25962,-1.25812 0,-0.69712 -0.56258,-1.2582 -1.25962,-1.2582 z m 17.71658,0 c -0.69704,0 -1.25812,0.56108 -1.25812,1.2582 0,0.69704 0.56108,1.25812 1.25812,1.25812 h 34.34054 c 0.69705,0 1.25963,-0.56108 1.25963,-1.25812 0,-0.69712 -0.56258,-1.2582 -1.25963,-1.2582 z"
     id="path2553" />
  <path
     style="opacity:1;fill:#b05c69;fill-opacity:1;stroke:none;stroke-width:1.54242611;stroke-linecap:round;stroke-linejoin:round;stroke-miterlimit:4;stroke-dasharray:none;stroke-dashoffset:0;stroke-opacity:1"
     d="m 69.30411,268.28852 c -4.47995,0 -8.08641,3.60645 -8.08641,8.0864 0,4.47998 3.60646,8.08642 8.08641,8.08642 h 66.54851 c 4.47995,0 8.08641,-3.60644 8.08641,-8.08642 0,-4.47995 -3.60646,-8.0864 -8.08641,-8.0864 z m 14.02419,6.82828 h 38.50013 c 0.69704,0 1.2582,0.56108 1.2582,1.25812 0,0.69704 -0.56116,1.25814 -1.2582,1.25814 H 83.3283 c -0.69712,0 -1.2582,-0.5611 -1.2582,-1.25814 0,-0.69704 0.56108,-1.25812 1.2582,-1.25812 z"
     id="path2557" />
  <path
     id="path2559"
     d="m 210.43534,174.26735 c -0.69712,0 -1.2582,0.56252 -1.2582,1.25956 0,0.6971 0.56108,1.25818 1.2582,1.25818 h 33.41921 c 0.69704,0 1.25812,-0.56108 1.25812,-1.25818 0,-0.69704 -0.56108,-1.25956 -1.25812,-1.25956 z m 37.40168,0 c -0.69712,0 -1.2582,0.56252 -1.2582,1.25956 0,0.6971 0.56108,1.25818 1.2582,1.25818 h 7.73486 c 0.69704,0 1.25812,-0.56108 1.25812,-1.25818 0,-0.69704 -0.56108,-1.25956 -1.25812,-1.25956 z m 11.78023,0 c -0.69704,0 -1.25812,0.56108 -1.25812,1.25812 0,0.69712 0.56108,1.2582 1.25812,1.2582 h 21.06485 c 0.69704,0 1.25811,-0.56108 1.25811,-1.2582 0,-0.69704 -0.56107,-1.25812 -1.25811,-1.25812 z m -55.58695,5.80011 c -0.69704,0 -1.25813,0.56108 -1.25813,1.25812 0,0.69703 0.56109,1.25811 1.25813,1.25811 h 22.6584 c 0.69704,0 1.25812,-0.56108 1.25812,-1.25811 0,-0.69704 -0.56108,-1.25812 -1.25812,-1.25812 z m 27.88721,0 c -0.69704,0 -1.25812,0.56108 -1.25812,1.25812 0,0.69703 0.56108,1.25811 1.25812,1.25811 h 31.46984 c 0.69704,0 1.25811,-0.56108 1.25811,-1.25811 0,-0.69704 -0.56107,-1.25812 -1.25811,-1.25812 z m 36.69864,0 c -0.69704,0 -1.25812,0.56108 -1.25812,1.25812 0,0.69703 0.56108,1.25811 1.25812,1.25811 h 13.94072 c 0.69704,0 1.25812,-0.56108 1.25812,-1.25811 0,-0.69704 -0.56108,-1.25812 -1.25812,-1.25812 z m -62.26579,5.80008 c -0.69704,0 -1.25812,0.56108 -1.25812,1.25812 -7e-5,0.69704 0.56108,1.25811 1.25812,1.25811 h 22.65833 c 0.69711,0 1.2582,-0.56107 1.2582,-1.25811 0,-0.69704 -0.56109,-1.25812 -1.2582,-1.25812 z m 26.52801,0 c -0.69704,0 -1.25813,0.56108 -1.25813,1.25812 -7e-5,0.69704 0.56109,1.25811 1.25813,1.25811 h 14.03439 c 0.69712,0 1.2582,-0.56107 1.2582,-1.25811 0,-0.69704 -0.56108,-1.25812 -1.2582,-1.25812 z m 17.99782,0 c -0.69704,0 -1.25815,0.56108 -1.25815,1.25812 -6e-5,0.69704 0.56111,1.25811 1.25815,1.25811 h 34.0944 c 0.69712,0 1.2582,-0.56107 1.2582,-1.25811 0,-0.69704 -0.56108,-1.25812 -1.2582,-1.25812 z m -36.98572,5.79858 c -0.69712,0 -1.2582,0.56252 -1.2582,1.25962 0,0.69704 0.56108,1.25811 1.2582,1.25811 h 61.13799 c 0.69704,0 1.25812,-0.56107 1.25812,-1.25811 9e-5,-0.6971 -0.56108,-1.25962 -1.25812,-1.25962 z m 18.02704,5.80002 c -0.69704,0 -1.25812,0.56116 -1.25812,1.2582 0,0.69704 0.56108,1.25812 1.25812,1.25812 h 31.46984 c 0.69704,0 1.25811,-0.56108 1.25811,-1.25812 0,-0.69704 -0.56107,-1.2582 -1.25811,-1.2582 z m -24.93002,6.2307 c -0.69705,0 -1.25813,0.56108 -1.25813,1.25817 0,0.69704 0.56108,1.25815 1.25813,1.25815 h 20.56098 c 0.69704,0 1.25962,-0.56111 1.25962,-1.25815 0,-0.69709 -0.56258,-1.25817 -1.25962,-1.25817 z m 24.93444,0 c -0.69704,0 -1.25812,0.56108 -1.25812,1.25817 0,0.69704 0.56108,1.25815 1.25812,1.25815 h 14.09304 c 0.69704,0 1.25962,-0.56111 1.25962,-1.25815 0,-0.69709 -0.56258,-1.25817 -1.25962,-1.25817 z m 17.7166,0 c -0.69704,0 -1.25811,0.56108 -1.25811,1.25817 0,0.69704 0.56107,1.25815 1.25811,1.25815 h 34.34054 c 0.69704,0 1.25962,-0.56111 1.25962,-1.25815 0,-0.69709 -0.56258,-1.25817 -1.25962,-1.25817 z m -36.95054,7.02603 c -0.69712,0 -1.2582,0.56107 -1.2582,1.25811 0,0.69713 0.56108,1.2582 1.2582,1.2582 h 31.8301 c 0.69704,0 1.25812,-0.56107 1.25812,-1.2582 0,-0.69704 -0.56108,-1.25811 -1.25812,-1.25811 z m 35.72751,0 c -0.69703,0 -1.25811,0.56107 -1.25811,1.25811 0,0.69713 0.56108,1.2582 1.25811,1.2582 h 8.3647 c 0.69712,0 1.2582,-0.56107 1.2582,-1.2582 0,-0.69704 -0.56108,-1.25811 -1.2582,-1.25811 z m 13.21713,0 c -0.69704,0 -1.25811,0.56107 -1.25811,1.25811 0,0.69713 0.56107,1.2582 1.25811,1.2582 h 21.30061 c 0.69712,0 1.2582,-0.56107 1.2582,-1.2582 0,-0.69704 -0.56108,-1.25811 -1.2582,-1.25811 z m -55.61913,6.1911 c -0.72823,0 -1.31526,0.56107 -1.31526,1.2582 0,0.69704 0.58703,1.25812 1.31526,1.25812 h 21.47925 c 0.72824,0 1.31534,-0.56108 1.31534,-1.25812 -8e-5,-0.69713 -0.5871,-1.2582 -1.31534,-1.2582 z m 26.5646,0 c -0.69704,0 -1.25812,0.56107 -1.25812,1.2582 0,0.69704 0.56108,1.25812 1.25812,1.25812 h 32.46578 c 0.69704,0 1.25962,-0.56108 1.25962,-1.25812 0,-0.69713 -0.56258,-1.2582 -1.25962,-1.2582 z m 36.93301,0 c -0.69704,0 -1.25815,0.56107 -1.25815,1.2582 0,0.69704 0.56111,1.25812 1.25815,1.25812 h 14.2805 c 0.69704,0 1.25962,-0.56108 1.25962,-1.25812 0,-0.69713 -0.56258,-1.2582 -1.25962,-1.2582 z m -61.69753,6.06959 c -0.69711,0 -1.25819,0.56108 -1.25819,1.25812 0,0.69712 0.56108,1.2582 1.25819,1.2582 h 22.51922 c 0.69704,0 1.25812,-0.56108 1.25812,-1.2582 0,-0.69704 -0.56108,-1.25812 -1.25812,-1.25812 z m 26.24679,0 c -0.69712,0 -1.2582,0.56108 -1.2582,1.25812 0,0.69712 0.56108,1.2582 1.2582,1.2582 h 13.77073 c 0.69712,0 1.2582,-0.56108 1.2582,-1.2582 0,-0.69704 -0.56108,-1.25812 -1.2582,-1.25812 z m 17.76488,0 c -0.69704,0 -1.25812,0.56108 -1.25812,1.25812 0,0.69712 0.56108,1.2582 1.25812,1.2582 h 33.52324 c 0.69709,0 1.2582,-0.56108 1.2582,-1.2582 0,-0.69704 -0.56111,-1.25812 -1.2582,-1.25812 z m -37.93478,6.06954 c -0.69712,0 -1.2582,0.56108 -1.2582,1.2582 0,0.69704 0.56108,1.25812 1.2582,1.25812 h 61.13799 c 0.69704,0 1.25812,-0.56108 1.25812,-1.25812 9e-5,-0.69712 -0.56108,-1.2582 -1.25812,-1.2582 z m 18.02704,6.06962 c -0.69704,0 -1.25812,0.56108 -1.25812,1.25812 0,0.69709 0.56108,1.25817 1.25812,1.25817 h 31.46984 c 0.69704,0 1.25811,-0.56108 1.25811,-1.25817 0,-0.69704 -0.56107,-1.25812 -1.25811,-1.25812 z m -24.93002,6.06951 c -0.69705,0 -1.25813,0.56108 -1.25813,1.2582 0,0.69704 0.56108,1.25812 1.25813,1.25812 h 20.56098 c 0.69704,0 1.25962,-0.56108 1.25962,-1.25812 0,-0.69712 -0.56258,-1.2582 -1.25962,-1.2582 z m 24.93444,0 c -0.69704,0 -1.25812,0.56108 -1.25812,1.2582 0,0.69704 0.56108,1.25812 1.25812,1.25812 h 14.09304 c 0.69704,0 1.25962,-0.56108 1.25962,-1.25812 0,-0.69712 -0.56258,-1.2582 -1.25962,-1.2582 z m 17.7166,0 c -0.69704,0 -1.25811,0.56108 -1.25811,1.2582 0,0.69704 0.56107,1.25812 1.25811,1.25812 h 34.34054 c 0.69704,0 1.25962,-0.56108 1.25962,-1.25812 0,-0.69712 -0.56258,-1.2582 -1.25962,-1.2582 z"
     style="opacity:1;fill:#a4b8d4;fill-opacity:1;stroke:none;stroke-width:0.62255961;stroke-linecap:round;stroke-linejoin:round;stroke-miterlimit:4;stroke-dasharray:none;stroke-dashoffset:0;stroke-opacity:1" />
  <path
     id="path2561"
     d="m 211.41517,268.28852 c -4.47995,0 -8.08641,3.60645 -8.08641,8.0864 0,4.47998 3.60646,8.08642 8.08641,8.08642 h 66.54852 c 4.47995,0 8.0864,-3.60644 8.0864,-8.08642 0,-4.47995 -3.60645,-8.0864 -8.0864,-8.0864 z m 14.02418,6.82828 h 38.50015 c 0.69704,0 1.2582,0.56108 1.2582,1.25812 0,0.69704 -0.56116,1.25814 -1.2582,1.25814 h -38.50015 c -0.69711,0 -1.25819,-0.5611 -1.25819,-1.25814 0,-0.69704 0.56108,-1.25812 1.25819,-1.25812 z"
     style="opacity:1;fill:#b05c69;fill-opacity:1;stroke:none;stroke-width:1.54242611;stroke-linecap:round;stroke-linejoin:round;stroke-miterlimit:4;stroke-dasharray:none;stroke-dashoffset:0;stroke-opacity:1" />
  <path
     style="opacity:1;fill:#a4b8d4;fill-opacity:1;stroke:none;stroke-width:0.62255961;stroke-linecap:round;stroke-linejoin:round;stroke-miterlimit:4;stroke-dasharray:none;stroke-dashoffset:0;stroke-opacity:1"
     d="m 354.22821,174.26735 c -0.69709,0 -1.25817,0.56252 -1.25817,1.25956 0,0.6971 0.56108,1.25818 1.25817,1.25818 h 33.41922 c 0.69704,0 1.25812,-0.56108 1.25812,-1.25818 0,-0.69704 -0.56108,-1.25956 -1.25812,-1.25956 z m 37.40169,0 c -0.69712,0 -1.2582,0.56252 -1.2582,1.25956 0,0.6971 0.56108,1.25818 1.2582,1.25818 h 7.73486 c 0.69704,0 1.25812,-0.56108 1.25812,-1.25818 0,-0.69704 -0.56108,-1.25956 -1.25812,-1.25956 z m 11.78023,0 c -0.69704,0 -1.25812,0.56108 -1.25812,1.25812 0,0.69712 0.56108,1.2582 1.25812,1.2582 h 21.06484 c 0.69704,0 1.25812,-0.56108 1.25812,-1.2582 0,-0.69704 -0.56108,-1.25812 -1.25812,-1.25812 z m -55.58695,5.80011 c -0.69704,0 -1.25812,0.56108 -1.25812,1.25812 0,0.69703 0.56108,1.25811 1.25812,1.25811 h 22.6584 c 0.69704,0 1.25812,-0.56108 1.25812,-1.25811 0,-0.69704 -0.56108,-1.25812 -1.25812,-1.25812 z m 27.8872,0 c -0.69704,0 -1.25811,0.56108 -1.25811,1.25812 0,0.69703 0.56107,1.25811 1.25811,1.25811 h 31.46985 c 0.69703,0 1.25811,-0.56108 1.25811,-1.25811 0,-0.69704 -0.56108,-1.25812 -1.25811,-1.25812 z m 36.69864,0 c -0.69703,0 -1.25811,0.56108 -1.25811,1.25812 0,0.69703 0.56108,1.25811 1.25811,1.25811 h 13.94073 c 0.69704,0 1.25812,-0.56108 1.25812,-1.25811 0,-0.69704 -0.56108,-1.25812 -1.25812,-1.25812 z m -62.26577,5.80008 c -0.69704,0 -1.25812,0.56108 -1.25812,1.25812 -8e-5,0.69704 0.56108,1.25811 1.25812,1.25811 h 22.65832 c 0.69712,0 1.2582,-0.56107 1.2582,-1.25811 0,-0.69704 -0.56108,-1.25812 -1.2582,-1.25812 z m 26.52802,0 c -0.69707,0 -1.25815,0.56108 -1.25815,1.25812 -6e-5,0.69704 0.56108,1.25811 1.25815,1.25811 h 14.03437 c 0.69712,0 1.2582,-0.56107 1.2582,-1.25811 0,-0.69704 -0.56108,-1.25812 -1.2582,-1.25812 z m 17.99777,0 c -0.69704,0 -1.25812,0.56108 -1.25812,1.25812 -6e-5,0.69704 0.56108,1.25811 1.25812,1.25811 h 34.09443 c 0.69712,0 1.2582,-0.56107 1.2582,-1.25811 0,-0.69704 -0.56108,-1.25812 -1.2582,-1.25812 z m -36.98568,5.79858 c -0.69712,0 -1.2582,0.56252 -1.2582,1.25962 0,0.69704 0.56108,1.25811 1.2582,1.25811 h 61.13798 c 0.69704,0 1.25812,-0.56107 1.25812,-1.25811 8e-5,-0.6971 -0.56108,-1.25962 -1.25812,-1.25962 z m 18.02702,5.80002 c -0.69704,0 -1.25811,0.56116 -1.25811,1.2582 0,0.69704 0.56107,1.25812 1.25811,1.25812 h 31.46985 c 0.69703,0 1.25811,-0.56108 1.25811,-1.25812 0,-0.69704 -0.56108,-1.2582 -1.25811,-1.2582 z m -24.93001,6.2307 c -0.69704,0 -1.25812,0.56108 -1.25812,1.25817 0,0.69704 0.56108,1.25815 1.25812,1.25815 h 20.561 c 0.69704,0 1.25962,-0.56111 1.25962,-1.25815 0,-0.69709 -0.56258,-1.25817 -1.25962,-1.25817 z m 24.93446,0 c -0.69704,0 -1.25814,0.56108 -1.25814,1.25817 0,0.69704 0.5611,1.25815 1.25814,1.25815 h 14.09301 c 0.69704,0 1.25962,-0.56111 1.25962,-1.25815 0,-0.69709 -0.56258,-1.25817 -1.25962,-1.25817 z m 17.71658,0 c -0.69704,0 -1.25812,0.56108 -1.25812,1.25817 0,0.69704 0.56108,1.25815 1.25812,1.25815 h 34.34053 c 0.69704,0 1.25962,-0.56111 1.25962,-1.25815 0,-0.69709 -0.56258,-1.25817 -1.25962,-1.25817 z m -36.95053,7.02603 c -0.69712,0 -1.2582,0.56107 -1.2582,1.25811 0,0.69713 0.56108,1.2582 1.2582,1.2582 h 31.83009 c 0.69704,0 1.25811,-0.56107 1.25811,-1.2582 0,-0.69704 -0.56107,-1.25811 -1.25811,-1.25811 z m 35.7275,0 c -0.69704,0 -1.25811,0.56107 -1.25811,1.25811 0,0.69713 0.56107,1.2582 1.25811,1.2582 h 8.3647 c 0.69712,0 1.2582,-0.56107 1.2582,-1.2582 0,-0.69704 -0.56108,-1.25811 -1.2582,-1.25811 z m 13.21713,0 c -0.69704,0 -1.25812,0.56107 -1.25812,1.25811 0,0.69713 0.56108,1.2582 1.25812,1.2582 h 21.30061 c 0.69712,0 1.2582,-0.56107 1.2582,-1.2582 0,-0.69704 -0.56108,-1.25811 -1.2582,-1.25811 z m -55.61912,6.1911 c -0.72824,0 -1.31525,0.56107 -1.31525,1.2582 0,0.69704 0.58701,1.25812 1.31525,1.25812 h 21.47926 c 0.72821,0 1.31534,-0.56108 1.31534,-1.25812 -9e-5,-0.69713 -0.58713,-1.2582 -1.31534,-1.2582 z m 26.56461,0 c -0.69704,0 -1.25814,0.56107 -1.25814,1.2582 0,0.69704 0.5611,1.25812 1.25814,1.25812 h 32.46576 c 0.69704,0 1.25962,-0.56108 1.25962,-1.25812 0,-0.69713 -0.56258,-1.2582 -1.25962,-1.2582 z m 36.93295,0 c -0.69703,0 -1.25811,0.56107 -1.25811,1.2582 0,0.69704 0.56108,1.25812 1.25811,1.25812 h 14.28053 c 0.69704,0 1.25962,-0.56108 1.25962,-1.25812 0,-0.69713 -0.56258,-1.2582 -1.25962,-1.2582 z m -61.69749,6.06959 c -0.6971,0 -1.25818,0.56108 -1.25818,1.25812 0,0.69712 0.56108,1.2582 1.25818,1.2582 h 22.51924 c 0.69704,0 1.25811,-0.56108 1.25811,-1.2582 0,-0.69704 -0.56107,-1.25812 -1.25811,-1.25812 z m 26.24679,0 c -0.69712,0 -1.2582,0.56108 -1.2582,1.25812 0,0.69712 0.56108,1.2582 1.2582,1.2582 h 13.77073 c 0.69709,0 1.2582,-0.56108 1.2582,-1.2582 0,-0.69704 -0.56111,-1.25812 -1.2582,-1.25812 z m 17.76488,0 c -0.69704,0 -1.25812,0.56108 -1.25812,1.25812 0,0.69712 0.56108,1.2582 1.25812,1.2582 h 33.52323 c 0.6971,0 1.25818,-0.56108 1.25818,-1.2582 0,-0.69704 -0.56108,-1.25812 -1.25818,-1.25812 z m -37.93477,6.06954 c -0.69712,0 -1.2582,0.56108 -1.2582,1.2582 0,0.69704 0.56108,1.25812 1.2582,1.25812 h 61.13798 c 0.69704,0 1.25812,-0.56108 1.25812,-1.25812 8e-5,-0.69712 -0.56108,-1.2582 -1.25812,-1.2582 z m 18.02702,6.06962 c -0.69704,0 -1.25811,0.56108 -1.25811,1.25812 0,0.69709 0.56107,1.25817 1.25811,1.25817 h 31.46985 c 0.69703,0 1.25811,-0.56108 1.25811,-1.25817 0,-0.69704 -0.56108,-1.25812 -1.25811,-1.25812 z m -24.93001,6.06951 c -0.69704,0 -1.25812,0.56108 -1.25812,1.2582 0,0.69704 0.56108,1.25812 1.25812,1.25812 h 20.561 c 0.69704,0 1.25962,-0.56108 1.25962,-1.25812 0,-0.69712 -0.56258,-1.2582 -1.25962,-1.2582 z m 24.93446,0 c -0.69704,0 -1.25814,0.56108 -1.25814,1.2582 0,0.69704 0.5611,1.25812 1.25814,1.25812 h 14.09301 c 0.69704,0 1.25962,-0.56108 1.25962,-1.25812 0,-0.69712 -0.56258,-1.2582 -1.25962,-1.2582 z m 17.71658,0 c -0.69704,0 -1.25812,0.56108 -1.25812,1.2582 0,0.69704 0.56108,1.25812 1.25812,1.25812 h 34.34053 c 0.69704,0 1.25962,-0.56108 1.25962,-1.25812 0,-0.69712 -0.56258,-1.2582 -1.25962,-1.2582 z"
     id="path2563" />
  <path
     style="opacity:1;fill:#b05c69;fill-opacity:1;stroke:none;stroke-width:1.54242611;stroke-linecap:round;stroke-linejoin:round;stroke-miterlimit:4;stroke-dasharray:none;stroke-dashoffset:0;stroke-opacity:1"
     d="m 355.20806,268.28852 c -4.47995,0 -8.08643,3.60645 -8.08643,8.0864 0,4.47998 3.60648,8.08642 8.08643,8.08642 h 66.54851 c 4.47995,0 8.0864,-3.60644 8.0864,-8.08642 0,-4.47995 -3.60645,-8.0864 -8.0864,-8.0864 z m 14.02416,6.82828 h 38.50016 c 0.69703,0 1.2582,0.56108 1.2582,1.25812 0,0.69704 -0.56117,1.25814 -1.2582,1.25814 h -38.50016 c -0.69709,0 -1.25817,-0.5611 -1.25817,-1.25814 0,-0.69704 0.56108,-1.25812 1.25817,-1.25812 z"
     id="path2565" />
  <path
     style="opacity:1;fill:#a4b8d4;fill-opacity:1;stroke:none;stroke-width:0.76853234;stroke-linecap:round;stroke-linejoin:round;stroke-miterlimit:4;stroke-dasharray:none;stroke-dashoffset:0;stroke-opacity:1"
     d="m 211.70143,84.94543 c -0.69707,0 -1.25815,0.56109 -1.25815,1.25816 0,0.69706 0.56108,1.25814 1.25815,1.25814 h 33.42073 c 0.69707,0 1.25815,-0.56108 1.25815,-1.25814 0,-0.69707 -0.56108,-1.25816 -1.25815,-1.25816 z m 37.40168,0 c -0.69707,0 -1.25815,0.56109 -1.25815,1.25816 0,0.69706 0.56108,1.25814 1.25815,1.25814 h 7.73636 c 0.69706,0 1.25814,-0.56108 1.25814,-1.25814 0,-0.69707 -0.56108,-1.25816 -1.25814,-1.25816 z m 11.78175,0 c -0.69704,0 -1.25959,0.56109 -1.25959,1.25816 0,0.69706 0.56255,1.25814 1.25959,1.25814 h 21.06482 c 0.69707,0 1.25815,-0.56108 1.25815,-1.25814 0,-0.69707 -0.56108,-1.25816 -1.25815,-1.25816 z m -55.58695,5.99927 c -0.69706,0 -1.25961,0.56109 -1.25961,1.25815 0,0.69706 0.56255,1.25814 1.25961,1.25814 h 22.65836 c 0.69707,0 1.25815,-0.56108 1.25815,-1.25814 0,-0.69706 -0.56108,-1.25815 -1.25815,-1.25815 z m 27.88722,0 c -0.69706,0 -1.25962,0.56109 -1.25962,1.25815 0,0.69706 0.56256,1.25814 1.25962,1.25814 h 31.46977 c 0.69707,0 1.25818,-0.56108 1.25818,-1.25814 0,-0.69706 -0.56111,-1.25815 -1.25818,-1.25815 z m 36.69863,0 c -0.69704,0 -1.25959,0.56109 -1.25959,1.25815 0,0.69706 0.56255,1.25814 1.25959,1.25814 h 13.9407 c 0.69706,0 1.25814,-0.56108 1.25814,-1.25814 0,-0.69706 -0.56108,-1.25815 -1.25814,-1.25815 z m -62.26728,5.96558 c -0.69707,0 -1.25815,0.56109 -1.25815,1.25815 0,0.69707 0.56108,1.25815 1.25815,1.25815 h 22.65982 c 0.69707,0 1.25815,-0.56108 1.25815,-1.25815 0,-0.69706 -0.56108,-1.25815 -1.25815,-1.25815 z m 26.528,0 c -0.69707,0 -1.25815,0.56109 -1.25815,1.25815 0,0.69707 0.56108,1.25815 1.25815,1.25815 h 14.03589 c 0.69707,0 1.25815,-0.56108 1.25815,-1.25815 0,-0.69706 -0.56108,-1.25815 -1.25815,-1.25815 z m 17.99782,0 c -0.69707,0 -1.25815,0.56109 -1.25815,1.25815 0,0.69707 0.56108,1.25815 1.25815,1.25815 h 34.0959 c 0.69707,0 1.25817,-0.56108 1.25817,-1.25815 0,-0.69706 -0.5611,-1.25815 -1.25817,-1.25815 z"
     id="path2815" />
  <path
     id="path2817"
     d="m 354.4163,84.94543 c -0.69704,0 -1.25812,0.56109 -1.25812,1.25816 0,0.69706 0.56108,1.25814 1.25812,1.25814 h 33.42074 c 0.69707,0 1.25815,-0.56108 1.25815,-1.25814 0,-0.69707 -0.56108,-1.25816 -1.25815,-1.25816 z m 37.40169,0 c -0.69707,0 -1.25815,0.56109 -1.25815,1.25816 0,0.69706 0.56108,1.25814 1.25815,1.25814 h 7.73636 c 0.69706,0 1.25814,-0.56108 1.25814,-1.25814 0,-0.69707 -0.56108,-1.25816 -1.25814,-1.25816 z m 11.78175,0 c -0.69704,0 -1.25959,0.56109 -1.25959,1.25816 0,0.69706 0.56255,1.25814 1.25959,1.25814 h 21.06482 c 0.69707,0 1.25815,-0.56108 1.25815,-1.25814 0,-0.69707 -0.56108,-1.25816 -1.25815,-1.25816 z m -55.58695,5.99927 c -0.69706,0 -1.25962,0.56109 -1.25962,1.25815 0,0.69706 0.56256,1.25814 1.25962,1.25814 h 22.65835 c 0.6971,0 1.25817,-0.56108 1.25817,-1.25814 0,-0.69706 -0.56107,-1.25815 -1.25817,-1.25815 z m 27.88721,0 c -0.69704,0 -1.25959,0.56109 -1.25959,1.25815 0,0.69706 0.56255,1.25814 1.25959,1.25814 h 31.46978 c 0.69707,0 1.25818,-0.56108 1.25818,-1.25814 0,-0.69706 -0.56111,-1.25815 -1.25818,-1.25815 z m 36.69864,0 c -0.69704,0 -1.25959,0.56109 -1.25959,1.25815 0,0.69706 0.56255,1.25814 1.25959,1.25814 h 13.9407 c 0.69706,0 1.25814,-0.56108 1.25814,-1.25814 0,-0.69706 -0.56108,-1.25815 -1.25814,-1.25815 z m -62.26728,5.96558 c -0.69707,0 -1.25814,0.56109 -1.25814,1.25815 0,0.69707 0.56107,1.25815 1.25814,1.25815 h 22.65982 c 0.69707,0 1.25815,-0.56108 1.25815,-1.25815 0,-0.69706 -0.56108,-1.25815 -1.25815,-1.25815 z m 26.52802,0 c -0.6971,0 -1.25817,0.56109 -1.25817,1.25815 0,0.69707 0.56107,1.25815 1.25817,1.25815 h 14.03587 c 0.69707,0 1.25815,-0.56108 1.25815,-1.25815 0,-0.69706 -0.56108,-1.25815 -1.25815,-1.25815 z m 17.9978,0 c -0.69707,0 -1.25815,0.56109 -1.25815,1.25815 0,0.69707 0.56108,1.25815 1.25815,1.25815 h 34.0959 c 0.69707,0 1.25818,-0.56108 1.25818,-1.25815 0,-0.69706 -0.56111,-1.25815 -1.25818,-1.25815 z"
     style="opacity:1;fill:#a4b8d4;fill-opacity:1;stroke:none;stroke-width:0.76853234;stroke-linecap:round;stroke-linejoin:round;stroke-miterlimit:4;stroke-dasharray:none;stroke-dashoffset:0;stroke-opacity:1" />
</svg>
